<svg width="203" height="152" viewBox="0 0 203 152" fill="none" xmlns="http://www.w3.org/2000/svg">
<path d="M203 132.924H0V133.026H203V132.924Z" fill="#EBEBEB"/>
<path d="M182.659 139.457H169.213V139.558H182.659V139.457Z" fill="#EBEBEB"/>
<path d="M134.475 140.561H130.947V140.663H134.475V140.561Z" fill="#EBEBEB"/>
<path d="M168.807 135.689H161.016V135.791H168.807V135.689Z" fill="#EBEBEB"/>
<path d="M38.8339 136.371H21.2988V136.473H38.8339V136.371Z" fill="#EBEBEB"/>
<path d="M45.0213 136.371H42.4514V136.473H45.0213V136.371Z" fill="#EBEBEB"/>
<path d="M91.4109 138.085H53.3768V138.186H91.4109V138.085Z" fill="#EBEBEB"/>
<path d="M96.222 114.817H17.8274C17.2133 114.816 16.6247 114.571 16.1908 114.136C15.7569 113.702 15.5132 113.113 15.5132 112.499V2.29796C15.5186 1.68735 15.7646 1.1035 16.1979 0.673237C16.6312 0.242974 17.2168 0.00104601 17.8274 0H96.222C96.8368 0 97.4265 0.244245 97.8613 0.679003C98.296 1.11376 98.5403 1.70342 98.5403 2.31826V112.499C98.5403 113.113 98.296 113.703 97.8613 114.138C97.4265 114.573 96.8368 114.817 96.222 114.817ZM17.8274 0.0812003C17.2402 0.0822758 16.6774 0.3163 16.2626 0.731907C15.8477 1.14751 15.6147 1.71074 15.6147 2.29796V112.499C15.6147 113.086 15.8477 113.649 16.2626 114.065C16.6774 114.48 17.2402 114.714 17.8274 114.715H96.222C96.8096 114.714 97.3728 114.48 97.7883 114.065C98.2038 113.649 98.4377 113.086 98.4388 112.499V2.29796C98.4377 1.71037 98.2038 1.14715 97.7883 0.731659C97.3728 0.316169 96.8096 0.0822735 96.222 0.0812003H17.8274Z" fill="#EBEBEB"/>
<path d="M184.044 114.817H105.645C105.031 114.816 104.442 114.571 104.007 114.137C103.573 113.702 103.328 113.113 103.327 112.499V2.29796C103.333 1.68698 103.58 1.10313 104.014 0.672983C104.448 0.242832 105.034 0.00103461 105.645 0H184.044C184.654 0.00211303 185.238 0.244513 185.671 0.674662C186.103 1.10481 186.349 1.68805 186.354 2.29796V112.499C186.354 113.112 186.111 113.7 185.678 114.135C185.245 114.569 184.657 114.815 184.044 114.817ZM105.645 0.0812003C105.058 0.0822735 104.494 0.316169 104.079 0.731659C103.663 1.14715 103.43 1.71037 103.429 2.29796V112.499C103.43 113.086 103.663 113.649 104.079 114.065C104.494 114.48 105.058 114.714 105.645 114.715H184.044C184.631 114.714 185.195 114.48 185.61 114.065C186.026 113.649 186.26 113.086 186.261 112.499V2.29796C186.26 1.71037 186.026 1.14715 185.61 0.731659C185.195 0.316169 184.631 0.0822735 184.044 0.0812003H105.645Z" fill="#EBEBEB"/>
<path d="M122.307 69.1094H162.753V24.3804L122.307 24.3804V69.1094Z" fill="#E0E0E0"/>
<path d="M121.016 69.1094H162.964V24.3804L121.016 24.3804V69.1094Z" fill="#F0F0F0"/>
<path d="M122.795 67.0549H161.259V25.8053L122.795 25.8053V67.0549Z" fill="white"/>
<path d="M122.791 67.0549H123.903V25.8053H122.791V67.0549Z" fill="#E0E0E0"/>
<path d="M123.785 55.4678V56.5802H161.357V55.4678H123.785Z" fill="#E0E0E0"/>
<path d="M122.795 55.4678L161.856 55.4678V53.6002L122.795 53.6002V55.4678Z" fill="#F0F0F0"/>
<path d="M79.7605 35.8879C84.1362 34.5626 86.6091 29.9411 85.2838 25.5653C83.9585 21.1896 79.337 18.7168 74.9613 20.042C70.5855 21.3673 68.1127 25.9889 69.4379 30.3646C70.7632 34.7403 75.3848 37.2132 79.7605 35.8879Z" fill="#E0E0E0"/>
<path d="M78.4874 34.9184C82.3252 34.2954 84.9314 30.6792 84.3085 26.8413C83.6855 23.0034 80.0692 20.3972 76.2314 21.0202C72.3935 21.6432 69.7873 25.2594 70.4103 29.0973C71.0333 32.9352 74.6495 35.5413 78.4874 34.9184Z" fill="#F0F0F0"/>
<path d="M77.0304 32.8007V27.88L73.7662 29.7273" fill="#F0F0F0"/>
<path d="M77.0304 33.1539C76.984 33.1539 76.9381 33.1448 76.8952 33.127C76.8523 33.1093 76.8134 33.0833 76.7806 33.0505C76.7478 33.0177 76.7218 32.9787 76.704 32.9359C76.6863 32.893 76.6772 32.8471 76.6772 32.8007V28.4849L73.9407 30.044C73.9005 30.067 73.8562 30.0818 73.8103 30.0875C73.7643 30.0932 73.7177 30.0897 73.6731 30.0773C73.6286 30.0648 73.5869 30.0436 73.5506 30.0149C73.5143 29.9861 73.484 29.9505 73.4616 29.91C73.4163 29.8286 73.4049 29.7326 73.43 29.6429C73.4551 29.5531 73.5146 29.477 73.5956 29.4309L76.8436 27.5877C76.897 27.5578 76.9571 27.5421 77.0182 27.5421C77.0793 27.5421 77.1394 27.5578 77.1928 27.5877C77.2462 27.6185 77.2904 27.6629 77.3211 27.7164C77.3518 27.7699 77.3677 27.8305 77.3674 27.8922V32.8129C77.3644 32.9017 77.328 32.9861 77.2656 33.0493C77.2031 33.1126 77.1191 33.1499 77.0304 33.1539Z" fill="#E0E0E0"/>
<path d="M39.1303 129.453H30.3607V132.92H39.1303V129.453Z" fill="#F5F5F5"/>
<path d="M29.5892 129.453H25.5901V132.92H29.5892V129.453Z" fill="#F5F5F5"/>
<path d="M48.6632 129.453H39.8936V132.92H48.6632V129.453Z" fill="#F5F5F5"/>
<path d="M58.2001 129.453H49.4305V132.92H58.2001V129.453Z" fill="#F5F5F5"/>
<path d="M67.7371 129.453H58.9675V132.92H67.7371V129.453Z" fill="#F5F5F5"/>
<path d="M77.2699 129.453H68.5003V132.92H77.2699V129.453Z" fill="#F5F5F5"/>
<path d="M86.8068 129.453H78.0372V132.92H86.8068V129.453Z" fill="#F5F5F5"/>
<path d="M96.3438 129.453H87.5742V132.92H96.3438V129.453Z" fill="#F5F5F5"/>
<path d="M105.877 129.453H97.1071V132.92H105.877V129.453Z" fill="#F5F5F5"/>
<path d="M115.414 129.453H106.644V132.92H115.414V129.453Z" fill="#F5F5F5"/>
<path d="M124.951 129.453H116.181V132.92H124.951V129.453Z" fill="#F5F5F5"/>
<path d="M134.483 129.453H125.714V132.92H134.483V129.453Z" fill="#F5F5F5"/>
<path d="M144.02 129.453H135.251V132.92H144.02V129.453Z" fill="#F5F5F5"/>
<path d="M153.557 129.453H144.788V132.92H153.557V129.453Z" fill="#F5F5F5"/>
<path d="M163.09 129.453H154.321V132.92H163.09V129.453Z" fill="#F5F5F5"/>
<path d="M172.627 129.453H163.858V132.92H172.627V129.453Z" fill="#F5F5F5"/>
<path d="M177.394 129.453H173.395V132.92H177.394V129.453Z" fill="#F5F5F5"/>
<path d="M34.3597 125.109H25.5901V128.576H34.3597V125.109Z" fill="#F5F5F5"/>
<path d="M43.8967 125.109H35.1271V128.576H43.8967V125.109Z" fill="#F5F5F5"/>
<path d="M53.4337 125.109H44.6641V128.576H53.4337V125.109Z" fill="#F5F5F5"/>
<path d="M62.9666 125.109H54.197V128.576H62.9666V125.109Z" fill="#F5F5F5"/>
<path d="M72.5035 125.109H63.7339V128.576H72.5035V125.109Z" fill="#F5F5F5"/>
<path d="M82.0404 125.109H73.2708V128.576H82.0404V125.109Z" fill="#F5F5F5"/>
<path d="M91.5733 125.109H82.8037V128.576H91.5733V125.109Z" fill="#F5F5F5"/>
<path d="M101.11 125.109H92.3406V128.576H101.11V125.109Z" fill="#F5F5F5"/>
<path d="M110.647 125.109H101.878V128.576H110.647V125.109Z" fill="#F5F5F5"/>
<path d="M120.18 125.109H111.41V128.576H120.18V125.109Z" fill="#F5F5F5"/>
<path d="M129.717 125.109H120.947V128.576H129.717V125.109Z" fill="#F5F5F5"/>
<path d="M139.254 125.109H130.484V128.576H139.254V125.109Z" fill="#F5F5F5"/>
<path d="M148.787 125.109H140.017V128.576H148.787V125.109Z" fill="#F5F5F5"/>
<path d="M158.324 125.109H149.554V128.576H158.324V125.109Z" fill="#F5F5F5"/>
<path d="M167.861 125.109H159.091V128.576H167.861V125.109Z" fill="#F5F5F5"/>
<path d="M177.394 125.109H168.624V128.576H177.394V125.109Z" fill="#F5F5F5"/>
<path d="M39.1303 120.765H30.3607V124.232H39.1303V120.765Z" fill="#F5F5F5"/>
<path d="M29.5892 120.765H25.5901V124.232H29.5892V120.765Z" fill="#F5F5F5"/>
<path d="M48.6632 120.765H39.8936V124.232H48.6632V120.765Z" fill="#F5F5F5"/>
<path d="M58.2001 120.765H49.4305V124.232H58.2001V120.765Z" fill="#F5F5F5"/>
<path d="M67.7371 120.765H58.9675V124.232H67.7371V120.765Z" fill="#F5F5F5"/>
<path d="M77.2699 120.765H68.5003V124.232H77.2699V120.765Z" fill="#F5F5F5"/>
<path d="M86.8068 120.765H78.0372V124.232H86.8068V120.765Z" fill="#F5F5F5"/>
<path d="M96.3438 120.765H87.5742V124.232H96.3438V120.765Z" fill="#F5F5F5"/>
<path d="M105.877 120.765H97.1071V124.232H105.877V120.765Z" fill="#F5F5F5"/>
<path d="M115.414 120.765H106.644V124.232H115.414V120.765Z" fill="#F5F5F5"/>
<path d="M124.951 120.765H116.181V124.232H124.951V120.765Z" fill="#F5F5F5"/>
<path d="M134.483 120.765H125.714V124.232H134.483V120.765Z" fill="#F5F5F5"/>
<path d="M144.02 120.765H135.251V124.232H144.02V120.765Z" fill="#F5F5F5"/>
<path d="M153.557 120.765H144.788V124.232H153.557V120.765Z" fill="#F5F5F5"/>
<path d="M163.09 120.765H154.321V124.232H163.09V120.765Z" fill="#F5F5F5"/>
<path d="M172.627 120.765H163.858V124.232H172.627V120.765Z" fill="#F5F5F5"/>
<path d="M177.394 120.765H173.395V124.232H177.394V120.765Z" fill="#F5F5F5"/>
<path d="M34.3597 116.421H25.5901V119.888H34.3597V116.421Z" fill="#F5F5F5"/>
<path d="M43.8967 116.421H35.1271V119.888H43.8967V116.421Z" fill="#F5F5F5"/>
<path d="M53.4337 116.421H44.6641V119.888H53.4337V116.421Z" fill="#F5F5F5"/>
<path d="M62.9666 116.421H54.197V119.888H62.9666V116.421Z" fill="#F5F5F5"/>
<path d="M72.5035 116.421H63.7339V119.888H72.5035V116.421Z" fill="#F5F5F5"/>
<path d="M82.0404 116.421H73.2708V119.888H82.0404V116.421Z" fill="#F5F5F5"/>
<path d="M91.5733 116.421H82.8037V119.888H91.5733V116.421Z" fill="#F5F5F5"/>
<path d="M101.11 116.421H92.3406V119.888H101.11V116.421Z" fill="#F5F5F5"/>
<path d="M110.647 116.421H101.878V119.888H110.647V116.421Z" fill="#F5F5F5"/>
<path d="M120.18 116.421H111.41V119.888H120.18V116.421Z" fill="#F5F5F5"/>
<path d="M129.717 116.421H120.947V119.888H129.717V116.421Z" fill="#F5F5F5"/>
<path d="M139.254 116.421H130.484V119.888H139.254V116.421Z" fill="#F5F5F5"/>
<path d="M148.787 116.421H140.017V119.888H148.787V116.421Z" fill="#F5F5F5"/>
<path d="M158.324 116.421H149.554V119.888H158.324V116.421Z" fill="#F5F5F5"/>
<path d="M167.861 116.421H159.091V119.888H167.861V116.421Z" fill="#F5F5F5"/>
<path d="M177.394 116.421H168.624V119.888H177.394V116.421Z" fill="#F5F5F5"/>
<path d="M39.1303 112.076H30.3607V115.544H39.1303V112.076Z" fill="#F5F5F5"/>
<path d="M29.5892 112.076H25.5901V115.544H29.5892V112.076Z" fill="#F5F5F5"/>
<path d="M48.6632 112.076H39.8936V115.544H48.6632V112.076Z" fill="#F5F5F5"/>
<path d="M58.2001 112.076H49.4305V115.544H58.2001V112.076Z" fill="#F5F5F5"/>
<path d="M67.7371 112.076H58.9675V115.544H67.7371V112.076Z" fill="#F5F5F5"/>
<path d="M77.2699 112.076H68.5003V115.544H77.2699V112.076Z" fill="#F5F5F5"/>
<path d="M86.8068 112.076H78.0372V115.544H86.8068V112.076Z" fill="#F5F5F5"/>
<path d="M96.3438 112.076H87.5742V115.544H96.3438V112.076Z" fill="#F5F5F5"/>
<path d="M105.877 112.076H97.1071V115.544H105.877V112.076Z" fill="#F5F5F5"/>
<path d="M115.414 112.076H106.644V115.544H115.414V112.076Z" fill="#F5F5F5"/>
<path d="M124.951 112.076H116.181V115.544H124.951V112.076Z" fill="#F5F5F5"/>
<path d="M134.483 112.076H125.714V115.544H134.483V112.076Z" fill="#F5F5F5"/>
<path d="M144.02 112.076H135.251V115.544H144.02V112.076Z" fill="#F5F5F5"/>
<path d="M153.557 112.076H144.788V115.544H153.557V112.076Z" fill="#F5F5F5"/>
<path d="M163.09 112.076H154.321V115.544H163.09V112.076Z" fill="#F5F5F5"/>
<path d="M172.627 112.076H163.858V115.544H172.627V112.076Z" fill="#F5F5F5"/>
<path d="M177.394 112.076H173.395V115.544H177.394V112.076Z" fill="#F5F5F5"/>
<path d="M34.3597 107.732H25.5901V111.199H34.3597V107.732Z" fill="#F5F5F5"/>
<path d="M43.8967 107.732H35.1271V111.199H43.8967V107.732Z" fill="#F5F5F5"/>
<path d="M53.4337 107.732H44.6641V111.199H53.4337V107.732Z" fill="#F5F5F5"/>
<path d="M62.9666 107.732H54.197V111.199H62.9666V107.732Z" fill="#F5F5F5"/>
<path d="M72.5035 107.732H63.7339V111.199H72.5035V107.732Z" fill="#F5F5F5"/>
<path d="M82.0404 107.732H73.2708V111.199H82.0404V107.732Z" fill="#F5F5F5"/>
<path d="M91.5733 107.732H82.8037V111.199H91.5733V107.732Z" fill="#F5F5F5"/>
<path d="M101.11 107.732H92.3406V111.199H101.11V107.732Z" fill="#F5F5F5"/>
<path d="M110.647 107.732H101.878V111.199H110.647V107.732Z" fill="#F5F5F5"/>
<path d="M120.18 107.732H111.41V111.199H120.18V107.732Z" fill="#F5F5F5"/>
<path d="M129.717 107.732H120.947V111.199H129.717V107.732Z" fill="#F5F5F5"/>
<path d="M139.254 107.732H130.484V111.199H139.254V107.732Z" fill="#F5F5F5"/>
<path d="M148.787 107.732H140.017V111.199H148.787V107.732Z" fill="#F5F5F5"/>
<path d="M158.324 107.732H149.554V111.199H158.324V107.732Z" fill="#F5F5F5"/>
<path d="M167.861 107.732H159.091V111.199H167.861V107.732Z" fill="#F5F5F5"/>
<path d="M177.394 107.732H168.624V111.199H177.394V107.732Z" fill="#F5F5F5"/>
<path d="M39.1303 103.388H30.3607V106.855H39.1303V103.388Z" fill="#F5F5F5"/>
<path d="M29.5892 103.388H25.5901V106.855H29.5892V103.388Z" fill="#F5F5F5"/>
<path d="M48.6632 103.388H39.8936V106.855H48.6632V103.388Z" fill="#F5F5F5"/>
<path d="M58.2001 103.388H49.4305V106.855H58.2001V103.388Z" fill="#F5F5F5"/>
<path d="M67.7371 103.388H58.9675V106.855H67.7371V103.388Z" fill="#F5F5F5"/>
<path d="M77.2699 103.388H68.5003V106.855H77.2699V103.388Z" fill="#F5F5F5"/>
<path d="M86.8068 103.388H78.0372V106.855H86.8068V103.388Z" fill="#F5F5F5"/>
<path d="M96.3438 103.388H87.5742V106.855H96.3438V103.388Z" fill="#F5F5F5"/>
<path d="M105.877 103.388H97.1071V106.855H105.877V103.388Z" fill="#F5F5F5"/>
<path d="M115.414 103.388H106.644V106.855H115.414V103.388Z" fill="#F5F5F5"/>
<path d="M124.951 103.388H116.181V106.855H124.951V103.388Z" fill="#F5F5F5"/>
<path d="M134.483 103.388H125.714V106.855H134.483V103.388Z" fill="#F5F5F5"/>
<path d="M144.02 103.388H135.251V106.855H144.02V103.388Z" fill="#F5F5F5"/>
<path d="M153.557 103.388H144.788V106.855H153.557V103.388Z" fill="#F5F5F5"/>
<path d="M163.09 103.388H154.321V106.855H163.09V103.388Z" fill="#F5F5F5"/>
<path d="M172.627 103.388H163.858V106.855H172.627V103.388Z" fill="#F5F5F5"/>
<path d="M177.394 103.388H173.395V106.855H177.394V103.388Z" fill="#F5F5F5"/>
<path d="M34.3597 99.0437H25.5901V102.511H34.3597V99.0437Z" fill="#F5F5F5"/>
<path d="M43.8967 99.0437H35.1271V102.511H43.8967V99.0437Z" fill="#F5F5F5"/>
<path d="M53.4337 99.0437H44.6641V102.511H53.4337V99.0437Z" fill="#F5F5F5"/>
<path d="M62.9666 99.0437H54.197V102.511H62.9666V99.0437Z" fill="#F5F5F5"/>
<path d="M72.5035 99.0437H63.7339V102.511H72.5035V99.0437Z" fill="#F5F5F5"/>
<path d="M82.0404 99.0437H73.2708V102.511H82.0404V99.0437Z" fill="#F5F5F5"/>
<path d="M91.5733 99.0437H82.8037V102.511H91.5733V99.0437Z" fill="#F5F5F5"/>
<path d="M101.11 99.0437H92.3406V102.511H101.11V99.0437Z" fill="#F5F5F5"/>
<path d="M110.647 99.0437H101.878V102.511H110.647V99.0437Z" fill="#F5F5F5"/>
<path d="M120.18 99.0437H111.41V102.511H120.18V99.0437Z" fill="#F5F5F5"/>
<path d="M129.717 99.0437H120.947V102.511H129.717V99.0437Z" fill="#F5F5F5"/>
<path d="M139.254 99.0437H130.484V102.511H139.254V99.0437Z" fill="#F5F5F5"/>
<path d="M148.787 99.0437H140.017V102.511H148.787V99.0437Z" fill="#F5F5F5"/>
<path d="M158.324 99.0437H149.554V102.511H158.324V99.0437Z" fill="#F5F5F5"/>
<path d="M167.861 99.0437H159.091V102.511H167.861V99.0437Z" fill="#F5F5F5"/>
<path d="M177.394 99.0437H168.624V102.511H177.394V99.0437Z" fill="#F5F5F5"/>
<path d="M39.1303 94.6995H30.3607V98.1667H39.1303V94.6995Z" fill="#F5F5F5"/>
<path d="M29.5892 94.6995H25.5901V98.1667H29.5892V94.6995Z" fill="#F5F5F5"/>
<path d="M48.6632 94.6995H39.8936V98.1667H48.6632V94.6995Z" fill="#F5F5F5"/>
<path d="M58.2001 94.6995H49.4305V98.1667H58.2001V94.6995Z" fill="#F5F5F5"/>
<path d="M67.7371 94.6995H58.9675V98.1667H67.7371V94.6995Z" fill="#F5F5F5"/>
<path d="M77.2699 94.6995H68.5003V98.1667H77.2699V94.6995Z" fill="#F5F5F5"/>
<path d="M86.8068 94.6995H78.0372V98.1667H86.8068V94.6995Z" fill="#F5F5F5"/>
<path d="M96.3438 94.6995H87.5742V98.1667H96.3438V94.6995Z" fill="#F5F5F5"/>
<path d="M105.877 94.6995H97.1071V98.1667H105.877V94.6995Z" fill="#F5F5F5"/>
<path d="M115.414 94.6995H106.644V98.1667H115.414V94.6995Z" fill="#F5F5F5"/>
<path d="M124.951 94.6995H116.181V98.1667H124.951V94.6995Z" fill="#F5F5F5"/>
<path d="M134.483 94.6995H125.714V98.1667H134.483V94.6995Z" fill="#F5F5F5"/>
<path d="M144.02 94.6995H135.251V98.1667H144.02V94.6995Z" fill="#F5F5F5"/>
<path d="M153.557 94.6995H144.788V98.1667H153.557V94.6995Z" fill="#F5F5F5"/>
<path d="M163.09 94.6995H154.321V98.1667H163.09V94.6995Z" fill="#F5F5F5"/>
<path d="M172.627 94.6995H163.858V98.1667H172.627V94.6995Z" fill="#F5F5F5"/>
<path d="M177.394 94.6995H173.395V98.1667H177.394V94.6995Z" fill="#F5F5F5"/>
<path d="M34.3597 90.3553H25.5901V93.8225H34.3597V90.3553Z" fill="#F5F5F5"/>
<path d="M43.8967 90.3553H35.1271V93.8225H43.8967V90.3553Z" fill="#F5F5F5"/>
<path d="M53.4337 90.3553H44.6641V93.8225H53.4337V90.3553Z" fill="#F5F5F5"/>
<path d="M62.9666 90.3553H54.197V93.8225H62.9666V90.3553Z" fill="#F5F5F5"/>
<path d="M72.5035 90.3553H63.7339V93.8225H72.5035V90.3553Z" fill="#F5F5F5"/>
<path d="M82.0404 90.3553H73.2708V93.8225H82.0404V90.3553Z" fill="#F5F5F5"/>
<path d="M91.5733 90.3553H82.8037V93.8225H91.5733V90.3553Z" fill="#F5F5F5"/>
<path d="M101.11 90.3553H92.3406V93.8225H101.11V90.3553Z" fill="#F5F5F5"/>
<path d="M110.647 90.3553H101.878V93.8225H110.647V90.3553Z" fill="#F5F5F5"/>
<path d="M120.18 90.3553H111.41V93.8225H120.18V90.3553Z" fill="#F5F5F5"/>
<path d="M129.717 90.3553H120.947V93.8225H129.717V90.3553Z" fill="#F5F5F5"/>
<path d="M139.254 90.3553H130.484V93.8225H139.254V90.3553Z" fill="#F5F5F5"/>
<path d="M148.787 90.3553H140.017V93.8225H148.787V90.3553Z" fill="#F5F5F5"/>
<path d="M158.324 90.3553H149.554V93.8225H158.324V90.3553Z" fill="#F5F5F5"/>
<path d="M167.861 90.3553H159.091V93.8225H167.861V90.3553Z" fill="#F5F5F5"/>
<path d="M177.394 90.3553H168.624V93.8225H177.394V90.3553Z" fill="#F5F5F5"/>
<path d="M39.1303 86.0071H30.3607V89.4743H39.1303V86.0071Z" fill="#F5F5F5"/>
<path d="M29.5892 86.0071H25.5901V89.4743H29.5892V86.0071Z" fill="#F5F5F5"/>
<path d="M48.6632 86.0071H39.8936V89.4743H48.6632V86.0071Z" fill="#F5F5F5"/>
<path d="M58.2001 86.0071H49.4305V89.4743H58.2001V86.0071Z" fill="#F5F5F5"/>
<path d="M67.7371 86.0071H58.9675V89.4743H67.7371V86.0071Z" fill="#F5F5F5"/>
<path d="M77.2699 86.0071H68.5003V89.4743H77.2699V86.0071Z" fill="#F5F5F5"/>
<path d="M86.8068 86.0071H78.0372V89.4743H86.8068V86.0071Z" fill="#F5F5F5"/>
<path d="M96.3438 86.0071H87.5742V89.4743H96.3438V86.0071Z" fill="#F5F5F5"/>
<path d="M105.877 86.0071H97.1071V89.4743H105.877V86.0071Z" fill="#F5F5F5"/>
<path d="M115.414 86.0071H106.644V89.4743H115.414V86.0071Z" fill="#F5F5F5"/>
<path d="M124.951 86.0071H116.181V89.4743H124.951V86.0071Z" fill="#F5F5F5"/>
<path d="M134.483 86.0071H125.714V89.4743H134.483V86.0071Z" fill="#F5F5F5"/>
<path d="M144.02 86.0071H135.251V89.4743H144.02V86.0071Z" fill="#F5F5F5"/>
<path d="M153.557 86.0071H144.788V89.4743H153.557V86.0071Z" fill="#F5F5F5"/>
<path d="M163.09 86.0071H154.321V89.4743H163.09V86.0071Z" fill="#F5F5F5"/>
<path d="M172.627 86.0071H163.858V89.4743H172.627V86.0071Z" fill="#F5F5F5"/>
<path d="M177.394 86.0071H173.395V89.4743H177.394V86.0071Z" fill="#F5F5F5"/>
<path d="M34.3597 81.6628H25.5901V85.1301H34.3597V81.6628Z" fill="#F5F5F5"/>
<path d="M43.8967 81.6628H35.1271V85.1301H43.8967V81.6628Z" fill="#F5F5F5"/>
<path d="M53.4337 81.6628H44.6641V85.1301H53.4337V81.6628Z" fill="#F5F5F5"/>
<path d="M62.9666 81.6628H54.197V85.1301H62.9666V81.6628Z" fill="#F5F5F5"/>
<path d="M72.5035 81.6628H63.7339V85.1301H72.5035V81.6628Z" fill="#F5F5F5"/>
<path d="M82.0404 81.6628H73.2708V85.1301H82.0404V81.6628Z" fill="#F5F5F5"/>
<path d="M91.5733 81.6628H82.8037V85.1301H91.5733V81.6628Z" fill="#F5F5F5"/>
<path d="M101.11 81.6628H92.3406V85.1301H101.11V81.6628Z" fill="#F5F5F5"/>
<path d="M110.647 81.6628H101.878V85.1301H110.647V81.6628Z" fill="#F5F5F5"/>
<path d="M120.18 81.6628H111.41V85.1301H120.18V81.6628Z" fill="#F5F5F5"/>
<path d="M129.717 81.6628H120.947V85.1301H129.717V81.6628Z" fill="#F5F5F5"/>
<path d="M139.254 81.6628H130.484V85.1301H139.254V81.6628Z" fill="#F5F5F5"/>
<path d="M148.787 81.6628H140.017V85.1301H148.787V81.6628Z" fill="#F5F5F5"/>
<path d="M158.324 81.6628H149.554V85.1301H158.324V81.6628Z" fill="#F5F5F5"/>
<path d="M167.861 81.6628H159.091V85.1301H167.861V81.6628Z" fill="#F5F5F5"/>
<path d="M177.394 81.6628H168.624V85.1301H177.394V81.6628Z" fill="#F5F5F5"/>
<path d="M101.5 151.259C144.975 151.259 180.219 149.202 180.219 146.663C180.219 144.125 144.975 142.068 101.5 142.068C58.0245 142.068 22.7806 144.125 22.7806 146.663C22.7806 149.202 58.0245 151.259 101.5 151.259Z" fill="#F5F5F5"/>
<path d="M101.317 52.5811C101.317 52.5811 99.6689 54.9318 97.8095 54.9318C95.95 54.9318 93.8753 52.5811 93.8753 52.5811C93.8753 52.5811 89.0033 56.1457 88.1588 57.2907C87.3144 58.4356 86.7987 71.3139 87.1966 76.8802C87.5945 82.4464 80.7331 126.542 81.3056 130.423C81.878 134.305 92.1173 132.924 98.1546 132.973C104.192 133.022 112.616 135.214 113.583 131.942C114.549 128.67 113.006 110.903 110.903 101.922C108.8 92.9415 108.666 72.3857 108.252 67.9928C107.838 63.5999 107.513 58.6832 107.192 57.2907C106.871 55.8981 101.317 52.5811 101.317 52.5811Z" fill="#407BFF"/>
<path d="M89.726 101.934C89.8238 104.948 89.6444 107.963 89.19 110.944C88.8652 112.949 88.5526 113.432 86.4414 113.006C85.1057 112.734 83.7375 112.04 82.3571 112.482C81.8942 112.632 81.4801 112.888 81.0335 113.095C80.0023 113.542 78.8411 113.55 77.7165 113.554H69.7995C67.9603 113.554 66.1739 113.96 65.9831 111.743C65.232 102.986 65.4431 94.1717 66.0846 85.4142C66.247 83.2219 66.4378 81.0335 66.6449 78.8411C66.8235 76.9613 67.3432 74.8461 67.0509 72.9703C66.5149 69.5965 66.5271 66.2186 66.6083 62.7798C66.6408 61.31 66.2389 58.1189 67.2051 56.844C68.0659 55.7032 73.5712 52.5688 73.5712 52.5688C73.5712 52.5688 75.6418 54.9196 77.5013 54.9196C79.3608 54.9196 81.0132 52.5688 81.0132 52.5688C81.0132 52.5688 87.6838 56.2228 88.0045 57.6317C88.3253 59.0405 87.5254 63.5918 87.9396 67.9806C88.443 73.287 88.0167 78.5082 88.3456 83.8146C88.6744 89.121 89.389 94.3706 89.6569 99.6486C89.684 100.417 89.707 101.179 89.726 101.934Z" fill="#407BFF"/>
<path d="M68.208 100.716C68.3058 103.73 68.1264 106.745 67.6721 109.726C67.3473 111.731 67.0347 112.214 64.9235 111.788C63.5837 111.516 62.2195 110.818 60.835 111.264C60.3722 111.414 59.9581 111.67 59.5115 111.877C58.4802 112.324 57.3191 112.332 56.1945 112.332H48.2775C46.4383 112.332 44.6559 112.738 44.4611 110.521C43.71 101.764 43.9251 92.9496 44.5666 84.1922C44.729 81.9998 44.9144 79.8088 45.1228 77.6191C45.3015 75.7393 45.8252 73.624 45.5288 71.7483C44.9929 68.3744 46.2272 65.8085 46.3084 62.3697C46.3408 60.9 45.9389 57.7088 46.9052 56.434C47.7659 55.2931 52.0533 51.3468 52.0533 51.3468C52.0533 51.3468 54.1239 53.6935 55.9833 53.6935C57.8428 53.6935 59.4952 51.3468 59.4952 51.3468C59.4952 51.3468 65.3538 55.8128 65.6746 57.2216C65.9953 58.6304 66.0075 62.3697 66.4216 66.7586C66.921 72.065 66.4987 77.2861 66.8276 82.5926C67.1565 87.899 67.871 93.1486 68.139 98.4266C68.143 99.202 68.1755 99.9612 68.208 100.716Z" fill="#407BFF"/>
<path opacity="0.7" d="M68.208 100.716C68.3058 103.73 68.1264 106.745 67.6721 109.726C67.3473 111.731 67.0347 112.214 64.9235 111.788C63.5837 111.516 62.2195 110.818 60.835 111.264C60.3722 111.414 59.9581 111.67 59.5115 111.877C58.4802 112.324 57.3191 112.332 56.1945 112.332H48.2775C46.4383 112.332 44.6559 112.738 44.4611 110.521C43.71 101.764 43.9251 92.9496 44.5666 84.1922C44.729 81.9998 44.9144 79.8088 45.1228 77.6191C45.3015 75.7393 45.8252 73.624 45.5288 71.7483C44.9929 68.3744 46.2272 65.8085 46.3084 62.3697C46.3408 60.9 45.9389 57.7088 46.9052 56.434C47.7659 55.2931 52.0533 51.3468 52.0533 51.3468C52.0533 51.3468 54.1239 53.6935 55.9833 53.6935C57.8428 53.6935 59.4952 51.3468 59.4952 51.3468C59.4952 51.3468 65.3538 55.8128 65.6746 57.2216C65.9953 58.6304 66.0075 62.3697 66.4216 66.7586C66.921 72.065 66.4987 77.2861 66.8276 82.5926C67.1565 87.899 67.871 93.1486 68.139 98.4266C68.143 99.202 68.1755 99.9612 68.208 100.716Z" fill="white"/>
<path opacity="0.7" d="M89.726 101.934C89.8238 104.948 89.6444 107.963 89.19 110.944C88.8652 112.949 88.5526 113.432 86.4414 113.006C85.1057 112.734 83.7375 112.04 82.3571 112.482C81.8942 112.632 81.4801 112.888 81.0335 113.095C80.0023 113.542 78.8411 113.55 77.7165 113.554H69.7995C67.9603 113.554 66.1739 113.96 65.9831 111.743C65.232 102.986 65.4431 94.1717 66.0846 85.4142C66.247 83.2219 66.4378 81.0335 66.6449 78.8411C66.8235 76.9613 67.3432 74.8461 67.0509 72.9703C66.5149 69.5965 66.5271 66.2186 66.6083 62.7798C66.6408 61.31 66.2389 58.1189 67.2051 56.844C68.0659 55.7032 73.5712 52.5688 73.5712 52.5688C73.5712 52.5688 75.6418 54.9196 77.5013 54.9196C79.3608 54.9196 81.0132 52.5688 81.0132 52.5688C81.0132 52.5688 87.6838 56.2228 88.0045 57.6317C88.3253 59.0405 87.5254 63.5918 87.9396 67.9806C88.443 73.287 88.0167 78.5082 88.3456 83.8146C88.6744 89.121 89.389 94.3706 89.6569 99.6486C89.684 100.417 89.707 101.179 89.726 101.934Z" fill="white"/>
<path opacity="0.7" d="M101.317 52.5811C101.317 52.5811 99.6689 54.9318 97.8095 54.9318C95.95 54.9318 93.8753 52.5811 93.8753 52.5811C93.8753 52.5811 89.0033 56.1457 88.1588 57.2907C87.3144 58.4356 86.7987 71.3139 87.1966 76.8802C87.5945 82.4464 80.7331 126.542 81.3056 130.423C81.878 134.305 92.1173 132.924 98.1546 132.973C104.192 133.022 112.616 135.214 113.583 131.942C114.549 128.67 113.006 110.903 110.903 101.922C108.8 92.9415 108.666 72.3857 108.252 67.9928C107.838 63.5999 107.513 58.6832 107.192 57.2907C106.871 55.8981 101.317 52.5811 101.317 52.5811Z" fill="white"/>
<path d="M37.3885 141.694H38.8339V47.1935C38.8339 47.032 38.8981 46.8771 39.0123 46.7628C39.1265 46.6486 39.2814 46.5845 39.4429 46.5845H115.008C115.169 46.5845 115.324 46.6486 115.438 46.7628C115.552 46.8771 115.617 47.032 115.617 47.1935V141.694H116.981C117.142 141.694 117.297 141.758 117.411 141.872C117.526 141.987 117.59 142.142 117.59 142.303C117.59 142.465 117.526 142.619 117.411 142.734C117.297 142.848 117.142 142.912 116.981 142.912H112.49C112.329 142.912 112.174 142.848 112.06 142.734C111.946 142.619 111.881 142.465 111.881 142.303C111.881 142.142 111.946 141.987 112.06 141.872C112.174 141.758 112.329 141.694 112.49 141.694H114.399V47.8025H40.0519V141.694H41.8789C42.0404 141.694 42.1953 141.758 42.3095 141.872C42.4237 141.987 42.4879 142.142 42.4879 142.303C42.4879 142.465 42.4237 142.619 42.3095 142.734C42.1953 142.848 42.0404 142.912 41.8789 142.912H37.3885C37.227 142.912 37.0721 142.848 36.9579 142.734C36.8437 142.619 36.7795 142.465 36.7795 142.303C36.7795 142.142 36.8437 141.987 36.9579 141.872C37.0721 141.758 37.227 141.694 37.3885 141.694Z" fill="#263238"/>
<path opacity="0.4" d="M37.3885 141.694H38.8339V47.1935C38.8339 47.032 38.8981 46.8771 39.0123 46.7628C39.1265 46.6486 39.2814 46.5845 39.4429 46.5845H115.008C115.169 46.5845 115.324 46.6486 115.438 46.7628C115.552 46.8771 115.617 47.032 115.617 47.1935V141.694H116.981C117.142 141.694 117.297 141.758 117.411 141.872C117.526 141.987 117.59 142.142 117.59 142.303C117.59 142.465 117.526 142.619 117.411 142.734C117.297 142.848 117.142 142.912 116.981 142.912H112.49C112.329 142.912 112.174 142.848 112.06 142.734C111.946 142.619 111.881 142.465 111.881 142.303C111.881 142.142 111.946 141.987 112.06 141.872C112.174 141.758 112.329 141.694 112.49 141.694H114.399V47.8025H40.0519V141.694H41.8789C42.0404 141.694 42.1953 141.758 42.3095 141.872C42.4237 141.987 42.4879 142.142 42.4879 142.303C42.4879 142.465 42.4237 142.619 42.3095 142.734C42.1953 142.848 42.0404 142.912 41.8789 142.912H37.3885C37.227 142.912 37.0721 142.848 36.9579 142.734C36.8437 142.619 36.7795 142.465 36.7795 142.303C36.7795 142.142 36.8437 141.987 36.9579 141.872C37.0721 141.758 37.227 141.694 37.3885 141.694Z" fill="white"/>
<path d="M89.1778 57.5546C89.1257 57.4099 89.1225 57.2521 89.1687 57.1054C89.2149 56.9587 89.308 56.8312 89.4336 56.7426L97.4643 50.8474C97.4987 50.823 97.5398 50.8098 97.582 50.8098C97.6242 50.8098 97.6654 50.823 97.6998 50.8474L106.25 56.7344C106.375 56.8218 106.469 56.9465 106.518 57.0907C106.567 57.2348 106.57 57.3908 106.524 57.5363C106.479 57.6818 106.389 57.8091 106.267 57.9C106.144 57.9908 105.996 58.0405 105.844 58.0418H89.8559C89.7057 58.0431 89.5591 57.9967 89.4372 57.909C89.3153 57.8214 89.2244 57.6973 89.1778 57.5546ZM89.6732 57.0836C89.6198 57.1214 89.5803 57.1755 89.5605 57.2378C89.5407 57.3001 89.5418 57.3671 89.5635 57.4287C89.5827 57.4912 89.6215 57.5459 89.6741 57.5846C89.7268 57.6234 89.7905 57.6441 89.8559 57.6439H105.844C105.911 57.6455 105.976 57.6248 106.03 57.5851C106.084 57.5454 106.122 57.4889 106.141 57.4246C106.161 57.3611 106.16 57.2927 106.138 57.2298C106.116 57.1669 106.074 57.1127 106.019 57.0755L97.5902 51.2697L89.6732 57.0836Z" fill="#263238"/>
<path d="M97.5861 51.225C97.64 51.225 97.6916 51.2036 97.7297 51.1656C97.7677 51.1275 97.7891 51.0759 97.7891 51.022V48.923C97.9962 48.5901 98.861 47.1041 98.4509 46.353C98.3596 46.2108 98.23 46.0972 98.077 46.0254C97.924 45.9535 97.7539 45.9264 97.5861 45.947C96.8878 45.947 96.4371 46.1135 96.2504 46.4423C96.1866 46.5781 96.1566 46.7273 96.1629 46.8772C96.1693 47.0271 96.2118 47.1732 96.2869 47.3031C96.3007 47.3261 96.3189 47.3462 96.3405 47.3621C96.362 47.3781 96.3866 47.3896 96.4126 47.396C96.4387 47.4024 96.4657 47.4036 96.4922 47.3995C96.5187 47.3954 96.5442 47.3861 96.5671 47.3721C96.6111 47.343 96.6421 47.2979 96.6535 47.2464C96.6648 47.1949 96.6557 47.1409 96.628 47.096C96.5886 47.0276 96.5653 46.9511 96.5597 46.8724C96.554 46.7936 96.5663 46.7146 96.5955 46.6413C96.7051 46.4545 97.0543 46.353 97.578 46.353C97.984 46.353 98.0571 46.5114 98.0855 46.5601C98.3291 47.0067 97.7972 48.1516 97.4075 48.7687C97.3871 48.8002 97.3759 48.8368 97.375 48.8743V51.0342C97.3782 51.0873 97.402 51.1371 97.4415 51.1728C97.481 51.2085 97.5329 51.2272 97.5861 51.225Z" fill="#263238"/>
<path d="M102.385 60.4575L102.694 53.9209L104.224 55.0618L103.664 60.6605L102.385 60.4575Z" fill="#407BFF"/>
<path d="M93.043 60.6605L92.43 53.9209L91.0496 55.0618L91.4068 60.6605H93.043Z" fill="#407BFF"/>
<path opacity="0.2" d="M102.385 60.4575L102.694 53.9209L104.224 55.0618L103.664 60.6605L102.385 60.4575Z" fill="black"/>
<path opacity="0.2" d="M93.043 60.6605L92.43 53.9209L91.0496 55.0618L91.4068 60.6605H93.043Z" fill="black"/>
<path d="M85.7796 128.913C87.0626 128.885 88.378 128.434 89.596 128.832C90.2131 129.031 90.745 129.433 91.3418 129.684C92.8075 130.289 94.4924 129.904 95.9702 129.323C97.4481 128.743 98.8731 127.959 100.436 127.76C103.311 127.407 106.12 129.059 109.003 128.925C110.31 128.864 113.043 128.235 113.331 126.794C113.32 126.45 113.261 126.11 113.156 125.783C112.982 124.748 112.815 123.708 112.641 122.669L110.948 112.434L106.502 85.5726C105.812 81.4151 105.123 77.2577 104.435 73.1003L104.155 71.4072C104.155 71.3139 104.127 71.2245 104.111 71.1312L104.366 69.5072C104.713 67.3012 105.057 65.0966 105.398 62.8934L105.804 60.2422C105.873 60.0121 105.891 59.7696 105.856 59.5317C105.841 59.4814 105.816 59.4345 105.783 59.3937C105.333 58.8334 103.717 58.8781 103.096 58.9674C102.068 59.1095 101.126 59.5845 100.144 59.9053C97.9983 60.5695 95.7055 60.5935 93.5464 59.9743C92.8859 59.7526 92.2064 59.5922 91.5164 59.4952C90.7044 59.4262 89.6041 59.5764 89.661 60.5346C89.701 60.8932 89.7593 61.2496 89.8356 61.6023C90.4419 65.2347 91.0441 68.867 91.6423 72.4994V72.5643C91.5854 72.9297 91.5245 73.2992 91.4636 73.6646L89.3565 86.4617C87.903 95.2827 86.4509 104.104 85.0001 112.925C84.4425 116.316 83.885 119.708 83.3274 123.099C82.9458 125.454 81.813 129.002 85.7796 128.913Z" fill="#407BFF"/>
<path opacity="0.2" d="M91.4718 73.6443C92.2594 73.9731 94.0215 74.5497 95.6252 73.9894C97.7648 73.2423 100.091 75.5322 102.726 74.2249C103.346 73.9261 103.925 73.5481 104.448 73.1002L104.167 71.4072C103.396 72.1421 102.219 72.8932 100.822 72.5968C98.3007 72.0609 97.0705 71.6589 95.0081 72.6658C93.8185 73.2423 92.5274 72.9216 91.6504 72.544C91.5936 72.9094 91.5327 73.2789 91.4718 73.6443Z" fill="black"/>
<path d="M68.7074 57.5546C68.6552 57.4099 68.652 57.2521 68.6982 57.1054C68.7444 56.9587 68.8375 56.8312 68.9632 56.7426L76.9938 50.8474C77.0282 50.823 77.0694 50.8098 77.1116 50.8098C77.1538 50.8098 77.1949 50.823 77.2293 50.8474L85.7797 56.7344C85.9045 56.8218 85.9983 56.9465 86.0476 57.0907C86.0968 57.2348 86.0991 57.3908 86.0539 57.5363C86.0087 57.6818 85.9185 57.8091 85.7962 57.9C85.674 57.9908 85.526 58.0405 85.3737 58.0418H69.3854C69.2353 58.0431 69.0886 57.9967 68.9667 57.909C68.8448 57.8214 68.754 57.6973 68.7074 57.5546ZM69.2027 57.0836C69.1494 57.1214 69.1098 57.1755 69.0901 57.2378C69.0703 57.3001 69.0713 57.3671 69.0931 57.4287C69.1122 57.4912 69.151 57.5459 69.2037 57.5846C69.2563 57.6234 69.32 57.6441 69.3854 57.6439H85.3737C85.4397 57.6428 85.5036 57.6209 85.5564 57.5812C85.6092 57.5415 85.648 57.4862 85.6674 57.4231C85.6868 57.36 85.6857 57.2924 85.6643 57.2299C85.6429 57.1675 85.6023 57.1134 85.5483 57.0755L77.14 51.2697L69.2027 57.0836Z" fill="#263238"/>
<path d="M77.1157 51.225C77.1695 51.225 77.2211 51.2036 77.2592 51.1656C77.2973 51.1275 77.3187 51.0759 77.3187 51.022V48.923C77.5257 48.5901 78.3905 47.1041 77.9804 46.353C77.8892 46.2108 77.7596 46.0972 77.6066 46.0254C77.4536 45.9535 77.2834 45.9264 77.1157 45.947C76.4173 45.947 75.9667 46.1135 75.7799 46.4423C75.7161 46.5781 75.6861 46.7273 75.6925 46.8772C75.6989 47.0271 75.7414 47.1732 75.8165 47.3031C75.8444 47.3484 75.889 47.3809 75.9407 47.3936C75.9924 47.4064 76.047 47.3983 76.0928 47.3711C76.1386 47.344 76.1719 47.2999 76.1855 47.2485C76.1991 47.197 76.192 47.1423 76.1656 47.096C76.1263 47.0276 76.1029 46.9511 76.0973 46.8724C76.0917 46.7936 76.1039 46.7146 76.1331 46.6413C76.2428 46.4545 76.5919 46.353 77.1157 46.353C77.5217 46.353 77.5947 46.5114 77.6232 46.5601C77.8668 47.0067 77.3349 48.1516 76.9451 48.7687C76.9248 48.8002 76.9135 48.8368 76.9127 48.8743V51.0342C76.9158 51.0859 76.9385 51.1345 76.9763 51.1699C77.014 51.2054 77.0639 51.2251 77.1157 51.225Z" fill="#263238"/>
<path d="M81.2569 53.2996C81.2569 53.2996 78.3824 55.3743 76.8883 55.3743C75.3942 55.3743 73.3642 53.0885 73.3642 53.0885L69.7468 55.557C69.2149 55.9183 68.0822 56.3974 67.7168 56.9374C67.1484 57.7859 68.3095 59.751 68.8779 60.5427C69.0261 60.7205 69.1429 60.9223 69.223 61.1395C69.2577 61.3173 69.274 61.4983 69.2717 61.6795C69.3489 62.9908 70.5263 63.681 70.7496 64.8625C70.8673 65.4877 70.6278 66.2388 70.571 66.8925C70.4816 67.9116 70.4004 68.9225 70.3152 69.9537C70.0634 72.9717 69.8131 75.9883 69.5641 79.0035C68.9659 86.141 68.3718 93.2757 67.7817 100.408C67.549 103.169 67.3189 105.928 67.0915 108.686C67.0509 109.165 66.7911 110.111 67.0631 110.497C67.4402 110.73 67.8402 110.925 68.2567 111.077C69.2066 111.467 70.2127 111.701 71.2368 111.772C74.0788 112.117 77.0345 112.462 79.8075 111.703C80.2705 111.558 80.7407 111.437 81.2163 111.341C82.5358 111.138 83.8796 111.593 85.2113 111.488C86.344 111.402 87.0992 110.627 88.1223 110.412C87.7163 106.831 87.4037 103.173 87.0302 99.5593C86.3075 92.5409 85.5835 85.5225 84.8581 78.5041L83.9568 69.7507L83.6523 66.8072C83.5757 66.345 83.5269 65.8787 83.5061 65.4106C83.5426 64.3225 84.5698 63.4009 85.2397 62.5686C85.3971 62.39 85.5333 62.1938 85.6457 61.984C85.7356 61.7774 85.7997 61.5606 85.8365 61.3384C86.141 59.958 86.7988 58.8293 87.4971 57.6316C85.8365 55.9102 83.2584 54.6638 81.2569 53.2996Z" fill="#263238"/>
<path opacity="0.5" d="M67.0671 110.481C67.4435 110.714 67.8436 110.908 68.2608 111.057C69.2097 111.45 70.2162 111.686 71.2408 111.756C74.0828 112.101 77.0344 112.446 79.8115 111.686C80.2745 111.542 80.7448 111.421 81.2203 111.325C82.5398 111.122 83.8836 111.577 85.2153 111.471C86.3481 111.386 87.0992 110.611 88.1263 110.395C87.7203 106.814 87.4037 103.156 87.0342 99.543C86.3115 92.5246 85.5875 85.5063 84.8621 78.4879L83.9608 69.7345L83.6563 66.791C83.5777 66.3291 83.5289 65.8626 83.5101 65.3944C83.5234 65.084 83.6052 64.7803 83.7497 64.5052C84.1749 63.8042 84.676 63.152 85.2437 62.5605C85.4011 62.3818 85.5373 62.1857 85.6497 61.9758C85.7378 61.7686 85.8018 61.5521 85.8406 61.3303C86.1451 59.9499 86.7987 58.8212 87.5011 57.6235C85.8162 55.9102 83.2381 54.6638 81.2406 53.2996C81.2406 53.2996 78.3661 55.3743 76.872 55.3743C75.3779 55.3743 73.3479 53.0885 73.3479 53.0885L69.7264 55.557C69.1946 55.9183 68.0618 56.3974 67.6964 56.9374C67.128 57.7859 68.2892 59.751 68.8576 60.5427C69.0058 60.7198 69.1213 60.9219 69.1986 61.1395C69.2366 61.3169 69.2544 61.498 69.2514 61.6795C69.3204 62.8325 70.238 63.5024 70.6115 64.4524C70.6615 64.5844 70.7009 64.7202 70.7292 64.8584C70.847 65.4837 70.6074 66.2348 70.5506 66.8884C70.4613 67.9075 70.3801 68.9184 70.2948 69.9497C70.0431 72.9676 69.7927 75.9842 69.5437 78.9994C68.9456 86.1369 68.3514 93.2717 67.7614 100.404C67.5286 103.165 67.2985 105.924 67.0712 108.682C67.0549 109.149 66.791 110.095 67.0671 110.481Z" fill="white"/>
<path opacity="0.2" d="M67.0671 110.481C67.4435 110.715 67.8436 110.908 68.2608 111.057C69.2097 111.45 70.2162 111.686 71.2408 111.756C74.0828 112.101 77.0344 112.446 79.8115 111.687C80.2745 111.542 80.7448 111.421 81.2203 111.325C82.5398 111.122 83.8837 111.577 85.2153 111.471C86.3481 111.386 87.0992 110.611 88.1264 110.395C87.7204 106.815 87.4037 103.156 87.0342 99.5431C86.3115 92.5247 85.5875 85.5063 84.8621 78.4879L83.9608 69.7346L83.6563 66.7911C83.5777 66.3291 83.5289 65.8626 83.5101 65.3944C83.5235 65.084 83.6053 64.7804 83.7497 64.5053C82.6137 64.5892 81.4726 64.5743 80.3393 64.4606C78.9183 64.2455 78.1022 63.9247 76.3158 64.4606C74.7405 64.9316 72.2842 64.3023 70.6318 64.4606C70.6818 64.5926 70.7212 64.7284 70.7496 64.8666C70.8673 65.4919 70.6278 66.243 70.5709 66.8966C70.4816 67.9157 70.4004 68.9266 70.3151 69.9579C70.0634 72.9758 69.813 75.9924 69.564 79.0076C68.9659 86.1451 68.3717 93.2799 67.7817 100.412C67.5489 103.173 67.3189 105.932 67.0915 108.69C67.055 109.149 66.7911 110.095 67.0671 110.481Z" fill="black"/>
<path d="M47.4249 57.5546C47.372 57.41 47.3685 57.2519 47.4147 57.1051C47.461 56.9582 47.5545 56.8308 47.6806 56.7426L55.7113 50.8474C55.7457 50.823 55.7869 50.8098 55.8291 50.8098C55.8713 50.8098 55.9124 50.823 55.9468 50.8474L64.4972 56.7344C64.622 56.8218 64.7158 56.9465 64.765 57.0907C64.8143 57.2348 64.8165 57.3908 64.7714 57.5363C64.7262 57.6818 64.636 57.8091 64.5137 57.9C64.3914 57.9908 64.2435 58.0405 64.0912 58.0418H48.1029C47.9526 58.0438 47.8057 57.9975 47.6836 57.9098C47.5616 57.8222 47.4709 57.6976 47.4249 57.5546ZM47.908 57.0836C47.8542 57.1209 47.8142 57.175 47.7944 57.2375C47.7745 57.2999 47.7759 57.3672 47.7984 57.4287C47.817 57.4915 47.8556 57.5466 47.9084 57.5854C47.9612 57.6243 48.0252 57.6448 48.0907 57.6439H64.079C64.145 57.6428 64.209 57.6209 64.2617 57.5812C64.3145 57.5415 64.3533 57.4862 64.3727 57.4231C64.3921 57.36 64.391 57.2924 64.3696 57.2299C64.3482 57.1675 64.3076 57.1134 64.2536 57.0755L55.825 51.2697L47.908 57.0836Z" fill="#263238"/>
<path d="M55.8331 51.225C55.8869 51.225 55.9386 51.2036 55.9766 51.1656C56.0147 51.1275 56.0361 51.0758 56.0361 51.022V48.923C56.2391 48.5901 57.1079 47.1041 56.6938 46.353C56.6035 46.2107 56.4747 46.097 56.3223 46.0252C56.1699 45.9533 56.0003 45.9262 55.8331 45.947C55.1348 45.947 54.6841 46.1135 54.4933 46.4423C54.4308 46.5786 54.4018 46.7279 54.4089 46.8776C54.4159 47.0274 54.4588 47.1733 54.5339 47.303C54.5618 47.3484 54.6064 47.3809 54.6581 47.3936C54.7098 47.4063 54.7644 47.3983 54.8102 47.3711C54.856 47.3439 54.8893 47.2999 54.9029 47.2484C54.9165 47.197 54.9094 47.1422 54.883 47.096C54.8439 47.0276 54.8203 46.9513 54.814 46.8727C54.8077 46.7941 54.8188 46.7151 54.8465 46.6413C54.9561 46.4545 55.3053 46.353 55.8331 46.353C56.2391 46.353 56.3122 46.5113 56.3406 46.5601C56.5842 47.0067 56.0523 48.1516 55.6626 48.7687C55.6422 48.8002 55.6309 48.8368 55.6301 48.8743V51.0342C55.6332 51.0859 55.6559 51.1344 55.6937 51.1699C55.7314 51.2054 55.7813 51.2251 55.8331 51.225Z" fill="#263238"/>
<path d="M62.4428 54.8506C62.4915 54.8871 62.2317 58.3909 62.3291 58.7969C62.5646 59.7794 63.2386 60.5468 63.47 61.4765C63.8192 62.9016 63.6608 64.6758 63.7501 66.1455C64.1155 72.3086 64.4363 78.4717 64.757 84.6388C64.8342 86.1573 64.9154 87.6757 64.9925 89.1941C65.1021 91.285 64.8057 93.38 64.8545 95.475C64.891 96.9487 65.4513 99.9775 64.6758 101.281C63.9004 102.584 59.5643 101.882 58.1514 101.874L52.3456 101.821C51.0992 101.821 49.8406 101.861 48.5982 101.792C47.7091 101.744 47.6563 101.841 47.2706 101.074C46.8849 100.306 46.9905 98.8651 46.9864 98.0165C46.9336 87.1723 47.6928 76.2509 47.9649 65.3741L48.0461 62.2033C48.0461 62.2033 50.3846 57.8712 49.394 55.2647L51.8543 52.9708C51.8543 52.9708 54.6395 55.0008 56.097 54.7491C57.5546 54.4974 59.5359 52.5811 59.5359 52.5811L62.4428 54.8506Z" fill="#407BFF"/>
<path opacity="0.2" d="M62.4428 54.8506C62.4915 54.8871 62.2317 58.3909 62.3291 58.7969C62.5646 59.7794 63.2386 60.5468 63.47 61.4765C63.8192 62.9016 63.6608 64.6758 63.7501 66.1455C64.1155 72.3086 64.4363 78.4717 64.757 84.6388C64.8342 86.1573 64.9154 87.6757 64.9925 89.1941C65.1021 91.285 64.8057 93.38 64.8545 95.475C64.891 96.9487 65.4513 99.9775 64.6758 101.281C63.9004 102.584 59.5643 101.882 58.1514 101.874L52.3456 101.821C51.0992 101.821 49.8406 101.861 48.5982 101.792C47.7091 101.744 47.6563 101.841 47.2706 101.074C46.8849 100.306 46.9905 98.8651 46.9864 98.0165C46.9336 87.1723 47.6928 76.2509 47.9649 65.3741L48.0461 62.2033C48.0461 62.2033 50.3846 57.8712 49.394 55.2647L51.8543 52.9708C51.8543 52.9708 54.6395 55.0008 56.097 54.7491C57.5546 54.4974 59.5359 52.5811 59.5359 52.5811L62.4428 54.8506Z" fill="black"/>
<path d="M55.825 54.7694C55.825 54.7694 54.4974 58.0174 53.7503 58.0499C53.0033 58.0824 49.9989 54.4568 49.9989 54.4568C49.9989 54.4568 51.2169 52.3091 51.7122 52.3091C52.2075 52.3091 55.825 54.7694 55.825 54.7694Z" fill="#407BFF"/>
<path d="M55.825 54.7694C55.825 54.7694 58.9431 52.1995 59.479 52.3091C60.0149 52.4187 61.5577 54.1564 61.5577 54.1564C61.5577 54.1564 58.8375 58.0093 57.9809 58.0499C57.1242 58.0905 55.825 54.7694 55.825 54.7694Z" fill="#407BFF"/>
<path opacity="0.2" d="M68.208 100.716C68.3058 103.73 68.1264 106.745 67.6721 109.726C67.3473 111.731 67.0347 112.214 64.9235 111.788C63.5837 111.516 62.2195 110.818 60.835 111.264C60.3722 111.414 59.9581 111.67 59.5115 111.877C58.4802 112.324 57.3191 112.332 56.1945 112.332H48.2775C46.4383 112.332 44.6559 112.738 44.4611 110.521C43.71 101.764 43.9251 92.9496 44.5666 84.1922C44.729 81.9998 44.9144 79.8088 45.1228 77.6191C45.3015 75.7393 45.8252 73.624 45.5288 71.7483C44.9929 68.3744 46.2272 65.8085 46.3084 62.3697C46.3408 60.9 45.9389 57.7088 46.9052 56.434C47.7659 55.2931 52.0533 51.3468 52.0533 51.3468C52.0533 51.3468 54.1239 53.6935 55.9833 53.6935C57.8428 53.6935 59.4952 51.3468 59.4952 51.3468C59.4952 51.3468 65.3538 55.8128 65.6746 57.2216C65.9953 58.6304 66.0075 62.3697 66.4216 66.7586C66.921 72.065 66.4987 77.2861 66.8276 82.5926C67.1565 87.899 67.871 93.1486 68.139 98.4266C68.143 99.202 68.1755 99.9612 68.208 100.716Z" fill="white"/>
<path opacity="0.2" d="M89.726 101.934C89.8238 104.948 89.6444 107.963 89.19 110.944C88.8652 112.949 88.5526 113.432 86.4414 113.006C85.1057 112.734 83.7375 112.04 82.3571 112.482C81.8942 112.632 81.4801 112.888 81.0335 113.095C80.0023 113.542 78.8411 113.55 77.7165 113.554H69.7995C67.9603 113.554 66.1739 113.96 65.9831 111.743C65.232 102.986 65.4431 94.1717 66.0846 85.4142C66.247 83.2219 66.4378 81.0335 66.6449 78.8411C66.8235 76.9613 67.3432 74.8461 67.0509 72.9703C66.5149 69.5965 66.5271 66.2186 66.6083 62.7798C66.6408 61.31 66.2389 58.1189 67.2051 56.844C68.0659 55.7032 73.5712 52.5688 73.5712 52.5688C73.5712 52.5688 75.6418 54.9196 77.5013 54.9196C79.3608 54.9196 81.0132 52.5688 81.0132 52.5688C81.0132 52.5688 87.6838 56.2228 88.0045 57.6317C88.3253 59.0405 87.5254 63.5918 87.9396 67.9806C88.443 73.287 88.0167 78.5082 88.3456 83.8146C88.6744 89.121 89.389 94.3706 89.6569 99.6486C89.684 100.417 89.707 101.179 89.726 101.934Z" fill="white"/>
<path opacity="0.2" d="M101.317 52.5811C101.317 52.5811 99.6689 54.9318 97.8095 54.9318C95.95 54.9318 93.8753 52.5811 93.8753 52.5811C93.8753 52.5811 89.0033 56.1457 88.1588 57.2907C87.3144 58.4356 86.7987 71.3139 87.1966 76.8802C87.5945 82.4464 80.7331 126.542 81.3056 130.423C81.878 134.305 92.1173 132.924 98.1546 132.973C104.192 133.022 112.616 135.214 113.583 131.942C114.549 128.67 113.006 110.903 110.903 101.922C108.8 92.9415 108.666 72.3857 108.252 67.9928C107.838 63.5999 107.513 58.6832 107.192 57.2907C106.871 55.8981 101.317 52.5811 101.317 52.5811Z" fill="white"/>
<path d="M74.9963 146.846H134.885V93.8022H74.9963V146.846Z" fill="#407BFF"/>
<path opacity="0.6" d="M74.9963 146.846H134.885V93.8022H74.9963V146.846Z" fill="#FAFAFA"/>
<path opacity="0.3" d="M74.9922 146.846H109.34V93.8022H74.9922V146.846Z" fill="#F5F5F5"/>
<path opacity="0.2" d="M109.344 98.8488H74.9963V99.5471H109.344V98.8488Z" fill="black"/>
<path opacity="0.2" d="M134.885 139.002H74.9963V139.899H134.885V139.002Z" fill="black"/>
<path opacity="0.2" d="M100.688 96.2991C100.688 96.4212 100.652 96.5405 100.584 96.642C100.516 96.7435 100.42 96.8226 100.307 96.8693C100.194 96.916 100.07 96.9282 99.9505 96.9044C99.8307 96.8806 99.7208 96.8218 99.6345 96.7355C99.5482 96.6492 99.4894 96.5392 99.4656 96.4195C99.4418 96.2998 99.454 96.1757 99.5007 96.063C99.5474 95.9502 99.6265 95.8538 99.728 95.786C99.8295 95.7182 99.9488 95.682 100.071 95.682C100.235 95.682 100.391 95.747 100.507 95.8628C100.623 95.9785 100.688 96.1355 100.688 96.2991Z" fill="black"/>
<path opacity="0.2" d="M103.075 96.2991C103.076 96.4223 103.04 96.5429 102.972 96.6457C102.904 96.7485 102.807 96.8287 102.694 96.8762C102.58 96.9238 102.455 96.9364 102.334 96.9126C102.213 96.8887 102.102 96.8295 102.015 96.7424C101.928 96.6552 101.868 96.5442 101.845 96.4233C101.821 96.3024 101.833 96.1772 101.881 96.0635C101.928 95.9499 102.009 95.8529 102.111 95.7849C102.214 95.717 102.335 95.6812 102.458 95.682C102.622 95.682 102.779 95.747 102.894 95.8627C103.01 95.9784 103.075 96.1354 103.075 96.2991Z" fill="black"/>
<path opacity="0.2" d="M81.1269 96.9162C81.4678 96.9162 81.7441 96.6399 81.7441 96.2991C81.7441 95.9583 81.4678 95.682 81.1269 95.682C80.7861 95.682 80.5098 95.9583 80.5098 96.2991C80.5098 96.6399 80.7861 96.9162 81.1269 96.9162Z" fill="black"/>
<path opacity="0.2" d="M84.1232 96.2991C84.1232 96.4212 84.087 96.5405 84.0192 96.642C83.9513 96.7435 83.855 96.8226 83.7422 96.8693C83.6294 96.916 83.5054 96.9282 83.3856 96.9044C83.2659 96.8806 83.156 96.8218 83.0697 96.7355C82.9834 96.6492 82.9246 96.5392 82.9008 96.4195C82.877 96.2998 82.8892 96.1757 82.9359 96.063C82.9826 95.9502 83.0617 95.8538 83.1632 95.786C83.2647 95.7182 83.384 95.682 83.506 95.682C83.6697 95.682 83.8267 95.747 83.9424 95.8628C84.0581 95.9785 84.1232 96.1355 84.1232 96.2991Z" fill="black"/>
<path opacity="0.2" d="M96.8635 94.801H86.7257C86.4835 94.801 86.2872 94.9973 86.2872 95.2394V97.3588C86.2872 97.6009 86.4835 97.7972 86.7257 97.7972H96.8635C97.1057 97.7972 97.302 97.6009 97.302 97.3588V95.2394C97.302 94.9973 97.1057 94.801 96.8635 94.801Z" fill="black"/>
<path opacity="0.3" d="M78.8777 100.944H77.0548C76.7722 100.944 76.5432 101.173 76.5432 101.455V104.626C76.5432 104.909 76.7722 105.138 77.0548 105.138H78.8777C79.1602 105.138 79.3893 104.909 79.3893 104.626V101.455C79.3893 101.173 79.1602 100.944 78.8777 100.944Z" fill="#F5F5F5"/>
<path opacity="0.1" d="M78.8655 102.718C78.8655 103.4 78.4595 103.936 77.9642 103.936C77.4688 103.936 77.0669 103.384 77.0669 102.718C77.0669 102.052 77.4729 101.48 77.9642 101.48C78.4554 101.48 78.8655 102.028 78.8655 102.718Z" fill="black"/>
<path opacity="0.1" d="M78.9142 104.305H77.0142V104.618H78.9142V104.305Z" fill="black"/>
<path d="M91.7925 134.386C97.9902 134.386 103.014 127.54 103.014 119.096C103.014 110.652 97.9902 103.806 91.7925 103.806C85.5949 103.806 80.5707 110.652 80.5707 119.096C80.5707 127.54 85.5949 134.386 91.7925 134.386Z" fill="#263238"/>
<path opacity="0.2" d="M103.014 119.096C103.014 127.541 97.9921 134.386 91.7925 134.386H91.6017C97.716 134.252 102.637 127.46 102.637 119.1C102.637 110.741 97.716 103.936 91.6017 103.81H91.7925C97.9921 103.806 103.014 110.651 103.014 119.096Z" fill="black"/>
<path opacity="0.3" d="M91.7925 134.386C97.9902 134.386 103.014 127.54 103.014 119.096C103.014 110.652 97.9902 103.806 91.7925 103.806C85.5949 103.806 80.5707 110.652 80.5707 119.096C80.5707 127.54 85.5949 134.386 91.7925 134.386Z" fill="#F5F5F5"/>
<path opacity="0.3" d="M101.122 119.096C101.122 125.827 97.6471 131.414 93.1405 132.352C92.6971 132.444 92.2455 132.492 91.7925 132.494C90.5718 132.487 89.3749 132.155 88.3253 131.532C88.0576 131.379 87.7999 131.21 87.5539 131.024C86.0003 129.82 84.7768 128.241 83.9973 126.436C83.65 125.677 83.3635 124.891 83.1407 124.086C83.0432 123.741 82.9539 123.391 82.8768 123.03C82.6032 121.737 82.4671 120.418 82.4708 119.096C82.4708 111.711 86.6526 105.698 91.8088 105.698C92.2616 105.699 92.7132 105.745 93.1567 105.836C93.8443 105.983 94.5064 106.231 95.1217 106.571C95.341 106.689 95.5521 106.823 95.7673 106.977C96.2769 107.322 96.7502 107.718 97.1802 108.158C98.4396 109.475 99.4079 111.043 100.022 112.758C100.149 113.08 100.263 113.409 100.363 113.745C100.879 115.481 101.135 117.285 101.122 119.096Z" fill="#F5F5F5"/>
<path d="M101.122 119.096C101.122 125.827 97.6471 131.414 93.1405 132.352C88.638 131.41 85.1626 125.823 85.1626 119.096C85.1626 112.369 88.638 106.782 93.1405 105.84C97.6471 106.778 101.122 112.369 101.122 119.096Z" fill="#263238"/>
<path d="M72.1097 134.386C78.7042 134.386 84.0501 127.54 84.0501 119.096C84.0501 110.652 78.7042 103.806 72.1097 103.806C65.5151 103.806 60.1692 110.652 60.1692 119.096C60.1692 127.54 65.5151 134.386 72.1097 134.386Z" fill="#407BFF"/>
<path opacity="0.2" d="M60.1733 119.096C60.1733 127.541 65.5162 134.386 72.1137 134.386H72.3127C65.8167 134.252 60.5752 127.46 60.5752 119.1C60.5752 110.741 65.8086 103.952 72.3127 103.814H72.1137C65.5162 103.806 60.1733 110.651 60.1733 119.096Z" fill="black"/>
<path opacity="0.2" d="M72.9176 133.249C78.8439 133.249 83.6482 126.913 83.6482 119.096C83.6482 111.279 78.8439 104.943 72.9176 104.943C66.9913 104.943 62.187 111.279 62.187 119.096C62.187 126.913 66.9913 133.249 72.9176 133.249Z" fill="black"/>
<path d="M74.436 132.413C79.8646 132.413 84.2653 126.451 84.2653 119.096C84.2653 111.741 79.8646 105.779 74.436 105.779C69.0075 105.779 64.6068 111.741 64.6068 119.096C64.6068 126.451 69.0075 132.413 74.436 132.413Z" fill="#407BFF"/>
<path opacity="0.5" d="M82.6575 119.096C82.6575 125.287 79.0766 130.517 74.838 130.517C73.6558 130.502 72.5076 130.119 71.5535 129.421C71.2852 129.234 71.0302 129.029 70.7902 128.808C69.2429 127.311 68.1399 125.415 67.6031 123.331C67.3429 122.401 67.1703 121.45 67.0875 120.489C67.0523 120.058 67.032 119.624 67.0266 119.185V119.092C67.0266 112.9 70.6034 107.671 74.838 107.671C75.3369 107.67 75.8333 107.741 76.3118 107.882C76.5773 107.96 76.8366 108.058 77.0872 108.175C77.6763 108.447 78.2232 108.802 78.7112 109.23C80.1059 110.495 81.1541 112.095 81.7562 113.879C81.878 114.216 81.9876 114.565 82.0851 114.918C82.4641 116.279 82.6567 117.684 82.6575 119.096Z" fill="#F5F5F5"/>
<path opacity="0.2" d="M83.0595 119.096C83.0595 125.287 79.4826 130.517 75.2399 130.517C74.9681 130.517 74.6966 130.497 74.4279 130.456C78.3012 129.843 81.4355 124.89 81.4355 119.088C81.4355 113.286 78.3012 108.341 74.4279 107.72C74.6963 107.675 74.9679 107.654 75.2399 107.655C79.4826 107.675 83.0595 112.904 83.0595 119.096Z" fill="black"/>
<path opacity="0.1" d="M76.328 107.886C72.8581 111.33 69.7471 115.117 67.0428 119.189V119.096C67.0428 112.904 70.6196 107.675 74.8542 107.675C75.3531 107.674 75.8496 107.745 76.328 107.886Z" fill="#F5F5F5"/>
<path opacity="0.1" d="M78.7194 109.234C74.443 113.453 70.7088 118.188 67.6031 123.331C67.3429 122.401 67.1703 121.45 67.0875 120.489C69.9608 116.031 73.314 111.902 77.0872 108.175C77.6794 108.448 78.2291 108.804 78.7194 109.234Z" fill="#F5F5F5"/>
<path opacity="0.1" d="M82.0932 114.922C77.9832 119.294 74.4369 124.163 71.5372 129.417C71.269 129.23 71.014 129.025 70.7739 128.803C73.769 123.377 77.4536 118.36 81.7359 113.879C81.8861 114.22 82.012 114.569 82.0932 114.922Z" fill="#F5F5F5"/>
<path d="M60.1367 105.284C60.5224 105.917 60.9487 106.607 61.3547 107.253C61.7607 107.899 62.2114 108.552 62.6539 109.169C63.0849 109.774 63.547 110.355 64.0384 110.911C64.2602 111.158 64.4946 111.394 64.7408 111.618C64.8454 111.712 64.9551 111.8 65.0696 111.881L65.1711 111.954L65.2686 112.003C65.8174 112.167 66.3962 112.205 66.9616 112.113C67.6975 112.033 68.4263 111.897 69.1418 111.707C70.6551 111.303 72.1459 110.819 73.6078 110.257H73.6403C73.8605 110.174 74.1047 110.182 74.3193 110.279C74.534 110.375 74.7015 110.553 74.7852 110.773C74.8546 110.961 74.8591 111.168 74.7981 111.359C74.7371 111.55 74.6139 111.715 74.4482 111.829C73.0445 112.78 71.5482 113.586 69.9822 114.236C69.16 114.579 68.3096 114.851 67.4407 115.048C66.965 115.152 66.4815 115.215 65.9953 115.239C65.4248 115.272 64.8528 115.21 64.3023 115.056C64.1412 115.011 63.9838 114.954 63.8313 114.886C63.6808 114.822 63.5344 114.749 63.3929 114.667C63.1613 114.535 62.9376 114.39 62.723 114.232C62.3355 113.946 61.9679 113.634 61.6227 113.298C60.9881 112.679 60.3954 112.019 59.8485 111.321C58.7881 109.98 57.8377 108.556 57.0065 107.062C56.7855 106.655 56.7313 106.178 56.8551 105.732C56.979 105.286 57.2714 104.905 57.6705 104.67C58.0697 104.435 58.5444 104.365 58.9947 104.473C59.4449 104.582 59.8355 104.861 60.084 105.251L60.1367 105.284Z" fill="#EABDBD"/>
<path opacity="0.2" d="M60.1367 105.284C60.5224 105.917 60.9487 106.607 61.3547 107.253C61.7607 107.899 62.2114 108.552 62.6539 109.169C63.0849 109.774 63.547 110.355 64.0384 110.911C64.2602 111.158 64.4946 111.394 64.7408 111.618C64.8454 111.712 64.9551 111.8 65.0696 111.881L65.1711 111.954L65.2686 112.003C65.8174 112.167 66.3962 112.205 66.9616 112.113C67.6975 112.033 68.4263 111.897 69.1418 111.707C70.6551 111.303 72.1459 110.819 73.6078 110.257H73.6403C73.8605 110.174 74.1047 110.182 74.3193 110.279C74.534 110.375 74.7015 110.553 74.7852 110.773C74.8546 110.961 74.8591 111.168 74.7981 111.359C74.7371 111.55 74.6139 111.715 74.4482 111.829C73.0445 112.78 71.5482 113.586 69.9822 114.236C69.16 114.579 68.3096 114.851 67.4407 115.048C66.965 115.152 66.4815 115.215 65.9953 115.239C65.4248 115.272 64.8528 115.21 64.3023 115.056C64.1412 115.011 63.9838 114.954 63.8313 114.886C63.6808 114.822 63.5344 114.749 63.3929 114.667C63.1613 114.535 62.9376 114.39 62.723 114.232C62.3355 113.946 61.9679 113.634 61.6227 113.298C60.9881 112.679 60.3954 112.019 59.8485 111.321C58.7881 109.98 57.8377 108.556 57.0065 107.062C56.7855 106.655 56.7313 106.178 56.8551 105.732C56.979 105.286 57.2714 104.905 57.6705 104.67C58.0697 104.435 58.5444 104.365 58.9947 104.473C59.4449 104.582 59.8355 104.861 60.084 105.251L60.1367 105.284Z" fill="black"/>
<path d="M59.6049 104.427C60.5143 105.04 61.8135 107.411 61.8135 107.411L58.5655 110.034L57.2582 109.06L59.6049 104.427Z" fill="#263238"/>
<path opacity="0.3" d="M61.8135 107.411L59.7307 109.1L58.5818 110.034L58.3909 109.892L57.2785 109.06L58.6589 106.303L59.6008 104.427C60.3235 104.91 61.2898 106.502 61.6552 107.143L61.8135 107.411Z" fill="#F5F5F5"/>
<path d="M62.187 107.626L59.7795 109.433L58.5777 110.335L58.3585 109.92L58.3909 109.892L59.6739 108.812L61.6592 107.143L61.8135 107.013L62.187 107.626Z" fill="#263238"/>
<path opacity="0.2" d="M59.7794 109.433L58.5614 110.334L58.3341 109.928L58.3706 109.9L57.2582 109.068L58.6386 106.311C59.0966 107.093 59.4476 107.933 59.682 108.808C59.7064 108.905 59.7226 109.003 59.7388 109.096C59.7582 109.208 59.7717 109.32 59.7794 109.433Z" fill="black"/>
<path d="M72.8973 110.671L74.9638 109.19L75.4673 112.121C75.4673 112.121 73.8433 112.685 72.5278 111.691L72.8973 110.671Z" fill="#FFC3BD"/>
<path d="M77.4648 109.315L77.4323 111.565L75.4673 112.121L74.9639 109.19L77.4648 109.315Z" fill="#FFC3BD"/>
<path d="M46.4586 141.044L44.8752 144.56L41.343 144.053L38.6634 143.663L35.3504 143.184L37.0597 141.735L39.7149 141.54L42.2646 141.353L46.4586 141.044Z" fill="#EEC1BB"/>
<path opacity="0.2" d="M42.2646 141.353L41.343 144.053L38.6634 143.663L39.7149 141.54L42.2646 141.353Z" fill="black"/>
<path d="M38.57 141.824C38.7405 141.998 36.5034 144.008 36.5034 144.008C36.5034 144.008 33.8685 144.008 32.3135 144.995C30.7585 145.981 30.6895 144.512 32.0943 143.078L35.5656 139.542C36.54 138.523 36.7836 140.009 38.57 141.824Z" fill="#407BFF"/>
<path d="M36.3289 143.947H36.3613H36.3857V143.972C36.5658 144.311 36.6272 144.701 36.5603 145.08C36.5355 145.143 36.4977 145.199 36.4495 145.246C36.4012 145.293 36.3434 145.329 36.2801 145.352C36.2299 145.379 36.1727 145.39 36.1161 145.383C36.0595 145.377 36.0063 145.353 35.9635 145.315C35.8579 145.198 35.8944 144.934 35.9635 144.67C35.8307 144.857 35.6497 145.004 35.4397 145.096C35.3968 145.11 35.3515 145.115 35.3068 145.11C35.262 145.105 35.2188 145.091 35.1799 145.068C35.1256 145.046 35.0795 145.007 35.0482 144.958C35.0169 144.908 35.0019 144.85 35.0053 144.792C35.0232 144.7 35.0701 144.616 35.1393 144.552C35.4976 144.283 35.9001 144.078 36.3289 143.947ZM36.1746 144.179C35.728 144.365 35.2245 144.642 35.2124 144.824C35.2124 144.824 35.2124 144.889 35.3098 144.95C35.3529 144.967 35.4007 144.967 35.4438 144.95C35.5569 144.904 35.6582 144.833 35.7402 144.743C35.9034 144.57 36.0489 144.381 36.1746 144.179ZM36.4547 145.039C36.5078 144.765 36.4723 144.48 36.3532 144.227C36.1624 144.662 36.0284 145.133 36.1218 145.23C36.1502 145.263 36.2233 145.23 36.268 145.23C36.3093 145.214 36.3471 145.19 36.3791 145.16C36.4112 145.129 36.4369 145.092 36.4547 145.052V145.039Z" fill="#407BFF"/>
<path d="M69.8888 141.694C69.1499 144.536 67.0468 145.429 64.9072 145.531C62.3291 145.661 39.6378 144.244 39.6378 144.244L40.8314 140.756L60.8147 139.968L49.7878 133.858C49.7878 133.858 39.382 132.356 40.2224 124.922C40.5872 122.092 41.357 119.328 42.5082 116.717C42.5934 116.51 42.6868 116.311 42.7761 116.108L53.523 115.491L53.6001 116.006L54.201 119.876L55.419 123.124C55.419 123.124 71.456 135.628 69.8888 141.694Z" fill="#263238"/>
<path opacity="0.2" d="M55.9062 123.53L42.0494 130.265C44.8467 133.152 49.7878 133.858 49.7878 133.858L60.8147 139.977L40.8314 140.764L39.6378 144.252C39.6378 144.252 62.3291 145.669 64.9072 145.539C67.0265 145.437 69.1499 144.556 69.8888 141.702C71.2936 136.266 58.5817 125.681 55.9062 123.53Z" fill="black"/>
<path d="M66.2876 135.064L65.7436 136.176L63.4862 140.756L61.6552 144.475L59.9094 144.39L60.9041 140.318L62.0368 135.665L62.2885 134.63L66.2876 135.064Z" fill="#EEC1BB"/>
<path opacity="0.2" d="M65.7436 136.176L63.4862 140.756L60.9041 140.318L62.0368 135.665L65.7436 136.176Z" fill="black"/>
<path d="M59.6089 104.427C59.6089 104.427 58.5939 112.6 54.0751 119.064C54.0751 119.064 44.4448 117.846 42.3011 117.224C43.6369 113.278 44.4326 110.647 44.9848 103.246C45.1188 101.459 46.7347 100.432 48.4967 100.749C50.2304 100.869 51.9421 101.206 53.592 101.752C55.756 102.45 59.6089 104.427 59.6089 104.427Z" fill="#263238"/>
<path d="M40.4335 124.236C40.4335 124.236 39.2155 131.861 44.8021 132.624C53.9736 133.874 62.5159 124.833 63.5755 124.853C64.6352 124.873 60.5265 139.542 60.5265 139.542L64.6311 140.155C64.6311 140.155 72.0447 122.084 70.2461 118.191C68.4475 114.297 46.9295 124.378 40.4335 124.236Z" fill="#263238"/>
<path d="M59.682 143.103C59.682 142.859 62.6905 143.046 62.6905 143.046C62.6905 143.046 64.5378 144.922 66.3445 145.344C68.1512 145.766 67.1565 146.842 65.1265 146.842H60.153C58.7279 146.85 59.6171 145.636 59.682 143.103Z" fill="#407BFF"/>
<path d="M62.7473 143.196H62.7229C62.7229 143.196 62.7229 143.196 62.7229 143.172C62.7212 143.164 62.7212 143.155 62.7229 143.147C62.7209 143.137 62.7209 143.126 62.7229 143.115C62.7229 143.078 62.9868 142.384 63.3928 142.214C63.4561 142.183 63.5255 142.167 63.5958 142.167C63.6661 142.167 63.7355 142.183 63.7988 142.214C63.9328 142.279 64.0018 142.364 63.9937 142.465C63.9856 142.567 63.7704 142.782 63.5268 142.912C63.7539 142.874 63.9871 142.899 64.2008 142.985C64.2401 143.006 64.2747 143.035 64.3026 143.07C64.3305 143.105 64.3511 143.145 64.3632 143.188C64.3846 143.243 64.3891 143.302 64.376 143.36C64.363 143.417 64.333 143.469 64.2901 143.509C64.2132 143.563 64.12 143.589 64.0262 143.582C63.5801 143.532 63.1468 143.401 62.7473 143.196ZM63.0234 143.147C63.4659 143.334 64.014 143.501 64.1561 143.383C64.1561 143.383 64.2048 143.342 64.1561 143.225C64.1501 143.202 64.1394 143.181 64.1247 143.163C64.11 143.145 64.0917 143.13 64.0708 143.119C63.9602 143.069 63.8389 143.047 63.7176 143.054C63.4836 143.061 63.2509 143.092 63.0234 143.147ZM63.4294 142.335C63.1928 142.49 63.0121 142.716 62.9137 142.981C63.3603 142.815 63.7866 142.575 63.7948 142.445C63.7948 142.404 63.7298 142.364 63.6892 142.344C63.6458 142.324 63.5989 142.313 63.5512 142.311C63.5116 142.315 63.4731 142.326 63.4375 142.344L63.4294 142.335Z" fill="#407BFF"/>
<path d="M61.4359 110.46C60.8554 109.689 62.8935 106.961 64.1764 107.123C65.4594 107.285 68.139 107.935 69.491 107.042C70.843 106.149 73.4617 107.009 74.4361 107.627C75.4105 108.244 75.8571 107.042 77.0669 109.19C78.2768 111.337 79.0076 110.777 79.3893 114.801C79.7709 118.824 83.9689 125.194 87.1885 125.718C90.4081 126.242 91.4515 128.714 93.1405 127.817C94.8294 126.92 98.7149 127.508 98.7149 127.508C98.7149 127.508 96.628 131.796 92.162 131.95C92.162 131.95 89.592 139.018 84.1151 138.219C78.6382 137.419 73.892 133.359 71.6671 123.83C70.9798 121.015 69.7156 118.373 67.9545 116.072C66.1934 113.77 63.9737 111.86 61.4359 110.46Z" fill="#407BFF"/>
<path opacity="0.9" d="M98.7148 127.508C98.7148 127.508 96.628 131.792 92.162 131.95C92.162 131.95 89.592 139.022 84.1151 138.219C78.6381 137.415 73.892 133.363 71.6671 123.83C69.6371 115.113 62.7351 111.138 61.5983 110.529L61.4359 110.448C61.3866 110.368 61.3537 110.278 61.3391 110.185C61.3245 110.091 61.3284 109.996 61.3507 109.904C61.5334 108.828 63.1127 106.977 64.1927 107.115C65.094 107.229 66.6733 107.582 68.0009 107.476C68.5317 107.454 69.0489 107.302 69.5072 107.034C69.7542 106.875 70.0302 106.768 70.3192 106.717C71.724 106.441 73.6362 107.123 74.436 107.618C74.5923 107.721 74.7701 107.786 74.9557 107.809C75.4754 107.874 75.8773 107.618 76.4945 108.337C76.7122 108.597 76.9027 108.879 77.0629 109.177C78.2809 111.321 79.0035 110.769 79.3892 114.792C79.5841 116.822 80.729 119.413 82.2312 121.577C83.5304 123.448 85.0732 124.987 86.5348 125.531C86.7455 125.61 86.9629 125.67 87.1844 125.71C89.7991 126.136 90.9765 127.841 92.231 127.987C92.5442 128.029 92.8623 127.966 93.1364 127.809C93.3577 127.696 93.5905 127.608 93.8307 127.545C95.7226 127.054 98.7148 127.508 98.7148 127.508Z" fill="#F5F5F5"/>
<path opacity="0.1" d="M98.7148 127.508C98.7148 127.508 96.628 131.792 92.162 131.95C92.162 131.95 89.592 139.022 84.1151 138.219C78.6381 137.415 73.892 133.363 71.6671 123.83C69.6371 115.113 62.7351 111.138 61.5983 110.529C61.4684 110.209 61.3872 109.994 61.3506 109.904C61.5049 109.994 62.6661 108.499 64.5986 108.873C66.6774 109.279 69.7711 112.068 71.0216 117.565C72.272 123.063 74.6268 134.142 80.0185 136.741C85.4102 139.339 90.1036 136.095 90.8506 134.025C91.5976 131.954 94.7847 127.151 98.7148 127.508Z" fill="black"/>
<path opacity="0.1" d="M93.8509 127.549C92.1092 128.316 89.9127 131.97 87.2128 131.942C84.5129 131.913 81.7643 128.523 82.4667 128.868C83.1691 129.214 85.7147 131.175 88.102 129.745C90.4893 128.316 93.8509 127.549 93.8509 127.549Z" fill="black"/>
<path opacity="0.1" d="M72.1096 112.283C70.8592 109.311 69.4097 108.045 67.9847 107.484C68.5154 107.462 69.0326 107.31 69.4909 107.042C69.738 106.884 70.014 106.776 70.3029 106.725C72.9298 108.617 73.6078 115.824 72.1096 112.283Z" fill="black"/>
<path opacity="0.1" d="M76.4944 108.345C76.3483 110.172 75.4754 112.434 75.4673 110.335C75.4935 109.467 75.3184 108.606 74.9557 107.817C75.4754 107.882 75.8773 107.626 76.4944 108.345Z" fill="black"/>
<path opacity="0.1" d="M86.5389 125.539C80.7696 126.307 75.4551 120.777 74.0503 117.314C73.5347 116.039 78.1103 120.424 80.5707 121.447C81.338 121.772 81.8658 121.755 82.2353 121.585C83.5345 123.456 85.0935 124.995 86.5389 125.539Z" fill="black"/>
<path d="M60.3844 110.858L62.5037 109.449L62.9097 112.401C62.9097 112.401 61.2573 112.905 59.9865 111.857L60.3844 110.858Z" fill="#FFC3BD"/>
<path d="M64.9966 109.669L64.8829 111.914L62.8975 112.401L62.5037 109.449L64.9966 109.669Z" fill="#FFC3BD"/>
<path opacity="0.3" d="M59.6049 104.427C59.3032 106.472 58.8306 108.487 58.192 110.452C57.2546 113.511 55.8671 116.413 54.0751 119.064C54.0751 119.064 44.4448 117.846 42.3011 117.224C42.5529 116.481 42.7843 115.787 42.9995 115.097C43.737 112.754 44.2495 110.347 44.5301 107.907C44.6803 106.754 44.8062 105.471 44.9361 103.944C44.9361 103.717 44.9686 103.485 44.9889 103.246C45.1228 101.459 46.7387 100.432 48.5048 100.753C48.7525 100.798 49.2843 100.81 50.1288 100.927C50.2051 100.933 50.281 100.942 50.3562 100.956C51.4585 101.141 52.5445 101.412 53.6042 101.768C54.136 101.938 54.7694 102.174 55.4231 102.47C57.4246 103.303 59.6049 104.427 59.6049 104.427Z" fill="#F5F5F5"/>
<path d="M55.3825 101.317C55.0192 101.726 54.7736 102.225 54.672 102.763C54.6459 102.885 54.6505 103.011 54.6852 103.131C54.7199 103.25 54.7837 103.36 54.8709 103.449C54.6801 104.667 53.0642 104.553 53.0642 104.553C51.0951 102.633 51.1438 101.208 51.1438 101.208C51.6376 101.134 52.1058 100.941 52.5072 100.644C52.9086 100.348 53.231 99.957 53.4459 99.5065C53.7347 98.9799 53.944 98.4135 54.067 97.8257L56.3163 100.29C55.9801 100.609 55.668 100.952 55.3825 101.317Z" fill="#EEC1BB"/>
<path opacity="0.2" d="M56.3163 100.282C55.9801 100.601 55.668 100.944 55.3825 101.309C55.0192 101.718 54.7736 102.217 54.672 102.755C54.265 102.32 53.9479 101.809 53.7389 101.252C53.5299 100.695 53.433 100.101 53.454 99.5065C53.7428 98.9799 53.9521 98.4135 54.0751 97.8257L56.3163 100.282Z" fill="black"/>
<path d="M56.0767 90.002C56.0767 90.002 56.2635 87.8624 54.1482 87.566C52.033 87.2697 49.9908 90.8628 53.4093 91.423C56.8278 91.9833 56.0767 90.002 56.0767 90.002Z" fill="#263238"/>
<path d="M57.1567 90.4567C57.1567 90.4567 56.4381 89.4661 54.7004 90.0507C52.9627 90.6354 52.845 92.4136 53.2023 92.4258C53.5595 92.438 56.84 91.2728 57.1567 90.4567Z" fill="#407BFF"/>
<path d="M55.009 98.8934C55.009 98.8934 51.2088 98.8325 52.0573 93.8063C52.9059 88.78 60.8066 88.8246 60.5833 93.4003C60.36 97.9759 55.009 98.8934 55.009 98.8934Z" fill="#263238"/>
<path d="M53.7584 93.5505C53.1657 96.356 52.8531 97.5293 53.8193 99.3969C55.2769 102.202 58.7604 102.487 60.157 99.9531C61.4115 97.6755 62.187 93.4571 59.8444 91.4921C59.3619 91.0446 58.7676 90.7356 58.1242 90.5979C57.4807 90.4602 56.812 90.4988 56.1886 90.7096C55.5653 90.9204 55.0105 91.2957 54.5827 91.7957C54.155 92.2958 53.8702 92.902 53.7584 93.5505Z" fill="#EEC1BB"/>
<path d="M56.7791 92.6005C54.5705 93.855 56.633 97.2167 53.7341 95.8485C50.8353 94.4802 53.7666 90.8303 55.9103 90.6111C58.054 90.3918 56.7791 92.6005 56.7791 92.6005Z" fill="#263238"/>
<path d="M55.9062 90.6638C55.5408 92.5923 55.6342 93.1729 57.4125 93.3475C57.3241 92.893 57.3973 92.422 57.6195 92.0158C57.5954 92.5156 57.7673 93.005 58.0986 93.3799C58.5976 93.3744 59.0957 93.422 59.5846 93.522C59.6003 93.2365 59.6823 92.9585 59.8241 92.71C59.827 93.0566 59.9299 93.395 60.1205 93.6844C60.6033 93.8924 61.0489 94.1776 61.44 94.5289C62.2114 92.6451 59.8769 89.3199 55.9062 90.6638Z" fill="#263238"/>
<path d="M57.7007 95.6982C57.6398 95.9337 57.7007 96.1611 57.855 96.2098C58.0093 96.2585 58.1676 96.1083 58.2285 95.8728C58.2894 95.6373 58.2285 95.41 58.0743 95.3612C57.92 95.3125 57.7616 95.4668 57.7007 95.6982Z" fill="#263238"/>
<path d="M60.425 96.6483C60.3641 96.8797 60.425 97.107 60.5793 97.1558C60.7335 97.2045 60.8919 97.0543 60.9528 96.8229C61.0137 96.5914 60.9528 96.36 60.7985 96.3113C60.6442 96.2626 60.494 96.4128 60.425 96.6483Z" fill="#263238"/>
<path d="M60.7295 96.3032H61.306C61.306 96.3032 60.9203 96.6645 60.7295 96.3032Z" fill="#263238"/>
<path d="M59.5642 96.7782C59.6236 97.3765 59.7601 97.9647 59.9702 98.5281C59.8326 98.5747 59.6861 98.5895 59.5419 98.5712C59.3977 98.5529 59.2596 98.5021 59.1379 98.4225L59.5642 96.7782Z" fill="#D4827D"/>
<path d="M57.652 98.8609C57.7687 98.9249 57.891 98.9779 58.0174 99.0193C58.0259 99.0224 58.0351 99.0236 58.0441 99.0227C58.0531 99.0218 58.0619 99.019 58.0696 99.0143C58.0774 99.0096 58.0841 99.0033 58.0891 98.9957C58.0941 98.9881 58.0974 98.9795 58.0986 98.9706C58.1039 98.9528 58.1022 98.9337 58.0939 98.9171C58.0856 98.9005 58.0713 98.8877 58.054 98.8812C57.7683 98.7895 57.5073 98.6341 57.2906 98.4265C57.074 98.219 56.9074 97.965 56.8035 97.6835C56.7987 97.6655 56.7872 97.65 56.7713 97.6402C56.7555 97.6304 56.7365 97.627 56.7182 97.6308C56.7008 97.6372 56.6865 97.65 56.6782 97.6666C56.67 97.6832 56.6683 97.7023 56.6736 97.7201C56.8463 98.2089 57.1952 98.6157 57.652 98.8609Z" fill="#263238"/>
<path d="M52.4592 95.954C52.4706 96.229 52.5392 96.4985 52.6609 96.7453C52.7826 96.9921 52.9545 97.2108 53.1657 97.3872C53.7016 97.7932 54.2538 97.2126 54.3431 96.4372C54.4202 95.7348 54.2335 94.6792 53.5798 94.5817C52.9261 94.4843 52.4105 95.2192 52.4592 95.954Z" fill="#EEC1BB"/>
<path d="M57.449 94.192C57.4662 94.1999 57.4849 94.2041 57.5038 94.2041C57.5227 94.2041 57.5415 94.1999 57.5586 94.192C57.7105 94.1149 57.8792 94.0771 58.0494 94.0821C58.2197 94.0871 58.3859 94.1346 58.533 94.2204C58.548 94.2305 58.5649 94.2375 58.5827 94.2407C58.6004 94.244 58.6187 94.2435 58.6363 94.2393C58.6538 94.2351 58.6703 94.2272 58.6847 94.2163C58.6991 94.2054 58.7111 94.1915 58.7198 94.1757C58.7374 94.1423 58.7422 94.1037 58.7332 94.067C58.7242 94.0303 58.7021 93.9982 58.6711 93.9768C58.4876 93.8693 58.2806 93.8087 58.0682 93.8002C57.8557 93.7917 57.6445 93.8356 57.4531 93.9281C57.4205 93.9461 57.3961 93.9759 57.3848 94.0114C57.3735 94.0469 57.3761 94.0853 57.3922 94.1189C57.4024 94.1489 57.4224 94.1746 57.449 94.192Z" fill="#263238"/>
<path d="M61.5496 95.6292C61.5656 95.6363 61.5829 95.6399 61.6004 95.6399C61.6178 95.6399 61.6351 95.6363 61.6511 95.6292C61.6682 95.623 61.6839 95.6133 61.6971 95.6008C61.7104 95.5883 61.7209 95.5732 61.7281 95.5565C61.7353 95.5398 61.7391 95.5218 61.7391 95.5036C61.7391 95.4854 61.7354 95.4673 61.7283 95.4506C61.6621 95.2338 61.5467 95.0352 61.391 94.8704C61.2354 94.7056 61.0437 94.579 60.831 94.5006C60.8136 94.4958 60.7955 94.4946 60.7777 94.4972C60.7598 94.4998 60.7428 94.506 60.7275 94.5156C60.7122 94.5251 60.6991 94.5377 60.689 94.5526C60.6788 94.5675 60.6719 94.5844 60.6686 94.6021C60.6608 94.6386 60.6669 94.6767 60.6856 94.7089C60.7044 94.7412 60.7345 94.7654 60.7701 94.7766C60.9375 94.8416 61.0881 94.9437 61.2104 95.0752C61.3328 95.2067 61.4237 95.3642 61.4765 95.5359C61.4813 95.5558 61.4903 95.5744 61.5029 95.5905C61.5155 95.6066 61.5314 95.6199 61.5496 95.6292Z" fill="#263238"/>
<path d="M58.0052 95.3531H58.5817C58.5817 95.3531 58.196 95.7185 58.0052 95.3531Z" fill="#263238"/>
<path d="M60.5671 118.771C60.2179 118.966 48.3018 125.608 45.0092 124.861C41.7165 124.114 41.6028 119.055 41.6028 119.055L42.6584 115.194C42.7766 115.176 42.8914 115.14 42.9995 115.089C44.9117 114.192 48.4033 108.227 48.4033 108.227C48.4033 108.227 49.0976 102.694 50.1126 100.919C50.1889 100.925 50.2648 100.934 50.34 100.948C50.1575 101.446 50.0216 101.959 49.934 102.482C49.7716 103.416 49.4346 106.879 49.4346 106.879L56.9253 108.276C56.3082 103.81 55.4596 102.523 55.4109 102.446C57.1364 103.745 58.1758 110.444 58.1758 110.444C57.7251 113.258 55.7804 117.667 55.1795 118.629C54.5786 119.591 54.8669 120.018 54.8669 120.018L60.5671 118.771Z" fill="#407BFF"/>
<path opacity="0.2" d="M49.3412 104.963C49.3412 104.963 46.0364 107.541 44.5301 107.907C44.6803 106.754 44.8062 105.471 44.9361 103.944C45.7887 103.035 47.1001 102.462 48.9514 102.958C49.1653 103.607 49.2962 104.281 49.3412 104.963Z" fill="black"/>
<path d="M48.2613 103.165C48.5089 104.102 48.7485 105.077 49.0124 106.007C49.2763 106.936 49.5199 107.923 49.7959 108.849C50.072 109.774 50.3562 110.724 50.681 111.597C50.8434 112.032 51.0058 112.462 51.1804 112.815C51.221 112.904 51.2657 112.986 51.3063 113.063L51.3631 113.16C51.2981 113.099 51.2535 113.103 51.3063 113.132C51.5843 113.219 51.8767 113.251 52.167 113.225C52.5953 113.202 53.0214 113.148 53.4418 113.063C54.3714 112.874 55.2891 112.632 56.1904 112.336C57.1202 112.048 58.0459 111.715 58.9675 111.354C59.8891 110.992 60.8229 110.631 61.7283 110.261H61.7486C61.9508 110.19 62.1723 110.193 62.372 110.272C62.5717 110.351 62.7363 110.499 62.8352 110.689C62.9342 110.88 62.9609 111.1 62.9104 111.308C62.8599 111.517 62.7357 111.7 62.5606 111.825C61.6877 112.401 60.8067 112.904 59.9053 113.416C59.004 113.928 58.0743 114.37 57.1242 114.801C56.1512 115.247 55.1471 115.623 54.1198 115.925C53.5628 116.087 52.9941 116.205 52.4187 116.278C51.7054 116.386 50.9774 116.34 50.2831 116.144C49.7794 115.992 49.3235 115.712 48.9596 115.332L48.8175 115.162L48.7525 115.081L48.716 115.028L48.5617 114.809C48.4724 114.671 48.3871 114.533 48.31 114.403C48.0299 113.91 47.7778 113.401 47.5548 112.88C47.1285 111.885 46.7672 110.907 46.4464 109.92C46.1257 108.934 45.8212 107.955 45.5411 106.969C45.2609 105.982 45.0092 105 44.79 103.977C44.6785 103.517 44.7543 103.032 45.0006 102.628C45.2469 102.224 45.6436 101.934 46.1034 101.823C46.5631 101.711 47.0484 101.787 47.4523 102.033C47.8562 102.28 48.1457 102.676 48.2572 103.136L48.2613 103.165Z" fill="#EABDBD"/>
<path d="M48.0054 100.972C46.4017 100.331 43.7343 101.549 44.4814 105.568L48.9474 104.87C48.9474 104.87 49.3128 101.5 48.0054 100.972Z" fill="#263238"/>
<path opacity="0.3" d="M48.0054 100.972C46.4017 100.331 43.7343 101.549 44.4814 105.568L48.9474 104.87C48.9474 104.87 49.3128 101.5 48.0054 100.972Z" fill="#F5F5F5"/>
<path d="M44.2824 105.178L49.0529 104.403L49.0773 104.918L44.3514 105.913L44.2824 105.178Z" fill="#263238"/>
<path d="M112.519 146.846H172.408V93.8022H112.519V146.846Z" fill="#407BFF"/>
<path opacity="0.6" d="M112.519 146.846H172.408V93.8022H112.519V146.846Z" fill="#FAFAFA"/>
<path opacity="0.3" d="M112.515 146.846H146.862V93.8022H112.515V146.846Z" fill="white"/>
<path opacity="0.2" d="M146.866 98.8488H112.519V99.5471H146.866V98.8488Z" fill="black"/>
<path opacity="0.2" d="M172.408 139.002H112.519V139.899H172.408V139.002Z" fill="black"/>
<path opacity="0.2" d="M138.219 96.2991C138.219 96.4212 138.182 96.5405 138.115 96.642C138.047 96.7435 137.95 96.8226 137.838 96.8693C137.725 96.916 137.601 96.9282 137.481 96.9044C137.361 96.8806 137.251 96.8218 137.165 96.7355C137.079 96.6492 137.02 96.5392 136.996 96.4195C136.972 96.2998 136.985 96.1757 137.031 96.063C137.078 95.9502 137.157 95.8538 137.259 95.786C137.36 95.7182 137.479 95.682 137.602 95.682C137.765 95.682 137.922 95.747 138.038 95.8628C138.154 95.9785 138.219 96.1355 138.219 96.2991Z" fill="black"/>
<path opacity="0.2" d="M140.598 96.2991C140.599 96.4223 140.563 96.543 140.495 96.6458C140.427 96.7485 140.33 96.8288 140.216 96.8763C140.103 96.9238 139.977 96.9365 139.856 96.9126C139.736 96.8888 139.625 96.8295 139.537 96.7424C139.45 96.6553 139.391 96.5442 139.367 96.4234C139.343 96.3025 139.356 96.1773 139.404 96.0636C139.451 95.9499 139.531 95.853 139.634 95.785C139.737 95.7171 139.857 95.6812 139.981 95.682C140.144 95.682 140.301 95.747 140.417 95.8628C140.533 95.9785 140.598 96.1355 140.598 96.2991Z" fill="black"/>
<path opacity="0.2" d="M118.649 96.9162C118.99 96.9162 119.267 96.6399 119.267 96.2991C119.267 95.9583 118.99 95.682 118.649 95.682C118.309 95.682 118.032 95.9583 118.032 96.2991C118.032 96.6399 118.309 96.9162 118.649 96.9162Z" fill="black"/>
<path opacity="0.2" d="M121.646 96.2991C121.646 96.4212 121.61 96.5405 121.542 96.642C121.474 96.7435 121.378 96.8226 121.265 96.8693C121.152 96.916 121.028 96.9282 120.908 96.9044C120.789 96.8806 120.679 96.8218 120.592 96.7355C120.506 96.6492 120.447 96.5392 120.423 96.4195C120.4 96.2998 120.412 96.1757 120.458 96.063C120.505 95.9502 120.584 95.8538 120.686 95.786C120.787 95.7182 120.907 95.682 121.029 95.682C121.192 95.682 121.349 95.747 121.465 95.8628C121.581 95.9785 121.646 96.1355 121.646 96.2991Z" fill="black"/>
<path opacity="0.2" d="M134.386 94.801H124.248C124.006 94.801 123.81 94.9973 123.81 95.2395V97.3588C123.81 97.601 124.006 97.7973 124.248 97.7973H134.386C134.628 97.7973 134.824 97.601 134.824 97.3588V95.2395C134.824 94.9973 134.628 94.801 134.386 94.801Z" fill="black"/>
<path opacity="0.3" d="M116.396 100.944H114.573C114.291 100.944 114.062 101.173 114.062 101.455V104.626C114.062 104.909 114.291 105.138 114.573 105.138H116.396C116.679 105.138 116.908 104.909 116.908 104.626V101.455C116.908 101.173 116.679 100.944 116.396 100.944Z" fill="white"/>
<path opacity="0.1" d="M116.388 102.718C116.388 103.4 115.982 103.936 115.487 103.936C114.991 103.936 114.589 103.384 114.589 102.718C114.589 102.052 114.995 101.48 115.487 101.48C115.978 101.48 116.388 102.028 116.388 102.718Z" fill="black"/>
<path opacity="0.1" d="M116.437 104.305H114.537V104.618H116.437V104.305Z" fill="black"/>
<path d="M129.315 134.386C135.513 134.386 140.537 127.54 140.537 119.096C140.537 110.652 135.513 103.806 129.315 103.806C123.117 103.806 118.093 110.652 118.093 119.096C118.093 127.54 123.117 134.386 129.315 134.386Z" fill="#407BFF"/>
<path opacity="0.3" d="M138.645 119.096C138.645 125.828 135.17 131.414 130.663 132.352C130.22 132.444 129.768 132.492 129.315 132.494C128.1 132.489 126.907 132.161 125.86 131.544C125.592 131.391 125.335 131.222 125.089 131.036C123.535 129.832 122.312 128.254 121.532 126.449C121.185 125.689 120.898 124.903 120.675 124.098C120.574 123.753 120.489 123.404 120.411 123.042C120.138 121.749 120.002 120.43 120.005 119.108C120.005 111.723 124.187 105.71 129.343 105.71C129.796 105.711 130.248 105.757 130.691 105.848C131.379 105.995 132.041 106.243 132.656 106.583C132.876 106.701 133.087 106.835 133.302 106.989C133.811 107.335 134.284 107.731 134.715 108.171C135.973 109.489 136.941 111.056 137.557 112.771C137.684 113.093 137.798 113.422 137.898 113.757C138.407 115.491 138.658 117.289 138.645 119.096Z" fill="white"/>
<path opacity="0.2" d="M138.645 119.096C138.645 125.828 135.17 131.414 130.663 132.352C126.156 131.41 122.685 125.823 122.685 119.096C122.685 112.369 126.156 106.782 130.663 105.84C135.17 106.778 138.645 112.369 138.645 119.096Z" fill="black"/>
<path opacity="0.1" d="M132.628 106.575C127.791 111.447 123.673 116.983 120.399 123.018C120.126 121.725 119.99 120.406 119.993 119.084C119.993 111.699 124.175 105.686 129.331 105.686C129.784 105.687 130.236 105.733 130.679 105.824C131.362 105.978 132.019 106.231 132.628 106.575Z" fill="white"/>
<path opacity="0.1" d="M134.686 108.15C129.364 113.51 124.921 119.676 121.52 126.42C121.172 125.661 120.886 124.875 120.663 124.07C123.998 117.772 128.248 112.004 133.274 106.953C133.783 107.304 134.256 107.705 134.686 108.15Z" fill="white"/>
<path opacity="0.1" d="M137.865 113.737C132.998 119.04 128.951 125.043 125.86 131.544C125.592 131.391 125.335 131.222 125.089 131.036C128.275 124.343 132.473 118.181 137.537 112.766C137.656 113.078 137.765 113.401 137.865 113.737Z" fill="white"/>
<path opacity="0.2" d="M140.537 119.096C140.537 127.541 135.515 134.386 129.315 134.386H129.108C135.222 134.252 140.143 127.46 140.143 119.1C140.143 110.741 135.239 103.936 129.108 103.81H129.299C135.515 103.806 140.537 110.651 140.537 119.096Z" fill="black"/>
<path d="M126.477 139.404C128.937 137.374 128.629 134.987 125.584 133.282C122.539 131.576 122.165 131.544 119.758 132.064C117.35 132.583 118 131.406 114.585 131.954C111.171 132.502 108.706 133.598 109.287 135.149C109.868 136.7 122.612 142.567 126.477 139.404Z" fill="#263238"/>
<path opacity="0.3" d="M126.477 139.404C128.937 137.374 128.629 134.987 125.584 133.282C122.539 131.576 122.165 131.544 119.758 132.064C117.35 132.583 118 131.406 114.585 131.954C111.171 132.502 108.706 133.598 109.287 135.149C109.868 136.7 122.612 142.567 126.477 139.404Z" fill="white"/>
<path d="M119.949 137.334C121.061 135.174 118.361 135.06 116.112 133.298C113.863 131.536 112.296 128.99 110.127 130.423C107.959 131.857 108.179 132.774 104.679 133.298C101.179 133.822 100.331 133.943 98.7676 134.67C97.2045 135.397 96.2748 135.076 96.2545 136.619C96.2342 138.162 94.0418 139.392 100.314 139.542C106.587 139.692 118.93 139.315 119.949 137.334Z" fill="#407BFF"/>
<path opacity="0.5" d="M119.949 137.334C121.061 135.174 118.361 135.06 116.112 133.298C113.863 131.536 112.296 128.99 110.127 130.423C107.959 131.857 108.179 132.774 104.679 133.298C101.179 133.822 100.331 133.943 98.7676 134.67C97.2045 135.397 96.2748 135.076 96.2545 136.619C96.2342 138.162 94.0418 139.392 100.314 139.542C106.587 139.692 118.93 139.315 119.949 137.334Z" fill="white"/>
<path d="M116.311 143.371C116.514 142.072 113.875 140.411 111.654 138.645C109.433 136.879 109.535 136.875 106.116 137.078C102.698 137.281 102.409 137.317 100.286 136.895C98.1627 136.473 97.7201 136.53 95.9459 137.078C94.1717 137.626 93.1039 137.593 92.905 138.921C92.706 140.249 91.0942 145.697 95.0324 146.046C98.9706 146.395 116.071 144.942 116.311 143.371Z" fill="#407BFF"/>
<path opacity="0.3" d="M116.311 143.371C116.514 142.072 113.875 140.411 111.654 138.645C109.433 136.879 109.535 136.875 106.116 137.078C102.698 137.281 102.409 137.317 100.286 136.895C98.1627 136.473 97.7201 136.53 95.9459 137.078C94.1717 137.626 93.1039 137.593 92.905 138.921C92.706 140.249 91.0942 145.697 95.0324 146.046C98.9706 146.395 116.071 144.942 116.311 143.371Z" fill="white"/>
<path d="M126.765 144.625C126.599 143.671 124.455 142.819 122.251 142.62C120.376 142.495 118.563 141.906 116.973 140.906C115.121 139.847 114.256 139.798 112.779 140.906C111.301 142.015 110.663 142.299 108.495 142.124C107.314 141.984 106.122 141.95 104.935 142.023C102.994 142.084 102.807 141.84 101.467 142.567C100.128 143.294 99.5674 142.344 98.4306 143.359C97.2938 144.374 96.4899 144.386 96.2666 144.881C96.0433 145.376 95.3734 145.726 96.5346 146.034C97.6957 146.343 125.722 146.57 126.124 146.034C126.526 145.498 126.822 144.942 126.765 144.625Z" fill="#263238"/>
<path d="M125.125 144.508C127.322 143.874 127.273 143.793 127.797 141.357C128.32 138.921 129.969 139.018 127.468 138.17C124.967 137.321 123.773 136.997 121.784 136.895C119.794 136.794 118.243 137.439 116.506 137.118C114.768 136.798 115.418 136.956 112.852 136.396C110.286 135.835 109.551 135.373 107.671 136.233C105.791 137.094 103.696 136.026 104.618 138.178C105.54 140.33 119.876 146.018 125.125 144.508Z" fill="#407BFF"/>
<path opacity="0.4" d="M104.63 138.178C105.089 139.246 108.84 141.182 113.156 142.681C115.477 143.509 117.867 144.13 120.298 144.536C122.206 144.828 123.911 144.861 125.125 144.512L125.665 144.353C127.317 143.846 127.326 143.578 127.797 141.365C127.908 140.845 128.099 140.346 128.361 139.883C128.905 138.917 129.295 138.799 127.468 138.178C124.967 137.33 123.773 137.005 121.784 136.903C120.724 136.895 119.666 136.976 118.621 137.147C117.92 137.244 117.208 137.236 116.51 137.122C114.78 136.802 115.422 136.964 112.856 136.4C110.911 135.994 110.014 135.608 108.885 135.831C108.464 135.915 108.054 136.052 107.667 136.237C105.804 137.094 103.705 136.01 104.63 138.178Z" fill="black"/>
<path opacity="0.3" d="M111.816 137.228C113.343 137.934 113.302 138.166 114.585 138.182C115.868 138.198 116.396 138.044 117.517 138.925C118.637 139.806 119.648 139.851 119.327 138.365C119.221 137.899 118.977 137.475 118.629 137.147C117.928 137.244 117.216 137.236 116.518 137.122C114.788 136.802 115.43 136.964 112.864 136.4C110.919 135.994 110.022 135.608 108.893 135.831C107.809 136.68 110.46 136.595 111.816 137.228Z" fill="white"/>
<path opacity="0.3" d="M121.719 137.76C121.857 138.925 123.493 139.445 123.919 140.651C124.346 141.856 122.835 141.698 124.386 142.977C124.859 143.388 125.287 143.846 125.665 144.345C127.318 143.838 127.326 143.57 127.797 141.357C127.908 140.837 128.099 140.338 128.361 139.875C127.236 139.027 126.1 139.526 124.524 138.921C122.336 138.081 121.581 136.595 121.719 137.76Z" fill="white"/>
<path opacity="0.3" d="M112.287 141.26C112.634 141.695 112.924 142.173 113.152 142.681C115.474 143.51 117.866 144.131 120.298 144.536C120.586 143.188 119.737 142.912 118.211 141.881C116.355 140.618 115.653 140.058 114.317 140.139C112.982 140.22 113.022 140.545 111.654 139.453C110.286 138.361 109.311 137.606 108.637 137.606C107.963 137.606 110.708 139.299 112.287 141.26Z" fill="white"/>
<path d="M95.483 133.505C95.4473 133.443 95.4286 133.373 95.4286 133.302C95.4286 133.231 95.4473 133.161 95.483 133.099L96.5305 131.252C96.6746 131.002 96.8825 130.795 97.133 130.653C97.3834 130.51 97.6673 130.436 97.9555 130.44H102.016C102.26 130.439 102.502 130.493 102.723 130.598C102.943 130.704 103.137 130.858 103.29 131.049L104.849 132.981C104.897 133.04 104.927 133.111 104.937 133.187C104.946 133.262 104.934 133.339 104.902 133.408C104.87 133.477 104.818 133.537 104.754 133.578C104.689 133.62 104.614 133.642 104.537 133.643L95.8321 133.72C95.7601 133.719 95.6898 133.698 95.6284 133.66C95.567 133.622 95.5168 133.569 95.483 133.505ZM102.661 131.544C102.585 131.447 102.487 131.369 102.376 131.316C102.265 131.262 102.143 131.235 102.02 131.235H97.9596C97.8148 131.235 97.6724 131.272 97.5464 131.343C97.4204 131.414 97.3151 131.517 97.241 131.641L96.5386 132.859L103.7 132.794L102.661 131.544Z" fill="#407BFF"/>
<path d="M126.067 133.704L117.362 133.627C117.285 133.626 117.21 133.604 117.146 133.562C117.081 133.52 117.029 133.461 116.997 133.391C116.965 133.322 116.953 133.246 116.962 133.171C116.972 133.095 117.002 133.024 117.05 132.965L118.613 131.032C118.765 130.842 118.959 130.688 119.179 130.583C119.399 130.478 119.64 130.423 119.884 130.423H123.944C124.232 130.42 124.516 130.494 124.766 130.636C125.017 130.779 125.225 130.986 125.369 131.235L126.42 133.083C126.456 133.144 126.475 133.214 126.475 133.286C126.475 133.357 126.456 133.427 126.42 133.489C126.384 133.549 126.333 133.6 126.272 133.634C126.211 133.669 126.142 133.688 126.071 133.688L126.067 133.704ZM119.884 131.235C119.76 131.235 119.638 131.262 119.527 131.316C119.416 131.369 119.319 131.447 119.242 131.544L118.211 132.823L125.369 132.888L124.666 131.67C124.592 131.546 124.487 131.443 124.361 131.372C124.235 131.3 124.092 131.263 123.948 131.264L119.884 131.235Z" fill="#407BFF"/>
<g opacity="0.2">
<path d="M95.483 133.505C95.4473 133.443 95.4286 133.373 95.4286 133.302C95.4286 133.231 95.4473 133.161 95.483 133.099L96.5305 131.252C96.6746 131.002 96.8825 130.795 97.133 130.653C97.3834 130.51 97.6673 130.436 97.9555 130.44H102.016C102.26 130.439 102.502 130.493 102.723 130.598C102.943 130.704 103.137 130.858 103.29 131.049L104.849 132.981C104.897 133.04 104.927 133.111 104.937 133.187C104.946 133.262 104.934 133.339 104.902 133.408C104.87 133.477 104.818 133.537 104.754 133.578C104.689 133.62 104.614 133.642 104.537 133.643L95.8321 133.72C95.7601 133.719 95.6898 133.698 95.6284 133.66C95.567 133.622 95.5168 133.569 95.483 133.505ZM102.661 131.544C102.585 131.447 102.487 131.369 102.376 131.316C102.265 131.262 102.143 131.235 102.02 131.235H97.9596C97.8148 131.235 97.6724 131.272 97.5464 131.343C97.4204 131.414 97.3151 131.517 97.241 131.641L96.5386 132.859L103.7 132.794L102.661 131.544Z" fill="black"/>
</g>
<g opacity="0.2">
<path d="M126.067 133.704L117.362 133.627C117.285 133.626 117.21 133.604 117.146 133.562C117.081 133.52 117.029 133.461 116.997 133.391C116.965 133.322 116.953 133.246 116.962 133.171C116.972 133.095 117.002 133.024 117.05 132.965L118.613 131.032C118.765 130.842 118.959 130.688 119.179 130.583C119.399 130.478 119.64 130.423 119.884 130.423H123.944C124.232 130.42 124.516 130.494 124.766 130.636C125.017 130.779 125.225 130.986 125.369 131.235L126.42 133.083C126.456 133.144 126.475 133.214 126.475 133.286C126.475 133.357 126.456 133.427 126.42 133.489C126.384 133.549 126.333 133.6 126.272 133.634C126.211 133.669 126.142 133.688 126.071 133.688L126.067 133.704ZM119.884 131.235C119.76 131.235 119.638 131.262 119.527 131.316C119.416 131.369 119.319 131.447 119.242 131.544L118.211 132.823L125.369 132.888L124.666 131.67C124.592 131.546 124.487 131.443 124.361 131.372C124.235 131.3 124.092 131.263 123.948 131.264L119.884 131.235Z" fill="black"/>
</g>
<path d="M89.8153 133.598L93.0633 146.249C93.1099 146.419 93.2103 146.569 93.3494 146.676C93.4885 146.784 93.6588 146.844 93.8347 146.846H126.993C127.169 146.844 127.339 146.784 127.478 146.676C127.617 146.569 127.717 146.419 127.764 146.249L131.012 133.598C131.04 133.504 131.045 133.403 131.028 133.306C131.01 133.209 130.97 133.117 130.91 133.038C130.85 132.959 130.773 132.895 130.684 132.852C130.596 132.808 130.498 132.786 130.399 132.786H90.4324C90.3334 132.786 90.2357 132.808 90.1469 132.852C90.0581 132.896 89.9807 132.959 89.9208 133.038C89.8609 133.117 89.8202 133.209 89.8019 133.306C89.7836 133.403 89.7882 133.503 89.8153 133.598ZM124.756 144.865L127.598 134.666C127.612 134.615 127.636 134.567 127.669 134.524C127.701 134.482 127.742 134.447 127.788 134.421C127.835 134.394 127.886 134.377 127.939 134.371C127.992 134.364 128.046 134.368 128.097 134.382C128.148 134.396 128.197 134.42 128.239 134.453C128.281 134.486 128.316 134.526 128.343 134.573C128.369 134.619 128.386 134.67 128.393 134.723C128.399 134.776 128.395 134.83 128.381 134.881L125.539 145.08C125.515 145.168 125.461 145.245 125.388 145.299C125.314 145.352 125.224 145.38 125.133 145.376H125.024C124.972 145.361 124.924 145.335 124.883 145.301C124.842 145.266 124.808 145.224 124.783 145.177C124.758 145.129 124.743 145.077 124.738 145.023C124.733 144.97 124.739 144.916 124.756 144.865ZM122.263 144.865L124.784 134.666C124.795 134.613 124.817 134.562 124.848 134.517C124.879 134.472 124.919 134.434 124.965 134.405C125.011 134.376 125.063 134.356 125.117 134.348C125.171 134.339 125.226 134.341 125.279 134.354C125.332 134.367 125.382 134.391 125.426 134.424C125.469 134.457 125.506 134.498 125.533 134.545C125.561 134.593 125.578 134.645 125.585 134.699C125.591 134.754 125.587 134.809 125.572 134.861L123.05 145.06C123.028 145.15 122.976 145.23 122.902 145.286C122.828 145.342 122.737 145.371 122.644 145.368H122.547C122.444 145.34 122.356 145.272 122.303 145.179C122.25 145.086 122.235 144.976 122.263 144.873V144.865ZM119.77 144.865L121.962 134.666C121.985 134.559 122.049 134.464 122.142 134.404C122.234 134.344 122.346 134.323 122.454 134.345C122.561 134.368 122.656 134.433 122.716 134.525C122.776 134.617 122.797 134.729 122.774 134.837L120.582 145.056C120.562 145.148 120.511 145.231 120.437 145.289C120.363 145.348 120.27 145.379 120.176 145.376C120.146 145.38 120.116 145.38 120.087 145.376C120.033 145.366 119.982 145.345 119.937 145.314C119.892 145.283 119.853 145.244 119.824 145.198C119.794 145.152 119.774 145.101 119.765 145.047C119.756 144.993 119.757 144.938 119.77 144.885V144.865ZM117.277 144.865L119.145 134.666C119.164 134.561 119.225 134.468 119.313 134.407C119.401 134.346 119.51 134.322 119.616 134.341C119.669 134.351 119.719 134.37 119.764 134.399C119.81 134.428 119.849 134.466 119.879 134.51C119.91 134.554 119.931 134.604 119.943 134.657C119.954 134.709 119.954 134.764 119.945 134.816L118.073 145.015C118.055 145.109 118.004 145.193 117.93 145.254C117.856 145.314 117.762 145.346 117.667 145.344H117.594C117.495 145.322 117.407 145.265 117.349 145.182C117.29 145.099 117.265 144.998 117.277 144.897V144.865ZM114.78 144.865L116.327 134.666C116.343 134.559 116.4 134.461 116.488 134.396C116.575 134.331 116.684 134.303 116.792 134.319C116.9 134.335 116.997 134.392 117.062 134.48C117.127 134.567 117.155 134.676 117.139 134.784L115.596 144.983C115.582 145.079 115.532 145.168 115.458 145.231C115.383 145.295 115.288 145.329 115.19 145.328H115.129C115.03 145.314 114.94 145.264 114.876 145.187C114.811 145.111 114.777 145.014 114.78 144.914V144.865ZM112.287 144.865L113.505 134.666C113.512 134.613 113.528 134.561 113.554 134.514C113.58 134.467 113.615 134.426 113.657 134.393C113.699 134.359 113.748 134.335 113.799 134.32C113.851 134.305 113.905 134.301 113.958 134.307C114.011 134.313 114.063 134.33 114.11 134.356C114.157 134.382 114.198 134.417 114.231 134.459C114.265 134.501 114.29 134.549 114.304 134.601C114.319 134.652 114.324 134.706 114.317 134.76L113.099 144.958C113.087 145.057 113.039 145.148 112.965 145.214C112.89 145.28 112.793 145.316 112.693 145.316H112.645C112.551 145.305 112.464 145.261 112.399 145.193C112.334 145.125 112.294 145.036 112.287 144.942V144.865ZM106.461 144.893L106.867 134.695C106.872 134.587 106.918 134.485 106.998 134.412C107.077 134.339 107.182 134.301 107.29 134.305C107.397 134.309 107.499 134.356 107.572 134.435C107.645 134.514 107.684 134.619 107.679 134.727L107.273 144.926C107.273 145.033 107.23 145.137 107.154 145.213C107.078 145.289 106.975 145.332 106.867 145.332C106.762 145.332 106.661 145.291 106.586 145.219C106.51 145.146 106.465 145.047 106.461 144.942V144.893ZM104.05 134.792C104.05 134.684 104.092 134.581 104.169 134.505C104.245 134.429 104.348 134.386 104.456 134.386C104.563 134.386 104.667 134.429 104.743 134.505C104.819 134.581 104.862 134.684 104.862 134.792L104.943 144.991C104.943 145.098 104.9 145.202 104.824 145.278C104.748 145.354 104.645 145.397 104.537 145.397C104.429 145.397 104.326 145.354 104.25 145.278C104.174 145.202 104.131 145.098 104.131 144.991L104.05 134.792ZM101.236 134.812C101.23 134.705 101.267 134.599 101.339 134.519C101.411 134.438 101.512 134.39 101.62 134.384C101.727 134.378 101.833 134.415 101.913 134.487C101.994 134.559 102.042 134.66 102.048 134.768L102.616 144.966C102.619 145.02 102.611 145.073 102.593 145.123C102.576 145.174 102.548 145.22 102.512 145.26C102.476 145.299 102.433 145.331 102.385 145.354C102.336 145.377 102.284 145.39 102.231 145.393H102.21C102.107 145.393 102.007 145.353 101.932 145.283C101.856 145.212 101.811 145.114 101.804 145.011L101.236 134.812ZM98.4184 134.833C98.4128 134.779 98.4178 134.725 98.4332 134.674C98.4486 134.623 98.474 134.575 98.508 134.533C98.5419 134.492 98.5838 134.457 98.6312 134.432C98.6785 134.407 98.7304 134.391 98.7838 134.386C98.8903 134.376 98.9965 134.408 99.0794 134.476C99.1623 134.543 99.2151 134.641 99.2263 134.747L100.282 144.942C100.288 144.995 100.283 145.049 100.267 145.101C100.252 145.152 100.226 145.2 100.192 145.242C100.158 145.283 100.117 145.317 100.069 145.343C100.022 145.368 99.97 145.384 99.9166 145.389H99.8759C99.7756 145.389 99.6785 145.353 99.6036 145.286C99.5286 145.219 99.481 145.127 99.4699 145.027L98.4184 134.833ZM97.1517 145.048L95.6048 134.849C95.5897 134.743 95.617 134.635 95.6809 134.549C95.7448 134.463 95.84 134.406 95.9459 134.39C95.9987 134.382 96.0525 134.384 96.1044 134.397C96.1562 134.41 96.2051 134.433 96.248 134.465C96.291 134.496 96.3274 134.536 96.3549 134.582C96.3825 134.628 96.4008 134.678 96.4087 134.731L97.9515 144.93C97.9666 145.036 97.9393 145.144 97.8754 145.229C97.8115 145.315 97.7163 145.373 97.6105 145.389H97.5496C97.4512 145.387 97.3567 145.35 97.2835 145.285C97.2103 145.219 97.1635 145.129 97.1517 145.031V145.048ZM92.7913 134.869C92.7809 134.816 92.7811 134.761 92.7919 134.708C92.8027 134.655 92.8238 134.604 92.8542 134.559C92.8845 134.514 92.9235 134.475 92.9687 134.445C93.014 134.415 93.0648 134.394 93.1181 134.384C93.1714 134.374 93.2262 134.374 93.2795 134.385C93.3327 134.395 93.3833 134.417 93.4284 134.447C93.4734 134.477 93.512 134.516 93.542 134.561C93.5721 134.607 93.5929 134.658 93.6033 134.711L95.6333 144.91C95.6439 144.962 95.644 145.016 95.6336 145.069C95.6232 145.121 95.6025 145.171 95.5727 145.216C95.5429 145.26 95.5045 145.299 95.4599 145.328C95.4152 145.358 95.3651 145.378 95.3125 145.389H95.2354C95.1404 145.391 95.0477 145.359 94.9736 145.3C94.8994 145.24 94.8484 145.157 94.8294 145.064L92.7913 134.869Z" fill="#407BFF"/>
<path opacity="0.2" d="M89.8153 133.598L93.0633 146.249C93.1099 146.419 93.2103 146.569 93.3494 146.676C93.4885 146.784 93.6588 146.844 93.8347 146.846H108.613C108.808 146.843 108.995 146.77 109.14 146.64C109.286 146.51 109.379 146.333 109.405 146.14L110.838 133.509C110.848 133.42 110.838 133.33 110.811 133.245C110.784 133.16 110.739 133.081 110.679 133.015C110.619 132.948 110.546 132.895 110.464 132.858C110.383 132.822 110.294 132.803 110.205 132.803H90.4324C90.3352 132.803 90.2393 132.825 90.1521 132.868C90.0649 132.91 89.9885 132.973 89.929 133.049C89.8695 133.126 89.8283 133.216 89.8085 133.311C89.7888 133.406 89.7911 133.504 89.8153 133.598ZM106.461 144.966L106.867 134.768C106.872 134.66 106.918 134.558 106.998 134.485C107.077 134.412 107.182 134.374 107.29 134.378C107.397 134.382 107.499 134.429 107.572 134.508C107.645 134.587 107.684 134.692 107.679 134.8L107.273 144.999C107.273 145.107 107.23 145.21 107.154 145.286C107.078 145.362 106.975 145.405 106.867 145.405C106.809 145.405 106.751 145.393 106.698 145.37C106.644 145.346 106.597 145.311 106.558 145.267C106.519 145.223 106.491 145.171 106.474 145.115C106.457 145.059 106.453 145 106.461 144.942V144.966ZM104.05 134.792C104.05 134.684 104.092 134.581 104.169 134.505C104.245 134.429 104.348 134.386 104.456 134.386C104.563 134.386 104.667 134.429 104.743 134.505C104.819 134.581 104.862 134.684 104.862 134.792L104.943 144.991C104.943 145.098 104.9 145.202 104.824 145.278C104.748 145.354 104.645 145.397 104.537 145.397C104.429 145.397 104.326 145.354 104.25 145.278C104.174 145.202 104.131 145.098 104.131 144.991L104.05 134.792ZM101.236 134.812C101.23 134.705 101.267 134.599 101.339 134.519C101.411 134.438 101.512 134.39 101.62 134.384C101.727 134.378 101.833 134.415 101.913 134.487C101.994 134.559 102.042 134.66 102.048 134.768L102.616 144.966C102.619 145.02 102.611 145.073 102.593 145.123C102.576 145.174 102.548 145.22 102.512 145.26C102.476 145.299 102.433 145.331 102.385 145.354C102.336 145.377 102.284 145.39 102.231 145.393H102.21C102.107 145.393 102.007 145.353 101.932 145.282C101.856 145.212 101.811 145.114 101.804 145.011L101.236 134.812ZM98.4184 134.833C98.4128 134.779 98.4178 134.725 98.4332 134.674C98.4486 134.622 98.474 134.575 98.508 134.533C98.5419 134.492 98.5838 134.457 98.6312 134.432C98.6785 134.407 98.7304 134.391 98.7838 134.386C98.8903 134.376 98.9965 134.408 99.0794 134.476C99.1623 134.543 99.2151 134.641 99.2263 134.747L100.282 144.942C100.288 144.995 100.283 145.049 100.267 145.101C100.252 145.152 100.226 145.2 100.192 145.242C100.158 145.283 100.117 145.317 100.069 145.343C100.022 145.368 99.97 145.384 99.9165 145.389H99.8759C99.7756 145.389 99.6785 145.353 99.6036 145.286C99.5286 145.219 99.481 145.127 99.4699 145.027L98.4184 134.833ZM97.1517 145.048L95.6048 134.849C95.5897 134.743 95.617 134.635 95.6809 134.549C95.7448 134.463 95.84 134.406 95.9459 134.39C95.9987 134.382 96.0525 134.384 96.1044 134.397C96.1562 134.41 96.2051 134.433 96.248 134.465C96.291 134.496 96.3274 134.536 96.3549 134.582C96.3825 134.628 96.4008 134.678 96.4087 134.731L97.9515 144.93C97.9666 145.036 97.9393 145.143 97.8754 145.229C97.8115 145.315 97.7163 145.373 97.6105 145.389H97.5496C97.4512 145.387 97.3567 145.35 97.2835 145.285C97.2103 145.219 97.1635 145.129 97.1517 145.031V145.048ZM92.7912 134.869C92.7809 134.816 92.7811 134.761 92.7919 134.708C92.8027 134.655 92.8238 134.604 92.8542 134.559C92.8845 134.514 92.9235 134.475 92.9687 134.445C93.014 134.415 93.0648 134.394 93.1181 134.384C93.1714 134.374 93.2262 134.374 93.2795 134.385C93.3327 134.395 93.3833 134.417 93.4283 134.447C93.4734 134.477 93.512 134.516 93.542 134.561C93.5721 134.607 93.5929 134.657 93.6032 134.711L95.6332 144.91C95.6439 144.962 95.644 145.016 95.6336 145.069C95.6232 145.121 95.6025 145.171 95.5727 145.216C95.5429 145.26 95.5045 145.299 95.4599 145.328C95.4152 145.358 95.3651 145.378 95.3125 145.389H95.2354C95.1404 145.391 95.0477 145.359 94.9736 145.3C94.8994 145.24 94.8484 145.157 94.8294 145.064L92.7912 134.869Z" fill="black"/>
</svg>
