<svg width="204" height="132" viewBox="0 0 204 132" fill="none" xmlns="http://www.w3.org/2000/svg">
<path opacity="0.2" d="M110.965 58.5286H102.233V62.0633H110.965V58.5286Z" fill="black"/>
<path opacity="0.2" d="M107.64 45.9504H98.9072V49.4852H107.64V45.9504Z" fill="black"/>
<path opacity="0.2" d="M76.0416 58.424H67.3093V61.9587H76.0416V58.424Z" fill="black"/>
<path opacity="0.2" d="M88.7215 26.8175H79.9892V30.3523H88.7215V26.8175Z" fill="black"/>
<path opacity="0.2" d="M98.2852 26.8175H89.5529V30.3523H98.2852V26.8175Z" fill="black"/>
<path opacity="0.2" d="M61.074 84.5557H52.3417V88.0905H61.074V84.5557Z" fill="black"/>
<path opacity="0.2" d="M56.5014 88.9219H47.7691V92.4566H56.5014V88.9219Z" fill="black"/>
<path opacity="0.1" d="M102.858 50.8369H94.1254V54.3717H102.858V50.8369Z" fill="black"/>
<path opacity="0.1" d="M115.953 70.6881H107.221V74.2229H115.953V70.6881Z" fill="black"/>
<path opacity="0.1" d="M64.8152 76.0949H56.0829V79.6297H64.8152V76.0949Z" fill="black"/>
<path opacity="0.1" d="M74.7945 76.0949H66.0623V79.6297H74.7945V76.0949Z" fill="black"/>
<path opacity="0.1" d="M75.6259 71.1038H66.8936V74.6386H75.6259V71.1038Z" fill="black"/>
<path opacity="0.1" d="M112.834 50.8369H104.102V54.3717H112.834V50.8369Z" fill="black"/>
<path opacity="0.2" d="M86.8495 88.5656H78.1172V92.1003H86.8495V88.5656Z" fill="black"/>
<path opacity="0.1" d="M82.0705 93.452H73.3382V96.9868H82.0705V93.452Z" fill="black"/>
<path opacity="0.1" d="M92.047 93.452H83.3147V96.9868H92.047V93.452Z" fill="black"/>
<path opacity="0.2" d="M44.5257 44.5818H35.7934V48.1165H44.5257V44.5818Z" fill="black"/>
<path opacity="0.1" d="M39.7438 49.4655H31.0115V53.0002H39.7438V49.4655Z" fill="black"/>
<path opacity="0.1" d="M49.7203 49.4655H40.988V53.0002H49.7203V49.4655Z" fill="black"/>
<path opacity="0.2" d="M41.1181 70.8974H32.3859V74.4322H41.1181V70.8974Z" fill="black"/>
<path opacity="0.1" d="M79.7828 53.9984H71.0505V57.5332H79.7828V53.9984Z" fill="black"/>
<path opacity="0.1" d="M66.6872 88.7155H57.9549V92.2502H66.6872V88.7155Z" fill="black"/>
<path opacity="0.2" d="M28.5853 99.6082H19.853V103.143H28.5853V99.6082Z" fill="black"/>
<path opacity="0.2" d="M24.0099 103.974H15.2776V107.509H24.0099V103.974Z" fill="black"/>
<path opacity="0.1" d="M32.3265 91.1445H23.5942V94.6793H32.3265V91.1445Z" fill="black"/>
<path opacity="0.1" d="M42.303 91.1445H33.5707V94.6793H42.303V91.1445Z" fill="black"/>
<path opacity="0.2" d="M54.3608 103.618H45.6285V107.153H54.3608V103.618Z" fill="black"/>
<path opacity="0.1" d="M49.5789 108.504H40.8466V112.039H49.5789V108.504Z" fill="black"/>
<path opacity="0.1" d="M59.5583 108.504H50.826V112.039H59.5583V108.504Z" fill="black"/>
<path opacity="0.1" d="M34.1957 103.765H25.4634V107.3H34.1957V103.765Z" fill="black"/>
<path opacity="0.2" d="M168.384 24.8494H159.651V28.3841H168.384V24.8494Z" fill="black"/>
<path opacity="0.2" d="M163.811 29.2155H155.079V32.7502H163.811V29.2155Z" fill="black"/>
<path opacity="0.1" d="M172.125 16.3885H163.393V19.9233H172.125V16.3885Z" fill="black"/>
<path opacity="0.1" d="M182.104 16.3885H173.372V19.9233H182.104V16.3885Z" fill="black"/>
<path opacity="0.2" d="M194.162 28.8591H185.43V32.3939H194.162V28.8591Z" fill="black"/>
<path opacity="0.1" d="M189.38 33.7456H180.648V37.2804H189.38V33.7456Z" fill="black"/>
<path opacity="0.1" d="M199.357 33.7456H190.625V37.2804H199.357V33.7456Z" fill="black"/>
<path opacity="0.2" d="M189.312 99.4215H180.58V102.956H189.312V99.4215Z" fill="black"/>
<path opacity="0.1" d="M184.53 104.305H175.798V107.84H184.53V104.305Z" fill="black"/>
<path opacity="0.1" d="M194.507 104.305H185.775V107.84H194.507V104.305Z" fill="black"/>
<path opacity="0.1" d="M173.997 29.009H165.265V32.5438H173.997V29.009Z" fill="black"/>
<path opacity="0.2" d="M145.108 33.0302H136.376V36.5649H145.108V33.0302Z" fill="black"/>
<path opacity="0.2" d="M140.536 37.3964H131.803V40.9311H140.536V37.3964Z" fill="black"/>
<path opacity="0.1" d="M148.849 24.5665H140.117V28.1013H148.849V24.5665Z" fill="black"/>
<path opacity="0.1" d="M158.829 24.5665H150.096V28.1013H158.829V24.5665Z" fill="black"/>
<path opacity="0.1" d="M159.66 19.5782H150.928V23.113H159.66V19.5782Z" fill="black"/>
<path opacity="0.2" d="M170.886 37.04H162.154V40.5748H170.886V37.04Z" fill="black"/>
<path opacity="0.1" d="M166.104 41.9265H157.372V45.4613H166.104V41.9265Z" fill="black"/>
<path opacity="0.1" d="M176.084 41.9265H167.352V45.4613H176.084V41.9265Z" fill="black"/>
<path opacity="0.1" d="M150.721 37.1871H141.989V40.7219H150.721V37.1871Z" fill="black"/>
<path opacity="0.1" d="M93.7097 22.4513H84.9774V25.9861H93.7097V22.4513Z" fill="black"/>
<path opacity="0.2" d="M98.7065 13.5918H89.9742V17.1266H98.7065V13.5918Z" fill="black"/>
<path opacity="0.2" d="M108.27 13.5918H99.5378V17.1266H108.27V13.5918Z" fill="black"/>
<path opacity="0.1" d="M103.698 9.22852H94.9653V12.7633H103.698V9.22852Z" fill="black"/>
<path opacity="0.2" d="M76.839 41.4231H68.1068V44.9579H76.839V41.4231Z" fill="black"/>
<path opacity="0.2" d="M86.3998 41.4231H77.6675V44.9579H86.3998V41.4231Z" fill="black"/>
<path opacity="0.1" d="M81.8272 37.057H73.095V40.5918H81.8272V37.057Z" fill="black"/>
<path opacity="0.2" d="M36.1271 59.1959H27.3948V62.7307H36.1271V59.1959Z" fill="black"/>
<path opacity="0.1" d="M41.1181 54.8298H32.3859V58.3645H41.1181V54.8298Z" fill="black"/>
<path opacity="0.1" d="M63.3589 33.5817H54.6266V37.1164H63.3589V33.5817Z" fill="black"/>
<path opacity="0.2" d="M93.7097 58.5286H84.9774V62.0633H93.7097V58.5286Z" fill="black"/>
<path opacity="0.2" d="M189.36 58.5286H180.628V62.0633H189.36V58.5286Z" fill="black"/>
<path opacity="0.2" d="M154.437 58.424H145.705V61.9587H154.437V58.424Z" fill="black"/>
<path opacity="0.2" d="M139.469 84.5557H130.737V88.0905H139.469V84.5557Z" fill="black"/>
<path opacity="0.1" d="M181.253 50.8369H172.521V54.3717H181.253V50.8369Z" fill="black"/>
<path opacity="0.1" d="M194.352 70.6881H185.619V74.2229H194.352V70.6881Z" fill="black"/>
<path opacity="0.1" d="M143.213 76.0949H134.481V79.6297H143.213V76.0949Z" fill="black"/>
<path opacity="0.1" d="M153.19 76.0949H144.458V79.6297H153.19V76.0949Z" fill="black"/>
<path opacity="0.1" d="M154.021 71.1038H145.289V74.6386H154.021V71.1038Z" fill="black"/>
<path opacity="0.1" d="M191.232 50.8369H182.5V54.3717H191.232V50.8369Z" fill="black"/>
<path opacity="0.2" d="M165.248 88.5656H156.515V92.1003H165.248V88.5656Z" fill="black"/>
<path opacity="0.1" d="M160.466 93.452H151.734V96.9868H160.466V93.452Z" fill="black"/>
<path opacity="0.1" d="M170.445 93.452H161.713V96.9868H170.445V93.452Z" fill="black"/>
<path opacity="0.2" d="M188.772 88.5656H180.04V92.1003H188.772V88.5656Z" fill="black"/>
<path opacity="0.1" d="M183.99 93.452H175.258V96.9868H183.99V93.452Z" fill="black"/>
<path opacity="0.1" d="M193.967 93.452H185.235V96.9868H193.967V93.452Z" fill="black"/>
<path opacity="0.1" d="M158.181 53.9984H149.449V57.5332H158.181V53.9984Z" fill="black"/>
<path opacity="0.1" d="M145.083 88.7155H136.35V92.2502H145.083V88.7155Z" fill="black"/>
<path opacity="0.2" d="M172.108 58.5286H163.376V62.0633H172.108V58.5286Z" fill="black"/>
<path opacity="0.2" d="M60.4689 15.2546H51.7366V18.7894H60.4689V15.2546Z" fill="black"/>
<path opacity="0.1" d="M25.1948 34.6279H16.4625V38.1627H25.1948V34.6279Z" fill="black"/>
<path opacity="0.1" d="M36.0818 37.6763H27.3495V41.211H36.0818V37.6763Z" fill="black"/>
<path opacity="0.1" d="M14.7431 41.1602H6.01086V44.6949H14.7431V41.1602Z" fill="black"/>
<path opacity="0.1" d="M30.5167 41.3185H21.7844V44.8532H30.5167V41.3185Z" fill="black"/>
<path opacity="0.2" d="M55.1271 20.2118H46.3948V23.7466H55.1271V20.2118Z" fill="black"/>
<path opacity="0.2" d="M135.403 15.2546H126.671V18.7894H135.403V15.2546Z" fill="black"/>
<path opacity="0.2" d="M130.061 20.2118H121.329V23.7466H130.061V20.2118Z" fill="black"/>
<path d="M5.17102 67.6284L8.89807 103.346" stroke="#263238" stroke-width="2" stroke-miterlimit="10"/>
<path d="M8.29851 96.5116L6.60748 94.7273" stroke="#263238" stroke-width="2" stroke-miterlimit="10"/>
<path d="M7.11936 95.2617C7.11547 94.9878 7.05258 94.7179 6.93497 94.4705C6.81737 94.2231 6.64781 94.0039 6.43786 93.828C6.00238 93.4406 3.72033 92.4791 3.50259 93.285C3.27919 94.1588 5.61497 95.8753 7.11936 95.2617Z" fill="#92E3A9" stroke="#263238" stroke-miterlimit="10"/>
<path d="M7.11939 95.2617L4.94763 93.9072" stroke="#263238" stroke-width="0.5" stroke-miterlimit="10"/>
<path d="M8.71994 100.572L7.03174 98.788" stroke="#263238" stroke-width="2" stroke-miterlimit="10"/>
<path d="M7.54356 99.3225C7.54122 99.0498 7.48014 98.7809 7.36449 98.5339C7.24884 98.287 7.08133 98.0679 6.87337 97.8916C6.43789 97.5013 4.15585 96.5427 3.9381 97.3458C3.7034 98.2196 6.03917 99.9502 7.54356 99.3225Z" fill="#92E3A9" stroke="#263238" stroke-miterlimit="10"/>
<path d="M7.54358 99.3224L5.37183 97.9679" stroke="#263238" stroke-width="0.5" stroke-miterlimit="10"/>
<path d="M7.2636 86.6002L5.57257 84.813" stroke="#263238" stroke-width="2" stroke-miterlimit="10"/>
<path d="M6.0872 85.3503C6.08399 85.0771 6.02225 84.8078 5.90616 84.5604C5.79006 84.3131 5.6223 84.0936 5.41418 83.9166C4.9787 83.5291 2.69666 82.5677 2.48174 83.3708C2.24421 84.2474 4.58281 85.9639 6.0872 85.3503Z" fill="#92E3A9" stroke="#263238" stroke-miterlimit="10"/>
<path d="M6.08718 85.3503L3.9126 83.9957" stroke="#263238" stroke-width="0.5" stroke-miterlimit="10"/>
<path d="M7.68773 90.6609L5.9967 88.8765" stroke="#263238" stroke-width="2" stroke-miterlimit="10"/>
<path d="M6.51135 89.411C6.50796 89.1378 6.44614 88.8685 6.33006 88.6213C6.21397 88.374 6.04631 88.1544 5.83833 87.9773C5.40285 87.5899 3.12081 86.6312 2.90589 87.4343C2.66836 88.3081 5.00413 90.0246 6.51135 89.411Z" fill="#92E3A9" stroke="#263238" stroke-miterlimit="10"/>
<path d="M6.51144 89.411L4.33685 88.0565" stroke="#263238" stroke-width="0.5" stroke-miterlimit="10"/>
<path d="M6.57358 80L4.88538 78.2157" stroke="#263238" stroke-width="2" stroke-miterlimit="10"/>
<path d="M5.39726 78.7416C5.39107 78.4718 5.32791 78.2064 5.21193 77.9627C5.09594 77.7191 4.92974 77.5027 4.72424 77.3277C4.29159 76.9403 2.00954 75.9817 1.7918 76.7848C1.55709 77.6473 3.89287 79.3638 5.39726 78.7416Z" fill="#92E3A9" stroke="#263238" stroke-miterlimit="10"/>
<path d="M5.39722 78.7502L3.22546 77.3956" stroke="#263238" stroke-width="0.5" stroke-miterlimit="10"/>
<path d="M5.8836 73.3744L4.19257 71.5873" stroke="#263238" stroke-width="2" stroke-miterlimit="10"/>
<path d="M4.70728 72.1217C4.70385 71.849 4.642 71.5801 4.5259 71.3333C4.40981 71.0865 4.24216 70.8674 4.03426 70.6909C3.59878 70.3034 1.31673 69.342 1.09899 70.1451C0.864285 71.0217 3.20006 72.7382 4.70728 72.1217Z" fill="#92E3A9" stroke="#263238" stroke-miterlimit="10"/>
<path d="M4.70724 72.1217L2.53265 70.77" stroke="#263238" stroke-width="0.5" stroke-miterlimit="10"/>
<path d="M8.01294 94.108L9.29677 92.0126" stroke="#263238" stroke-width="2" stroke-miterlimit="10"/>
<path d="M8.90657 92.6432C8.85255 92.3756 8.85667 92.0995 8.91863 91.8336C8.98059 91.5677 9.09895 91.3182 9.2657 91.102C9.61069 90.6326 11.6439 89.2215 12.0228 89.9709C12.4357 90.7712 10.5043 92.9316 8.90657 92.6432Z" fill="#92E3A9" stroke="#263238" stroke-miterlimit="10"/>
<path d="M8.90662 92.6432L10.8635 90.7712" stroke="#263238" stroke-width="0.5" stroke-miterlimit="10"/>
<path d="M6.8988 83.4188L8.18263 81.3234" stroke="#263238" stroke-width="2" stroke-miterlimit="10"/>
<path d="M7.7896 81.9512C7.73672 81.6834 7.74166 81.4073 7.80408 81.1415C7.86651 80.8757 7.98497 80.6263 8.15156 80.41C8.49655 79.9435 10.5326 78.5324 10.9115 79.2789C11.3215 80.0792 9.39014 82.2425 7.7896 81.9512Z" fill="#92E3A9" stroke="#263238" stroke-miterlimit="10"/>
<path d="M7.78955 81.9512L9.7464 80.082" stroke="#263238" stroke-width="0.5" stroke-miterlimit="10"/>
<path d="M6.40674 78.7219L7.69339 76.6265" stroke="#263238" stroke-width="2" stroke-miterlimit="10"/>
<path d="M7.30034 77.2542C7.24746 76.9864 7.2524 76.7103 7.31482 76.4445C7.37725 76.1787 7.49571 75.9294 7.6623 75.7131C8.00729 75.2436 10.0433 73.8326 10.4194 74.5819C10.8323 75.3822 8.90088 77.5455 7.30034 77.2542Z" fill="#92E3A9" stroke="#263238" stroke-miterlimit="10"/>
<path d="M7.30042 77.2542L9.25726 75.3851" stroke="#263238" stroke-width="0.5" stroke-miterlimit="10"/>
<path d="M5.68848 71.8333L6.9723 69.7379" stroke="#263238" stroke-width="2" stroke-miterlimit="10"/>
<path d="M6.58207 70.3685C6.52845 70.1007 6.53302 69.8245 6.59547 69.5586C6.65792 69.2927 6.77679 69.0433 6.94403 68.8274C7.28902 68.358 9.32222 66.9469 9.70114 67.6962C10.114 68.4965 8.17978 70.6598 6.58207 70.3685Z" fill="#92E3A9" stroke="#263238" stroke-miterlimit="10"/>
<path d="M6.58215 70.3685L8.539 68.4965" stroke="#263238" stroke-width="0.5" stroke-miterlimit="10"/>
<path d="M5.13993 67.4304C5.08631 67.1626 5.09088 66.8864 5.15333 66.6205C5.21578 66.3546 5.33465 66.1052 5.50189 65.8893C5.84688 65.4198 7.88008 64.0088 8.259 64.7581C8.66904 65.5584 6.73764 67.7132 5.13993 67.4304Z" fill="#92E3A9" stroke="#263238" stroke-miterlimit="10"/>
<path d="M5.13995 67.4304L7.0968 65.5612" stroke="#263238" stroke-width="0.5" stroke-miterlimit="10"/>
<path d="M5.25301 67.5124C4.98081 67.5365 4.7066 67.5023 4.44866 67.4121C4.19071 67.3219 3.95495 67.1777 3.7571 66.9893C3.32727 66.599 2.13676 64.4273 2.90876 64.1275C3.75993 63.8051 5.70829 65.9514 5.25301 67.5124Z" fill="#92E3A9" stroke="#263238" stroke-miterlimit="10"/>
<path d="M5.25302 67.5124L3.59875 65.369" stroke="#263238" stroke-width="0.5" stroke-miterlimit="10"/>
<path d="M15.0033 72.5488L11.2961 108.267" stroke="#263238" stroke-width="2" stroke-miterlimit="10"/>
<path d="M12.1161 101.455L10.8295 99.3621" stroke="#263238" stroke-width="2" stroke-miterlimit="10"/>
<path d="M11.2197 99.9898C11.2733 99.722 11.2688 99.4458 11.2063 99.1799C11.1439 98.914 11.025 98.6646 10.8578 98.4487C10.5128 97.9792 8.47674 96.571 8.10064 97.3175C7.68778 98.1206 9.622 100.281 11.2197 99.9898Z" fill="#92E3A9" stroke="#263238" stroke-miterlimit="10"/>
<path d="M11.2197 99.9898L9.37311 98.2168" stroke="#263238" stroke-width="0.5" stroke-miterlimit="10"/>
<path d="M13.1426 91.5432L11.856 89.4478" stroke="#263238" stroke-width="2" stroke-miterlimit="10"/>
<path d="M12.249 90.0755C12.3019 89.8081 12.2969 89.5325 12.2345 89.2672C12.172 89.0019 12.0536 88.753 11.8871 88.5372C11.5421 88.0678 9.50607 86.6567 9.12714 87.4061C8.71711 88.2064 10.6513 90.3696 12.249 90.0755Z" fill="#92E3A9" stroke="#263238" stroke-miterlimit="10"/>
<path d="M12.2491 90.0755L10.4025 88.3053" stroke="#263238" stroke-width="0.5" stroke-miterlimit="10"/>
<path d="M12.7213 95.6039L11.4346 93.5113" stroke="#263238" stroke-width="2" stroke-miterlimit="10"/>
<path d="M11.8277 94.1391C11.8806 93.8713 11.8757 93.5952 11.8132 93.3294C11.7508 93.0636 11.6323 92.8142 11.4658 92.5979C11.1208 92.1285 9.08474 90.7203 8.70582 91.4668C8.29578 92.2699 10.23 94.4304 11.8277 94.1391Z" fill="#92E3A9" stroke="#263238" stroke-miterlimit="10"/>
<path d="M11.8276 94.1391L9.98108 92.366" stroke="#263238" stroke-width="0.5" stroke-miterlimit="10"/>
<path d="M13.827 84.9431L12.5432 82.8477" stroke="#263238" stroke-width="2" stroke-miterlimit="10"/>
<path d="M12.9418 83.4782C12.9954 83.2104 12.9908 82.9342 12.9284 82.6683C12.8659 82.4024 12.7471 82.153 12.5798 81.9371C12.2348 81.4676 10.1988 80.0594 9.82271 80.8059C9.40136 81.609 11.3356 83.7695 12.9418 83.4782Z" fill="#92E3A9" stroke="#263238" stroke-miterlimit="10"/>
<path d="M12.9334 83.4782L11.0868 81.7052" stroke="#263238" stroke-width="0.5" stroke-miterlimit="10"/>
<path d="M14.5169 78.3146L13.2303 76.222" stroke="#263238" stroke-width="2" stroke-miterlimit="10"/>
<path d="M13.6234 76.8499C13.676 76.5818 13.6707 76.3056 13.6078 76.0398C13.5449 75.774 13.4258 75.5247 13.2586 75.3087C12.9136 74.8393 10.8776 73.431 10.5015 74.1776C10.0914 74.9807 12.0228 77.1411 13.6234 76.8499Z" fill="#92E3A9" stroke="#263238" stroke-miterlimit="10"/>
<path d="M13.6233 76.8498L11.7739 75.0768" stroke="#263238" stroke-width="0.5" stroke-miterlimit="10"/>
<path d="M12.331 99.0453L14.0192 97.2581" stroke="#263238" stroke-width="2" stroke-miterlimit="10"/>
<path d="M13.5074 97.7955C13.5107 97.5223 13.5724 97.2529 13.6885 97.0056C13.8046 96.7583 13.9723 96.5387 14.1805 96.3617C14.6131 95.9715 16.8952 95.0101 17.1129 95.816C17.3476 96.6898 15.0118 98.4091 13.5074 97.7955Z" fill="#92E3A9" stroke="#263238" stroke-miterlimit="10"/>
<path d="M13.5074 97.7954L15.8065 96.3674" stroke="#263238" stroke-width="0.5" stroke-miterlimit="10"/>
<path d="M13.4423 88.3534L15.1305 86.569" stroke="#263238" stroke-width="2" stroke-miterlimit="10"/>
<path d="M14.6159 87.1035C14.6193 86.8303 14.6811 86.5611 14.7972 86.3138C14.9133 86.0665 15.0809 85.8469 15.2889 85.6698C15.7216 85.2824 18.0036 84.3209 18.2214 85.124C18.4589 85.9978 16.1231 87.7171 14.6159 87.1035Z" fill="#92E3A9" stroke="#263238" stroke-miterlimit="10"/>
<path d="M14.6159 87.1035L16.9177 85.6754" stroke="#263238" stroke-width="0.5" stroke-miterlimit="10"/>
<path d="M13.9288 83.6564L15.617 81.872" stroke="#263238" stroke-width="2" stroke-miterlimit="10"/>
<path d="M15.1051 82.4178C15.1053 82.1433 15.1647 81.872 15.2794 81.6226C15.3941 81.3732 15.5613 81.1516 15.7696 80.9728C16.2051 80.5854 18.4872 79.6239 18.7021 80.427C18.9453 81.3008 16.618 83.0201 15.1051 82.4178Z" fill="#92E3A9" stroke="#263238" stroke-miterlimit="10"/>
<path d="M15.1051 82.4065L17.4041 80.9785" stroke="#263238" stroke-width="0.5" stroke-miterlimit="10"/>
<path d="M14.6442 76.7707L16.3324 74.9835" stroke="#263238" stroke-width="2" stroke-miterlimit="10"/>
<path d="M15.8177 75.5179C15.8211 75.2448 15.8829 74.9755 15.999 74.7282C16.1151 74.4809 16.2827 74.2613 16.4907 74.0842C16.9234 73.6968 19.2054 72.7354 19.4231 73.5385C19.6607 74.4151 17.3249 76.1316 15.8177 75.5179Z" fill="#92E3A9" stroke="#263238" stroke-miterlimit="10"/>
<path d="M15.8177 75.5179L18.1195 74.0927" stroke="#263238" stroke-width="0.5" stroke-miterlimit="10"/>
<path d="M15.0118 72.348C15.0152 72.0748 15.077 71.8056 15.1931 71.5583C15.3092 71.311 15.4768 71.0914 15.6848 70.9143C16.1175 70.5269 18.3995 69.5654 18.6172 70.3685C18.8519 71.2423 16.5162 72.9616 15.0118 72.348Z" fill="#92E3A9" stroke="#263238" stroke-miterlimit="10"/>
<path d="M15.0118 72.348L17.3108 70.9199" stroke="#263238" stroke-width="0.5" stroke-miterlimit="10"/>
<path d="M15.1051 72.4498C14.8341 72.4181 14.573 72.3288 14.3393 72.1879C14.1057 72.0469 13.9049 71.8576 13.7506 71.6326C13.4112 71.1603 12.693 68.7906 13.5159 68.6577C14.4094 68.5135 15.8742 71.0189 15.1051 72.4498Z" fill="#92E3A9" stroke="#263238" stroke-miterlimit="10"/>
<path d="M15.1051 72.4498L13.9288 70.0122" stroke="#263238" stroke-width="0.5" stroke-miterlimit="10"/>
<path d="M10.7531 58.0025V103.174" stroke="#263238" stroke-width="2" stroke-miterlimit="10"/>
<path d="M10.7899 96.3815L9.29401 94.4304" stroke="#263238" stroke-width="2" stroke-miterlimit="10"/>
<path d="M9.74927 95.0157C9.77429 94.7437 9.7408 94.4694 9.65106 94.2114C9.56131 93.9534 9.41739 93.7176 9.22895 93.5198C8.83871 93.09 6.66695 91.8966 6.37003 92.6715C6.04484 93.5198 8.18832 95.471 9.74927 95.0157Z" fill="#92E3A9" stroke="#263238" stroke-miterlimit="10"/>
<path d="M9.74922 95.0157L7.73016 93.4434" stroke="#263238" stroke-width="0.5" stroke-miterlimit="10"/>
<path d="M10.7899 87.8925L9.29401 85.9413" stroke="#263238" stroke-width="2" stroke-miterlimit="10"/>
<path d="M9.74927 86.5266C9.77429 86.2546 9.7408 85.9804 9.65106 85.7223C9.56131 85.4643 9.41739 85.2285 9.22895 85.0307C8.83871 84.6009 6.66695 83.4104 6.37003 84.1824C6.04484 85.0307 8.18832 86.9819 9.74927 86.5266Z" fill="#92E3A9" stroke="#263238" stroke-miterlimit="10"/>
<path d="M9.74922 86.5266L7.73016 84.9543" stroke="#263238" stroke-width="0.5" stroke-miterlimit="10"/>
<path d="M10.7899 77.9273L9.29401 75.9761" stroke="#263238" stroke-width="2" stroke-miterlimit="10"/>
<path d="M9.74927 76.5614C9.77429 76.2894 9.7408 76.0152 9.65106 75.7571C9.56131 75.4991 9.41739 75.2633 9.22895 75.0655C8.83871 74.6357 6.66695 73.4424 6.37003 74.2172C6.04484 75.0655 8.18832 77.0167 9.74927 76.5614Z" fill="#92E3A9" stroke="#263238" stroke-miterlimit="10"/>
<path d="M9.74922 76.5614L7.73016 74.9891" stroke="#263238" stroke-width="0.5" stroke-miterlimit="10"/>
<path d="M10.7899 71.2932L9.29401 69.342" stroke="#263238" stroke-width="2" stroke-miterlimit="10"/>
<path d="M9.74927 69.9273C9.77429 69.6553 9.7408 69.3811 9.65106 69.1231C9.56131 68.865 9.41739 68.6292 9.22895 68.4314C8.83871 68.0016 6.66695 66.8083 6.37003 67.5831C6.04484 68.4314 8.18832 70.3826 9.74927 69.9273Z" fill="#92E3A9" stroke="#263238" stroke-miterlimit="10"/>
<path d="M9.74922 69.9274L7.73016 68.3551" stroke="#263238" stroke-width="0.5" stroke-miterlimit="10"/>
<path d="M10.7899 64.6281L9.29401 62.6769" stroke="#263238" stroke-width="2" stroke-miterlimit="10"/>
<path d="M9.74927 63.2622C9.77361 62.9915 9.73977 62.7188 9.65003 62.4622C9.56029 62.2057 9.41672 61.9713 9.22895 61.7748C8.83871 61.3421 6.66695 60.1516 6.37003 60.9265C6.04484 61.7748 8.18832 63.7175 9.74927 63.2622Z" fill="#92E3A9" stroke="#263238" stroke-miterlimit="10"/>
<path d="M9.74922 63.2622L7.73016 61.6899" stroke="#263238" stroke-width="0.5" stroke-miterlimit="10"/>
<path d="M10.7588 98.9746L12.2519 97.0234" stroke="#263238" stroke-width="2" stroke-miterlimit="10"/>
<path d="M11.8107 97.6088C11.7857 97.3368 11.8192 97.0625 11.9089 96.8045C11.9987 96.5465 12.1426 96.3107 12.331 96.1129C12.7241 95.6831 14.893 94.4897 15.1928 95.2645C15.5038 96.1129 13.3575 98.0641 11.8107 97.6088Z" fill="#92E3A9" stroke="#263238" stroke-miterlimit="10"/>
<path d="M11.7966 97.6088L13.9372 95.9517" stroke="#263238" stroke-width="0.5" stroke-miterlimit="10"/>
<path d="M10.7588 85.4719L12.2519 83.5235" stroke="#263238" stroke-width="2" stroke-miterlimit="10"/>
<path d="M11.8107 84.1145C11.7857 83.8429 11.8192 83.5691 11.909 83.3116C11.9987 83.054 12.1426 82.8187 12.331 82.6214C12.7241 82.1888 14.893 80.9983 15.1928 81.7731C15.5038 82.6129 13.3575 84.5613 11.8107 84.1145Z" fill="#92E3A9" stroke="#263238" stroke-miterlimit="10"/>
<path d="M11.7966 84.106L13.9372 82.4489" stroke="#263238" stroke-width="0.5" stroke-miterlimit="10"/>
<path d="M10.7588 78.8095L12.2519 76.8583" stroke="#263238" stroke-width="2" stroke-miterlimit="10"/>
<path d="M11.8107 77.4437C11.7857 77.1717 11.8192 76.8974 11.9089 76.6394C11.9987 76.3814 12.1426 76.1456 12.331 75.9478C12.7241 75.5179 14.893 74.3274 15.1928 75.0994C15.5038 75.9478 13.3575 77.8933 11.8107 77.4437Z" fill="#92E3A9" stroke="#263238" stroke-miterlimit="10"/>
<path d="M11.7966 77.4437L13.9372 75.7866" stroke="#263238" stroke-width="0.5" stroke-miterlimit="10"/>
<path d="M10.7588 70.0009L12.2519 68.0526" stroke="#263238" stroke-width="2" stroke-miterlimit="10"/>
<path d="M11.8107 68.6379C11.7847 68.3678 11.8163 68.0952 11.9036 67.8383C11.9909 67.5814 12.1317 67.346 12.3169 67.1476C12.71 66.7178 14.8789 65.5244 15.1787 66.2993C15.5038 67.1476 13.3575 69.0931 11.8107 68.6379Z" fill="#92E3A9" stroke="#263238" stroke-miterlimit="10"/>
<path d="M11.7966 68.6379L13.9372 66.9808" stroke="#263238" stroke-width="0.5" stroke-miterlimit="10"/>
<path d="M10.7588 63.0784L12.2519 61.1272" stroke="#263238" stroke-width="2" stroke-miterlimit="10"/>
<path d="M11.8107 61.7125C11.7857 61.4405 11.8192 61.1663 11.9089 60.9083C11.9987 60.6502 12.1426 60.4144 12.331 60.2166C12.7241 59.7868 14.893 58.5935 15.1928 59.3683C15.5038 60.2166 13.3575 62.1678 11.8107 61.7125Z" fill="#92E3A9" stroke="#263238" stroke-miterlimit="10"/>
<path d="M11.7966 61.7126L13.9372 60.0555" stroke="#263238" stroke-width="0.5" stroke-miterlimit="10"/>
<path d="M10.6796 58.6416C10.6546 58.3695 10.6881 58.0953 10.7778 57.8373C10.8676 57.5793 11.0115 57.3434 11.1999 57.1457C11.5902 56.7158 13.7619 55.5225 14.0589 56.2973C14.3727 57.1457 12.2293 59.0968 10.6796 58.6416Z" fill="#92E3A9" stroke="#263238" stroke-miterlimit="10"/>
<path d="M10.6683 58.6416L12.8089 56.9845" stroke="#263238" stroke-width="0.5" stroke-miterlimit="10"/>
<path d="M10.7729 58.7349C10.4996 58.7304 10.2305 58.6679 9.98326 58.5513C9.73607 58.4348 9.51651 58.267 9.33917 58.0591C8.95176 57.6264 7.99596 55.3415 8.79906 55.1266C9.67285 54.8919 11.3893 57.2305 10.7729 58.7349Z" fill="#92E3A9" stroke="#263238" stroke-miterlimit="10"/>
<path d="M10.7729 58.7349L9.34772 56.4302" stroke="#263238" stroke-width="0.5" stroke-miterlimit="10"/>
<path d="M12.6138 114.887H7.82917L7.22968 102.806H13.2105L12.6138 114.887Z" fill="#263238" stroke="#263238" stroke-miterlimit="10"/>
<path d="M119.477 30.4286H72.8688V114.89H119.477V30.4286Z" fill="white" stroke="#263238" stroke-miterlimit="10"/>
<path d="M103.169 30.4286H89.1796V114.89H103.169V30.4286Z" fill="#007FB6" stroke="#263238" stroke-miterlimit="10"/>
<path d="M119.477 36.9919H72.8688V93.3219H119.477V36.9919Z" stroke="#263238" stroke-miterlimit="10"/>
<path d="M119.477 30.4286H72.8688V86.7586H119.477V30.4286Z" stroke="#263238" stroke-miterlimit="10"/>
<path d="M119.477 50.9302H111.157V55.5112H119.477V50.9302Z" fill="white" stroke="#263238" stroke-miterlimit="10"/>
<path d="M119.477 70.9454H111.157V75.5265H119.477V70.9454Z" fill="white" stroke="#263238" stroke-miterlimit="10"/>
<path d="M96.1728 84.355C107.714 84.355 117.07 74.9988 117.07 63.4574C117.07 51.9161 107.714 42.5599 96.1728 42.5599C84.6314 42.5599 75.2753 51.9161 75.2753 63.4574C75.2753 74.9988 84.6314 84.355 96.1728 84.355Z" fill="white" stroke="#263238" stroke-miterlimit="10"/>
<path d="M110.462 77.7486C118.355 69.856 118.355 57.0595 110.462 49.1668C102.57 41.2742 89.7732 41.2742 81.8805 49.1668C73.9879 57.0595 73.9879 69.8559 81.8805 77.7486C89.7732 85.6412 102.57 85.6412 110.462 77.7486Z" fill="#007FB6" stroke="#263238" stroke-miterlimit="10"/>
<path d="M112.973 63.4715C112.975 67.3529 111.635 71.1156 109.179 74.121C106.722 77.1264 103.302 79.1893 99.4978 79.9596C95.6936 80.7298 91.7401 80.1601 88.3082 78.3469C84.8764 76.5338 82.1776 73.589 80.6701 70.0124C79.1625 66.4358 78.9389 62.4477 80.0374 58.725C81.1358 55.0023 83.4886 51.7743 86.6963 49.589C89.904 47.4037 93.7691 46.3957 97.6355 46.736C101.502 47.0764 105.132 48.7441 107.908 51.4562C109.513 53.0185 110.788 54.8869 111.658 56.9507C112.528 59.0145 112.975 61.2319 112.973 63.4715Z" fill="#263238" stroke="#263238" stroke-miterlimit="10"/>
<path d="M112.973 63.4716C112.971 66.4855 112.158 69.4434 110.62 72.0352C109.082 74.6271 106.875 76.7575 104.23 78.2033C101.585 79.649 98.6007 80.3568 95.5886 80.2526C92.5765 80.1483 89.6478 79.2358 87.1096 77.6106V77.5541C85.6589 76.8302 83.2383 73.5669 81.9093 71.0275C80.5802 68.4881 82.5144 60.7484 85.3026 57.9687C88.0909 55.1889 88.3256 53.857 90.0166 54.5753C91.7076 55.2936 90.2626 59.0517 90.2626 59.0517C91.153 57.8149 91.9625 56.5218 92.686 55.1804C93.5344 53.4838 96.1897 52.7627 98.0052 51.674C99.8206 50.5852 101.874 49.8613 103.205 49.8613C104.337 49.8613 107.082 51.066 107.917 51.4421C109.522 53.0068 110.796 54.8777 111.665 56.9441C112.533 59.0104 112.978 61.2301 112.973 63.4716Z" fill="white" stroke="#263238" stroke-miterlimit="10"/>
<path d="M88.8007 63.6355C90.2146 59.2242 89.7735 60.8643 89.7735 60.8643" stroke="#263238" stroke-miterlimit="10"/>
<path d="M85.6646 67.1477C85.6646 67.1477 87.7176 56.026 88.2096 59.0489C88.7017 62.0718 84.9463 70.2923 85.4299 71.6213C85.9134 72.9504 86.8438 69.82 88.4698 64.696" stroke="#263238" stroke-miterlimit="10"/>
<path d="M111.067 69.441C111.369 68.62 111.57 67.7654 111.666 66.896" stroke="#263238" stroke-miterlimit="10"/>
<path d="M97.9967 77.4296C101.831 80.0849 107.985 75.9422 110.538 70.6627" stroke="#263238" stroke-miterlimit="10"/>
<path d="M101.138 66.0421C99.7744 66.2411 98.4612 66.6999 97.27 67.3937C93.3846 69.837 93.2715 73.5018 96.9307 76.6124" stroke="#263238" stroke-miterlimit="10"/>
<path d="M92.6183 72.1161C93.5204 69.9698 95.2623 66.2626 97.3916 63.8872C100.536 60.3807 108.395 58.7972 108.273 62.7985C108.2 65.2191 105.728 65.4142 102.844 65.7875" stroke="#263238" stroke-miterlimit="10"/>
<path d="M91.9508 73.8016C91.9508 73.8016 92.0696 73.4735 92.2873 72.9221" stroke="#263238" stroke-miterlimit="10"/>
<path d="M89.3747 69.9755C87.7544 72.8231 86.4423 74.2738 84.5674 74.2738" stroke="#263238" stroke-miterlimit="10"/>
<path d="M94.4903 60.1489C94.1453 60.771 93.7824 61.4525 93.4016 62.1934C92.1036 64.7158 91.0573 66.8508 90.1354 68.5927" stroke="#263238" stroke-miterlimit="10"/>
<path d="M108.683 57.8611C107.835 56.5858 105.765 54.004 102.954 53.7297C99.7246 53.4187 98.0194 54.0125 94.9795 59.2779" stroke="#263238" stroke-miterlimit="10"/>
<path d="M109.121 58.5682C109.121 58.5682 109.036 58.4098 108.872 58.1525" stroke="#263238" stroke-miterlimit="10"/>
<path d="M106.701 68.4824C106.701 68.4824 105.694 69.0056 104.438 69.7153C102.682 70.7079 100.446 72.0596 99.8094 72.8259C98.7206 74.155 100.898 75.4869 101.865 74.3982C102.832 73.3095 104.648 71.2537 104.648 71.2537" stroke="#263238" stroke-miterlimit="10"/>
<path d="M79.9073 69.8002C79.4375 69.7997 78.9811 69.6434 78.6096 69.3558C78.2381 69.0683 77.9725 68.6656 77.8543 68.211C76.9494 64.6997 77.0661 61.003 78.1908 57.5558C78.3663 57.0211 78.747 56.5779 79.2492 56.3239C79.7514 56.0699 80.334 56.0258 80.8687 56.2013C81.4034 56.3768 81.8466 56.7575 82.1006 57.2597C82.3546 57.7619 82.3987 58.3445 82.2232 58.8792C81.3486 61.554 81.2583 64.4233 81.9631 67.1477C82.1031 67.6926 82.0213 68.2707 81.7356 68.7553C81.4498 69.2399 80.9835 69.5913 80.4389 69.7323C80.2652 69.777 80.0866 69.7998 79.9073 69.8002Z" fill="#BDBDBD" stroke="#263238" stroke-miterlimit="10"/>
<path d="M100.369 40.2807C101.075 40.2807 101.647 39.7085 101.647 39.0025C101.647 38.2966 101.075 37.7244 100.369 37.7244C99.6633 37.7244 99.0911 38.2966 99.0911 39.0025C99.0911 39.7085 99.6633 40.2807 100.369 40.2807Z" fill="#263238" stroke="#263238" stroke-miterlimit="10"/>
<path d="M115.713 35.0237C116.419 35.0237 116.991 34.4515 116.991 33.7456C116.991 33.0397 116.419 32.4674 115.713 32.4674C115.007 32.4674 114.435 33.0397 114.435 33.7456C114.435 34.4515 115.007 35.0237 115.713 35.0237Z" fill="#007FB6" stroke="#263238" stroke-miterlimit="10"/>
<path d="M98.0561 37.8827H90.6614V40.2269H98.0561V37.8827Z" fill="white" stroke="#263238" stroke-miterlimit="10"/>
<path d="M112.489 30.4767V37.04" stroke="#263238" stroke-miterlimit="10"/>
<path d="M68.9777 30.4286H22.3698V114.89H68.9777V30.4286Z" fill="white" stroke="#263238" stroke-miterlimit="10"/>
<path d="M52.6669 30.4286H38.6777V114.89H52.6669V30.4286Z" fill="#007FB6" stroke="#263238" stroke-miterlimit="10"/>
<path d="M68.9777 36.9919H22.3698V93.3219H68.9777V36.9919Z" stroke="#263238" stroke-miterlimit="10"/>
<path d="M68.9777 30.4286H22.3698V86.7586H68.9777V30.4286Z" stroke="#263238" stroke-miterlimit="10"/>
<path d="M68.9749 50.9302H60.6555V55.5112H68.9749V50.9302Z" fill="white" stroke="#263238" stroke-miterlimit="10"/>
<path d="M68.9749 70.9454H60.6555V75.5265H68.9749V70.9454Z" fill="white" stroke="#263238" stroke-miterlimit="10"/>
<path d="M45.6738 84.355C57.2151 84.355 66.5713 74.9988 66.5713 63.4574C66.5713 51.9161 57.2151 42.5599 45.6738 42.5599C34.1324 42.5599 24.7762 51.9161 24.7762 63.4574C24.7762 74.9988 34.1324 84.355 45.6738 84.355Z" fill="white" stroke="#263238" stroke-miterlimit="10"/>
<path d="M50.378 83.1129C61.2333 80.5148 67.927 69.6086 65.3289 58.7534C62.7308 47.8981 51.8247 41.2043 40.9694 43.8024C30.1141 46.4005 23.4203 57.3067 26.0184 68.1619C28.6166 79.0172 39.5227 85.711 50.378 83.1129Z" fill="#007FB6" stroke="#263238" stroke-miterlimit="10"/>
<path d="M62.4709 63.4715C62.4735 67.3529 61.1329 71.1156 58.6767 74.121C56.2206 77.1264 52.8001 79.1893 48.996 79.9596C45.1918 80.7298 41.2383 80.1601 37.8064 78.3469C34.3746 76.5338 31.6758 73.589 30.1682 70.0124C28.6606 66.4358 28.4371 62.4477 29.5355 58.725C30.634 55.0023 32.9867 51.7743 36.1945 49.589C39.4022 47.4037 43.2673 46.3957 47.1337 46.736C51.0001 47.0764 54.6297 48.7441 57.4063 51.4562C59.0116 53.0181 60.287 54.8864 61.157 56.9503C62.0269 59.0142 62.4738 61.2318 62.4709 63.4715Z" fill="#263238" stroke="#263238" stroke-miterlimit="10"/>
<path d="M29.4054 69.8002C28.936 69.7995 28.48 69.6432 28.109 69.3556C27.738 69.068 27.4729 68.6654 27.3552 68.211C26.4504 64.6997 26.5671 61.003 27.6917 57.5558C27.8672 57.0211 28.248 56.5779 28.7502 56.3239C28.9989 56.1981 29.2699 56.1226 29.5477 56.1015C29.8256 56.0805 30.1049 56.1144 30.3697 56.2013C30.6345 56.2882 30.8795 56.4264 31.0909 56.608C31.3023 56.7896 31.4758 57.011 31.6016 57.2597C31.7273 57.5084 31.8029 57.7794 31.824 58.0573C31.845 58.3351 31.8111 58.6144 31.7242 58.8792C31.2378 60.3613 30.9915 61.9117 30.9946 63.4716C30.9957 64.7116 31.1524 65.9467 31.4612 67.1477C31.6022 67.6922 31.5211 68.2704 31.2358 68.7551C30.9505 69.2398 30.4843 69.5913 29.9399 69.7323C29.7652 69.7771 29.5857 69.7999 29.4054 69.8002Z" fill="#BDBDBD" stroke="#263238" stroke-miterlimit="10"/>
<path d="M38.9294 70.0886L36.8199 72.201" stroke="white" stroke-miterlimit="10"/>
<path d="M56.0744 52.9464L40.0294 68.9914" stroke="white" stroke-miterlimit="10"/>
<path d="M41.3783 64.9363L35.7227 70.5948" stroke="white" stroke-miterlimit="10"/>
<path d="M59.1144 60.7144L56.1593 63.6695" stroke="white" stroke-miterlimit="10"/>
<path d="M49.8703 40.2807C50.5762 40.2807 51.1484 39.7085 51.1484 39.0025C51.1484 38.2966 50.5762 37.7244 49.8703 37.7244C49.1644 37.7244 48.5921 38.2966 48.5921 39.0025C48.5921 39.7085 49.1644 40.2807 49.8703 40.2807Z" fill="#263238" stroke="#263238" stroke-miterlimit="10"/>
<path d="M66.4921 33.7456C66.4921 33.4928 66.4172 33.2457 66.2767 33.0355C66.1363 32.8253 65.9367 32.6614 65.7031 32.5647C65.4695 32.468 65.2125 32.4426 64.9646 32.492C64.7167 32.5413 64.4889 32.663 64.3102 32.8418C64.1314 33.0205 64.0097 33.2483 63.9604 33.4962C63.911 33.7442 63.9363 34.0012 64.0331 34.2347C64.1298 34.4683 64.2937 34.6679 64.5038 34.8083C64.714 34.9488 64.9612 35.0237 65.214 35.0237C65.553 35.0237 65.8781 34.8891 66.1178 34.6494C66.3575 34.4097 66.4921 34.0846 66.4921 33.7456Z" fill="#007FB6" stroke="#263238" stroke-miterlimit="10"/>
<path d="M47.5543 37.8827H40.1595V40.2269H47.5543V37.8827Z" fill="white" stroke="#263238" stroke-miterlimit="10"/>
<path d="M61.9874 30.4767V37.04" stroke="#263238" stroke-miterlimit="10"/>
<path d="M139.901 40.8147L138.865 41.0399L141.325 52.3612L142.361 52.1361L139.901 40.8147Z" fill="white" stroke="#263238" stroke-miterlimit="10"/>
<path d="M139.742 38.1669L137.93 38.5612L138.481 41.0978L140.294 40.7036L139.742 38.1669Z" fill="#263238" stroke="#263238" stroke-miterlimit="10"/>
<path d="M152.222 40.7934L149.762 52.1147L150.798 52.3399L153.258 41.0186L152.222 40.7934Z" fill="white" stroke="#263238" stroke-miterlimit="10"/>
<path d="M152.411 38.1872L151.859 40.7239L153.671 41.1181L154.223 38.5815L152.411 38.1872Z" fill="#263238" stroke="#263238" stroke-miterlimit="10"/>
<path d="M141.317 100.71L138.857 112.032L139.893 112.257L142.354 100.936L141.317 100.71Z" fill="white" stroke="#263238" stroke-miterlimit="10"/>
<path d="M138.489 111.968L137.938 114.505L139.75 114.899L140.302 112.362L138.489 111.968Z" fill="#263238" stroke="#263238" stroke-miterlimit="10"/>
<path d="M150.804 100.735L149.768 100.96L152.228 112.282L153.265 112.057L150.804 100.735Z" fill="white" stroke="#263238" stroke-miterlimit="10"/>
<path d="M153.667 111.942L151.854 112.336L152.406 114.873L154.219 114.478L153.667 111.942Z" fill="#263238" stroke="#263238" stroke-miterlimit="10"/>
<path d="M139.526 99.2886H152.664V108.62C152.664 109.203 152.432 109.762 152.02 110.174C151.608 110.586 151.049 110.818 150.467 110.818H141.726C141.143 110.818 140.584 110.586 140.172 110.174C139.76 109.762 139.529 109.203 139.529 108.62V99.2886H139.526Z" stroke="#263238" stroke-width="2" stroke-miterlimit="10"/>
<path d="M142.113 99.2717V110.702" stroke="#263238" stroke-width="2" stroke-miterlimit="10"/>
<path d="M144.794 99.2717V110.702" stroke="#263238" stroke-width="2" stroke-miterlimit="10"/>
<path d="M147.475 99.2717V110.702" stroke="#263238" stroke-width="2" stroke-miterlimit="10"/>
<path d="M150.153 99.2717V110.702" stroke="#263238" stroke-width="2" stroke-miterlimit="10"/>
<path d="M152.172 103.089H139.959C139.574 103.09 139.192 103.014 138.837 102.867C138.481 102.72 138.158 102.504 137.885 102.232C137.613 101.96 137.397 101.637 137.249 101.281C137.102 100.926 137.026 100.545 137.026 100.16V56.7584C137.027 51.8619 138.589 47.0933 141.486 43.1453L144.644 38.8329C144.786 38.6394 144.972 38.4816 145.185 38.3721C145.399 38.2625 145.635 38.2042 145.875 38.2017C146.115 38.1993 146.353 38.2527 146.568 38.3578C146.784 38.463 146.973 38.6169 147.119 38.8074L150.351 43.0237C153.433 47.0435 155.102 51.9675 155.102 57.0327V100.16C155.102 100.937 154.793 101.682 154.243 102.231C153.694 102.781 152.949 103.089 152.172 103.089Z" fill="#007FB6" stroke="#263238" stroke-miterlimit="10"/>
<path d="M199.227 114.89V47.551C199.227 46.846 198.947 46.1699 198.448 45.6714C197.95 45.1729 197.273 44.8928 196.568 44.8928H153.108C152.403 44.8928 151.727 45.1729 151.228 45.6714C150.73 46.1699 150.45 46.846 150.45 47.551V114.782" stroke="#263238" stroke-width="4" stroke-linejoin="round"/>
<path d="M177.721 57.5783L179.002 56.6932C180.857 55.3768 182.303 53.5648 183.176 51.4646L184.242 48.9733H185.939L187.008 51.4646C187.882 53.5617 189.328 55.3706 191.182 56.6847L192.463 57.5698C192.83 57.8438 193.126 58.2015 193.327 58.6132C193.529 59.0249 193.629 59.4786 193.619 59.9367H176.565C176.556 59.4799 176.656 59.0276 176.857 58.6174C177.058 58.2072 177.355 57.851 177.721 57.5783ZM184.615 58.8989H191.942C191.942 58.1128 190.69 57.3832 190.192 56.9845L189.304 56.2662C187.977 55.1381 186.98 53.6726 186.417 52.0245L185.676 50.0054H184.505L183.764 52.0245C183.201 53.6729 182.202 55.1384 180.874 56.2662L179.986 56.9845C179.491 57.3832 178.261 58.1156 178.261 58.8989H184.615Z" fill="white" stroke="#263238" stroke-linecap="round" stroke-linejoin="round"/>
<path d="M185.102 48.9309V47.1013C185.102 47.1013 184.055 46.318 184.055 45.1841C184.055 44.0501 184.926 43.6175 185.885 43.9653" stroke="#263238" stroke-linecap="round" stroke-linejoin="round"/>
<path d="M189.963 54.8184C189.963 54.8184 188.02 57.058 185.577 57.0976C182.984 57.1372 179.938 54.8693 179.938 54.8693C179.242 55.4683 178.484 55.9906 177.676 56.4274C176.319 57.1683 175.414 58.2514 174.715 60.129C173.921 62.2216 172.17 67.914 172.17 67.914L177.215 68.16L176.522 79.6042H193.302L192.171 67.9451H197.069C197.069 67.9451 195.446 60.2506 194.705 58.7717C193.964 57.2928 189.963 54.8184 189.963 54.8184Z" fill="white" stroke="#263238" stroke-linecap="round" stroke-linejoin="round"/>
<path d="M192.183 67.9451L191.925 61.8314" stroke="#263238" stroke-linecap="round" stroke-linejoin="round"/>
<path d="M177.232 68.16L177.628 62.2216" stroke="#263238" stroke-linecap="round" stroke-linejoin="round"/>
<path d="M197.176 58.4663C196.486 57.618 193.529 55.1917 191.063 53.9277C189.683 53.2383 188.393 52.3837 187.22 51.3826L184.853 51.0659L182.486 51.3826C181.312 52.3841 180.021 53.2387 178.64 53.9277C176.177 55.1917 173.219 57.6208 172.529 58.4663L171.839 59.3146V96.5739H197.855V59.309L197.176 58.4663Z" stroke="#8A8A8A" stroke-linecap="round" stroke-linejoin="round"/>
<path d="M195.562 58.3815C195.562 58.3815 192.748 74.7828 187.435 82.531" stroke="#8A8A8A" stroke-linecap="round" stroke-linejoin="round"/>
<path d="M188.608 75.1815C188.608 75.1815 185.95 82.217 183.136 86.4361" stroke="#8A8A8A" stroke-linecap="round" stroke-linejoin="round"/>
<path d="M184.621 53.8569C184.621 53.8569 182.393 57.9884 180.009 60.1092" stroke="#8A8A8A" stroke-linecap="round" stroke-linejoin="round"/>
<path d="M168.279 57.5783L169.56 56.6932C171.415 55.3774 172.86 53.5651 173.731 51.4646L174.8 48.9733H176.497L177.566 51.4646C178.439 53.5622 179.885 55.3714 181.739 56.6847L183.021 57.5698C183.388 57.8438 183.684 58.2015 183.885 58.6132C184.087 59.0249 184.187 59.4786 184.177 59.9367H167.123C167.114 59.4799 167.214 59.0276 167.415 58.6174C167.616 58.2072 167.913 57.851 168.279 57.5783ZM175.173 58.8989H182.503C182.503 58.1128 181.247 57.3832 180.753 56.9845L179.865 56.2662C178.538 55.1376 177.539 53.6724 176.975 52.0245L176.237 50.0054H175.063L174.322 52.0245C173.758 53.6729 172.76 55.1384 171.432 56.2662L170.544 56.9845C170.049 57.3832 168.819 58.1156 168.819 58.8989H175.173Z" fill="white" stroke="#263238" stroke-linecap="round" stroke-linejoin="round"/>
<path d="M175.66 48.9309V47.1013C175.66 47.1013 174.613 46.318 174.613 45.1841C174.613 44.0501 175.484 43.6175 176.443 43.9653" stroke="#263238" stroke-linecap="round" stroke-linejoin="round"/>
<path d="M180.529 54.8184C180.529 54.8184 178.586 57.058 176.146 57.0976C173.553 57.1372 170.507 54.8693 170.507 54.8693C169.811 55.4683 169.053 55.9906 168.245 56.4274C166.888 57.1683 165.983 58.2514 165.284 60.129C164.49 62.2216 162.739 67.914 162.739 67.914L167.784 68.16L167.091 79.6042H183.872L182.74 67.9451H187.638C187.638 67.9451 186.015 60.2506 185.274 58.7717C184.533 57.2928 180.529 54.8184 180.529 54.8184Z" fill="white" stroke="#263238" stroke-linecap="round" stroke-linejoin="round"/>
<path d="M182.74 67.9451L182.483 61.8314" stroke="#263238" stroke-linecap="round" stroke-linejoin="round"/>
<path d="M167.79 68.16L168.183 62.2216" stroke="#263238" stroke-linecap="round" stroke-linejoin="round"/>
<path d="M187.734 58.4663C187.044 57.618 184.087 55.1917 181.621 53.9277C180.241 53.2383 178.951 52.3837 177.778 51.3826L175.411 51.0659L173.044 51.3826C171.87 52.3841 170.579 53.2387 169.198 53.9277C166.735 55.1917 163.777 57.6208 163.087 58.4663L162.397 59.3146V96.5739H188.413V59.309L187.734 58.4663Z" stroke="#8A8A8A" stroke-linecap="round" stroke-linejoin="round"/>
<path d="M186.12 58.3815C186.12 58.3815 183.306 74.7828 177.993 82.531" stroke="#8A8A8A" stroke-linecap="round" stroke-linejoin="round"/>
<path d="M179.163 75.1815C179.163 75.1815 176.508 82.217 173.694 86.4361" stroke="#8A8A8A" stroke-linecap="round" stroke-linejoin="round"/>
<path d="M175.179 53.8569C175.179 53.8569 172.951 57.9884 170.567 60.1092" stroke="#8A8A8A" stroke-linecap="round" stroke-linejoin="round"/>
<path d="M158.961 57.5784L160.242 56.6848C162.097 55.3683 163.544 53.5563 164.416 51.4561L165.485 48.9648H167.182L168.248 51.4561C169.123 53.5574 170.573 55.3695 172.43 56.6848L173.711 57.5699C174.079 57.8434 174.376 58.201 174.577 58.6128C174.778 59.0246 174.878 59.4785 174.868 59.9367H157.805C157.797 59.4801 157.897 59.028 158.099 58.6179C158.3 58.2079 158.595 57.8515 158.961 57.5784ZM165.856 58.8989H173.185C173.185 58.1128 171.933 57.3832 171.435 56.9845L170.55 56.2663C169.222 55.1385 168.224 53.6729 167.66 52.0245L166.919 50.0055H165.745L165.004 52.0245C164.442 53.6727 163.444 55.1382 162.117 56.2663L161.229 56.9845C160.732 57.3832 159.504 58.1156 159.504 58.8989H165.856Z" fill="white" stroke="#263238" stroke-linecap="round" stroke-linejoin="round"/>
<path d="M166.342 48.9309V47.1013C166.342 47.1013 165.296 46.318 165.296 45.1841C165.296 44.0501 166.167 43.6175 167.125 43.9653" stroke="#263238" stroke-linecap="round" stroke-linejoin="round"/>
<path d="M171.214 54.8184C171.214 54.8184 169.272 57.058 166.828 57.0976C164.238 57.1372 161.19 54.8693 161.19 54.8693C160.494 55.4683 159.735 55.9906 158.928 56.4274C157.573 57.1683 156.679 58.2514 155.967 60.129C155.175 62.2216 153.422 67.914 153.422 67.914L158.467 68.16L157.777 79.6042H174.554L173.423 67.9451H178.321C178.321 67.9451 176.698 60.2506 175.959 58.7717C175.221 57.2928 171.214 54.8184 171.214 54.8184Z" fill="white" stroke="#263238" stroke-linecap="round" stroke-linejoin="round"/>
<path d="M173.423 67.9451L173.168 61.8314" stroke="#263238" stroke-linecap="round" stroke-linejoin="round"/>
<path d="M158.472 68.16L158.868 62.2216" stroke="#263238" stroke-linecap="round" stroke-linejoin="round"/>
<path d="M178.417 58.4663C177.727 57.618 174.769 55.1917 172.306 53.9277C170.925 53.2387 169.634 52.3841 168.46 51.3826L166.093 51.0659L163.726 51.3826C162.553 52.3837 161.263 53.2383 159.883 53.9277C157.417 55.1917 154.46 57.6208 153.77 58.4663L153.08 59.3146V96.5739H179.095V59.309L178.417 58.4663Z" stroke="#8A8A8A" stroke-linecap="round" stroke-linejoin="round"/>
<path d="M176.805 58.3815C176.805 58.3815 173.977 74.7828 168.675 82.531" stroke="#8A8A8A" stroke-linecap="round" stroke-linejoin="round"/>
<path d="M169.849 75.1815C169.849 75.1815 167.19 82.217 164.377 86.4361" stroke="#8A8A8A" stroke-linecap="round" stroke-linejoin="round"/>
<path d="M165.861 53.8569C165.861 53.8569 163.636 57.9884 161.252 60.1092" stroke="#8A8A8A" stroke-linecap="round" stroke-linejoin="round"/>
<path d="M139.297 76.7651H137.889V110.105H139.297V76.7651Z" fill="#C2C2C2" stroke="#263238" stroke-miterlimit="10"/>
<path d="M139.209 76.7651H134.693V77.9528H139.209V76.7651Z" fill="#C2C2C2" stroke="#263238" stroke-miterlimit="10"/>
<path d="M140.386 109.89H136.803V111.109H140.386V109.89Z" fill="#C2C2C2" stroke="#263238" stroke-miterlimit="10"/>
<path d="M138.593 114.887C139.65 114.887 140.507 114.03 140.507 112.972C140.507 111.915 139.65 111.058 138.593 111.058C137.535 111.058 136.678 111.915 136.678 112.972C136.678 114.03 137.535 114.887 138.593 114.887Z" fill="#263238" stroke="#263238" stroke-miterlimit="10"/>
<path d="M139.413 112.972C139.413 112.81 139.365 112.652 139.275 112.517C139.185 112.382 139.056 112.277 138.907 112.215C138.757 112.153 138.592 112.136 138.433 112.168C138.274 112.2 138.128 112.278 138.013 112.392C137.898 112.507 137.82 112.653 137.788 112.812C137.757 112.971 137.773 113.136 137.835 113.286C137.897 113.436 138.002 113.564 138.137 113.654C138.272 113.744 138.431 113.792 138.593 113.792C138.81 113.792 139.019 113.706 139.173 113.552C139.326 113.398 139.413 113.19 139.413 112.972Z" fill="white" stroke="#263238" stroke-miterlimit="10"/>
<path d="M184.197 67.8886C184.139 67.8059 184.064 67.7364 183.978 67.6847C183.891 67.6331 183.794 67.6004 183.694 67.5889C183.594 67.5774 183.492 67.5874 183.396 67.6181C183.3 67.6487 183.211 67.6995 183.136 67.767L175.137 75.0288C174.548 75.5774 173.943 76.1599 173.621 76.8866C173.163 77.9329 173.369 79.0923 173.375 80.1952C173.375 81.4451 173.375 82.695 173.375 83.9449V110.105H174.789V79.1828C174.789 78.4872 174.619 77.6954 175.029 77.144C176.217 75.5378 178.024 74.3162 179.472 72.9475C179.59 72.8344 180.461 72.0228 184.089 68.8302C184.221 68.7148 184.305 68.5549 184.326 68.381C184.347 68.2072 184.303 68.0318 184.203 67.8886H184.197Z" fill="#C2C2C2" stroke="#263238" stroke-miterlimit="10"/>
<path d="M173.974 82.6611L171.364 79.1828C171.364 79.1828 169.43 78.6173 167.688 77.9499C165.946 77.2826 165.686 75.8178 164.487 75.1504C163.288 74.483 161.286 74.3501 160.619 74.6159C160.068 74.8489 159.482 74.9847 158.885 75.0175C158.486 75.0175 156.753 74.6159 155.817 75.0175C154.881 75.419 152.483 75.8178 152.217 76.618C151.951 77.4183 151.284 77.6841 151.015 78.0857C150.747 78.4872 150.082 78.7502 149.282 78.8859C148.482 79.0217 143.949 79.4176 143.148 79.952C142.512 80.4011 141.843 80.8019 141.146 81.151L140.346 81.5526L137.414 83.6875L136.347 86.2326C136.347 86.2326 136.212 88.4948 135.946 89.0321C135.68 89.5694 135.68 91.4329 135.68 91.4329V107.438H173.974V82.6611Z" fill="white" stroke="#263238" stroke-miterlimit="10"/>
<path d="M155.56 80.7523C155.693 81.9513 153.487 83.1446 153.06 83.3652C152.633 83.5858 149.825 80.6194 150.492 80.2178C151.16 79.8163 152.491 79.0188 152.893 79.5505C153.295 80.0821 153.292 81.0181 153.292 81.0181" stroke="#263238" stroke-miterlimit="10"/>
<path d="M154.092 76.8839C154.092 76.8839 154.658 78.015 155.085 79.1235" stroke="#263238" stroke-miterlimit="10"/>
<path d="M161.84 77.9867L163.161 79.4176C162.752 79.987 162.437 80.618 162.228 81.2868C161.829 82.4857 161.696 82.3528 161.56 83.286C161.425 84.2192 161.56 84.0863 161.427 85.6868C161.294 87.2874 160.494 89.6882 160.494 89.6882L156.493 91.9504C156.493 91.9504 148.357 92.3491 147.959 92.3491C146.893 92.2803 145.823 92.2803 144.757 92.3491C143.556 92.4821 141.155 93.9497 141.155 93.9497C141.155 93.9497 141.853 97.9765 140.705 97.7644C139.557 97.5523 139.823 99.15 139.823 99.15" stroke="#263238" stroke-miterlimit="10"/>
<path d="M159.96 75.9506L161.323 77.4267" stroke="#263238" stroke-miterlimit="10"/>
<path d="M168.896 79.952C168.896 79.952 166.158 83.5829 165.627 83.5829C165.095 83.5829 163.297 84.4849 162.762 85.4209C162.262 86.2811 161.816 87.1717 161.427 88.0876C161.155 88.6427 160.843 89.1776 160.494 89.6881" stroke="#263238" stroke-miterlimit="10"/>
<path d="M148.991 90.282C150.427 90.3753 152.183 89.8239 154.081 89.4336C156.626 88.8992 158.913 87.5333 159.148 85.5652C159.383 83.597 160.483 82.0983 159.816 81.0407C159.148 79.9831 157.016 78.4957 156.614 78.4957C156.213 78.4957 154.615 77.9499 154.615 77.9499" stroke="#263238" stroke-miterlimit="10"/>
<path d="M141.689 85.421C141.689 85.421 146.089 89.1537 147.69 89.9455C147.842 90.0217 148.001 90.0842 148.165 90.1321" stroke="#263238" stroke-miterlimit="10"/>
<path d="M150.905 99.8173C152.816 99.7716 154.728 99.8661 156.626 100.1C163.028 100.9 171.031 100.632 169.832 102.232C168.633 103.833 168.497 103.833 167.962 103.833" stroke="#263238" stroke-miterlimit="10"/>
<path d="M163.099 98.9888C162.058 99.1199 161.009 99.1756 159.96 99.1557C157.697 99.1557 153.292 98.757 150.091 98.757C146.89 98.757 141.291 99.4243 143.304 99.9559C144.435 100.259 146.497 100.007 149.242 99.8739" stroke="#263238" stroke-miterlimit="10"/>
<path d="M168.98 91.218C169.492 92.8044 169.987 94.6991 169.696 95.423C169.164 96.7577 165.963 98.4911 164.495 98.757" stroke="#263238" stroke-miterlimit="10"/>
<path d="M168.095 88.755C168.095 88.755 168.423 89.5694 168.788 90.6411" stroke="#263238" stroke-miterlimit="10"/>
<path d="M156.278 104.78C159.909 104.639 162.098 104.625 160.494 104.893C155.687 105.691 145.691 106.225 145.691 106.225" stroke="#263238" stroke-miterlimit="10"/>
<path d="M136.087 105.826C136.087 105.826 147.201 105.165 154.59 104.848" stroke="#263238" stroke-miterlimit="10"/>
<path d="M173.971 84.0693V82.661H138.245V84.0693H173.971Z" fill="#C2C2C2" stroke="#263238" stroke-miterlimit="10"/>
<path d="M173.971 108.782V107.373H138.245V108.782H173.971Z" fill="white" stroke="#263238" stroke-miterlimit="10"/>
<path d="M183.614 68.8161H179.978V67.6284H183.614C183.772 67.6284 183.923 67.691 184.034 67.8024C184.146 67.9137 184.208 68.0648 184.208 68.2223C184.208 68.3002 184.193 68.3775 184.163 68.4495C184.133 68.5216 184.089 68.587 184.034 68.6422C183.979 68.6973 183.914 68.7411 183.842 68.7709C183.77 68.8007 183.692 68.8161 183.614 68.8161Z" fill="#C2C2C2" stroke="#263238" stroke-miterlimit="10"/>
<path d="M175.877 109.89H172.295V111.109H175.877V109.89Z" fill="#C2C2C2" stroke="#263238" stroke-miterlimit="10"/>
<path d="M174.034 114.887C175.091 114.887 175.948 114.03 175.948 112.972C175.948 111.915 175.091 111.058 174.034 111.058C172.976 111.058 172.119 111.915 172.119 112.972C172.119 114.03 172.976 114.887 174.034 114.887Z" fill="#263238" stroke="#263238" stroke-miterlimit="10"/>
<path d="M174.854 112.972C174.854 112.81 174.806 112.652 174.716 112.517C174.625 112.382 174.497 112.277 174.348 112.215C174.198 112.153 174.033 112.136 173.874 112.168C173.715 112.2 173.569 112.278 173.454 112.392C173.339 112.507 173.261 112.653 173.229 112.812C173.198 112.971 173.214 113.136 173.276 113.286C173.338 113.436 173.443 113.564 173.578 113.654C173.713 113.744 173.872 113.792 174.034 113.792C174.251 113.792 174.46 113.706 174.614 113.552C174.767 113.398 174.854 113.19 174.854 112.972Z" fill="white" stroke="#263238" stroke-miterlimit="10"/>
<path d="M173.714 87.9575V87.4287H165.627V83.5829H165.098V87.4287H159.397V83.5829H158.857V87.4287H153.164V83.5829H152.636V87.4287H146.935V83.5829H146.415V87.4287H140.705V83.5829H140.174V87.4287H135.267V87.9575H140.174V92.335H135.267V92.8638H140.174V97.2384H135.267V97.77H140.174V102.145H135.267V102.673H140.174V107.846H140.705V102.673H146.415V107.846H146.946V102.673H152.636V107.846H153.164V102.673H158.857V107.846H159.389V102.673H165.089V107.846H165.618V102.673H173.706V102.145H165.618V97.77H173.706V97.2384H165.618V92.8638H173.706V92.335H165.618V87.9575H173.714ZM158.865 87.9575V92.335H153.164V87.9575H158.865ZM153.164 92.8638H158.857V97.2384H153.164V92.8638ZM152.636 97.2384H146.935V92.8638H152.636V97.2384ZM152.636 87.9575V92.335H146.935V87.9575H152.636ZM140.705 87.9575H146.415V92.335H140.705V87.9575ZM140.705 92.8638H146.415V97.2384H140.705V92.8638ZM140.705 102.145V97.77H146.415V102.145H140.705ZM146.926 102.145V97.77H152.636V102.145H146.926ZM153.148 102.145V97.77H158.857V102.145H153.148ZM165.081 102.145H159.397V97.77H165.098L165.081 102.145ZM165.081 97.2384H159.397V92.8638H165.098L165.081 97.2384ZM165.081 92.335H159.397V87.9575H165.098L165.081 92.335Z" fill="#C2C2C2" stroke="#263238" stroke-miterlimit="10"/>
<path d="M170.923 84.0664V82.6582H135.197V84.0664H170.923Z" fill="#C2C2C2" stroke="#263238" stroke-miterlimit="10"/>
<path d="M170.923 108.779V107.37H135.197V108.779H170.923Z" fill="#C2C2C2" stroke="#263238" stroke-miterlimit="10"/>
<path d="M135.638 76.7651H134.229V110.105H135.638V76.7651Z" fill="#C2C2C2" stroke="#263238" stroke-miterlimit="10"/>
<path d="M180.778 67.8886C180.72 67.8059 180.645 67.7364 180.559 67.6847C180.472 67.6331 180.375 67.6004 180.275 67.5889C180.175 67.5774 180.073 67.5874 179.977 67.6181C179.881 67.6487 179.793 67.6995 179.718 67.767L171.718 75.0288C171.13 75.5774 170.524 76.1599 170.202 76.8866C169.744 77.9329 169.95 79.0923 169.956 80.1952C169.956 81.4451 169.956 82.695 169.956 83.9449V110.105H171.37V79.1828C171.37 78.4872 171.2 77.6954 171.61 77.144C172.798 75.5378 174.605 74.3162 176.053 72.9475C176.172 72.8344 177.043 72.0228 180.671 68.8302C180.802 68.7145 180.886 68.5546 180.907 68.3809C180.927 68.2073 180.884 68.032 180.784 67.8886H180.778Z" fill="#C2C2C2" stroke="#263238" stroke-miterlimit="10"/>
<path d="M180 68.8302C180.235 68.8302 180.425 68.6403 180.425 68.406C180.425 68.1718 180.235 67.9819 180 67.9819C179.766 67.9819 179.576 68.1718 179.576 68.406C179.576 68.6403 179.766 68.8302 180 68.8302Z" fill="#C2C2C2" stroke="#263238" stroke-miterlimit="10"/>
<path d="M136.726 109.89H133.144V111.109H136.726V109.89Z" fill="#C2C2C2" stroke="#263238" stroke-miterlimit="10"/>
<path d="M172.459 109.89H168.876V111.109H172.459V109.89Z" fill="#C2C2C2" stroke="#263238" stroke-miterlimit="10"/>
<path d="M134.934 114.887C135.991 114.887 136.848 114.03 136.848 112.972C136.848 111.915 135.991 111.058 134.934 111.058C133.876 111.058 133.019 111.915 133.019 112.972C133.019 114.03 133.876 114.887 134.934 114.887Z" fill="#263238" stroke="#263238" stroke-miterlimit="10"/>
<path d="M135.754 112.972C135.754 112.81 135.705 112.652 135.615 112.517C135.525 112.382 135.397 112.277 135.247 112.215C135.098 112.153 134.933 112.136 134.774 112.168C134.614 112.2 134.468 112.278 134.354 112.392C134.239 112.507 134.161 112.653 134.129 112.812C134.098 112.971 134.114 113.136 134.176 113.286C134.238 113.436 134.343 113.564 134.478 113.654C134.613 113.744 134.771 113.792 134.934 113.792C135.151 113.792 135.36 113.706 135.513 113.552C135.667 113.398 135.754 113.19 135.754 112.972Z" fill="white" stroke="#263238" stroke-miterlimit="10"/>
<path d="M170.615 114.887C171.672 114.887 172.529 114.03 172.529 112.972C172.529 111.915 171.672 111.058 170.615 111.058C169.558 111.058 168.701 111.915 168.701 112.972C168.701 114.03 169.558 114.887 170.615 114.887Z" fill="#263238" stroke="#263238" stroke-miterlimit="10"/>
<path d="M171.435 112.972C171.435 112.81 171.387 112.652 171.297 112.517C171.207 112.382 171.079 112.277 170.929 112.215C170.779 112.153 170.614 112.136 170.455 112.168C170.296 112.2 170.15 112.278 170.035 112.392C169.92 112.507 169.842 112.653 169.811 112.812C169.779 112.971 169.795 113.136 169.857 113.286C169.919 113.436 170.024 113.564 170.159 113.654C170.294 113.744 170.453 113.792 170.615 113.792C170.832 113.792 171.041 113.706 171.195 113.552C171.349 113.398 171.435 113.19 171.435 112.972Z" fill="white" stroke="#263238" stroke-miterlimit="10"/>
<path d="M111.816 51.2242C111.816 51.2242 111.188 50.2797 109.118 47.4859C107.048 44.692 105.833 43.0603 105.462 42.2629C105.092 41.4655 104.453 39.7546 103.898 38.8695C103.344 37.9844 103.126 38.0353 102.646 37.4924C102.157 36.9433 101.473 36.6081 100.74 36.5592C100.12 36.5592 99.4643 36.7883 99.6877 37.1898C99.9111 37.5914 100.819 37.2888 101.076 37.3595C101.538 37.6066 101.958 37.9233 102.323 38.2983C102.51 38.516 102.487 40.3767 102.38 40.4135C102.272 40.4503 100.55 39.9554 100.002 39.9978C99.453 40.0402 98.9468 40.4814 99.2041 40.6228C99.4615 40.7642 100.265 40.7246 101.107 41.0469C101.95 41.3693 102.832 42.1272 103.344 42.3053L103.856 42.4835C103.856 42.4835 106.655 49.553 107.509 51.2129C108.363 52.8728 110.826 55.1266 111.265 55.1238C111.703 55.1209 112.537 54.4564 112.537 54.4564L111.816 51.2242Z" fill="white" stroke="#263238" stroke-miterlimit="10"/>
<path d="M121.575 48.4841C121.035 48.5926 120.518 48.7945 120.048 49.0808C119.248 49.5643 111.666 50.8623 111.666 50.8623L112.571 56.5886L119.358 55.6526L122.152 48.6255C122.152 48.6255 122.194 48.2946 121.575 48.4841Z" fill="#007FB6" stroke="#263238" stroke-miterlimit="10"/>
<path d="M121.36 32.5494C121.36 32.5494 119.777 35.2161 119.777 36.0503C119.777 36.8845 119.649 37.8855 119.358 38.3125C119.067 38.7395 117.944 39.4436 117.984 39.6472C118.023 39.8509 118.19 40.357 118.524 40.5239L118.857 40.6907C118.857 40.6907 119.525 42.8992 119.777 43.5185C120.028 44.1378 120.235 44.2707 120.483 44.2707C120.732 44.2707 122.152 44.0615 122.152 44.0615C122.304 44.8057 122.374 45.5643 122.361 46.3237C122.368 46.8003 122.312 47.2757 122.194 47.7376L126.781 45.4754C126.781 45.4754 126.362 44.1435 126.498 43.182C126.634 42.2206 127.46 41.9321 125.791 37.7639C124.123 33.5957 121.861 31.4636 121.36 32.5494Z" fill="white" stroke="#263238" stroke-miterlimit="10"/>
<path d="M120.271 38.0212C120.212 38.3039 120.09 38.516 119.989 38.4962C119.887 38.4764 119.875 38.2332 119.935 37.9505C119.994 37.6677 120.116 37.4584 120.218 37.4782C120.319 37.498 120.334 37.7384 120.271 38.0212Z" fill="#263238"/>
<path d="M119.983 36.5507C119.983 36.5507 120.483 36.1351 120.65 36.8335" stroke="#263238" stroke-linecap="round" stroke-linejoin="round"/>
<path d="M119.482 41.3863C119.751 41.3885 120.015 41.3205 120.249 41.1891C120.484 41.0576 120.679 40.8673 120.817 40.637" stroke="#263238" stroke-linecap="round" stroke-linejoin="round"/>
<path d="M120.778 31.3391C121.159 33.0995 121.631 34.8391 122.191 36.5508C122.941 38.6773 124.858 41.9236 125.61 42.721C126.362 43.5185 126.651 43.9738 127.024 43.9313C127.397 43.8889 130.528 41.1375 131.11 38.2616C131.693 35.3857 130.944 33.2988 128.902 32.0913C126.86 30.8838 120.611 29.6311 120.778 31.3391Z" fill="#263238" stroke="#263238" stroke-miterlimit="10"/>
<path d="M127.03 43.9313C127.03 43.9313 126.747 46.4311 127.74 47.4746C128.732 48.518 129.436 48.6849 130.616 47.8902C131.795 47.0956 132.7 45.2236 131.198 44.0982C129.696 42.9727 127.282 42.721 127.03 43.9313Z" fill="#263238" stroke="#263238" stroke-miterlimit="10"/>
<path d="M122.661 38.929C122.661 38.929 123.119 37.5151 123.662 38.0524C124.205 38.5897 124.205 40.3146 123.744 41.0131C123.283 41.7116 123.037 41.0131 123.037 41.0131" fill="white"/>
<path d="M122.661 38.929C122.661 38.929 123.119 37.5151 123.662 38.0524C124.205 38.5897 124.205 40.3146 123.744 41.0131C123.283 41.7116 123.037 41.0131 123.037 41.0131" stroke="#263238" stroke-miterlimit="10"/>
<path d="M119.157 86.6143C119.157 86.6143 118.824 91.6224 119.547 94.1278C120.271 96.6333 124.833 108.55 124.833 108.55C124.833 108.55 124.946 110.662 124.779 110.885C124.612 111.109 123.832 112.333 122.774 112.834C121.716 113.334 119.491 114.615 119.991 114.782C120.492 114.949 124.946 114.446 125.446 114.669C125.947 114.892 128.172 114.002 128.729 113.778C129.286 113.555 128.729 112.166 128.729 112.166C128.053 109.859 127.496 107.518 127.061 105.153C126.558 102.094 125.78 97.8633 125.336 95.751C125.054 94.4442 124.624 93.1739 124.055 91.9645L124.621 86.7359L119.157 86.6143Z" fill="white" stroke="#263238" stroke-miterlimit="10"/>
<path d="M123.509 113.549L122.944 112.746L122.791 112.825C121.733 113.326 119.508 114.607 120.008 114.774C120.509 114.94 124.963 114.437 125.463 114.661C125.964 114.884 128.189 113.993 128.746 113.77C129.303 113.546 128.746 112.158 128.746 112.158C128.746 112.158 128.69 111.968 128.599 111.646C127.836 111.984 127.119 112.417 126.464 112.936C125.279 113.937 123.509 113.549 123.509 113.549Z" fill="#263238" stroke="#263238" stroke-miterlimit="10"/>
<path d="M121.049 87.0045C121.049 87.0045 121.496 92.1257 122.163 93.9044C122.831 95.6831 122.831 107.817 122.831 108.818C122.831 109.819 121.216 111.434 121.216 111.434C121.216 111.434 118.433 113.493 117.656 113.716C116.878 113.939 116.264 114.217 116.655 114.55C117.045 114.884 120.882 114.884 122.22 114.884C123.557 114.884 125.279 114.94 125.446 114.661C125.588 114.304 125.683 113.93 125.729 113.549C125.729 113.549 125.395 110.439 125.508 109.042C125.622 107.645 127.621 99.1924 127.454 96.3533C127.319 94.4679 126.984 92.6023 126.453 90.7882C126.396 90.5676 126.843 86.7274 126.843 86.7274L121.049 87.0045Z" fill="white" stroke="#263238" stroke-miterlimit="10"/>
<path d="M125.723 113.549C125.723 113.549 125.709 113.413 125.69 113.19C123.187 113.385 119.938 113.549 119.938 113.549L119.55 112.605C118.804 113.111 118.009 113.611 117.647 113.716C116.867 113.937 116.256 114.217 116.646 114.55C117.036 114.884 120.874 114.884 122.211 114.884C123.549 114.884 125.271 114.941 125.438 114.661C125.581 114.304 125.677 113.93 125.723 113.549Z" fill="#263238" stroke="#263238" stroke-miterlimit="10"/>
<path d="M118.784 64.8402C118.784 64.8402 116.988 69.3647 116.875 76.3211C116.762 83.2775 117.158 86.784 117.158 86.784C117.158 86.784 119.986 88.2318 124.227 88.065C128.469 87.8981 129.793 87.1742 129.793 87.1742C129.793 87.1742 131.037 80.051 130.816 75.0995C130.596 70.148 129.968 69.1441 129.402 67.7471C128.837 66.3502 127.706 64.2916 127.706 64.2916C127.706 64.2916 123.863 65.8808 118.784 64.8402Z" fill="#007FB6" stroke="#263238" stroke-miterlimit="10"/>
<path d="M124.999 85.0024L124.309 65.0749C122.467 65.291 120.602 65.2118 118.784 64.8401C118.784 64.8401 116.988 69.3646 116.875 76.3211C116.819 79.9463 116.895 82.6299 116.985 84.3747C121.394 85.9017 124.999 85.0024 124.999 85.0024Z" fill="white" stroke="#263238" stroke-miterlimit="10"/>
<path d="M126.705 44.8362C126.705 44.8362 122.398 46.8156 121.742 47.6838C121.331 48.2771 121.091 48.9714 121.046 49.6915C121.046 49.6915 117.178 54.9484 117.432 56.3736C117.687 57.7989 118.6 62.6514 118.6 62.6514L118.71 63.4177L118.784 64.3311V64.8401C120.195 65.5088 121.748 65.8223 123.308 65.7535C126.046 65.68 127.615 64.8033 127.689 64.2943C127.738 63.6739 127.65 63.0502 127.431 62.4676C127.25 62.066 128.455 55.8618 128.529 53.1358C128.602 50.4098 127.652 46.0889 127.177 45.4696L126.705 44.8362Z" fill="#007FB6" stroke="#263238" stroke-miterlimit="10"/>
<path d="M127.185 45.4583L126.71 44.8362C126.71 44.8362 122.404 46.8156 121.747 47.6838C121.337 48.2771 121.096 48.9714 121.052 49.6915C121.052 49.6915 124.7 46.6969 127.358 45.792C127.313 45.6746 127.255 45.5627 127.185 45.4583Z" fill="white" stroke="#263238" stroke-miterlimit="10"/>
<path d="M123.441 58.6303L123.724 63.1916C123.724 63.1916 122.519 74.7997 122.519 75.1278C122.519 75.4558 122.63 78.999 122.884 79.5448C123.209 80.0685 123.678 80.4869 124.236 80.7494C124.417 80.7398 124.593 80.6886 124.751 80.5998C124.909 80.5111 125.044 80.3871 125.147 80.2376C125.367 79.8361 125.22 79.8728 125.002 79.8728H124.782L124.273 79.5448C124.517 79.1306 124.678 78.6723 124.745 78.1959C124.782 77.5738 124.089 75.8206 123.979 75.6028C123.868 75.3851 126.207 66.4407 126.572 64.6168C126.788 63.5589 126.91 62.4839 126.937 61.4044L127.084 58.2627L123.441 58.6303Z" fill="white" stroke="#263238" stroke-miterlimit="10"/>
<path d="M123.566 49.6153C123.566 49.6153 122.763 49.8726 122.689 51.5156C122.616 53.1585 122.435 60.3836 122.435 60.3836C122.435 60.3836 122.873 60.6409 125.282 60.3497C127.692 60.0584 127.983 59.9481 127.983 59.9481C127.983 59.9481 128.458 51.2582 127.836 49.6153C127.214 47.9723 125.975 47.5736 125.975 47.5736" fill="#007FB6"/>
<path d="M123.566 49.6153C123.566 49.6153 122.763 49.8726 122.689 51.5156C122.616 53.1585 122.435 60.3836 122.435 60.3836C122.435 60.3836 122.873 60.6409 125.282 60.3497C127.692 60.0584 127.983 59.9481 127.983 59.9481C127.983 59.9481 128.458 51.2582 127.836 49.6153C127.214 47.9723 125.975 47.5736 125.975 47.5736" stroke="#263238" stroke-miterlimit="10"/>
<path d="M1 114.89H204" stroke="#263238" stroke-miterlimit="10"/>
</svg>
