<svg width="159" height="156" viewBox="0 0 159 156" fill="none" xmlns="http://www.w3.org/2000/svg">
<path d="M78.8801 155.015C119.022 155.015 151.563 147.906 151.563 139.136C151.563 130.366 119.022 123.257 78.8801 123.257C38.7385 123.257 6.19727 130.366 6.19727 139.136C6.19727 147.906 38.7385 155.015 78.8801 155.015Z" fill="#007FB6"/>
<path opacity="0.5" d="M78.8801 155.015C119.022 155.015 151.563 147.906 151.563 139.136C151.563 130.366 119.022 123.257 78.8801 123.257C38.7385 123.257 6.19727 130.366 6.19727 139.136C6.19727 147.906 38.7385 155.015 78.8801 155.015Z" fill="white"/>
<path d="M136.089 91.089L133.906 90.1347C134.069 90.5355 134.299 90.9054 134.586 91.2283C134.91 91.6019 135.185 92.0147 135.405 92.457C135.405 92.457 133.357 90.9538 131.993 90.6794C131.047 90.5091 130.088 90.4187 129.126 90.4091L131.174 91.3634L129.536 91.773L129.946 92.3218H127.079L128.991 93.6857L128.172 94.7793L127.353 96.1431L129.536 95.4632L128.991 96.8271L130.085 96.2824L129.401 97.5111H128.017L129.79 98.4654H128.561L129.106 98.875L128.287 99.559L130.064 99.8334L128.946 100.616L131.703 100.243L130.748 101.607L133.067 101.062V101.746H145.907L146.271 100.616L146.726 100.104L148.094 99.1494L146.591 99.0142L147.275 98.6047L146.726 98.0558L147.684 97.3719L147 96.4175L147.959 94.5048L145.911 94.2304L146.32 93.2761V91.4986L144.408 91.3634L144.682 89.4507L143.179 89.8603L142.36 89.9995L141.266 88.906L140.857 90.8187L139.218 89.3155L138.399 88.7667L138.125 90.405L136.761 90.1306L136.089 91.089Z" fill="#92E3A9"/>
<path opacity="0.4" d="M136.089 91.089L133.906 90.1347C134.069 90.5355 134.299 90.9054 134.586 91.2283C134.91 91.6019 135.185 92.0147 135.405 92.457C135.405 92.457 133.357 90.9538 131.993 90.6794C131.047 90.5091 130.088 90.4187 129.126 90.4091L131.174 91.3634L129.536 91.773L129.946 92.3218H127.079L128.991 93.6857L128.172 94.7793L127.353 96.1431L129.536 95.4632L128.991 96.8271L130.085 96.2824L129.401 97.5111H128.017L129.79 98.4654H128.561L129.106 98.875L128.287 99.559L130.064 99.8334L128.946 100.616L131.703 100.243L130.748 101.607L133.067 101.062V101.746H145.907L146.271 100.616L146.726 100.104L148.094 99.1494L146.591 99.0142L147.275 98.6047L146.726 98.0558L147.684 97.3719L147 96.4175L147.959 94.5048L145.911 94.2304L146.32 93.2761V91.4986L144.408 91.3634L144.682 89.4507L143.179 89.8603L142.36 89.9995L141.266 88.906L140.857 90.8187L139.218 89.3155L138.399 88.7667L138.125 90.405L136.761 90.1306L136.089 91.089Z" fill="white"/>
<path opacity="0.2" d="M133.906 101.746H145.923L146.218 100.833L145.923 100.792L146.333 99.8375V98.0599L144.42 97.9248L144.694 96.0121L143.191 96.4216L142.372 96.5609L141.279 95.4673L140.869 97.38L139.231 95.8769L138.412 95.3281L138.137 96.9664L136.773 96.6919L136.089 97.6462L133.906 96.6919C134.069 97.0927 134.299 97.4626 134.586 97.7855C134.91 98.1591 135.185 98.5719 135.405 99.0142C135.405 99.0142 133.357 97.5111 131.993 97.2367C131.232 97.0953 130.461 97.0091 129.688 96.9786L129.581 97.1793L131.174 97.9207L129.536 98.3302L129.79 98.4654H129.614L129.925 98.875H129.106L128.287 99.5508L130.064 99.8252L128.946 100.607L131.703 100.235L130.748 101.599L133.067 101.054V101.738L133.906 101.746Z" fill="#263238"/>
<path d="M140.779 127.529H134.103C133.546 127.527 133.006 127.344 132.562 127.008C132.119 126.672 131.797 126.2 131.645 125.665C129.61 118.531 128.68 111.128 128.889 103.712L128.975 100.616H146.3L146.386 103.483C146.611 110.858 145.71 118.225 143.715 125.329C143.532 125.966 143.147 126.525 142.616 126.922C142.086 127.319 141.441 127.532 140.779 127.529Z" fill="#263238" stroke="#263238" stroke-linecap="round" stroke-linejoin="round"/>
<path d="M145.313 12.963H95.3203V84.7202H145.313V12.963Z" stroke="#263238" stroke-linecap="round" stroke-linejoin="round"/>
<path d="M142.712 15.7972H97.9211V81.8859H142.712V15.7972Z" stroke="#263238" stroke-linecap="round" stroke-linejoin="round"/>
<path d="M121.725 15.7972H118.908V81.8859H121.725V15.7972Z" stroke="#263238" stroke-linecap="round" stroke-linejoin="round"/>
<path d="M29.1005 120.869H79.7032L79.7032 15.5351H29.1005L29.1005 120.869Z" stroke="#263238" stroke-miterlimit="10"/>
<path d="M81.5464 12.963V123.257H78.5074V16.1823H29.6412V123.257H26.2664V12.963H81.5464Z" stroke="#263238" stroke-miterlimit="10"/>
<path d="M35.2851 116.523H73.5105L73.5105 20.5278H35.2851L35.2851 116.523Z" stroke="#263238" stroke-miterlimit="10"/>
<path d="M39.52 109.794H69.2755V79.8216H39.52V109.794Z" stroke="#263238" stroke-miterlimit="10"/>
<path d="M69.2756 27.6953H57.9836V75.259H69.2756V27.6953Z" stroke="#263238" stroke-linecap="round" stroke-linejoin="round"/>
<path d="M50.8161 27.6953H39.5242V75.259H50.8161V27.6953Z" stroke="#263238" stroke-linecap="round" stroke-linejoin="round"/>
<path d="M30.4439 63.3323H34.3922V61.8619H30.4439V63.3323Z" fill="#263238" stroke="#263238" stroke-linecap="round" stroke-linejoin="round"/>
<path d="M30.4439 83.983H34.3922V82.5126H30.4439V83.983Z" fill="#263238" stroke="#263238" stroke-linecap="round" stroke-linejoin="round"/>
<path d="M34.9615 89.1599C35.1342 89.1599 35.2998 89.0913 35.422 88.9692C35.5441 88.847 35.6127 88.6814 35.6127 88.5087V57.6678C35.6149 57.581 35.5997 57.4945 35.5679 57.4136C35.5362 57.3327 35.4885 57.259 35.4279 57.1967C35.3672 57.1345 35.2946 57.0851 35.2145 57.0513C35.1344 57.0176 35.0484 57.0002 34.9615 57.0002C34.7888 57.0002 34.6231 57.0689 34.501 57.191C34.3789 57.3131 34.3103 57.4787 34.3103 57.6515V88.4923C34.3081 88.5792 34.3233 88.6656 34.355 88.7466C34.3868 88.8275 34.4344 88.9012 34.4951 88.9634C34.5558 89.0256 34.6283 89.0751 34.7084 89.1088C34.7885 89.1426 34.8746 89.1599 34.9615 89.1599Z" fill="#263238" stroke="#263238" stroke-linecap="round" stroke-linejoin="round"/>
<path d="M30.6651 75.9963H32.7784V71.9579H30.6651V75.9963Z" stroke="#263238" stroke-linecap="round" stroke-linejoin="round"/>
<path d="M23.641 134.643H84.5854L77.5531 123.826H30.6734L23.641 134.643Z" stroke="#263238" stroke-miterlimit="10"/>
<path d="M152.128 123.257H78.7858" stroke="#263238" stroke-linecap="round" stroke-linejoin="round"/>
<path d="M26.6759 123.257H1.78613" stroke="#263238" stroke-linecap="round" stroke-linejoin="round"/>
<path d="M90.3031 107.615H53.2285V139.132H90.3031V107.615Z" fill="#007FB6" stroke="#263238" stroke-linecap="round" stroke-linejoin="round"/>
<path d="M75.0383 107.615H68.4933V113.185H75.0383V107.615Z" fill="white" stroke="#263238" stroke-width="0.5" stroke-linecap="round" stroke-linejoin="round"/>
<path d="M75.0383 133.562H68.4933V139.132H75.0383V133.562Z" fill="white" stroke="#263238" stroke-width="0.5" stroke-linecap="round" stroke-linejoin="round"/>
<path d="M90.3031 107.615L96.2173 105.977V133.607L90.3031 139.132V107.615Z" fill="#007FB6" stroke="#263238" stroke-linecap="round" stroke-linejoin="round"/>
<path d="M96.2173 105.977H57.7174L53.2285 107.615H90.3031L96.2173 105.977Z" fill="#007FB6" stroke="#263238" stroke-linecap="round" stroke-linejoin="round"/>
<path d="M56.0259 106.579H94.6363" stroke="#263238" stroke-width="0.5" stroke-linecap="round" stroke-linejoin="round"/>
<path d="M75.0383 107.615L80.5921 105.997H72.9494L68.4933 107.615H75.0383Z" fill="white" stroke="#263238" stroke-width="0.5" stroke-linecap="round" stroke-linejoin="round"/>
<path d="M72.6873 93.186C72.6873 93.186 72.1098 105.33 71.1228 108.34C70.1357 111.351 69.3944 133.467 69.3493 134.553C69.3042 135.638 72.2859 138.968 73.6334 139.632C74.9809 140.295 74.4034 140.545 72.9945 140.746C71.5856 140.946 69.9186 140.84 69.1322 139.713C68.3458 138.587 66.6748 138.374 66.6748 138.374L66.6052 140.95L66.1342 140.979L65.5689 137.805C65.3999 137.081 65.4763 136.322 65.786 135.646C66.298 134.418 65.6672 133.39 65.3969 129.253C65.1266 125.116 63.8037 118.51 64.033 115.278C64.2624 112.047 65.8802 107.496 65.7041 104.818C65.528 102.139 65.4133 95.2748 65.4133 95.2748L72.6873 93.186Z" fill="white"/>
<mask id="mask0_51_602" style="mask-type:luminance" maskUnits="userSpaceOnUse" x="64" y="93" width="11" height="48">
<path d="M72.6873 93.186C72.6873 93.186 72.1098 105.33 71.1228 108.34C70.1357 111.351 69.3944 133.467 69.3493 134.553C69.3042 135.638 72.2859 138.968 73.6334 139.632C74.9809 140.295 74.4034 140.545 72.9945 140.746C71.5856 140.946 69.9186 140.84 69.1322 139.713C68.3458 138.587 66.6748 138.374 66.6748 138.374L66.6052 140.95L66.1342 140.979L65.5689 137.805C65.3999 137.081 65.4763 136.322 65.786 135.646C66.298 134.418 65.6672 133.39 65.3969 129.253C65.1266 125.116 63.8037 118.51 64.033 115.278C64.2624 112.047 65.8802 107.496 65.7041 104.818C65.528 102.139 65.4133 95.2748 65.4133 95.2748L72.6873 93.186Z" fill="white"/>
</mask>
<g mask="url(#mask0_51_602)">
<path d="M68.6694 108.979C69.4885 108.688 70.4715 108.357 71.1883 108.123C72.1344 104.793 72.6873 93.186 72.6873 93.186L65.4133 95.2707C65.4133 95.2707 65.528 102.147 65.7041 104.814C65.8802 107.48 64.2665 112.047 64.033 115.274C63.7996 118.502 65.1266 125.104 65.3969 129.249C65.6672 133.394 66.298 134.43 65.786 135.642C65.7174 135.797 65.6613 135.958 65.6181 136.121C65.9315 135.865 66.1894 135.547 66.3758 135.188C66.9901 133.865 67.3956 126.914 66.6338 122.589C65.872 118.264 67.2686 109.483 67.2686 109.483L68.6694 108.979Z" fill="#92E3A9"/>
<path opacity="0.5" d="M68.6694 108.979C69.4885 108.688 70.4715 108.357 71.1883 108.123C72.1344 104.793 72.6873 93.186 72.6873 93.186L65.4133 95.2707C65.4133 95.2707 65.528 102.147 65.7041 104.814C65.8802 107.48 64.2665 112.047 64.033 115.274C63.7996 118.502 65.1266 125.104 65.3969 129.249C65.6672 133.394 66.298 134.43 65.786 135.642C65.7174 135.797 65.6613 135.958 65.6181 136.121C65.9315 135.865 66.1894 135.547 66.3758 135.188C66.9901 133.865 67.3956 126.914 66.6338 122.589C65.872 118.264 67.2686 109.483 67.2686 109.483L68.6694 108.979Z" fill="white"/>
</g>
<path d="M72.6873 93.186C72.6873 93.186 72.1098 105.33 71.1228 108.34C70.1357 111.351 69.3944 133.467 69.3493 134.553C69.3042 135.638 72.2859 138.968 73.6334 139.632C74.9809 140.295 74.4034 140.545 72.9945 140.746C71.5856 140.946 69.9186 140.84 69.1322 139.713C68.3458 138.587 66.6748 138.374 66.6748 138.374L66.6052 140.95L66.1342 140.979L65.5689 137.805C65.3999 137.081 65.4763 136.322 65.786 135.646C66.298 134.418 65.6672 133.39 65.3969 129.253C65.1266 125.116 63.8037 118.51 64.033 115.278C64.2624 112.047 65.8802 107.496 65.7041 104.818C65.528 102.139 65.4133 95.2748 65.4133 95.2748L72.6873 93.186Z" stroke="#263238" stroke-linecap="round" stroke-linejoin="round"/>
<path d="M65.5689 137.797C65.4429 137.256 65.4584 136.692 65.614 136.158C66.4331 137.231 68.612 138.616 70.279 139.107C71.1877 139.394 72.1485 139.477 73.0928 139.349C73.2934 139.464 73.4778 139.562 73.6334 139.64C74.9809 140.299 74.4034 140.553 72.9945 140.754C71.5855 140.954 69.9186 140.848 69.1322 139.722C68.3458 138.595 66.6747 138.382 66.6747 138.382L66.6051 140.959L66.1341 140.987L65.5689 137.797Z" fill="#263238" stroke="#263238" stroke-linecap="round" stroke-linejoin="round"/>
<path d="M67.6742 92.6822C67.6742 92.6822 67.0476 105.625 65.9745 108.897C64.9014 112.17 63.9676 136.134 63.9266 137.301C63.8857 138.468 67.023 142.765 68.4852 143.482C69.9473 144.198 69.3043 144.473 67.793 144.71C66.2817 144.948 64.4509 144.813 63.599 143.588C62.9171 142.725 62.0845 141.992 61.1415 141.425L61.0678 144.223L60.5558 144.256L59.9456 140.803C59.7596 140.018 59.8403 139.194 60.1749 138.46C60.732 137.145 60.0766 135.937 59.7654 131.444C59.4541 126.951 57.4267 118.747 57.6806 115.258C57.9346 111.768 59.6793 107.959 59.4868 105.064C59.2943 102.168 58.0697 93.5955 58.0697 93.5955L67.6742 92.6822Z" fill="white"/>
<mask id="mask1_51_602" style="mask-type:luminance" maskUnits="userSpaceOnUse" x="57" y="92" width="13" height="53">
<path d="M67.6742 92.6822C67.6742 92.6822 67.0476 105.625 65.9745 108.897C64.9014 112.17 63.9676 136.134 63.9266 137.301C63.8857 138.468 67.023 142.765 68.4852 143.482C69.9473 144.198 69.3043 144.473 67.793 144.71C66.2817 144.948 64.4509 144.813 63.599 143.588C62.9171 142.725 62.0845 141.992 61.1415 141.425L61.0678 144.223L60.5558 144.256L59.9456 140.803C59.7596 140.018 59.8403 139.194 60.1749 138.46C60.732 137.145 60.0766 135.937 59.7654 131.444C59.4541 126.951 57.4267 118.747 57.6806 115.258C57.9346 111.768 59.6793 107.959 59.4868 105.064C59.2943 102.168 58.0697 93.5955 58.0697 93.5955L67.6742 92.6822Z" fill="white"/>
</mask>
<g mask="url(#mask1_51_602)">
<path d="M65.8475 109.372C65.8885 109.188 65.9335 109.024 65.9745 108.897C66.3226 107.828 66.6257 105.735 66.8755 103.397L65.868 99.7105C65.868 99.7105 61.0719 99.4402 58.9052 99.6613C59.1715 101.762 59.4213 103.884 59.4991 105.064C59.6916 107.959 57.9427 111.752 57.6929 115.258C57.4431 118.764 59.4827 126.955 59.7776 131.444C60.0725 135.933 60.7278 137.145 60.1872 138.46C59.9071 139.104 59.8066 139.812 59.8964 140.508C60.2118 138.542 60.8179 136.887 60.8179 134.426C60.8179 131.502 59.9251 123.486 59.5442 119.272C59.1633 115.057 60.8179 109.733 60.8179 109.733C62.0057 109.804 63.1975 109.761 64.3771 109.606C64.8711 109.555 65.362 109.477 65.8475 109.372Z" fill="#92E3A9"/>
<path opacity="0.5" d="M65.8475 109.372C65.8885 109.188 65.9335 109.024 65.9745 108.897C66.3226 107.828 66.6257 105.735 66.8755 103.397L65.868 99.7105C65.868 99.7105 61.0719 99.4402 58.9052 99.6613C59.1715 101.762 59.4213 103.884 59.4991 105.064C59.6916 107.959 57.9427 111.752 57.6929 115.258C57.4431 118.764 59.4827 126.955 59.7776 131.444C60.0725 135.933 60.7278 137.145 60.1872 138.46C59.9071 139.104 59.8066 139.812 59.8964 140.508C60.2118 138.542 60.8179 136.887 60.8179 134.426C60.8179 131.502 59.9251 123.486 59.5442 119.272C59.1633 115.057 60.8179 109.733 60.8179 109.733C62.0057 109.804 63.1975 109.761 64.3771 109.606C64.8711 109.555 65.362 109.477 65.8475 109.372Z" fill="white"/>
</g>
<path d="M67.6742 92.6822C67.6742 92.6822 67.0476 105.625 65.9745 108.897C64.9014 112.17 63.9676 136.134 63.9266 137.301C63.8857 138.468 67.023 142.765 68.4852 143.482C69.9473 144.198 69.3043 144.473 67.793 144.71C66.2817 144.948 64.4509 144.813 63.599 143.588C62.9171 142.725 62.0845 141.992 61.1415 141.425L61.0678 144.223L60.5558 144.256L59.9456 140.803C59.7596 140.018 59.8403 139.194 60.1749 138.46C60.732 137.145 60.0766 135.937 59.7654 131.444C59.4541 126.951 57.4267 118.747 57.6806 115.258C57.9346 111.768 59.6793 107.959 59.4868 105.064C59.2943 102.168 58.0697 93.5955 58.0697 93.5955L67.6742 92.6822Z" stroke="#263238" stroke-linecap="round" stroke-linejoin="round"/>
<path d="M59.921 140.782C59.7778 140.191 59.7934 139.572 59.966 138.989C60.8425 140.156 63.0173 142.363 64.8277 142.904C65.8142 143.216 66.8577 143.306 67.8831 143.166C68.1042 143.289 68.2926 143.4 68.4729 143.482C69.935 144.198 69.292 144.473 67.7807 144.71C66.2693 144.948 64.4386 144.813 63.5867 143.588C62.9048 142.725 62.0722 141.992 61.1292 141.425L61.0555 144.223L60.5435 144.256L59.921 140.782Z" fill="#263238" stroke="#263238" stroke-linecap="round" stroke-linejoin="round"/>
<path d="M79.1012 46.4455C79.1012 46.4455 80.4651 48.4934 82.812 46.0564C85.1588 43.6195 82.812 39.6098 79.2937 36.4806C75.7755 33.3515 70.1111 31.9753 66.8878 37.3612C63.6644 42.7471 64.1518 46.0564 62.3825 48.8907C60.6131 51.7249 53.1098 59.343 50.1977 65.9863C47.2856 72.6295 49.7881 80.35 57.5249 81.6196C65.2618 82.8893 70.2217 72.5353 69.8326 67.944C69.4435 63.3527 72.1795 53.5803 73.5474 51.2334C74.9154 48.8866 79.1012 46.4455 79.1012 46.4455Z" fill="#263238" stroke="#263238" stroke-linecap="round" stroke-linejoin="round"/>
<path d="M79.7319 39.577C79.7319 39.577 77.1352 41.0638 71.7534 41.9894C66.3717 42.915 63.0295 47.1705 63.0295 47.1705" stroke="white" stroke-linecap="round" stroke-linejoin="round"/>
<path d="M53.5644 80.0345C53.5644 80.0345 48.7397 77.2536 52.0818 70.5693C56.5871 61.5587 70.8238 46.2571 70.8238 46.2571" stroke="white" stroke-linecap="round" stroke-linejoin="round"/>
<path d="M89.1849 88.9469C88.7753 87.8943 87.0387 86.1126 86.7561 85.7194C86.4735 85.3262 81.4071 73.0227 81.4071 73.0227C81.4071 73.0227 81.0426 65.679 80.9156 62.0134C80.8296 59.4044 80.6699 56.1647 80.1211 54.9687C80.0285 54.7104 79.9076 54.4632 79.7606 54.2315V54.1987C78.7572 52.6382 76.6192 51.5897 74.8212 51.1433C72.4866 50.5576 71.1555 50.8934 71.1555 50.8934C71.1555 50.8934 67.0598 51.303 63.6562 53.142C60.2527 54.981 60.2404 59.1382 60.7401 62.1526C61.2398 65.1671 62.6569 71.3967 62.6569 71.6465C62.6569 71.8963 58.0737 76.3976 55.7433 81.9759C53.4128 87.5543 56.7426 105.506 56.7426 105.506C56.7426 105.506 58.9093 106.923 65.0734 106.923C71.2374 106.923 74.6533 104.355 74.6533 104.355C74.6533 104.355 76.8199 87.8083 76.4021 81.5623C76.2303 78.4072 75.8968 75.263 75.4028 72.1421C75.4028 72.1421 75.6649 71.7735 76.0294 71.2083C76.1996 72.7349 76.7657 74.1906 77.6718 75.431C78.7859 76.844 85.1875 85.9365 85.1875 85.9365C85.3427 86.5593 85.4481 87.1934 85.5029 87.8328C85.5848 88.8281 86.5063 89.9257 86.5063 89.9257C86.5063 89.9257 86.2565 92.031 86.5063 92.1784C86.7561 92.3258 87.1084 91.3797 87.1084 91.3797C87.1084 91.3797 86.793 92.6576 87.3746 92.6084C87.9562 92.5593 88.0053 92.1415 88.0053 92.1415C88.0053 92.1415 87.8415 93.2392 88.2511 93.1245C88.5489 92.995 88.7952 92.7702 88.9515 92.4856C88.9515 92.4856 89.5412 93.6078 89.7296 92.8419C89.918 92.076 89.6027 90.0077 89.1849 88.9469Z" fill="white" stroke="#263238" stroke-linecap="round" stroke-linejoin="round"/>
<path d="M81.4071 73.0432C81.4071 73.0432 81.0426 65.6995 80.9156 62.0339C80.8296 59.4249 80.6699 56.1852 80.1211 54.9892C80.0285 54.7309 79.9076 54.4837 79.7606 54.252V54.2192C78.7572 52.6587 76.6192 51.6102 74.8212 51.1638C72.4866 50.5781 71.1555 50.914 71.1555 50.914C71.1555 50.914 67.0598 51.3235 63.6562 53.1625C60.2527 55.0015 60.2404 59.1587 60.7401 62.1731C61.2398 65.1876 62.6569 71.4172 62.6569 71.667C62.6569 71.9169 58.0737 76.4181 55.7433 81.9964C53.4128 87.5748 56.7426 105.526 56.7426 105.526C56.7426 105.526 58.9093 106.944 65.0734 106.944C71.2374 106.944 74.6533 104.376 74.6533 104.376C74.6533 104.376 76.8199 87.8288 76.4021 81.5828C76.2303 78.4277 75.8968 75.2835 75.4028 72.1626C75.4028 72.1626 75.6649 71.794 76.0294 71.2288C76.203 72.7483 76.769 74.1965 77.6718 75.431C77.9503 75.7832 78.5524 76.6106 79.3101 77.655C80.2134 76.7759 81.3321 76.1502 82.5539 75.8406L81.4071 73.0432Z" fill="white"/>
<mask id="mask2_51_602" style="mask-type:luminance" maskUnits="userSpaceOnUse" x="54" y="50" width="29" height="57">
<path d="M81.4071 73.0432C81.4071 73.0432 81.0426 65.6995 80.9156 62.0339C80.8296 59.4249 80.6699 56.1852 80.1211 54.9892C80.0285 54.7309 79.9076 54.4837 79.7606 54.252V54.2192C78.7572 52.6587 76.6192 51.6102 74.8212 51.1638C72.4866 50.5781 71.1555 50.914 71.1555 50.914C71.1555 50.914 67.0598 51.3235 63.6562 53.1625C60.2527 55.0015 60.2404 59.1587 60.7401 62.1731C61.2398 65.1876 62.6569 71.4172 62.6569 71.667C62.6569 71.9169 58.0737 76.4181 55.7433 81.9964C53.4128 87.5748 56.7426 105.526 56.7426 105.526C56.7426 105.526 58.9093 106.944 65.0734 106.944C71.2374 106.944 74.6533 104.376 74.6533 104.376C74.6533 104.376 76.8199 87.8288 76.4021 81.5828C76.2303 78.4277 75.8968 75.2835 75.4028 72.1626C75.4028 72.1626 75.6649 71.794 76.0294 71.2288C76.203 72.7483 76.769 74.1965 77.6718 75.431C77.9503 75.7832 78.5524 76.6106 79.3101 77.655C80.2134 76.7759 81.3321 76.1502 82.5539 75.8406L81.4071 73.0432Z" fill="white"/>
</mask>
<g mask="url(#mask2_51_602)">
<path d="M69.1445 53.7646L72.9863 50.8525C72.3696 50.7805 71.7456 50.8012 71.135 50.914C71.135 50.914 67.0393 51.3235 63.6357 53.1625C60.2322 55.0015 60.2199 59.1587 60.7196 62.1731C61.2192 65.1876 62.6364 71.4172 62.6364 71.667C62.6364 71.9169 58.0532 76.4181 55.7228 81.9964C53.3923 87.5748 56.7221 105.526 56.7221 105.526C56.7221 105.526 57.8648 106.272 60.8424 106.677C60.1298 102.426 57.9754 88.9879 58.5406 84.7611C59.2082 79.7069 65.3109 73.7354 65.3109 71.7448C65.3109 69.7543 62.3906 59.8017 63.3203 57.4098C64.2501 55.0179 69.1445 53.7646 69.1445 53.7646Z" fill="#92E3A9"/>
<path opacity="0.5" d="M69.1445 53.7646L72.9863 50.8525C72.3696 50.7805 71.7456 50.8012 71.135 50.914C71.135 50.914 67.0393 51.3235 63.6357 53.1625C60.2322 55.0015 60.2199 59.1587 60.7196 62.1731C61.2192 65.1876 62.6364 71.4172 62.6364 71.667C62.6364 71.9169 58.0532 76.4181 55.7228 81.9964C53.3923 87.5748 56.7221 105.526 56.7221 105.526C56.7221 105.526 57.8648 106.272 60.8424 106.677C60.1298 102.426 57.9754 88.9879 58.5406 84.7611C59.2082 79.7069 65.3109 73.7354 65.3109 71.7448C65.3109 69.7543 62.3906 59.8017 63.3203 57.4098C64.2501 55.0179 69.1445 53.7646 69.1445 53.7646Z" fill="white"/>
<path d="M73.277 85.3591C73.277 85.3591 71.909 93.1819 68.9724 97.0933" stroke="#263238" stroke-linecap="round" stroke-linejoin="round"/>
</g>
<path d="M81.4071 73.0432C81.4071 73.0432 81.0426 65.6995 80.9156 62.0339C80.8296 59.4249 80.6699 56.1852 80.1211 54.9892C80.0285 54.7309 79.9076 54.4837 79.7606 54.252V54.2192C78.7572 52.6587 76.6192 51.6102 74.8212 51.1638C72.4866 50.5781 71.1555 50.914 71.1555 50.914C71.1555 50.914 67.0598 51.3235 63.6562 53.1625C60.2527 55.0015 60.2404 59.1587 60.7401 62.1731C61.2398 65.1876 62.6569 71.4172 62.6569 71.667C62.6569 71.9169 58.0737 76.4181 55.7433 81.9964C53.4128 87.5748 56.7426 105.526 56.7426 105.526C56.7426 105.526 58.9093 106.944 65.0734 106.944C71.2374 106.944 74.6533 104.376 74.6533 104.376C74.6533 104.376 76.8199 87.8288 76.4021 81.5828C76.2303 78.4277 75.8968 75.2835 75.4028 72.1626C75.4028 72.1626 75.6649 71.794 76.0294 71.2288C76.203 72.7483 76.769 74.1965 77.6718 75.431C77.9503 75.7832 78.5524 76.6106 79.3101 77.655C80.2134 76.7759 81.3321 76.1502 82.5539 75.8406L81.4071 73.0432Z" stroke="#263238" stroke-linecap="round" stroke-linejoin="round"/>
<path d="M87.1207 91.3757L87.3091 90.3067" stroke="#263238" stroke-linecap="round" stroke-linejoin="round"/>
<path d="M88.0176 92.1375L88.1118 90.9169" stroke="#263238" stroke-linecap="round" stroke-linejoin="round"/>
<path d="M88.9638 92.4815L88.931 91.0603" stroke="#263238" stroke-linecap="round" stroke-linejoin="round"/>
<path d="M86.5269 88.0827C86.5469 88.3323 86.6183 88.575 86.7368 88.7957C86.8552 89.0163 87.018 89.21 87.2149 89.3647L87.8252 89.7333C87.8252 89.7333 88.2757 92.1907 88.9106 91.818C89.5454 91.4453 89.2096 89.2868 88.4478 88.095" fill="white"/>
<path d="M86.5269 88.0827C86.5469 88.3323 86.6183 88.575 86.7368 88.7957C86.8552 89.0163 87.018 89.21 87.2149 89.3647L87.8252 89.7333C87.8252 89.7333 88.2757 92.1907 88.9106 91.818C89.5454 91.4453 89.2096 89.2868 88.4478 88.095" stroke="#263238" stroke-linecap="round" stroke-linejoin="round"/>
<path d="M70.7992 47.4121C70.7992 47.4121 70.8852 49.6648 70.1357 50.8279C69.3862 51.9911 69.1364 52.4949 69.1364 54.2438C69.1364 55.9927 71.946 62.4352 73.2771 61.6939C74.6082 60.9526 73.7154 56.5783 73.8833 55.0793C74.0512 53.5803 74.0512 52.8267 74.0512 52.8267C74.0512 52.8267 71.6347 46.3513 70.7992 47.4121Z" fill="white"/>
<mask id="mask3_51_602" style="mask-type:luminance" maskUnits="userSpaceOnUse" x="69" y="47" width="6" height="15">
<path d="M70.7992 47.4121C70.7992 47.4121 70.8852 49.6648 70.1357 50.8279C69.3862 51.9911 69.1364 52.4949 69.1364 54.2438C69.1364 55.9927 71.946 62.4352 73.2771 61.6939C74.6082 60.9526 73.7154 56.5783 73.8833 55.0793C74.0512 53.5803 74.0512 52.8267 74.0512 52.8267C74.0512 52.8267 71.6347 46.3513 70.7992 47.4121Z" fill="white"/>
</mask>
<g mask="url(#mask3_51_602)">
<path d="M69.1445 53.7646L74.0266 53.4533C74.0266 53.0437 74.0512 52.8266 74.0512 52.8266C74.0512 52.8266 71.6347 46.3308 70.7992 47.4121C70.7992 47.4121 70.8852 49.6647 70.1357 50.8279C69.4476 51.8805 69.1896 52.3925 69.1445 53.7646Z" fill="#92E3A9"/>
<path opacity="0.5" d="M69.1445 53.7646L74.0266 53.4533C74.0266 53.0437 74.0512 52.8266 74.0512 52.8266C74.0512 52.8266 71.6347 46.3308 70.7992 47.4121C70.7992 47.4121 70.8852 49.6647 70.1357 50.8279C69.4476 51.8805 69.1896 52.3925 69.1445 53.7646Z" fill="white"/>
</g>
<path d="M70.7992 47.4121C70.7992 47.4121 70.8852 49.6648 70.1357 50.8279C69.3862 51.9911 69.1364 52.4949 69.1364 54.2438C69.1364 55.9927 71.946 62.4352 73.2771 61.6939C74.6082 60.9526 73.7154 56.5783 73.8833 55.0793C74.0512 53.5803 74.0512 52.8267 74.0512 52.8267C74.0512 52.8267 71.6347 46.3513 70.7992 47.4121Z" stroke="#263238" stroke-linecap="round" stroke-linejoin="round"/>
<path d="M85.9411 63.6722L89.0784 69.0868L89.8975 69.4963L89.7296 68.5789L86.5718 63.2831C86.5223 63.2024 86.4446 63.1431 86.3537 63.1166C86.2629 63.0901 86.1654 63.0983 86.0803 63.1398C86.035 63.1643 85.9951 63.198 85.9633 63.2386C85.9314 63.2792 85.9083 63.3259 85.8952 63.3758C85.8821 63.4257 85.8795 63.4778 85.8874 63.5288C85.8953 63.5797 85.9135 63.6286 85.9411 63.6722Z" fill="white" stroke="#263238" stroke-linecap="round" stroke-linejoin="round"/>
<path d="M62.9682 53.8301C62.9682 53.8301 59.7162 54.9318 60.2691 58.9293C60.5476 60.9239 61.3053 66.0763 62.0548 69.0744C62.8044 72.0725 64.0535 76.0699 65.2208 76.2378C66.3881 76.4057 84.5445 69.656 84.5445 69.656C84.5445 69.656 87.5466 69.9918 88.2962 69.5741C89.0332 69.0602 89.6335 68.3741 90.045 67.5753C90.2949 67.0757 87.6286 66.49 86.961 66.49C86.2934 66.49 83.7827 67.9071 83.3731 68.0586C82.9635 68.2102 68.7923 70.0574 68.4606 70.0574C68.1288 70.0574 67.2032 61.8946 66.4618 59.2283C65.4625 55.6445 64.2092 54.895 64.2092 54.895" fill="white"/>
<mask id="mask4_51_602" style="mask-type:luminance" maskUnits="userSpaceOnUse" x="60" y="53" width="31" height="24">
<path d="M62.9682 53.8301C62.9682 53.8301 59.7162 54.9318 60.2691 58.9293C60.5476 60.9239 61.3053 66.0763 62.0548 69.0744C62.8044 72.0725 64.0535 76.0699 65.2208 76.2378C66.3881 76.4057 84.5445 69.656 84.5445 69.656C84.5445 69.656 87.5466 69.9918 88.2962 69.5741C89.0332 69.0602 89.6335 68.3741 90.045 67.5753C90.2949 67.0757 87.6286 66.49 86.961 66.49C86.2934 66.49 83.7827 67.9071 83.3731 68.0586C82.9635 68.2102 68.7923 70.0574 68.4606 70.0574C68.1288 70.0574 67.2032 61.8946 66.4618 59.2283C65.4625 55.6445 64.2092 54.895 64.2092 54.895" fill="white"/>
</mask>
<g mask="url(#mask4_51_602)">
<path d="M67.0352 74.1326C64.9137 73.723 65.9745 72.1421 66.5028 71.2165C67.0312 70.2908 64.5328 72.1544 64.5328 71.7448C64.5328 71.3352 62.6774 62.5908 62.5422 59.8017C62.5128 58.9942 62.7081 58.1944 63.1066 57.4914C63.5051 56.7885 64.091 56.21 64.799 55.8206L64.6433 55.2882C64.5242 55.1449 64.3865 55.0182 64.2338 54.9114L63.0051 53.8301C63.0051 53.8301 59.753 54.9318 60.306 58.9293C60.5845 60.9239 61.3422 66.0763 62.0917 69.0744C62.8412 72.0725 64.0904 76.0699 65.2577 76.2378C65.7983 76.3156 70.0333 74.8903 74.4035 73.3462C71.7085 73.8336 68.2722 74.3661 67.0352 74.1326Z" fill="#92E3A9"/>
<path opacity="0.5" d="M67.0352 74.1326C64.9137 73.723 65.9745 72.1421 66.5028 71.2165C67.0312 70.2908 64.5328 72.1544 64.5328 71.7448C64.5328 71.3352 62.6774 62.5908 62.5422 59.8017C62.5128 58.9942 62.7081 58.1944 63.1066 57.4914C63.5051 56.7885 64.091 56.21 64.799 55.8206L64.6433 55.2882C64.5242 55.1449 64.3865 55.0182 64.2338 54.9114L63.0051 53.8301C63.0051 53.8301 59.753 54.9318 60.306 58.9293C60.5845 60.9239 61.3422 66.0763 62.0917 69.0744C62.8412 72.0725 64.0904 76.0699 65.2577 76.2378C65.7983 76.3156 70.0333 74.8903 74.4035 73.3462C71.7085 73.8336 68.2722 74.3661 67.0352 74.1326Z" fill="white"/>
</g>
<path d="M62.9682 53.8301C62.9682 53.8301 59.7162 54.9318 60.2691 58.9293C60.5476 60.9239 61.3053 66.0763 62.0548 69.0744C62.8044 72.0725 64.0535 76.0699 65.2208 76.2378C66.3881 76.4057 84.5445 69.656 84.5445 69.656C84.5445 69.656 87.5466 69.9918 88.2962 69.5741C89.0332 69.0602 89.6335 68.3741 90.045 67.5753C90.2949 67.0757 87.6286 66.49 86.961 66.49C86.2934 66.49 83.7827 67.9071 83.3731 68.0586C82.9635 68.2102 68.7923 70.0574 68.4606 70.0574C68.1288 70.0574 67.2032 61.8946 66.4618 59.2283C65.4625 55.6445 64.2092 54.895 64.2092 54.895" stroke="#263238" stroke-linecap="round" stroke-linejoin="round"/>
<path d="M86.9609 66.4901C86.2974 66.4901 83.7949 67.9072 83.3813 68.0751C83.1314 68.1734 78.0568 68.8574 73.871 69.4021C73.7072 70.4424 73.6949 72.0275 74.772 73.203C79.646 71.4786 84.5445 69.656 84.5445 69.656C84.5445 69.656 87.5466 69.9919 88.2961 69.5741C89.0332 69.0602 89.6335 68.3741 90.045 67.5754C90.2949 67.0757 87.6285 66.4901 86.9609 66.4901Z" fill="white" stroke="#263238" stroke-linecap="round" stroke-linejoin="round"/>
<path d="M76.0745 68.9639C77.3122 67.8661 78.1362 66.3771 78.409 64.7453C78.6357 62.6659 78.7315 60.5743 78.6957 58.4829" stroke="#263238" stroke-linecap="round" stroke-linejoin="round"/>
<path d="M70.9138 44.7786C70.9138 44.7786 70.7459 42.96 69.6851 43.4556C68.6243 43.9512 68.612 46.1834 69.1895 46.7609C69.5147 47.0972 69.9518 47.3026 70.4182 47.3384C70.4853 48.4399 70.7959 49.5128 71.3275 50.4798C72.1466 51.7986 73.5556 54.4445 75.2103 53.9489C76.8649 53.4533 79.8343 49.1569 80.4978 47.0926C80.9719 45.3601 81.3034 43.5917 81.489 41.8051C81.489 41.8051 77.852 43.4433 75.2922 43.7874C73.8036 43.9726 72.337 44.3046 70.9138 44.7786Z" fill="white"/>
<mask id="mask5_51_602" style="mask-type:luminance" maskUnits="userSpaceOnUse" x="68" y="41" width="14" height="14">
<path d="M70.9138 44.7786C70.9138 44.7786 70.7459 42.96 69.6851 43.4556C68.6243 43.9512 68.612 46.1834 69.1895 46.7609C69.5147 47.0972 69.9518 47.3026 70.4182 47.3384C70.4853 48.4399 70.7959 49.5128 71.3275 50.4798C72.1466 51.7986 73.5556 54.4445 75.2103 53.9489C76.8649 53.4533 79.8343 49.1569 80.4978 47.0926C80.9719 45.3601 81.3034 43.5917 81.489 41.8051C81.489 41.8051 77.852 43.4433 75.2922 43.7874C73.8036 43.9726 72.337 44.3046 70.9138 44.7786Z" fill="white"/>
</mask>
<g mask="url(#mask5_51_602)">
<path d="M70.9138 44.7786C70.9138 44.7786 70.7459 42.96 69.6851 43.4556C68.6243 43.9512 68.612 46.1834 69.1895 46.7609C69.5147 47.0972 69.9518 47.3026 70.4182 47.3384C70.4853 48.4399 70.7959 49.5128 71.3275 50.4798C71.8354 51.299 72.5562 52.6014 73.4286 53.3755C72.2982 51.9666 71.8436 48.5548 72.1999 46.9534C72.5562 45.352 73.019 45.4543 75.4314 44.8769C77.8438 44.2994 81.5013 41.8051 81.5013 41.8051C81.5013 41.8051 77.8643 43.4433 75.3045 43.7874C73.8117 43.9718 72.341 44.3038 70.9138 44.7786Z" fill="#92E3A9"/>
<path opacity="0.5" d="M70.9138 44.7786C70.9138 44.7786 70.7459 42.96 69.6851 43.4556C68.6243 43.9512 68.612 46.1834 69.1895 46.7609C69.5147 47.0972 69.9518 47.3026 70.4182 47.3384C70.4853 48.4399 70.7959 49.5128 71.3275 50.4798C71.8354 51.299 72.5562 52.6014 73.4286 53.3755C72.2982 51.9666 71.8436 48.5548 72.1999 46.9534C72.5562 45.352 73.019 45.4543 75.4314 44.8769C77.8438 44.2994 81.5013 41.8051 81.5013 41.8051C81.5013 41.8051 77.8643 43.4433 75.3045 43.7874C73.8117 43.9718 72.341 44.3038 70.9138 44.7786Z" fill="white"/>
</g>
<path d="M70.9138 44.7786C70.9138 44.7786 70.7459 42.96 69.6851 43.4556C68.6243 43.9512 68.612 46.1834 69.1895 46.7609C69.5147 47.0972 69.9518 47.3026 70.4182 47.3384C70.4853 48.4399 70.7959 49.5128 71.3275 50.4798C72.1466 51.7986 73.5556 54.4445 75.2103 53.9489C76.8649 53.4533 79.8343 49.1569 80.4978 47.0926C80.9719 45.3601 81.3034 43.5917 81.489 41.8051C81.489 41.8051 77.852 43.4433 75.2922 43.7874C73.8036 43.9726 72.337 44.3046 70.9138 44.7786Z" stroke="#263238" stroke-linecap="round" stroke-linejoin="round"/>
<path d="M76.3243 49.927C76.3243 49.927 77.5981 50.4389 77.9053 50.2341C78.2125 50.0293 77.9053 49.5338 78.0527 48.6163C78.0862 48.3601 78.1718 48.1134 78.3042 47.8915C78.4366 47.6697 78.6131 47.4772 78.8227 47.3262" stroke="#263238" stroke-linecap="round" stroke-linejoin="round"/>
<path d="M75.9393 47.0763L75.7468 47.7152C75.5575 47.8043 75.3422 47.821 75.1415 47.7621C74.9408 47.7032 74.7686 47.5729 74.6573 47.3958" stroke="#263238" stroke-linecap="round" stroke-linejoin="round"/>
<path d="M79.5231 48.2682L79.3306 48.9112C79.1407 48.999 78.9253 49.0146 78.7248 48.955C78.5242 48.8955 78.3523 48.7649 78.2411 48.5877" stroke="#263238" stroke-linecap="round" stroke-linejoin="round"/>
<path d="M74.6573 50.6642C74.8259 50.8783 75.0395 51.0528 75.283 51.1752C75.5264 51.2977 75.7939 51.3651 76.0663 51.3727" stroke="#263238" stroke-linecap="round" stroke-linejoin="round"/>
<path d="M77.0288 46.1138C76.771 45.7717 76.4283 45.5029 76.0346 45.334C75.6409 45.1652 75.2099 45.1022 74.7843 45.1513" stroke="#263238" stroke-linecap="round" stroke-linejoin="round"/>
<path d="M79.2078 47.1418C79.4114 47.0945 79.6251 47.1198 79.812 47.2132C79.999 47.3067 80.1474 47.4625 80.2317 47.6538" stroke="#263238" stroke-linecap="round" stroke-linejoin="round"/>
<path d="M93.9114 70.3441C93.9114 70.3441 93.5018 79.6292 93.5018 80.0387C93.5018 80.4483 92.8219 91.5068 93.2315 93.8249C93.641 96.1431 94.3209 98.8791 94.7305 99.6982C95.1401 100.517 96.2336 101.197 96.2336 100.243C96.2336 99.2886 96.3688 95.7377 96.0985 94.7833C95.7624 93.8586 95.3515 92.9627 94.8698 92.1047C94.8698 92.1047 96.9176 83.3153 97.4623 80.8579C98.0071 78.4004 99.2358 69.6601 99.2358 68.7058C99.2358 67.7515 93.9114 68.1611 93.9114 68.1611V70.3441Z" fill="white"/>
<mask id="mask6_51_602" style="mask-type:luminance" maskUnits="userSpaceOnUse" x="93" y="68" width="7" height="33">
<path d="M93.9114 70.3441C93.9114 70.3441 93.5018 79.6292 93.5018 80.0387C93.5018 80.4483 92.8219 91.5068 93.2315 93.8249C93.641 96.1431 94.3209 98.8791 94.7305 99.6982C95.1401 100.517 96.2336 101.197 96.2336 100.243C96.2336 99.2886 96.3688 95.7377 96.0985 94.7833C95.7624 93.8586 95.3515 92.9627 94.8698 92.1047C94.8698 92.1047 96.9176 83.3153 97.4623 80.8579C98.0071 78.4004 99.2358 69.6601 99.2358 68.7058C99.2358 67.7515 93.9114 68.1611 93.9114 68.1611V70.3441Z" fill="white"/>
</mask>
<g mask="url(#mask6_51_602)">
<path d="M93.9114 70.3441C93.9114 70.3441 93.5018 79.6292 93.5018 80.0387C93.5018 80.4483 92.8219 91.5068 93.2315 93.8249C93.641 96.1431 94.3209 98.8791 94.7305 99.6982C95.1401 100.517 96.2336 101.197 96.2336 100.243C96.2336 99.2886 96.3688 95.7377 96.0985 94.7833C95.7624 93.8586 95.3515 92.9627 94.8698 92.1047C94.8698 92.1047 96.9176 83.3153 97.4623 80.8579C98.0071 78.4004 99.2358 69.6601 99.2358 68.7058C99.2358 67.7515 93.9114 68.1611 93.9114 68.1611V70.3441Z" fill="#92E3A9"/>
<path opacity="0.5" d="M93.9114 70.3441C93.9114 70.3441 93.5018 79.6292 93.5018 80.0387C93.5018 80.4483 92.8219 91.5068 93.2315 93.8249C93.641 96.1431 94.3209 98.8791 94.7305 99.6982C95.1401 100.517 96.2336 101.197 96.2336 100.243C96.2336 99.2886 96.3688 95.7377 96.0985 94.7833C95.7624 93.8586 95.3515 92.9627 94.8698 92.1047C94.8698 92.1047 96.9176 83.3153 97.4623 80.8579C98.0071 78.4004 99.2358 69.6601 99.2358 68.7058C99.2358 67.7515 93.9114 68.1611 93.9114 68.1611V70.3441Z" fill="white"/>
</g>
<path d="M93.9114 70.3441C93.9114 70.3441 93.5018 79.6292 93.5018 80.0387C93.5018 80.4483 92.8219 91.5068 93.2315 93.8249C93.641 96.1431 94.3209 98.8791 94.7305 99.6982C95.1401 100.517 96.2336 101.197 96.2336 100.243C96.2336 99.2886 96.3688 95.7377 96.0985 94.7833C95.7624 93.8586 95.3515 92.9627 94.8698 92.1047C94.8698 92.1047 96.9176 83.3153 97.4623 80.8579C98.0071 78.4004 99.2358 69.6601 99.2358 68.7058C99.2358 67.7515 93.9114 68.1611 93.9114 68.1611V70.3441Z" stroke="#263238" stroke-linecap="round" stroke-linejoin="round"/>
<path d="M94.9517 96.225C94.9517 96.225 95.7094 97.9903 95.9592 98.5801C96.2091 99.1698 97.3067 99.9235 97.3067 99.2518C97.3067 98.5801 96.4876 97.0687 96.4876 97.0687C96.51 96.0711 96.2774 95.0843 95.8118 94.2017" stroke="#263238" stroke-linecap="round" stroke-linejoin="round"/>
<path d="M98.2038 36.8042C98.2038 36.8042 97.3232 37.3326 99.2645 37.8609C101.206 38.3893 104.999 38.2132 105.355 37.8609C105.711 37.5087 105.355 36.9804 103.942 36.6322C102.529 36.2841 98.9983 36.3619 98.2038 36.8042Z" fill="#263238" stroke="#263238" stroke-linecap="round" stroke-linejoin="round"/>
<path d="M100.342 138.3C100.342 138.3 96.4876 139.529 94.9722 140.504C93.4568 141.479 94.9722 141.88 97.02 141.88C99.0679 141.88 101.083 141.192 101.91 141.122C102.738 141.053 104.388 140.983 103.905 138.919C103.422 136.855 100.342 138.3 100.342 138.3Z" fill="white" stroke="#263238" stroke-linecap="round" stroke-linejoin="round"/>
<path d="M113.272 140.848C113.272 140.848 109.209 144.768 108.865 146.078C108.521 147.389 110.913 147.246 112.789 145.869C114.664 144.493 115.885 142.499 116.094 141.536C116.303 140.574 114.521 139.677 113.272 140.848Z" fill="white" stroke="#263238" stroke-linecap="round" stroke-linejoin="round"/>
<path d="M97.9539 51.4137C97.9539 51.4137 96.2337 52.8677 95.9593 53.8261C95.6848 54.7845 92.1379 69.6601 92.1379 69.6601L100.604 72.9367L102.512 55.7347C102.512 55.7347 101.857 49.8245 97.9539 51.4137Z" fill="white"/>
<mask id="mask7_51_602" style="mask-type:luminance" maskUnits="userSpaceOnUse" x="92" y="51" width="11" height="22">
<path d="M97.9539 51.4137C97.9539 51.4137 96.2337 52.8677 95.9593 53.8261C95.6848 54.7845 92.1379 69.6601 92.1379 69.6601L100.604 72.9367L102.512 55.7347C102.512 55.7347 101.857 49.8245 97.9539 51.4137Z" fill="white"/>
</mask>
<g mask="url(#mask7_51_602)">
<path d="M97.9539 51.4137C97.9539 51.4137 96.2337 52.8677 95.9593 53.8261C95.6848 54.7845 92.1379 69.6601 92.1379 69.6601L100.604 72.9367L102.512 55.7347C102.512 55.7347 101.857 49.8245 97.9539 51.4137Z" fill="#92E3A9"/>
<path opacity="0.5" d="M97.9539 51.4137C97.9539 51.4137 96.2337 52.8677 95.9593 53.8261C95.6848 54.7845 92.1379 69.6601 92.1379 69.6601L100.604 72.9367L102.512 55.7347C102.512 55.7347 101.857 49.8245 97.9539 51.4137Z" fill="white"/>
</g>
<path d="M97.9539 51.4137C97.9539 51.4137 96.2337 52.8677 95.9593 53.8261C95.6848 54.7845 92.1379 69.6601 92.1379 69.6601L100.604 72.9367L102.512 55.7347C102.512 55.7347 101.857 49.8245 97.9539 51.4137Z" stroke="#263238" stroke-linecap="round" stroke-linejoin="round"/>
<path d="M98.0071 78.9451C98.0071 78.9451 96.7784 88.0909 96.5081 93.9642C96.2378 99.8374 96.7784 107.75 97.0528 111.846C97.3272 115.942 100.26 135.45 100.26 135.777C100.26 136.105 99.6045 136.76 99.6045 137.199C99.6634 137.681 99.7732 138.156 99.9321 138.616C100.638 138.743 101.332 138.926 102.009 139.165C102.711 139.435 103.489 139.435 104.192 139.165C104.192 139.165 104.192 134.684 104.741 132.501C105.289 130.318 106.747 106.251 106.747 106.251V103.384C106.747 103.384 108.795 117.445 109.475 121.95C110.155 126.456 111.933 134.782 112.342 136.011C112.587 136.712 112.68 137.458 112.617 138.198V139.697L113.026 141.61C113.026 141.61 113.571 142.564 114.529 142.564C115.215 142.511 115.873 142.276 116.438 141.884C116.438 141.884 117.396 133.963 117.667 131.506C117.937 129.048 118.076 119.358 117.806 118.399C117.556 117.182 117.372 115.951 117.257 114.713C117.257 114.713 118.351 98.3302 117.806 94.5089C117.261 90.6876 116.987 80.8578 116.987 80.8578C116.987 80.8578 104.97 83.7248 98.0071 78.9451Z" fill="#263238" stroke="#263238" stroke-linecap="round" stroke-linejoin="round"/>
<path d="M106.747 103.384L105.379 92.8706L103.471 90.962" stroke="white" stroke-linecap="round" stroke-linejoin="round"/>
<path d="M106.35 48.8088C106.35 48.8088 101.435 49.1979 97.9539 51.43C97.2289 51.897 97.6917 67.6123 97.6917 70.9339C97.6917 74.2555 97.1634 78.8059 97.2535 79.4202C97.3436 80.0346 100.489 82.2873 105.822 82.918C111.154 83.5487 117.105 82.1275 117.454 81.3411C117.802 80.5548 117.63 79.4203 117.63 79.068C117.63 78.7158 123.511 59.3102 123.061 57.1231C122.61 54.936 122.192 52.4949 118.244 50.6273C115.697 49.4272 112.121 48.5303 110.282 48.5303C108.967 48.5537 107.655 48.6467 106.35 48.8088Z" fill="white"/>
<mask id="mask8_51_602" style="mask-type:luminance" maskUnits="userSpaceOnUse" x="97" y="48" width="27" height="36">
<path d="M106.35 48.8088C106.35 48.8088 101.435 49.1979 97.9539 51.43C97.2289 51.897 97.6917 67.6123 97.6917 70.9339C97.6917 74.2555 97.1634 78.8059 97.2535 79.4202C97.3436 80.0346 100.489 82.2873 105.822 82.918C111.154 83.5487 117.105 82.1275 117.454 81.3411C117.802 80.5548 117.63 79.4203 117.63 79.068C117.63 78.7158 123.511 59.3102 123.061 57.1231C122.61 54.936 122.192 52.4949 118.244 50.6273C115.697 49.4272 112.121 48.5303 110.282 48.5303C108.967 48.5537 107.655 48.6467 106.35 48.8088Z" fill="white"/>
</mask>
<g mask="url(#mask8_51_602)">
<path d="M108.738 80.0101C102.672 79.7316 99.2891 77.4748 98.8631 76.9096C98.4372 76.3444 99.1457 58.1471 99.1457 56.4555C99.1457 54.764 105.355 52.2206 105.355 52.2206L106.383 48.7883H106.35C106.35 48.7883 101.435 49.1774 97.9539 51.4096C97.2289 51.8765 97.6917 67.5918 97.6917 70.9135C97.6917 74.2351 97.1634 78.7854 97.2535 79.3998C97.3436 80.0142 100.489 82.2668 105.822 82.8976C111.154 83.5283 117.105 82.1071 117.454 81.3207C117.802 80.5343 117.63 79.3998 117.63 79.0476C117.63 78.9902 117.785 78.425 118.039 77.5076C116.217 77.4461 113.71 80.2435 108.738 80.0101Z" fill="#92E3A9"/>
<path opacity="0.5" d="M108.738 80.0101C102.672 79.7316 99.2891 77.4748 98.8631 76.9096C98.4372 76.3444 99.1457 58.1471 99.1457 56.4555C99.1457 54.764 105.355 52.2206 105.355 52.2206L106.383 48.7883H106.35C106.35 48.7883 101.435 49.1774 97.9539 51.4096C97.2289 51.8765 97.6917 67.5918 97.6917 70.9135C97.6917 74.2351 97.1634 78.7854 97.2535 79.3998C97.3436 80.0142 100.489 82.2668 105.822 82.8976C111.154 83.5283 117.105 82.1071 117.454 81.3207C117.802 80.5343 117.63 79.3998 117.63 79.0476C117.63 78.9902 117.785 78.425 118.039 77.5076C116.217 77.4461 113.71 80.2435 108.738 80.0101Z" fill="white"/>
</g>
<path d="M106.35 48.8088C106.35 48.8088 101.435 49.1979 97.9539 51.43C97.2289 51.897 97.6917 67.6123 97.6917 70.9339C97.6917 74.2555 97.1634 78.8059 97.2535 79.4202C97.3436 80.0346 100.489 82.2873 105.822 82.918C111.154 83.5487 117.105 82.1275 117.454 81.3411C117.802 80.5548 117.63 79.4203 117.63 79.068C117.63 78.7158 123.511 59.3102 123.061 57.1231C122.61 54.936 122.192 52.4949 118.244 50.6273C115.697 49.4272 112.121 48.5303 110.282 48.5303C108.967 48.5537 107.655 48.6467 106.35 48.8088Z" stroke="#263238" stroke-linecap="round" stroke-linejoin="round"/>
<path d="M105.281 54.7558C105.281 54.7558 104.847 53.5271 104.052 53.5271C103.359 53.5971 102.681 53.7739 102.041 54.0514C102.041 54.0514 103.18 50.8157 104.843 48.6286C106.506 46.4415 111.052 45.7616 112.187 46.9657C113.26 48.1763 113.878 49.723 113.935 51.34C113.935 52.6506 109.913 55.6241 109.651 55.7142C109.389 55.8043 108.865 54.5756 107.726 54.5756C107.019 54.5797 106.315 54.6676 105.629 54.8377L105.281 54.7558Z" fill="white" stroke="#263238" stroke-linecap="round" stroke-linejoin="round"/>
<path d="M105.371 46.4455C105.371 46.4455 104.495 53.9694 105.281 54.7558C106.067 55.5421 107.644 53.1789 108.967 52.1304C110.29 51.0819 112.031 48.4442 112.203 46.9698C112.309 45.8372 112.34 44.6987 112.293 43.5621C112.293 43.5621 109.582 47.322 108.197 47.322C107.198 47.2644 106.228 46.9636 105.371 46.4455Z" fill="white"/>
<mask id="mask9_51_602" style="mask-type:luminance" maskUnits="userSpaceOnUse" x="104" y="43" width="9" height="12">
<path d="M105.371 46.4455C105.371 46.4455 104.495 53.9694 105.281 54.7558C106.067 55.5421 107.644 53.1789 108.967 52.1304C110.29 51.0819 112.031 48.4442 112.203 46.9698C112.309 45.8372 112.34 44.6987 112.293 43.5621C112.293 43.5621 109.582 47.322 108.197 47.322C107.198 47.2644 106.228 46.9636 105.371 46.4455Z" fill="white"/>
</mask>
<g mask="url(#mask9_51_602)">
<path d="M108.169 47.322C107.179 47.2599 106.219 46.9591 105.371 46.4455C105.371 46.4455 104.495 53.9694 105.281 54.7558C105.356 54.8273 105.45 54.8756 105.551 54.895C106.158 52.9946 106.809 50.6477 106.809 50.6477L109.577 48.4524L111.769 44.8769L111.593 44.4673C110.692 45.5649 109.127 47.322 108.169 47.322Z" fill="#92E3A9"/>
<path opacity="0.5" d="M108.169 47.322C107.179 47.2599 106.219 46.9591 105.371 46.4455C105.371 46.4455 104.495 53.9694 105.281 54.7558C105.356 54.8273 105.45 54.8756 105.551 54.895C106.158 52.9946 106.809 50.6477 106.809 50.6477L109.577 48.4524L111.769 44.8769L111.593 44.4673C110.692 45.5649 109.127 47.322 108.169 47.322Z" fill="white"/>
</g>
<path d="M105.371 46.4455C105.371 46.4455 104.495 53.9694 105.281 54.7558C106.067 55.5421 107.644 53.1789 108.967 52.1304C110.29 51.0819 112.031 48.4442 112.203 46.9698C112.309 45.8372 112.34 44.6987 112.293 43.5621C112.293 43.5621 109.582 47.322 108.197 47.322C107.198 47.2644 106.228 46.9636 105.371 46.4455Z" stroke="#263238" stroke-linecap="round" stroke-linejoin="round"/>
<path d="M103.061 36.9804C103.061 36.9804 102.885 42.186 103.59 44.2175C104.294 46.249 106.149 49.3372 108.623 48.6327C111.097 47.9282 112.948 42.8987 112.948 42.8987C112.948 42.8987 115.242 41.8379 115.684 40.2487C115.937 39.2003 115.907 38.1037 115.598 37.0705C115.598 37.0705 110.741 35.5714 108.181 35.7475C106.542 35.8834 104.934 36.2702 103.413 36.8943L103.061 36.9804Z" fill="white"/>
<mask id="mask10_51_602" style="mask-type:luminance" maskUnits="userSpaceOnUse" x="103" y="35" width="13" height="14">
<path d="M103.061 36.9804C103.061 36.9804 102.885 42.186 103.59 44.2175C104.294 46.249 106.149 49.3372 108.623 48.6327C111.097 47.9282 112.948 42.8987 112.948 42.8987C112.948 42.8987 115.242 41.8379 115.684 40.2487C115.937 39.2003 115.907 38.1037 115.598 37.0705C115.598 37.0705 110.741 35.5714 108.181 35.7475C106.542 35.8834 104.934 36.2702 103.413 36.8943L103.061 36.9804Z" fill="white"/>
</mask>
<g mask="url(#mask10_51_602)">
<path d="M115.783 37.9019C115.783 37.7872 115.746 37.6807 115.725 37.5824C115.594 37.4186 115.414 37.1729 115.213 36.9517C114.017 36.6077 110.298 35.596 108.181 35.723C106.542 35.8588 104.934 36.2456 103.413 36.8698L103.061 36.9599C103.061 36.9599 102.885 42.1656 103.59 44.1971C104.294 46.2285 106.149 49.3167 108.623 48.6122C109.461 48.295 110.183 47.7326 110.696 46.9985C110.79 46.7487 110.847 46.589 110.847 46.589C110.847 46.589 107.73 48.8989 106.575 46.8224C105.875 45.4712 105.557 43.9546 105.654 42.4359C104.269 41.8584 104.04 41.9731 105.076 41.3997C106.113 40.8263 106.002 40.13 106.002 40.13C109.348 40.13 113.731 38.8603 113.731 38.8603L115.783 37.9019Z" fill="#92E3A9"/>
<path opacity="0.5" d="M115.783 37.9019C115.783 37.7872 115.746 37.6807 115.725 37.5824C115.594 37.4186 115.414 37.1729 115.213 36.9517C114.017 36.6077 110.298 35.596 108.181 35.723C106.542 35.8588 104.934 36.2456 103.413 36.8698L103.061 36.9599C103.061 36.9599 102.885 42.1656 103.59 44.1971C104.294 46.2285 106.149 49.3167 108.623 48.6122C109.461 48.295 110.183 47.7326 110.696 46.9985C110.79 46.7487 110.847 46.589 110.847 46.589C110.847 46.589 107.73 48.8989 106.575 46.8224C105.875 45.4712 105.557 43.9546 105.654 42.4359C104.269 41.8584 104.04 41.9731 105.076 41.3997C106.113 40.8263 106.002 40.13 106.002 40.13C109.348 40.13 113.731 38.8603 113.731 38.8603L115.783 37.9019Z" fill="white"/>
</g>
<path d="M103.061 36.9804C103.061 36.9804 102.885 42.186 103.59 44.2175C104.294 46.249 106.149 49.3372 108.623 48.6327C111.097 47.9282 112.948 42.8987 112.948 42.8987C112.948 42.8987 115.242 41.8379 115.684 40.2487C115.937 39.2003 115.907 38.1037 115.598 37.0705C115.598 37.0705 110.741 35.5714 108.181 35.7475C106.542 35.8834 104.934 36.2702 103.413 36.8943L103.061 36.9804Z" stroke="#263238" stroke-linecap="round" stroke-linejoin="round"/>
<path d="M106.366 39.4541C106.269 39.9508 106.09 40.4282 105.838 40.8671C105.396 41.6617 104.335 41.8378 104.691 42.2802C105.048 42.7225 106.633 42.8986 106.633 42.8986" stroke="#263238" stroke-linecap="round" stroke-linejoin="round"/>
<path d="M108.82 40.1463C108.82 40.5845 108.66 40.9408 108.468 40.9408C108.275 40.9408 108.111 40.5845 108.111 40.1463C108.111 39.708 108.271 39.3517 108.468 39.3517C108.664 39.3517 108.82 39.708 108.82 40.1463Z" fill="#263238"/>
<path d="M105.285 39.7981C105.285 40.2405 105.13 40.5927 104.933 40.5927C104.736 40.5927 104.581 40.2405 104.581 39.7981C104.581 39.3558 104.736 39.0035 104.933 39.0035C105.13 39.0035 105.285 39.3435 105.285 39.7981Z" fill="#263238"/>
<path d="M106.24 44.2175C106.24 44.2175 107.915 44.6598 109.066 43.599" stroke="#263238" stroke-linecap="round" stroke-linejoin="round"/>
<path d="M108.005 37.8854C108.005 37.8854 108.824 37.0663 109.451 38.5203" stroke="#263238" stroke-linecap="round" stroke-linejoin="round"/>
<path d="M105.355 37.8609C105.355 37.8609 103.938 37.7953 103.757 38.6104" stroke="#263238" stroke-linecap="round" stroke-linejoin="round"/>
<path d="M112.596 36.3618C112.596 36.3618 111.802 39.45 113.038 39.6384C114.275 39.8268 114.804 36.9024 114.804 36.9024L112.596 36.3618Z" fill="#263238" stroke="#263238" stroke-linecap="round" stroke-linejoin="round"/>
<path d="M103.147 36.112C103.147 36.112 103.327 32.4054 103.504 30.8162C103.68 29.2271 106.78 27.9042 109.86 27.9902C112.94 28.0762 115.746 30.7138 116.098 31.7746C116.45 32.8354 116.098 36.9312 116.098 36.9312L115.959 38.6473C115.959 38.6473 111.888 37.009 108.271 36.8206C104.654 36.6322 103.413 36.9066 103.413 36.9066L103.147 36.112Z" fill="#263238" stroke="#263238" stroke-linecap="round" stroke-linejoin="round"/>
<path d="M105.891 32.0122L104.515 31.7747L104.466 32.0859L105.257 32.2129L105.203 32.8355L105.785 33.0116L105.838 33.5153L106.575 33.7652L105.891 32.0122Z" fill="white"/>
<path d="M107.685 32.1596L109.057 32.1432L109.111 32.4627H108.32L108.373 33.0934L107.792 33.1712L107.739 33.6709L107.001 33.7979L107.685 32.1596Z" fill="white"/>
<path d="M110.814 37.0663C109.544 37.3945 108.24 37.5732 106.928 37.5988C104.986 37.5988 101.194 36.7141 99.9649 36.7141C99.3737 36.7009 98.7823 36.731 98.1956 36.8042C99.875 36.1818 101.625 35.7691 103.405 35.5755C106.149 35.2929 110.036 36.624 110.814 37.0663Z" fill="white" stroke="#263238" stroke-linecap="round" stroke-linejoin="round"/>
<path d="M100.055 69.9181C100.055 69.9181 99.076 68.3044 98.9204 68.2512C98.7648 68.1979 97.4664 67.5303 97.2534 67.4607C97.0405 67.3911 96.5367 67.3337 96.6759 67.7924C96.8152 68.2512 97.7449 68.7918 97.7449 68.7918L98.1095 69.7912L100.055 69.9181Z" fill="white" stroke="#263238" stroke-linecap="round" stroke-linejoin="round"/>
<path d="M105.281 54.7557L104.016 62.8366L105.347 63.0414L106.063 58.4337" stroke="#263238" stroke-linecap="round" stroke-linejoin="round"/>
<path d="M102.16 61.8618L95.4268 76.9054L82.5703 77.4297L89.5658 62.3001L102.16 61.8618Z" fill="#263238" stroke="#263238" stroke-linecap="round" stroke-linejoin="round"/>
<path d="M97.0938 61.9643L97.8064 60.67L96.2214 60.7397L95.5497 62.0872L94.2964 62.1404L93.51 63.8033H97.532L98.4945 61.9643H97.0938Z" fill="white" stroke="#263238" stroke-linecap="round" stroke-linejoin="round"/>
<path d="M101.075 70.1967C101.075 70.1967 98.5313 69.0089 98.2077 69.0089L93.4526 68.9557C93.208 69.1707 93.0375 69.4573 92.9652 69.7748C92.912 70.2049 92.6416 70.9626 92.912 71.3435C93.1823 71.7244 95.9919 73.2357 97.1265 73.8296C98.261 74.4235 101.632 73.9361 101.632 73.9361C101.632 73.9361 109.684 77.4502 112.387 78.8018C115.09 80.1534 117.413 80.9111 118.551 80.9111C119.69 80.9111 121.144 74.2597 121.144 74.2597L115.037 72.6214L114.55 74.2597C114.55 74.2597 110.982 73.289 106.657 72.478C102.75 71.7449 101.075 70.1967 101.075 70.1967Z" fill="white" stroke="#263238" stroke-linecap="round" stroke-linejoin="round"/>
<path d="M93.1292 69.5496C93.1292 69.5496 97.0201 70.3073 97.614 70.4138" stroke="#263238" stroke-linecap="round" stroke-linejoin="round"/>
<path d="M92.8588 70.3073C92.8588 70.3073 96.8562 71.6588 97.0733 71.7121" stroke="#263238" stroke-linecap="round" stroke-linejoin="round"/>
<path d="M93.2356 71.3885C93.2356 71.3885 96.2091 72.6869 96.6432 72.7401" stroke="#263238" stroke-linecap="round" stroke-linejoin="round"/>
<path d="M114.963 58.5976L113.325 73.588C113.325 73.588 116.52 74.9764 118.568 75.3286C119.736 75.5353 120.92 75.6381 122.106 75.6358C122.106 75.6358 123.655 63.5534 123.556 60.3997C123.458 57.246 123.032 54.3012 121.324 53.8466" fill="white"/>
<mask id="mask11_51_602" style="mask-type:luminance" maskUnits="userSpaceOnUse" x="113" y="53" width="11" height="23">
<path d="M114.963 58.5976L113.325 73.588C113.325 73.588 116.52 74.9764 118.568 75.3286C119.736 75.5353 120.92 75.6381 122.106 75.6358C122.106 75.6358 123.655 63.5534 123.556 60.3997C123.458 57.246 123.032 54.3012 121.324 53.8466" fill="white"/>
</mask>
<g mask="url(#mask11_51_602)">
<path d="M117.626 72.9736C117.216 72.8343 119.178 60.2768 117.769 57.5982C117.564 57.2173 117.359 57.0248 117.151 56.9716L116.065 57.7907C115.275 59.0809 114.664 61.4113 114.664 61.4113V61.4564L113.313 73.5879C113.313 73.5879 115.119 74.3743 116.884 74.9108C116.995 74.7552 117.06 74.6528 117.06 74.6528C117.06 74.6528 119.178 74.0876 120.308 73.9443C121.439 73.8009 118.052 73.1005 117.626 72.9736Z" fill="#92E3A9"/>
<path opacity="0.5" d="M117.626 72.9736C117.216 72.8343 119.178 60.2768 117.769 57.5982C117.564 57.2173 117.359 57.0248 117.151 56.9716L116.065 57.7907C115.275 59.0809 114.664 61.4113 114.664 61.4113V61.4564L113.313 73.5879C113.313 73.5879 115.119 74.3743 116.884 74.9108C116.995 74.7552 117.06 74.6528 117.06 74.6528C117.06 74.6528 119.178 74.0876 120.308 73.9443C121.439 73.8009 118.052 73.1005 117.626 72.9736Z" fill="white"/>
</g>
<path d="M114.963 58.5976L113.325 73.588C113.325 73.588 116.52 74.9764 118.568 75.3287C119.736 75.5353 120.92 75.6381 122.106 75.6358C122.106 75.6358 123.655 63.5534 123.556 60.3997C123.458 57.246 123.032 54.3012 121.324 53.8466" stroke="#263238" stroke-linecap="round" stroke-linejoin="round"/>
</svg>
