<svg width="159" height="151" viewBox="0 0 159 151" fill="none" xmlns="http://www.w3.org/2000/svg">
<path d="M126.286 117.705C127.211 118.11 129.472 118.045 129.476 118.045C129.479 118.045 128.989 116.562 128.945 116.474C128.449 115.437 126.881 113.719 125.602 113.893C125.391 113.927 125.189 114.006 125.011 114.124C124.832 114.242 124.68 114.396 124.564 114.576C124.449 114.756 124.373 114.958 124.34 115.17C124.308 115.382 124.321 115.598 124.378 115.804C124.589 116.715 125.497 117.365 126.286 117.705Z" fill="#92E3A9"/>
<path d="M127.068 124.269C128.027 124.412 130.047 123.823 130.207 123.779C130.54 124.938 130.949 126.074 131.431 127.18C131.71 127.823 132.009 128.462 132.319 129.098L131.941 128.557C131.186 127.687 129.221 126.449 128.034 126.952C127.838 127.041 127.664 127.169 127.522 127.33C127.38 127.49 127.274 127.679 127.209 127.883C127.145 128.088 127.125 128.303 127.15 128.516C127.174 128.729 127.244 128.934 127.353 129.118C127.792 129.918 128.84 130.312 129.693 130.435C130.547 130.557 132.288 130.095 132.754 129.969C132.877 130.21 132.992 130.455 133.115 130.696C133.7 131.863 134.288 133.023 134.832 134.176C135.022 134.584 135.196 134.992 135.369 135.4C135.206 135.158 135.067 134.958 135.029 134.931C134.274 134.06 132.309 132.819 131.122 133.325C130.927 133.414 130.753 133.543 130.611 133.704C130.47 133.864 130.363 134.053 130.299 134.257C130.235 134.461 130.214 134.677 130.239 134.89C130.263 135.102 130.332 135.307 130.441 135.492C130.88 136.288 131.931 136.682 132.781 136.808C133.632 136.934 135.206 136.512 135.75 136.362C135.917 136.784 136.09 137.209 136.226 137.624C136.318 137.913 136.427 138.182 136.502 138.474C136.577 138.767 136.662 139.049 136.74 139.331C136.873 139.882 137.012 140.45 137.128 140.991C137.209 141.365 137.284 141.726 137.356 142.086C137.172 141.681 136.791 140.892 136.75 140.828C136.138 139.855 134.37 138.331 133.132 138.648C132.926 138.707 132.734 138.808 132.57 138.946C132.406 139.083 132.273 139.254 132.179 139.446C132.085 139.638 132.032 139.849 132.025 140.063C132.017 140.277 132.055 140.49 132.135 140.688C132.448 141.545 133.427 142.093 134.247 142.345C135.155 142.62 137.158 142.368 137.41 142.345C137.529 142.943 137.641 143.528 137.75 144.079C137.964 145.3 138.128 146.392 138.25 147.317H139.093C138.947 146.361 138.753 145.218 138.502 143.94C138.379 143.331 138.24 142.685 138.09 142.018C138.695 141.778 139.284 141.5 139.855 141.188C140.515 141.906 142.205 142.742 142.423 142.848C142.192 143.412 141.964 143.96 141.743 144.474C141.273 145.552 140.831 146.514 140.44 147.317H141.352C141.692 146.568 142.059 145.715 142.447 144.773C142.681 144.198 142.923 143.579 143.164 142.943C143.406 142.994 145.392 143.399 146.317 143.188C147.153 143.001 148.17 142.525 148.544 141.695C148.639 141.503 148.693 141.293 148.701 141.08C148.71 140.866 148.673 140.652 148.594 140.454C148.515 140.255 148.395 140.075 148.241 139.926C148.088 139.776 147.905 139.661 147.704 139.586C146.484 139.178 144.616 140.566 143.933 141.491C143.892 141.545 143.521 142.188 143.293 142.596C143.392 142.334 143.487 142.083 143.586 141.814C143.78 141.283 143.96 140.746 144.154 140.171L144.409 139.318C144.501 139.035 144.562 138.723 144.64 138.423C144.803 137.726 144.94 137.012 145.059 136.288C145.524 136.458 147.187 137.036 148.048 136.968C148.908 136.9 149.983 136.594 150.48 135.832C150.603 135.656 150.687 135.457 150.728 135.246C150.769 135.036 150.765 134.819 150.717 134.61C150.668 134.401 150.576 134.205 150.447 134.034C150.318 133.863 150.154 133.721 149.966 133.618C148.82 133.026 146.766 134.118 145.95 134.931C145.902 134.978 145.382 135.611 145.103 135.988C145.171 135.553 145.239 135.121 145.297 134.679C145.453 133.4 145.575 132.101 145.701 130.805C145.739 130.407 145.783 130.013 145.824 129.618C145.99 129.68 147.953 130.411 148.915 130.343C149.776 130.282 150.85 129.969 151.347 129.203C151.47 129.028 151.554 128.829 151.595 128.619C151.636 128.409 151.632 128.192 151.584 127.983C151.535 127.775 151.443 127.579 151.314 127.408C151.185 127.238 151.021 127.096 150.833 126.993C149.687 126.401 147.633 127.493 146.817 128.302C146.756 128.363 146.011 129.299 145.831 129.547C145.922 128.676 146.024 127.809 146.171 126.959C146.344 125.81 146.591 124.674 146.912 123.558C146.99 123.585 149.034 124.357 150.024 124.289C150.881 124.228 151.956 123.912 152.452 123.15C152.575 122.975 152.66 122.776 152.701 122.566C152.742 122.356 152.739 122.139 152.69 121.931C152.642 121.722 152.551 121.526 152.422 121.355C152.293 121.184 152.129 121.043 151.942 120.939C150.796 120.348 148.742 121.436 147.925 122.249C147.861 122.313 147.058 123.317 146.926 123.51C146.926 123.446 146.956 123.378 146.977 123.313C147.333 122.2 147.788 121.121 148.337 120.089C148.629 119.518 148.942 118.984 149.255 118.474C149.623 118.657 151.296 119.474 152.2 119.511C153.105 119.548 154.163 119.348 154.741 118.647C154.882 118.486 154.988 118.298 155.052 118.093C155.116 117.889 155.135 117.673 155.11 117.461C155.085 117.248 155.016 117.043 154.907 116.859C154.797 116.675 154.65 116.516 154.476 116.392C153.401 115.678 151.241 116.535 150.34 117.253C150.289 117.29 149.837 117.742 149.51 118.076C149.657 117.848 149.803 117.61 149.949 117.396C150.486 116.583 151.031 115.872 151.517 115.246C151.796 114.906 152.058 114.566 152.302 114.287C152.755 114.287 154.581 114.223 155.363 113.848C156.145 113.474 157.033 112.801 157.22 111.913C157.271 111.705 157.278 111.489 157.24 111.278C157.202 111.067 157.121 110.867 157.001 110.689C156.88 110.512 156.724 110.362 156.542 110.249C156.361 110.136 156.157 110.062 155.945 110.033C154.663 109.897 153.139 111.651 152.673 112.706C152.632 112.794 152.163 114.291 152.187 114.291H152.214C151.969 114.566 151.714 114.865 151.439 115.199C150.939 115.814 150.378 116.515 149.816 117.317C149.205 118.176 148.644 119.07 148.136 119.994C147.562 121.027 147.082 122.109 146.701 123.228C146.703 123.242 146.703 123.255 146.701 123.269C146.701 122.891 146.701 121.834 146.681 121.752C146.535 120.613 145.579 118.494 144.3 118.259C144.088 118.226 143.872 118.238 143.665 118.294C143.458 118.35 143.265 118.449 143.099 118.584C142.933 118.719 142.797 118.888 142.701 119.08C142.604 119.271 142.549 119.48 142.538 119.695C142.467 120.599 143.123 121.507 143.763 122.075C144.487 122.721 146.484 123.347 146.654 123.395C146.294 124.542 146.011 125.713 145.807 126.898C145.684 127.578 145.582 128.285 145.487 128.986C145.487 128.646 145.487 128.367 145.47 128.326C145.324 127.187 144.365 125.068 143.089 124.833C142.878 124.8 142.662 124.812 142.455 124.868C142.248 124.924 142.056 125.023 141.89 125.158C141.724 125.294 141.588 125.462 141.492 125.654C141.396 125.845 141.341 126.055 141.331 126.269C141.256 127.173 141.916 128.081 142.555 128.649C143.195 129.217 144.909 129.799 145.358 129.941C145.327 130.21 145.29 130.479 145.259 130.751C145.103 132.043 144.953 133.336 144.769 134.597C144.705 135.043 144.627 135.478 144.545 135.913C144.545 135.624 144.545 135.38 144.545 135.342C144.395 134.203 143.44 132.084 142.164 131.849C141.953 131.816 141.737 131.828 141.53 131.884C141.323 131.94 141.131 132.039 140.965 132.174C140.799 132.31 140.663 132.479 140.567 132.67C140.471 132.861 140.416 133.071 140.406 133.285C140.331 134.189 140.988 135.097 141.63 135.665C142.273 136.233 143.817 136.757 144.351 136.93C144.259 137.376 144.164 137.821 144.055 138.246C143.97 138.536 143.912 138.821 143.814 139.107C143.715 139.393 143.63 139.675 143.538 139.954C143.344 140.488 143.151 141.039 142.947 141.552C142.811 141.909 142.671 142.249 142.535 142.593C142.603 142.151 142.722 141.28 142.722 141.209C142.71 140.195 142.437 139.202 141.93 138.325C141.933 138.211 141.926 138.097 141.909 137.985C141.882 137.772 141.811 137.568 141.699 137.385C141.588 137.202 141.44 137.044 141.264 136.922C141.088 136.801 140.888 136.717 140.677 136.677C140.467 136.638 140.251 136.643 140.042 136.692C138.797 137.032 138.002 139.209 137.947 140.358C137.947 140.426 137.988 141.168 138.025 141.634C137.961 141.362 137.903 141.1 137.835 140.821C137.706 140.27 137.56 139.722 137.403 139.12C137.318 138.842 137.233 138.556 137.145 138.27C137.056 137.985 136.944 137.692 136.845 137.4C136.597 136.719 136.315 136.039 136.016 135.383C136.498 135.267 138.206 134.835 138.889 134.308C139.573 133.781 140.294 132.927 140.287 132.019C140.294 131.805 140.255 131.592 140.173 131.394C140.092 131.196 139.969 131.017 139.814 130.869C139.658 130.722 139.474 130.608 139.272 130.537C139.07 130.466 138.855 130.438 138.641 130.455C137.359 130.594 136.26 132.638 136.016 133.764C136.016 133.836 135.924 134.662 135.89 135.124C135.706 134.723 135.526 134.322 135.329 133.924C134.757 132.771 134.142 131.618 133.529 130.469C133.342 130.129 133.162 129.765 132.979 129.411C133.152 129.374 135.189 128.901 135.958 128.309C136.638 127.789 137.362 126.932 137.356 126.02C137.361 125.806 137.322 125.594 137.241 125.396C137.159 125.198 137.036 125.02 136.881 124.872C136.726 124.725 136.541 124.612 136.339 124.541C136.137 124.47 135.923 124.442 135.709 124.459C134.427 124.599 133.329 126.639 133.084 127.768C133.064 127.853 132.958 129.044 132.945 129.346C132.54 128.571 132.145 127.792 131.788 127.01C131.299 125.954 130.879 124.868 130.53 123.759C130.612 123.742 132.74 123.259 133.526 122.653C134.206 122.13 134.934 121.276 134.927 120.365C134.933 120.15 134.894 119.937 134.812 119.739C134.73 119.541 134.607 119.363 134.452 119.215C134.296 119.068 134.111 118.955 133.909 118.884C133.706 118.813 133.491 118.786 133.278 118.804C131.996 118.943 130.897 120.984 130.652 122.109C130.632 122.201 130.52 123.47 130.513 123.714C130.513 123.65 130.465 123.585 130.448 123.521C130.122 122.398 129.897 121.248 129.775 120.086C129.703 119.446 129.669 118.831 129.652 118.232C130.057 118.181 131.911 117.933 132.679 117.47C133.448 117.008 134.227 116.253 134.322 115.348C134.352 115.136 134.336 114.92 134.277 114.714C134.217 114.508 134.115 114.317 133.977 114.153C133.838 113.99 133.667 113.857 133.474 113.764C133.281 113.671 133.07 113.62 132.856 113.614C131.567 113.614 130.237 115.518 129.88 116.613C129.86 116.675 129.731 117.294 129.646 117.759C129.646 117.487 129.646 117.209 129.646 116.947C129.646 115.974 129.71 115.08 129.772 114.291C129.809 113.842 129.853 113.437 129.897 113.059C130.271 112.801 131.761 111.75 132.22 110.995C132.679 110.24 133.013 109.203 132.672 108.366C132.601 108.164 132.487 107.98 132.339 107.824C132.191 107.669 132.012 107.547 131.814 107.466C131.616 107.384 131.403 107.345 131.189 107.352C130.974 107.358 130.764 107.409 130.571 107.502C129.425 108.094 129.125 110.4 129.316 111.536C129.316 111.634 129.765 113.141 129.782 113.127L129.806 113.11C129.755 113.474 129.707 113.865 129.659 114.294C129.581 115.083 129.499 115.977 129.476 116.957C129.44 118.011 129.467 119.066 129.554 120.116C129.645 121.294 129.841 122.462 130.139 123.606C130.137 123.619 130.137 123.633 130.139 123.646C129.935 123.327 129.336 122.456 129.285 122.391C128.53 121.524 126.564 120.283 125.378 120.786C125.183 120.876 125.009 121.005 124.867 121.166C124.725 121.326 124.619 121.515 124.555 121.72C124.491 121.924 124.47 122.14 124.495 122.353C124.519 122.566 124.588 122.771 124.697 122.956C125.167 123.752 126.211 124.146 127.068 124.269Z" fill="#92E3A9"/>
<path d="M149.174 118.215C149.194 118.215 149.585 116.709 149.599 116.61C149.759 115.471 149.395 113.175 148.238 112.614C148.043 112.526 147.831 112.48 147.617 112.48C147.403 112.479 147.191 112.523 146.995 112.61C146.799 112.696 146.623 112.823 146.479 112.982C146.336 113.141 146.227 113.328 146.16 113.532C145.851 114.389 146.245 115.437 146.711 116.161C147.256 117.025 149.174 118.212 149.174 118.215Z" fill="#92E3A9"/>
<path d="M3.9247 117.705C4.84974 118.11 7.11474 118.045 7.11474 118.045C7.11474 118.045 6.62841 116.562 6.5876 116.474C6.09107 115.437 4.51986 113.719 3.24112 113.893C3.02994 113.927 2.82843 114.006 2.64966 114.124C2.47088 114.242 2.31885 114.396 2.2034 114.576C2.08796 114.756 2.01169 114.958 1.97954 115.17C1.9474 115.382 1.96009 115.598 2.01679 115.804C2.23105 116.715 3.13909 117.365 3.9247 117.705Z" fill="#92E3A9"/>
<path d="M4.70689 124.269C5.66594 124.412 7.68608 123.823 7.84592 123.779C8.17877 124.938 8.58777 126.075 9.07024 127.18C9.34912 127.823 9.64839 128.462 9.95788 129.098C9.77423 128.829 9.61779 128.591 9.58038 128.557C8.82538 127.687 6.85966 126.449 5.67275 126.952C5.47796 127.041 5.30405 127.17 5.16232 127.33C5.02059 127.491 4.91419 127.679 4.85005 127.884C4.78591 128.088 4.76545 128.304 4.79 128.516C4.81455 128.729 4.88357 128.934 4.99257 129.118C5.43128 129.918 6.48216 130.312 7.33238 130.435C8.18261 130.557 9.92727 130.095 10.3932 129.969C10.5156 130.21 10.6313 130.455 10.7537 130.697C11.3386 131.863 11.927 133.023 12.4541 134.176C12.6446 134.584 12.818 134.992 12.9949 135.4C12.8282 135.158 12.6888 134.958 12.6548 134.931C11.9032 134.06 9.93407 132.819 8.74716 133.325C8.55237 133.414 8.37846 133.543 8.23673 133.704C8.095 133.864 7.9886 134.053 7.92446 134.257C7.86032 134.461 7.83986 134.677 7.86441 134.89C7.88896 135.102 7.95798 135.307 8.06698 135.492C8.50569 136.288 9.55657 136.682 10.4068 136.808C11.257 136.934 12.835 136.512 13.3758 136.362C13.5424 136.784 13.7159 137.209 13.8553 137.624C13.9437 137.913 14.0526 138.182 14.1274 138.474C14.2022 138.767 14.2872 139.049 14.3654 139.331C14.4981 139.882 14.6375 140.45 14.7531 140.991C14.8382 141.365 14.9096 141.726 14.9844 142.086C14.7974 141.681 14.4165 140.892 14.379 140.828C13.7635 139.855 11.9984 138.332 10.7605 138.648C10.5546 138.707 10.3633 138.808 10.1992 138.946C10.035 139.083 9.90159 139.254 9.80762 139.446C9.71365 139.638 9.66121 139.849 9.65369 140.063C9.64618 140.277 9.68377 140.49 9.76403 140.688C10.0735 141.545 11.053 142.093 11.876 142.345C12.7806 142.62 14.7837 142.368 15.0354 142.345C15.1544 142.943 15.2667 143.528 15.3755 144.079C15.5898 145.3 15.753 146.392 15.8754 147.317H16.7223C16.5726 146.361 16.3822 145.218 16.1271 143.94C16.0081 143.331 15.8686 142.685 15.7156 142.018C16.3244 141.773 16.9174 141.49 17.4909 141.171C18.1506 141.889 19.8409 142.725 20.0585 142.831C19.8307 143.395 19.5994 143.943 19.3784 144.457C18.9124 145.535 18.4669 146.497 18.0758 147.3H18.9907C19.3308 146.551 19.698 145.698 20.0823 144.756C20.3204 144.181 20.5585 143.562 20.7999 142.926C21.0448 142.977 23.0275 143.382 23.9526 143.171C24.7892 142.984 25.8061 142.508 26.1836 141.678C26.2782 141.486 26.3315 141.276 26.3398 141.062C26.348 140.848 26.3112 140.635 26.2317 140.436C26.1521 140.237 26.0317 140.057 25.8781 139.908C25.7245 139.759 25.5412 139.643 25.3401 139.569C24.1192 139.161 22.2521 140.549 21.5685 141.474C21.5277 141.528 21.157 142.171 20.9292 142.579C21.0278 142.317 21.1264 142.066 21.2216 141.797C21.4155 141.266 21.5957 140.729 21.7896 140.154L22.0447 139.301C22.1365 139.019 22.1977 138.706 22.2759 138.406C22.4426 137.709 22.5752 136.995 22.6942 136.271C23.1602 136.441 24.8232 137.019 25.687 136.951C26.5509 136.883 27.6187 136.577 28.1153 135.815C28.2379 135.639 28.3224 135.44 28.3632 135.23C28.4041 135.02 28.4003 134.803 28.3522 134.594C28.3041 134.386 28.2128 134.19 28.0841 134.018C27.9554 133.847 27.7922 133.705 27.6051 133.601C26.459 133.009 24.4049 134.101 23.5887 134.914C23.5377 134.961 23.0173 135.594 22.7384 135.971C22.8065 135.536 22.8779 135.104 22.9323 134.662C23.0921 133.383 23.2112 132.084 23.337 130.788C23.3744 130.39 23.4186 129.996 23.4594 129.601C23.6261 129.663 25.5884 130.394 26.5543 130.326C27.4113 130.265 28.486 129.952 28.9825 129.187C29.1055 129.011 29.1902 128.812 29.231 128.602C29.2718 128.392 29.2679 128.175 29.2194 127.967C29.171 127.758 29.0791 127.562 28.9498 127.391C28.8205 127.221 28.6566 127.079 28.469 126.976C27.3263 126.384 25.2721 127.476 24.4559 128.285C24.3947 128.346 23.6465 129.282 23.4696 129.53C23.5615 128.659 23.6601 127.792 23.8097 126.942C23.9837 125.793 24.2325 124.657 24.5545 123.541C24.6293 123.568 26.6733 124.34 27.6629 124.272C28.52 124.211 29.5981 123.895 30.0946 123.133C30.2176 122.958 30.3023 122.758 30.3431 122.548C30.3839 122.338 30.38 122.122 30.3315 121.913C30.2831 121.704 30.1912 121.508 30.0619 121.338C29.9326 121.167 29.7687 121.025 29.5811 120.922C28.435 120.331 26.3808 121.419 25.5646 122.232C25.5 122.296 24.6974 123.3 24.5647 123.493C24.5851 123.429 24.5953 123.361 24.6157 123.296C24.9721 122.183 25.4274 121.104 25.9761 120.072C26.2686 119.501 26.5815 118.967 26.8977 118.457C27.2616 118.64 28.9383 119.457 29.8395 119.494C30.7408 119.531 31.8052 119.331 32.38 118.63C32.5218 118.47 32.6282 118.281 32.6922 118.076C32.7562 117.872 32.7763 117.656 32.7512 117.443C32.7262 117.231 32.6566 117.026 32.5469 116.842C32.4372 116.657 32.29 116.499 32.1147 116.375C31.04 115.661 28.8805 116.518 27.9792 117.236C27.9316 117.273 27.4759 117.725 27.1528 118.059C27.2957 117.831 27.4419 117.593 27.5881 117.379C28.1255 116.566 28.6696 115.855 29.1559 115.229C29.4382 114.889 29.6967 114.549 29.9415 114.27C30.3973 114.27 32.2201 114.206 33.0024 113.831C33.7846 113.457 34.6722 112.784 34.8592 111.896C34.9114 111.688 34.9191 111.472 34.8817 111.26C34.8443 111.049 34.7628 110.848 34.6424 110.671C34.522 110.493 34.3655 110.343 34.1831 110.23C34.0007 110.117 33.7965 110.044 33.5839 110.016C32.3018 109.88 30.7816 111.634 30.3122 112.689C30.2714 112.777 29.8021 114.274 29.8259 114.274H29.8531C29.6083 114.549 29.3532 114.848 29.0777 115.182C28.5778 115.797 28.0166 116.498 27.4589 117.3C26.8405 118.159 26.2727 119.052 25.7584 119.977C25.187 121.011 24.7068 122.093 24.3233 123.211V123.252C24.3233 122.874 24.3233 121.817 24.3029 121.735C24.1532 120.596 23.1976 118.477 21.9222 118.242C21.7107 118.209 21.4945 118.221 21.2878 118.277C21.081 118.333 20.8884 118.432 20.7225 118.567C20.5566 118.703 20.4211 118.872 20.3249 119.063C20.2286 119.254 20.1738 119.464 20.164 119.678C20.0891 120.582 20.7455 121.49 21.3883 122.058C22.1093 122.704 24.109 123.33 24.2791 123.378C23.9168 124.525 23.6327 125.695 23.4288 126.881C23.3064 127.561 23.2044 128.268 23.1091 128.969C23.1091 128.629 23.1091 128.35 23.1091 128.309C22.9629 127.17 22.0039 125.051 20.7285 124.816C20.5168 124.783 20.3004 124.795 20.0935 124.851C19.8866 124.907 19.6938 125.006 19.5276 125.141C19.3615 125.276 19.2256 125.445 19.129 125.637C19.0324 125.828 18.9772 126.037 18.9669 126.252C18.892 127.156 19.5518 128.064 20.1912 128.632C20.8305 129.2 22.5446 129.782 22.9969 129.925C22.9629 130.193 22.9255 130.462 22.8949 130.734C22.7384 132.026 22.5922 133.319 22.4052 134.58C22.3405 135.026 22.2623 135.461 22.1841 135.896C22.1841 135.607 22.1841 135.363 22.1841 135.325C22.0345 134.186 21.0788 132.067 19.8035 131.832C19.5919 131.799 19.3757 131.811 19.169 131.867C18.9623 131.923 18.7697 132.022 18.6038 132.157C18.4379 132.293 18.3024 132.462 18.2061 132.653C18.1099 132.844 18.055 133.054 18.0452 133.268C17.9704 134.172 18.6302 135.08 19.2695 135.648C19.9089 136.216 21.4563 136.74 21.9903 136.913C21.895 137.359 21.7998 137.804 21.691 138.229C21.6094 138.519 21.5481 138.804 21.4495 139.09C21.3509 139.376 21.2659 139.658 21.1774 139.937C20.9836 140.471 20.7863 141.022 20.5823 141.535C20.4462 141.892 20.3068 142.232 20.1708 142.576C20.2388 142.134 20.3578 141.263 20.3612 141.192C20.3464 140.178 20.0725 139.185 19.5654 138.308C19.569 138.194 19.5622 138.08 19.545 137.968C19.5179 137.755 19.4464 137.551 19.3351 137.368C19.2239 137.185 19.0754 137.027 18.8994 136.905C18.7233 136.784 18.5236 136.7 18.3131 136.66C18.1027 136.621 17.8863 136.626 17.6779 136.675C16.4332 137.015 15.6374 139.192 15.583 140.341C15.583 140.409 15.6238 141.151 15.6612 141.617C15.5966 141.345 15.5387 141.083 15.4707 140.804C15.3415 140.253 15.1953 139.705 15.0388 139.104C14.9538 138.825 14.8688 138.539 14.7803 138.253C14.6919 137.968 14.5797 137.675 14.4811 137.383C14.2328 136.702 13.9505 136.022 13.6513 135.366C14.1342 135.25 15.8414 134.818 16.525 134.291C17.2086 133.764 17.933 132.91 17.9262 132.002C17.9316 131.788 17.892 131.575 17.8098 131.377C17.7277 131.179 17.6049 131.001 17.4494 130.853C17.2939 130.706 17.1092 130.593 16.9072 130.521C16.7052 130.45 16.4904 130.421 16.2767 130.438C14.9946 130.577 13.8961 132.621 13.6513 133.747C13.6513 133.819 13.5594 134.645 13.5288 135.107C13.3452 134.706 13.1649 134.305 12.9643 133.907C12.3929 132.754 11.7774 131.601 11.1686 130.452C10.9815 130.112 10.7979 129.748 10.6143 129.394C10.7877 129.357 12.8282 128.884 13.5934 128.292C14.2736 127.772 15.0014 126.915 14.9946 126.003C15.0006 125.789 14.9613 125.576 14.8794 125.378C14.7974 125.18 14.6746 125.001 14.5189 124.854C14.3632 124.707 14.1782 124.594 13.976 124.523C13.7737 124.452 13.5588 124.424 13.3452 124.442C12.063 124.582 10.9645 126.622 10.7197 127.751C10.7197 127.836 10.5938 129.027 10.5802 129.329C10.1789 128.554 9.78443 127.775 9.42394 126.993C8.93484 125.937 8.51452 124.851 8.1656 123.742C8.24723 123.725 10.3762 123.242 11.1618 122.636C11.842 122.113 12.5698 121.259 12.563 120.348C12.569 120.133 12.5297 119.92 12.4477 119.722C12.3657 119.524 12.2429 119.346 12.0872 119.198C11.9316 119.051 11.7466 118.938 11.5443 118.867C11.3421 118.796 11.1271 118.769 10.9135 118.787C9.63139 118.926 8.5329 120.967 8.28804 122.092C8.27103 122.184 8.1554 123.453 8.152 123.697C8.1316 123.633 8.10439 123.568 8.08398 123.504C7.76031 122.386 7.53611 121.243 7.41401 120.086C7.34259 119.446 7.30858 118.831 7.29157 118.232C7.69628 118.181 9.54977 117.933 10.3184 117.47C11.087 117.008 11.8658 116.253 11.961 115.348C11.9908 115.136 11.9754 114.92 11.9159 114.714C11.8564 114.508 11.7542 114.317 11.6159 114.153C11.4775 113.99 11.3062 113.857 11.1131 113.764C10.92 113.671 10.7095 113.62 10.4952 113.614C9.20628 113.614 7.87653 115.518 7.51943 116.613C7.51943 116.675 7.3732 117.294 7.28477 117.759C7.28477 117.487 7.28477 117.209 7.28477 116.947C7.28477 115.974 7.34939 115.08 7.4106 114.291C7.44801 113.842 7.49223 113.437 7.53644 113.059C7.91054 112.801 9.40013 111.75 9.85925 110.995C10.3184 110.24 10.6721 109.203 10.3388 108.356C10.2662 108.153 10.1514 107.968 10.0021 107.813C9.85284 107.657 9.67237 107.535 9.47258 107.455C9.27278 107.374 9.05819 107.337 8.8429 107.345C8.6276 107.353 8.41649 107.407 8.22342 107.502C7.08072 108.094 6.77804 110.4 6.96849 111.536C6.96849 111.634 7.41741 113.141 7.43781 113.127L7.45822 113.11C7.4072 113.474 7.35959 113.865 7.31198 114.294C7.23376 115.083 7.15214 115.977 7.13173 116.957C7.09368 118.011 7.11867 119.066 7.20655 120.116C7.29749 121.294 7.49325 122.462 7.79151 123.606V123.646C7.58745 123.327 6.99229 122.456 6.93788 122.392C6.18288 121.524 4.21716 120.283 3.03025 120.786C2.83535 120.876 2.66139 121.005 2.51964 121.166C2.37788 121.326 2.2715 121.515 2.20737 121.72C2.14325 121.924 2.12281 122.14 2.14739 122.353C2.17198 122.566 2.24103 122.771 2.35007 122.956C2.80579 123.752 3.85667 124.146 4.70689 124.269Z" fill="#92E3A9"/>
<path d="M26.8128 118.215C26.8332 118.215 27.2243 116.709 27.2379 116.61C27.3977 115.471 27.0338 113.175 25.8775 112.614C25.6821 112.526 25.4704 112.48 25.2561 112.48C25.0418 112.479 24.8298 112.523 24.6338 112.61C24.4378 112.696 24.2623 112.823 24.1185 112.982C23.9748 113.141 23.8661 113.328 23.7996 113.532C23.4901 114.389 23.8846 115.437 24.3505 116.161C24.898 117.025 26.8128 118.212 26.8128 118.215Z" fill="#92E3A9"/>
<path d="M150.357 147.293H155.118" stroke="#263238" stroke-linecap="round" stroke-linejoin="round"/>
<path d="M61.9338 147.293H145.596" stroke="#263238" stroke-linecap="round" stroke-linejoin="round"/>
<path d="M7.17935 147.293H58.5329" stroke="#263238" stroke-linecap="round" stroke-linejoin="round"/>
<path opacity="0.1" d="M37.4882 18.5451C37.4882 21.2216 32.6351 26.8195 32.6351 26.8195C32.6351 26.8195 27.7854 21.2216 27.7854 18.5451C27.8189 17.2807 28.3447 16.0793 29.2508 15.1968C30.157 14.3143 31.3719 13.8205 32.6368 13.8205C33.9016 13.8205 35.1165 14.3143 36.0227 15.1968C36.9289 16.0793 37.4547 17.2807 37.4882 18.5451ZM83.9886 110.978C83.3516 110.978 82.7208 111.103 82.1322 111.346C81.5436 111.59 81.0088 111.947 80.5584 112.398C80.108 112.848 79.7508 113.383 79.5072 113.971C79.2636 114.56 79.1385 115.191 79.1389 115.828C79.1389 118.504 83.9886 124.102 83.9886 124.102C83.9886 124.102 88.8383 118.504 88.8383 115.828C88.8383 114.542 88.3274 113.308 87.4179 112.399C86.5084 111.489 85.2748 110.978 83.9886 110.978ZM124.51 0C123.224 0 121.991 0.510947 121.081 1.42044C120.172 2.32993 119.661 3.56347 119.661 4.84968C119.65 7.51598 124.51 13.1241 124.51 13.1241C124.51 13.1241 129.35 7.51598 129.35 4.84968C129.349 3.56551 128.839 2.33404 127.932 1.42503C127.025 0.516026 125.794 0.00359934 124.51 0ZM16.6611 63.9063C16.0241 63.9058 15.3932 64.031 14.8046 64.2745C14.216 64.5181 13.6812 64.8753 13.2308 65.3257C12.7804 65.7761 12.4232 66.3109 12.1796 66.8995C11.9361 67.4881 11.8109 68.119 11.8114 68.756C11.8114 71.4325 16.6611 77.0269 16.6611 77.0269C16.6611 77.0269 21.5107 71.4325 21.5107 68.756C21.5107 67.4697 20.9998 66.2362 20.0903 65.3267C19.1808 64.4172 17.9473 63.9063 16.6611 63.9063ZM145.609 62.2058C144.328 62.2067 143.098 62.7147 142.19 63.6188C141.281 64.523 140.767 65.7499 140.76 67.0317C140.76 69.7116 145.609 75.3061 145.609 75.3061C145.609 75.3061 150.459 69.7218 150.459 67.0317C150.458 66.3945 150.331 65.7639 150.086 65.1758C149.841 64.5877 149.482 64.0537 149.03 63.6042C148.579 63.1548 148.043 62.7988 147.454 62.5565C146.864 62.3142 146.233 62.1904 145.596 62.1922L145.609 62.2058ZM124.51 6.90382H122.47C122.38 6.90382 122.293 6.86799 122.229 6.80421C122.166 6.74043 122.13 6.65393 122.13 6.56373C122.13 6.47354 122.166 6.38703 122.229 6.32325C122.293 6.25947 122.38 6.22364 122.47 6.22364H124.51C124.601 6.22364 124.687 6.25947 124.751 6.32325C124.815 6.38703 124.85 6.47354 124.85 6.56373C124.85 6.65393 124.815 6.74043 124.751 6.80421C124.687 6.86799 124.601 6.90382 124.51 6.90382ZM103.673 117.538C103.673 117.448 103.637 117.362 103.573 117.298C103.51 117.234 103.423 117.198 103.333 117.198H99.2519C99.1617 117.198 99.0751 117.234 99.0114 117.298C98.9476 117.362 98.9118 117.448 98.9118 117.538C98.9118 117.629 98.9476 117.715 99.0114 117.779C99.0751 117.843 99.1617 117.879 99.2519 117.879H103.333C103.423 117.879 103.51 117.843 103.573 117.779C103.637 117.715 103.673 117.629 103.673 117.538ZM95.5449 117.538C95.5449 117.448 95.509 117.362 95.4453 117.298C95.3815 117.234 95.295 117.198 95.2048 117.198H91.1441C91.0539 117.198 90.9674 117.234 90.9036 117.298C90.8399 117.362 90.804 117.448 90.804 117.538C90.804 117.629 90.8399 117.715 90.9036 117.779C90.9674 117.843 91.0539 117.879 91.1441 117.879H95.2048C95.295 117.879 95.3815 117.843 95.4453 117.779C95.509 117.715 95.5449 117.629 95.5449 117.538ZM107.428 117.848C108.878 117.694 110.215 116.995 111.169 115.892C111.228 115.824 111.257 115.736 111.251 115.646C111.244 115.556 111.203 115.472 111.135 115.413C111.066 115.354 110.978 115.324 110.888 115.331C110.798 115.337 110.714 115.379 110.655 115.447C109.814 116.418 108.637 117.034 107.36 117.171C107.315 117.174 107.271 117.185 107.231 117.204C107.191 117.224 107.154 117.251 107.125 117.284C107.095 117.317 107.072 117.356 107.057 117.398C107.042 117.441 107.036 117.485 107.038 117.53C107.041 117.575 107.052 117.618 107.071 117.659C107.091 117.699 107.118 117.735 107.151 117.765C107.184 117.795 107.223 117.818 107.265 117.833C107.308 117.847 107.352 117.854 107.397 117.851L107.428 117.848ZM87.4405 117.297C87.4585 117.256 87.4683 117.212 87.4691 117.167C87.47 117.122 87.4619 117.077 87.4455 117.036C87.4291 116.994 87.4045 116.956 87.3733 116.924C87.3421 116.892 87.3049 116.866 87.2637 116.848C86.6821 116.6 86.1615 116.227 85.7381 115.758C85.3147 115.288 84.9986 114.732 84.8116 114.127C84.7981 114.085 84.7763 114.045 84.7474 114.011C84.7185 113.976 84.6831 113.948 84.6433 113.928C84.6035 113.907 84.56 113.895 84.5154 113.891C84.4707 113.887 84.4258 113.893 84.3831 113.906C84.2976 113.934 84.2264 113.994 84.185 114.073C84.1436 114.153 84.1354 114.246 84.1621 114.331C84.38 115.027 84.7462 115.666 85.2352 116.207C85.7243 116.747 86.3247 117.174 86.995 117.46C87.0367 117.479 87.082 117.488 87.1276 117.487C87.1925 117.489 87.2565 117.472 87.3119 117.438C87.3674 117.404 87.412 117.355 87.4405 117.297ZM112.573 111.924V107.866C112.573 107.776 112.537 107.69 112.474 107.626C112.41 107.562 112.323 107.526 112.233 107.526C112.143 107.526 112.056 107.562 111.993 107.626C111.929 107.69 111.893 107.776 111.893 107.866V111.924C111.893 112.014 111.929 112.1 111.993 112.164C112.056 112.228 112.143 112.264 112.233 112.264C112.323 112.264 112.41 112.228 112.474 112.164C112.537 112.1 112.573 112.014 112.573 111.924ZM84.6144 110.199V107.407C84.6141 106.967 84.5811 106.527 84.5158 106.091C84.5091 106.047 84.4938 106.004 84.4707 105.966C84.4476 105.928 84.4172 105.894 84.3812 105.868C84.3452 105.841 84.3043 105.822 84.2608 105.811C84.2174 105.801 84.1723 105.799 84.1281 105.805C84.0838 105.812 84.0413 105.827 84.003 105.85C83.9647 105.873 83.9313 105.904 83.9048 105.94C83.8782 105.976 83.8591 106.017 83.8484 106.06C83.8377 106.104 83.8356 106.149 83.8424 106.193C83.9038 106.595 83.9345 107.001 83.9342 107.407V110.199C83.9342 110.289 83.97 110.376 84.0338 110.44C84.0976 110.504 84.1841 110.539 84.2743 110.539C84.3645 110.539 84.451 110.504 84.5148 110.44C84.5786 110.376 84.6144 110.289 84.6144 110.199ZM112.573 103.799V99.7381C112.573 99.6479 112.537 99.5614 112.474 99.4977C112.41 99.4339 112.323 99.398 112.233 99.398C112.143 99.398 112.056 99.4339 111.993 99.4977C111.929 99.5614 111.893 99.6479 111.893 99.7381V103.802C111.893 103.892 111.929 103.979 111.993 104.043C112.056 104.106 112.143 104.142 112.233 104.142C112.323 104.142 112.41 104.106 112.474 104.043C112.537 103.979 112.573 103.892 112.573 103.802V103.799ZM82.8425 102.7C82.8785 102.674 82.9089 102.64 82.932 102.602C82.9551 102.564 82.9703 102.521 82.977 102.477C82.9836 102.433 82.9815 102.388 82.9706 102.344C82.9598 102.301 82.9406 102.26 82.9139 102.224C82.0746 101.085 80.9734 100.165 79.7035 99.5409C79.6632 99.5172 79.6184 99.5021 79.5719 99.4966C79.5255 99.491 79.4784 99.4951 79.4336 99.5085C79.3889 99.522 79.3473 99.5445 79.3117 99.5748C79.276 99.605 79.2469 99.6423 79.2263 99.6842C79.2056 99.7262 79.1939 99.7719 79.1917 99.8187C79.1896 99.8654 79.1971 99.912 79.2138 99.9557C79.2305 99.9994 79.256 100.039 79.2888 100.073C79.3216 100.106 79.3608 100.132 79.4042 100.15C80.5765 100.726 81.5926 101.576 82.3664 102.629C82.3929 102.665 82.4263 102.695 82.4646 102.718C82.5029 102.741 82.5454 102.757 82.5896 102.763C82.6339 102.77 82.679 102.768 82.7224 102.757C82.7658 102.746 82.8066 102.727 82.8425 102.7ZM75.9625 99.0001C75.9625 98.9099 75.9267 98.8234 75.8629 98.7597C75.7991 98.6959 75.7126 98.66 75.6224 98.66H71.5617C71.4715 98.66 71.385 98.6959 71.3213 98.7597C71.2575 98.8234 71.2217 98.9099 71.2217 99.0001C71.2217 99.0903 71.2575 99.1768 71.3213 99.2406C71.385 99.3044 71.4715 99.3402 71.5617 99.3402H75.6224C75.7126 99.3402 75.7991 99.3044 75.8629 99.2406C75.9267 99.1768 75.9625 99.0903 75.9625 99.0001ZM67.8378 99.0001C67.8378 98.9099 67.8019 98.8234 67.7382 98.7597C67.6744 98.6959 67.5879 98.66 67.4977 98.66H63.4166C63.3264 98.66 63.2399 98.6959 63.1761 98.7597C63.1123 98.8234 63.0765 98.9099 63.0765 99.0001C63.0765 99.0903 63.1123 99.1768 63.1761 99.2406C63.2399 99.3044 63.3264 99.3402 63.4166 99.3402H67.4977C67.5879 99.3402 67.6744 99.3044 67.7382 99.2406C67.8019 99.1768 67.8378 99.0903 67.8378 99.0001ZM59.713 99.0001C59.713 98.9099 59.6772 98.8234 59.6134 98.7597C59.5496 98.6959 59.4631 98.66 59.3729 98.66H55.3089C55.2187 98.66 55.1322 98.6959 55.0684 98.7597C55.0046 98.8234 54.9688 98.9099 54.9688 99.0001C54.9688 99.0903 55.0046 99.1768 55.0684 99.2406C55.1322 99.3044 55.2187 99.3402 55.3089 99.3402H59.3729C59.4631 99.3402 59.5496 99.3044 59.6134 99.2406C59.6772 99.1768 59.713 99.0903 59.713 99.0001ZM51.5883 99.0001C51.5883 98.9099 51.5524 98.8234 51.4887 98.7597C51.4249 98.6959 51.3384 98.66 51.2482 98.66H47.1671C47.0769 98.66 46.9904 98.6959 46.9266 98.7597C46.8628 98.8234 46.827 98.9099 46.827 99.0001C46.827 99.0903 46.8628 99.1768 46.9266 99.2406C46.9904 99.3044 47.0769 99.3402 47.1671 99.3402H51.2482C51.3384 99.3402 51.4249 99.3044 51.4887 99.2406C51.5524 99.1768 51.5883 99.0903 51.5883 99.0001ZM43.4601 99.0001C43.4601 98.9099 43.4243 98.8234 43.3605 98.7597C43.2967 98.6959 43.2102 98.66 43.12 98.66H39.0594C38.9692 98.66 38.8827 98.6959 38.8189 98.7597C38.7551 98.8234 38.7193 98.9099 38.7193 99.0001C38.7193 99.0903 38.7551 99.1768 38.8189 99.2406C38.8827 99.3044 38.9692 99.3402 39.0594 99.3402H43.12C43.2102 99.3402 43.2967 99.3044 43.3605 99.2406C43.4243 99.1768 43.4601 99.0903 43.4601 99.0001ZM35.3354 99.0001C35.3354 98.9099 35.2996 98.8234 35.2358 98.7597C35.172 98.6959 35.0855 98.66 34.9953 98.66H30.9346C30.8444 98.66 30.7579 98.6959 30.6941 98.7597C30.6304 98.8234 30.5945 98.9099 30.5945 99.0001C30.5945 99.0903 30.6304 99.1768 30.6941 99.2406C30.7579 99.3044 30.8444 99.3402 30.9346 99.3402H34.9953C35.0855 99.3402 35.172 99.3044 35.2358 99.2406C35.2996 99.1768 35.3354 99.0903 35.3354 99.0001ZM27.2106 99.0001C27.2106 98.9099 27.1748 98.8234 27.111 98.7597C27.0472 98.6959 26.9607 98.66 26.8705 98.66H22.8235C22.7333 98.66 22.6468 98.6959 22.583 98.7597C22.5192 98.8234 22.4834 98.9099 22.4834 99.0001C22.4834 99.0903 22.5192 99.1768 22.583 99.2406C22.6468 99.3044 22.7333 99.3402 22.8235 99.3402H26.9046C26.9887 99.3318 27.0667 99.2922 27.1233 99.2293C27.1799 99.1665 27.2111 99.0847 27.2106 99.0001ZM19.1573 98.456C19.1977 98.3757 19.2046 98.2827 19.1765 98.1973C19.1485 98.1119 19.0878 98.041 19.0077 98.0003C17.8495 97.4185 16.8993 96.4932 16.287 95.351C16.2438 95.2733 16.172 95.2157 16.0869 95.1903C16.0018 95.1649 15.9101 95.1738 15.8315 95.2151C15.7529 95.2564 15.6935 95.3269 15.6662 95.4113C15.6388 95.4958 15.6455 95.5877 15.685 95.6673C16.3605 96.9338 17.4104 97.9612 18.6914 98.609C18.7391 98.6321 18.7915 98.6438 18.8444 98.643C18.9093 98.6445 18.9733 98.6273 19.0287 98.5935C19.0841 98.5598 19.1288 98.5109 19.1573 98.4526V98.456ZM15.5728 91.5692V87.5051C15.5728 87.4149 15.5369 87.3284 15.4732 87.2646C15.4094 87.2008 15.3229 87.165 15.2327 87.165C15.1425 87.165 15.056 87.2008 14.9922 87.2646C14.9284 87.3284 14.8926 87.4149 14.8926 87.5051V91.5692C14.8926 91.6594 14.9284 91.7459 14.9922 91.8097C15.056 91.8734 15.1425 91.9093 15.2327 91.9093C15.3229 91.9093 15.4094 91.8734 15.4732 91.8097C15.5369 91.7459 15.5728 91.6594 15.5728 91.5692ZM15.5728 83.4444V79.3804C15.5728 79.2902 15.5369 79.2037 15.4732 79.1399C15.4094 79.0761 15.3229 79.0403 15.2327 79.0403C15.1425 79.0403 15.056 79.0761 14.9922 79.1399C14.9284 79.2037 14.8926 79.2902 14.8926 79.3804V83.4444C14.8926 83.5346 14.9284 83.6211 14.9922 83.6849C15.056 83.7487 15.1425 83.7845 15.2327 83.7845C15.3229 83.7845 15.4094 83.7487 15.4732 83.6849C15.5369 83.6211 15.5728 83.5346 15.5728 83.4444ZM15.5728 75.3163V73.6158C15.5691 72.8894 15.7835 72.1785 16.1883 71.5753C16.2384 71.5 16.2565 71.4079 16.2386 71.3192C16.2208 71.2306 16.1684 71.1526 16.0931 71.1026C16.0178 71.0525 15.9257 71.0344 15.837 71.0523C15.7484 71.0701 15.6704 71.1225 15.6204 71.1978C15.1443 71.9092 14.891 72.7463 14.8926 73.6022V75.3027C14.8926 75.3929 14.9284 75.4794 14.9922 75.5432C15.056 75.6069 15.1425 75.6428 15.2327 75.6428C15.3229 75.6428 15.4094 75.6069 15.4732 75.5432C15.5369 75.4794 15.5728 75.3929 15.5728 75.3027V75.3163ZM153.513 69.6674C153.556 69.6532 153.595 69.6307 153.629 69.6013C153.663 69.5719 153.69 69.5361 153.71 69.496C153.73 69.4558 153.742 69.4122 153.745 69.3675C153.748 69.3227 153.742 69.2779 153.727 69.2355C153.699 69.1505 153.638 69.0802 153.557 69.0401C153.477 69 153.384 68.9932 153.299 69.0212C152.798 69.1871 152.273 69.2709 151.745 69.2695H149.364C149.274 69.2695 149.187 69.3053 149.124 69.3691C149.06 69.4329 149.024 69.5194 149.024 69.6096C149.024 69.6998 149.06 69.7863 149.124 69.8501C149.187 69.9138 149.274 69.9497 149.364 69.9497H151.745C152.345 69.9497 152.942 69.8545 153.513 69.6674ZM145.647 69.6096C145.647 69.5194 145.611 69.4329 145.547 69.3691C145.484 69.3053 145.397 69.2695 145.307 69.2695H141.246C141.156 69.2695 141.069 69.3053 141.006 69.3691C140.942 69.4329 140.906 69.5194 140.906 69.6096C140.906 69.6998 140.942 69.7863 141.006 69.8501C141.069 69.9138 141.156 69.9497 141.246 69.9497H145.307C145.397 69.9497 145.484 69.9138 145.547 69.8501C145.611 69.7863 145.647 69.6998 145.647 69.6096ZM137.522 69.6096C137.522 69.5194 137.486 69.4329 137.423 69.3691C137.359 69.3053 137.272 69.2695 137.182 69.2695H133.121C133.031 69.2695 132.945 69.3053 132.881 69.3691C132.817 69.4329 132.781 69.5194 132.781 69.6096C132.781 69.6998 132.817 69.7863 132.881 69.8501C132.945 69.9138 133.031 69.9497 133.121 69.9497H137.182C137.272 69.9497 137.359 69.9138 137.423 69.8501C137.486 69.7863 137.522 69.6998 137.522 69.6096ZM129.397 69.6096C129.397 69.5194 129.362 69.4329 129.298 69.3691C129.234 69.3053 129.148 69.2695 129.057 69.2695H124.993C124.903 69.2695 124.817 69.3053 124.753 69.3691C124.689 69.4329 124.653 69.5194 124.653 69.6096C124.653 69.6998 124.689 69.7863 124.753 69.8501C124.817 69.9138 124.903 69.9497 124.993 69.9497H129.057C129.148 69.9497 129.234 69.9138 129.298 69.8501C129.362 69.7863 129.397 69.6998 129.397 69.6096ZM121.273 69.6096C121.273 69.5194 121.237 69.4329 121.173 69.3691C121.109 69.3053 121.023 69.2695 120.933 69.2695H116.852C116.761 69.2695 116.675 69.3053 116.611 69.3691C116.547 69.4329 116.511 69.5194 116.511 69.6096C116.511 69.6998 116.547 69.7863 116.611 69.8501C116.675 69.9138 116.761 69.9497 116.852 69.9497H120.933C121.023 69.9497 121.109 69.9138 121.173 69.8501C121.237 69.7863 121.273 69.6998 121.273 69.6096ZM113.148 69.6096C113.148 69.5194 113.112 69.4329 113.048 69.3691C112.985 69.3053 112.898 69.2695 112.808 69.2695H108.744C108.654 69.2695 108.567 69.3053 108.503 69.3691C108.439 69.4329 108.404 69.5194 108.404 69.6096C108.404 69.6998 108.439 69.7863 108.503 69.8501C108.567 69.9138 108.654 69.9497 108.744 69.9497H112.808C112.898 69.9497 112.985 69.9138 113.048 69.8501C113.112 69.7863 113.148 69.6998 113.148 69.6096ZM105.02 69.6096C105.02 69.5194 104.984 69.4329 104.92 69.3691C104.856 69.3053 104.77 69.2695 104.68 69.2695H100.619C100.529 69.2695 100.442 69.3053 100.379 69.3691C100.315 69.4329 100.279 69.5194 100.279 69.6096C100.279 69.6998 100.315 69.7863 100.379 69.8501C100.442 69.9138 100.529 69.9497 100.619 69.9497H104.68C104.77 69.9497 104.856 69.9138 104.92 69.8501C104.984 69.7863 105.02 69.6998 105.02 69.6096ZM96.895 69.6096C96.895 69.5194 96.8592 69.4329 96.7954 69.3691C96.7316 69.3053 96.6451 69.2695 96.5549 69.2695H92.4943C92.4041 69.2695 92.3176 69.3053 92.2538 69.3691C92.19 69.4329 92.1542 69.5194 92.1542 69.6096C92.1542 69.6998 92.19 69.7863 92.2538 69.8501C92.3176 69.9138 92.4041 69.9497 92.4943 69.9497H96.5549C96.6451 69.9497 96.7316 69.9138 96.7954 69.8501C96.8592 69.7863 96.895 69.6998 96.895 69.6096ZM88.7703 69.6096C88.7703 69.5194 88.7345 69.4329 88.6707 69.3691C88.6069 69.3053 88.5204 69.2695 88.4302 69.2695H84.3797C84.2895 69.2695 84.203 69.3053 84.1393 69.3691C84.0755 69.4329 84.0396 69.5194 84.0396 69.6096C84.0396 69.6998 84.0755 69.7863 84.1393 69.8501C84.203 69.9138 84.2895 69.9497 84.3797 69.9497H88.4608C88.5456 69.942 88.6244 69.9028 88.6817 69.8399C88.739 69.7769 88.7706 69.6947 88.7703 69.6096ZM80.6455 69.6096C80.6455 69.5194 80.6097 69.4329 80.5459 69.3691C80.4822 69.3053 80.3957 69.2695 80.3055 69.2695H76.2244C76.1342 69.2695 76.0477 69.3053 75.9839 69.3691C75.9201 69.4329 75.8843 69.5194 75.8843 69.6096C75.8843 69.6998 75.9201 69.7863 75.9839 69.8501C76.0477 69.9138 76.1342 69.9497 76.2244 69.9497H80.3055C80.3945 69.9479 80.4792 69.9113 80.5415 69.8477C80.6039 69.7841 80.6388 69.6986 80.6387 69.6096H80.6455ZM72.5208 69.6096C72.5208 69.5194 72.485 69.4329 72.4212 69.3691C72.3574 69.3053 72.2709 69.2695 72.1807 69.2695H68.1166C68.0264 69.2695 67.9399 69.3053 67.8762 69.3691C67.8124 69.4329 67.7765 69.5194 67.7765 69.6096C67.7765 69.6998 67.8124 69.7863 67.8762 69.8501C67.9399 69.9138 68.0264 69.9497 68.1166 69.9497H72.1807C72.2709 69.9497 72.3574 69.9138 72.4212 69.8501C72.485 69.7863 72.5208 69.6998 72.5208 69.6096ZM64.3927 69.6096C64.3927 69.5194 64.3568 69.4329 64.293 69.3691C64.2293 69.3053 64.1428 69.2695 64.0526 69.2695H59.9919C59.9017 69.2695 59.8152 69.3053 59.7514 69.3691C59.6876 69.4329 59.6518 69.5194 59.6518 69.6096C59.6518 69.6998 59.6876 69.7863 59.7514 69.8501C59.8152 69.9138 59.9017 69.9497 59.9919 69.9497H64.0526C64.1428 69.9497 64.2293 69.9138 64.293 69.8501C64.3568 69.7863 64.3927 69.6998 64.3927 69.6096ZM56.2679 69.6096C56.2679 69.5194 56.2321 69.4329 56.1683 69.3691C56.1045 69.3053 56.018 69.2695 55.9278 69.2695H51.8671C51.7769 69.2695 51.6904 69.3053 51.6267 69.3691C51.5629 69.4329 51.5271 69.5194 51.5271 69.6096C51.5271 69.6998 51.5629 69.7863 51.6267 69.8501C51.6904 69.9138 51.7769 69.9497 51.8671 69.9497H55.9278C56.018 69.9497 56.1045 69.9138 56.1683 69.8501C56.2321 69.7863 56.2679 69.6998 56.2679 69.6096ZM48.1432 69.6096C48.1432 69.5194 48.1073 69.4329 48.0436 69.3691C47.9798 69.3053 47.8933 69.2695 47.8031 69.2695H43.739C43.6488 69.2695 43.5623 69.3053 43.4985 69.3691C43.4347 69.4329 43.3989 69.5194 43.3989 69.6096C43.3989 69.6998 43.4347 69.7863 43.4985 69.8501C43.5623 69.9138 43.6488 69.9497 43.739 69.9497H47.8031C47.8933 69.9497 47.9798 69.9138 48.0436 69.8501C48.1073 69.7863 48.1432 69.6998 48.1432 69.6096ZM40.0184 69.6096C40.0184 69.5194 39.9826 69.4329 39.9188 69.3691C39.855 69.3053 39.7685 69.2695 39.6783 69.2695H35.5972C35.5071 69.2695 35.4205 69.3053 35.3568 69.3691C35.293 69.4329 35.2572 69.5194 35.2572 69.6096C35.2572 69.6998 35.293 69.7863 35.3568 69.8501C35.4205 69.9138 35.5071 69.9497 35.5972 69.9497H39.6783C39.7685 69.9497 39.855 69.9138 39.9188 69.8501C39.9826 69.7863 40.0184 69.6998 40.0184 69.6096ZM31.8937 69.6096C31.8937 69.5194 31.8578 69.4329 31.7941 69.3691C31.7303 69.3053 31.6438 69.2695 31.5536 69.2695H27.4725C27.3823 69.2695 27.2958 69.3053 27.232 69.3691C27.1682 69.4329 27.1324 69.5194 27.1324 69.6096C27.1324 69.6998 27.1682 69.7863 27.232 69.8501C27.2958 69.9138 27.3823 69.9497 27.4725 69.9497H31.5536C31.6438 69.9497 31.7303 69.9138 31.7941 69.8501C31.8578 69.7863 31.8937 69.6998 31.8937 69.6096ZM23.7655 69.6096C23.7655 69.5194 23.7297 69.4329 23.6659 69.3691C23.6021 69.3053 23.5156 69.2695 23.4254 69.2695H19.3648C19.2746 69.2695 19.1881 69.3053 19.1243 69.3691C19.0605 69.4329 19.0247 69.5194 19.0247 69.6096C19.0247 69.6998 19.0605 69.7863 19.1243 69.8501C19.1881 69.9138 19.2746 69.9497 19.3648 69.9497H23.4254C23.5156 69.9497 23.6021 69.9138 23.6659 69.8501C23.7297 69.7863 23.7655 69.6998 23.7655 69.6096ZM156.741 66.9331C157.161 66.1302 157.38 65.2375 157.38 64.3314V62.8112C157.38 62.721 157.344 62.6345 157.28 62.5707C157.217 62.5069 157.13 62.4711 157.04 62.4711C156.95 62.4711 156.863 62.5069 156.799 62.5707C156.736 62.6345 156.7 62.721 156.7 62.8112V64.3314C156.7 65.1273 156.508 65.9115 156.139 66.6168C156.117 66.6564 156.103 66.7 156.098 66.7451C156.093 66.7902 156.097 66.8358 156.11 66.8792C156.123 66.9226 156.145 66.9631 156.173 66.9981C156.202 67.0331 156.238 67.062 156.278 67.083C156.318 67.1041 156.362 67.117 156.407 67.1208C156.452 67.1247 156.498 67.1195 156.541 67.1055C156.584 67.0915 156.624 67.0691 156.658 67.0395C156.692 67.0099 156.72 66.9737 156.741 66.9331ZM157.38 58.7471V54.6864C157.38 54.5962 157.344 54.5097 157.28 54.446C157.217 54.3822 157.13 54.3463 157.04 54.3463C156.95 54.3463 156.863 54.3822 156.799 54.446C156.736 54.5097 156.7 54.5962 156.7 54.6864V58.7471C156.7 58.8373 156.736 58.9238 156.799 58.9876C156.863 59.0514 156.95 59.0872 157.04 59.0872C157.13 59.0872 157.217 59.0514 157.28 58.9876C157.344 58.9238 157.38 58.8373 157.38 58.7471ZM157.38 50.6224V49.2144C157.386 48.2647 157.152 47.3288 156.7 46.4937C156.678 46.4546 156.649 46.4201 156.614 46.3923C156.579 46.3645 156.539 46.3438 156.496 46.3315C156.453 46.3192 156.408 46.3155 156.364 46.3205C156.319 46.3256 156.276 46.3394 156.237 46.361C156.159 46.4047 156.102 46.4774 156.077 46.5634C156.052 46.6493 156.062 46.7416 156.105 46.8202C156.504 47.5501 156.713 48.3687 156.713 49.2008V50.6088C156.713 50.699 156.749 50.7855 156.813 50.8492C156.877 50.913 156.963 50.9489 157.054 50.9489C157.144 50.9489 157.23 50.913 157.294 50.8492C157.358 50.7855 157.394 50.699 157.394 50.6088L157.38 50.6224ZM153.639 44.2661C153.666 44.1799 153.657 44.0868 153.615 44.0071C153.573 43.9274 153.501 43.8676 153.415 43.841C152.879 43.6777 152.322 43.5952 151.762 43.5961H149.276C149.185 43.5961 149.099 43.6319 149.035 43.6957C148.971 43.7595 148.936 43.846 148.936 43.9362C148.936 44.0264 148.971 44.1129 149.035 44.1767C149.099 44.2405 149.185 44.2763 149.276 44.2763H151.762C152.254 44.2749 152.744 44.3483 153.214 44.4939C153.248 44.4991 153.282 44.4991 153.316 44.4939C153.384 44.4909 153.449 44.4676 153.504 44.427C153.558 44.3864 153.6 44.3303 153.622 44.2661H153.639ZM145.555 43.926C145.555 43.8358 145.519 43.7493 145.455 43.6855C145.392 43.6217 145.305 43.5859 145.215 43.5859H141.134C141.044 43.5859 140.957 43.6217 140.893 43.6855C140.83 43.7493 140.794 43.8358 140.794 43.926C140.794 44.0162 140.83 44.1027 140.893 44.1665C140.957 44.2303 141.044 44.2661 141.134 44.2661H145.198C145.286 44.2661 145.371 44.2317 145.435 44.1701C145.498 44.1085 145.535 44.0246 145.538 43.9362L145.555 43.926ZM137.427 43.926C137.427 43.8358 137.391 43.7493 137.327 43.6855C137.264 43.6217 137.177 43.5859 137.087 43.5859H133.013C132.922 43.5859 132.836 43.6217 132.772 43.6855C132.708 43.7493 132.672 43.8358 132.672 43.926C132.672 44.0162 132.708 44.1027 132.772 44.1665C132.836 44.2303 132.922 44.2661 133.013 44.2661H137.073C137.161 44.2652 137.245 44.2304 137.308 44.1689C137.371 44.1074 137.407 44.024 137.41 43.9362L137.427 43.926ZM129.302 43.926C129.302 43.8358 129.266 43.7493 129.203 43.6855C129.139 43.6217 129.052 43.5859 128.962 43.5859H124.884C124.794 43.5859 124.708 43.6217 124.644 43.6855C124.58 43.7493 124.544 43.8358 124.544 43.926C124.544 44.0162 124.58 44.1027 124.644 44.1665C124.708 44.2303 124.794 44.2661 124.884 44.2661H128.931C129.02 44.2661 129.105 44.2317 129.168 44.1701C129.232 44.1085 129.269 44.0246 129.272 43.9362L129.302 43.926ZM121.177 43.926C121.177 43.8358 121.142 43.7493 121.078 43.6855C121.014 43.6217 120.928 43.5859 120.837 43.5859H116.756C116.666 43.5859 116.58 43.6217 116.516 43.6855C116.452 43.7493 116.416 43.8358 116.416 43.926C116.416 44.0162 116.452 44.1027 116.516 44.1665C116.58 44.2303 116.666 44.2661 116.756 44.2661H120.82C120.909 44.2661 120.994 44.2317 121.057 44.1701C121.121 44.1085 121.158 44.0246 121.16 43.9362L121.177 43.926ZM113.053 43.926C113.053 43.8358 113.017 43.7493 112.953 43.6855C112.889 43.6217 112.803 43.5859 112.713 43.5859H108.632C108.541 43.5859 108.455 43.6217 108.391 43.6855C108.327 43.7493 108.291 43.8358 108.291 43.926C108.291 44.0162 108.327 44.1027 108.391 44.1665C108.455 44.2303 108.541 44.2661 108.632 44.2661H112.696C112.784 44.2661 112.869 44.2317 112.933 44.1701C112.996 44.1085 113.033 44.0246 113.036 43.9362L113.053 43.926ZM104.928 43.926C104.928 43.8358 104.892 43.7493 104.828 43.6855C104.765 43.6217 104.678 43.5859 104.588 43.5859H100.507C100.417 43.5859 100.33 43.6217 100.266 43.6855C100.203 43.7493 100.167 43.8358 100.167 43.926C100.167 44.0162 100.203 44.1027 100.266 44.1665C100.33 44.2303 100.417 44.2661 100.507 44.2661H104.571C104.659 44.2661 104.744 44.2317 104.808 44.1701C104.871 44.1085 104.908 44.0246 104.911 43.9362L104.928 43.926ZM96.7998 43.926C96.7998 43.8358 96.764 43.7493 96.7002 43.6855C96.6364 43.6217 96.5499 43.5859 96.4597 43.5859H92.382C92.2918 43.5859 92.2053 43.6217 92.1416 43.6855C92.0778 43.7493 92.0419 43.8358 92.0419 43.926C92.0419 44.0162 92.0778 44.1027 92.1416 44.1665C92.2053 44.2303 92.2918 44.2661 92.382 44.2661H96.4427C96.5312 44.2661 96.6162 44.2317 96.6797 44.1701C96.7431 44.1085 96.7802 44.0246 96.7828 43.9362L96.7998 43.926ZM88.6751 43.926C88.6751 43.8358 88.6392 43.7493 88.5754 43.6855C88.5117 43.6217 88.4252 43.5859 88.335 43.5859H84.2573C84.1671 43.5859 84.0806 43.6217 84.0168 43.6855C83.953 43.7493 83.9172 43.8358 83.9172 43.926C83.9172 44.0162 83.953 44.1027 84.0168 44.1665C84.0806 44.2303 84.1671 44.2661 84.2573 44.2661H88.318C88.4064 44.2661 88.4914 44.2317 88.5549 44.1701C88.6184 44.1085 88.6554 44.0246 88.6581 43.9362L88.6751 43.926ZM80.5503 43.926C80.5503 43.8358 80.5145 43.7493 80.4507 43.6855C80.3869 43.6217 80.3004 43.5859 80.2102 43.5859H76.1292C76.039 43.5859 75.9525 43.6217 75.8887 43.6855C75.8249 43.7493 75.7891 43.8358 75.7891 43.926C75.7891 44.0162 75.8249 44.1027 75.8887 44.1665C75.9525 44.2303 76.039 44.2661 76.1292 44.2661H80.1932C80.2817 44.2661 80.3667 44.2317 80.4302 44.1701C80.4937 44.1085 80.5307 44.0246 80.5333 43.9362L80.5503 43.926ZM72.4256 43.926C72.4256 43.8358 72.3897 43.7493 72.326 43.6855C72.2622 43.6217 72.1757 43.5859 72.0855 43.5859H68.0044C67.9142 43.5859 67.8277 43.6217 67.7639 43.6855C67.7001 43.7493 67.6643 43.8358 67.6643 43.926C67.6643 44.0162 67.7001 44.1027 67.7639 44.1665C67.8277 44.2303 67.9142 44.2661 68.0044 44.2661H72.0855C72.171 44.2618 72.2517 44.2255 72.3116 44.1644C72.3715 44.1032 72.4061 44.0218 72.4086 43.9362L72.4256 43.926ZM64.3008 43.926C64.3008 43.8358 64.265 43.7493 64.2012 43.6855C64.1374 43.6217 64.0509 43.5859 63.9607 43.5859H59.8933C59.8031 43.5859 59.7166 43.6217 59.6528 43.6855C59.589 43.7493 59.5532 43.8358 59.5532 43.926C59.5532 44.0162 59.589 44.1027 59.6528 44.1665C59.7166 44.2303 59.8031 44.2661 59.8933 44.2661H63.9573C64.0434 44.2627 64.125 44.2267 64.1856 44.1655C64.2462 44.1043 64.2813 44.0223 64.2838 43.9362L64.3008 43.926ZM56.1727 43.926C56.1727 43.8358 56.1369 43.7493 56.0731 43.6855C56.0093 43.6217 55.9228 43.5859 55.8326 43.5859H51.7549C51.6647 43.5859 51.5782 43.6217 51.5144 43.6855C51.4507 43.7493 51.4148 43.8358 51.4148 43.926C51.4148 44.0162 51.4507 44.1027 51.5144 44.1665C51.5782 44.2303 51.6647 44.2661 51.7549 44.2661H55.8122C55.9006 44.2661 55.9856 44.2317 56.0491 44.1701C56.1126 44.1085 56.1496 44.0246 56.1523 43.9362L56.1727 43.926ZM48.0479 43.926C48.0479 43.8358 48.0121 43.7493 47.9483 43.6855C47.8845 43.6217 47.798 43.5859 47.7078 43.5859H43.6302C43.54 43.5859 43.4535 43.6217 43.3897 43.6855C43.3259 43.7493 43.2901 43.8358 43.2901 43.926C43.2901 44.0162 43.3259 44.1027 43.3897 44.1665C43.4535 44.2303 43.54 44.2661 43.6302 44.2661H47.6908C47.7793 44.2661 47.8643 44.2317 47.9278 44.1701C47.9913 44.1085 48.0283 44.0246 48.0309 43.9362L48.0479 43.926ZM39.9232 43.926C39.9232 43.8358 39.8874 43.7493 39.8236 43.6855C39.7598 43.6217 39.6733 43.5859 39.5831 43.5859H35.502C35.4118 43.5859 35.3253 43.6217 35.2615 43.6855C35.1978 43.7493 35.1619 43.8358 35.1619 43.926C35.1619 44.0162 35.1978 44.1027 35.2615 44.1665C35.3253 44.2303 35.4118 44.2661 35.502 44.2661H39.5661C39.6546 44.2661 39.7395 44.2317 39.803 44.1701C39.8665 44.1085 39.9035 44.0246 39.9062 43.9362L39.9232 43.926ZM32.0331 42.9057C32.065 42.8741 32.0903 42.8365 32.1076 42.7951C32.1248 42.7536 32.1337 42.7092 32.1337 42.6643C32.1337 42.6194 32.1248 42.5749 32.1076 42.5335C32.0903 42.492 32.065 42.4544 32.0331 42.4228C31.6171 42.0293 31.2863 41.5546 31.0611 41.0281C30.8359 40.5017 30.7211 39.9346 30.7238 39.362V38.9947C30.7238 38.9045 30.6879 38.818 30.6242 38.7542C30.5604 38.6904 30.4739 38.6546 30.3837 38.6546C30.2935 38.6546 30.207 38.6904 30.1432 38.7542C30.0794 38.818 30.0436 38.9045 30.0436 38.9947V39.362C30.0411 40.0263 30.1747 40.684 30.4361 41.2946C30.6976 41.9053 31.0813 42.4559 31.5638 42.9125C31.6268 42.9733 31.7109 43.0074 31.7984 43.0078C31.8769 42.9999 31.9503 42.9651 32.0059 42.9091L32.0331 42.9057ZM30.7102 34.9374V30.8768C30.7102 30.7866 30.6743 30.7001 30.6106 30.6363C30.5468 30.5725 30.4603 30.5367 30.3701 30.5367C30.2799 30.5367 30.1934 30.5725 30.1296 30.6363C30.0658 30.7001 30.03 30.7866 30.03 30.8768V34.9408C30.03 35.031 30.0658 35.1175 30.1296 35.1813C30.1934 35.2451 30.2799 35.2809 30.3701 35.2809C30.4603 35.2809 30.5468 35.2451 30.6106 35.1813C30.6743 35.1175 30.7102 35.031 30.7102 34.9408V34.9374ZM30.7102 26.8093V25.9591C30.7087 24.9486 31.0095 23.9608 31.574 23.1227C31.5988 23.0841 31.6157 23.0409 31.6238 22.9958C31.6319 22.9506 31.6311 22.9042 31.6213 22.8594C31.6115 22.8146 31.593 22.7721 31.5668 22.7344C31.5406 22.6967 31.5072 22.6646 31.4686 22.6398C31.4299 22.615 31.3868 22.5981 31.3416 22.5899C31.2964 22.5818 31.2501 22.5827 31.2053 22.5925C31.1604 22.6023 31.1179 22.6208 31.0803 22.647C31.0426 22.6732 31.0104 22.7066 30.9856 22.7452C30.3433 23.695 30.0009 24.8158 30.0028 25.9625V26.8127C30.0028 26.9029 30.0386 26.9894 30.1024 27.0532C30.1662 27.1169 30.2527 27.1528 30.3429 27.1528C30.4331 27.1528 30.5196 27.1169 30.5833 27.0532C30.6471 26.9894 30.683 26.9029 30.683 26.8127L30.7102 26.8093ZM34.6348 21.0278C35.0139 20.9393 35.4019 20.8948 35.7911 20.8951H38.6104C38.7006 20.8951 38.7871 20.8593 38.8509 20.7955C38.9147 20.7317 38.9505 20.6452 38.9505 20.555C38.9505 20.4648 38.9147 20.3783 38.8509 20.3145C38.7871 20.2508 38.7006 20.2149 38.6104 20.2149H35.7911C35.3504 20.2152 34.9112 20.2654 34.4818 20.3646C34.4382 20.3746 34.397 20.3931 34.3606 20.4191C34.3242 20.445 34.2933 20.4779 34.2696 20.5158C34.2459 20.5537 34.23 20.5959 34.2226 20.6399C34.2152 20.684 34.2166 20.7291 34.2267 20.7727C34.2446 20.8488 34.2883 20.9164 34.3502 20.964C34.4121 21.0117 34.4886 21.0366 34.5668 21.0346C34.5844 21.0294 34.6015 21.0225 34.6178 21.0141L34.6348 21.0278ZM42.7255 20.8135C43.4383 20.6875 44.1192 20.422 44.7291 20.0321C45.339 19.6423 45.8659 19.1357 46.2795 18.5417C46.3308 18.4677 46.3506 18.3764 46.3347 18.2878C46.3187 18.1991 46.2683 18.1205 46.1945 18.069C46.1204 18.0177 46.0291 17.9978 45.9405 18.0138C45.8519 18.0297 45.7732 18.0801 45.7217 18.154C44.9893 19.2036 43.87 19.9192 42.6099 20.1435C42.5197 20.1512 42.4362 20.1944 42.3779 20.2636C42.3195 20.3328 42.2911 20.4223 42.2987 20.5125C42.3064 20.6027 42.3496 20.6862 42.4188 20.7445C42.488 20.8029 42.5775 20.8314 42.6677 20.8237L42.7255 20.8135ZM47.2419 14.4606V11.6991C47.242 11.2931 47.2923 10.8888 47.3916 10.4952C47.4075 10.4506 47.4139 10.4031 47.4104 10.3559C47.4069 10.3087 47.3936 10.2628 47.3713 10.221C47.349 10.1792 47.3183 10.1425 47.281 10.1133C47.2437 10.0841 47.2008 10.063 47.1549 10.0514C47.109 10.0397 47.0612 10.0378 47.0145 10.0457C46.9678 10.0536 46.9233 10.0711 46.8838 10.0972C46.8443 10.1233 46.8107 10.1574 46.7851 10.1972C46.7595 10.237 46.7425 10.2818 46.7352 10.3285C46.6202 10.7729 46.562 11.2299 46.5617 11.6889V14.4504C46.5617 14.5406 46.5976 14.6271 46.6614 14.6909C46.7251 14.7547 46.8116 14.7905 46.9018 14.7905C46.992 14.7905 47.0785 14.7547 47.1423 14.6909C47.2061 14.6271 47.2419 14.5406 47.2419 14.4504V14.4606ZM49.6226 7.55339C50.3546 7.12711 51.1867 6.90294 52.0338 6.90382H53.3941C53.4843 6.90382 53.5709 6.86799 53.6346 6.80421C53.6984 6.74043 53.7342 6.65393 53.7342 6.56373C53.7342 6.47354 53.6984 6.38703 53.6346 6.32325C53.5709 6.25947 53.4843 6.22364 53.3941 6.22364H52.0338C51.0661 6.22254 50.1155 6.47839 49.2791 6.96504C49.2404 6.98754 49.2065 7.01746 49.1794 7.05307C49.1523 7.08869 49.1325 7.1293 49.1211 7.17258C49.1098 7.21587 49.107 7.26097 49.1131 7.30531C49.1192 7.34965 49.134 7.39235 49.1566 7.43096C49.1791 7.46965 49.209 7.50351 49.2447 7.53061C49.2803 7.55772 49.3209 7.57752 49.3642 7.5889C49.4075 7.60027 49.4526 7.60299 49.4969 7.5969C49.5412 7.5908 49.5839 7.57602 49.6226 7.55339ZM118.729 6.56373C118.729 6.47354 118.693 6.38703 118.629 6.32325C118.565 6.25947 118.479 6.22364 118.389 6.22364H114.331C114.241 6.22364 114.155 6.25947 114.091 6.32325C114.027 6.38703 113.991 6.47354 113.991 6.56373C113.991 6.65393 114.027 6.74043 114.091 6.80421C114.155 6.86799 114.241 6.90382 114.331 6.90382H118.389C118.479 6.90382 118.565 6.86799 118.629 6.80421C118.693 6.74043 118.729 6.65393 118.729 6.56373ZM110.604 6.56373C110.604 6.47354 110.568 6.38703 110.504 6.32325C110.441 6.25947 110.354 6.22364 110.264 6.22364H106.207C106.116 6.22364 106.03 6.25947 105.966 6.32325C105.902 6.38703 105.867 6.47354 105.867 6.56373C105.867 6.65393 105.902 6.74043 105.966 6.80421C106.03 6.86799 106.116 6.90382 106.207 6.90382H110.271C110.361 6.90382 110.447 6.86799 110.511 6.80421C110.575 6.74043 110.611 6.65393 110.611 6.56373H110.604ZM102.479 6.56373C102.479 6.47354 102.443 6.38703 102.38 6.32325C102.316 6.25947 102.229 6.22364 102.139 6.22364H98.0819C97.9918 6.22364 97.9052 6.25947 97.8415 6.32325C97.7777 6.38703 97.7419 6.47354 97.7419 6.56373C97.7419 6.65393 97.7777 6.74043 97.8415 6.80421C97.9052 6.86799 97.9918 6.90382 98.0819 6.90382H102.146C102.236 6.90382 102.323 6.86799 102.386 6.80421C102.45 6.74043 102.486 6.65393 102.486 6.56373H102.479ZM94.3512 6.56373C94.3512 6.47354 94.3153 6.38703 94.2515 6.32325C94.1878 6.25947 94.1013 6.22364 94.0111 6.22364H89.9572C89.867 6.22364 89.7805 6.25947 89.7167 6.32325C89.6529 6.38703 89.6171 6.47354 89.6171 6.56373C89.6171 6.65393 89.6529 6.74043 89.7167 6.80421C89.7805 6.86799 89.867 6.90382 89.9572 6.90382H94.0179C94.1081 6.90382 94.1946 6.86799 94.2584 6.80421C94.3221 6.74043 94.358 6.65393 94.358 6.56373H94.3512ZM86.2264 6.56373C86.2264 6.47354 86.1906 6.38703 86.1268 6.32325C86.063 6.25947 85.9765 6.22364 85.8863 6.22364H81.8325C81.7423 6.22364 81.6558 6.25947 81.592 6.32325C81.5282 6.38703 81.4924 6.47354 81.4924 6.56373C81.4924 6.65393 81.5282 6.74043 81.592 6.80421C81.6558 6.86799 81.7423 6.90382 81.8325 6.90382H85.8931C85.9833 6.90382 86.0698 6.86799 86.1336 6.80421C86.1974 6.74043 86.2332 6.65393 86.2332 6.56373H86.2264ZM78.1017 6.56373C78.1017 6.47354 78.0658 6.38703 78.0021 6.32325C77.9383 6.25947 77.8518 6.22364 77.7616 6.22364H73.7043C73.6141 6.22364 73.5276 6.25947 73.4638 6.32325C73.4001 6.38703 73.3642 6.47354 73.3642 6.56373C73.3642 6.65393 73.4001 6.74043 73.4638 6.80421C73.5276 6.86799 73.6141 6.90382 73.7043 6.90382H77.7684C77.8586 6.90382 77.9451 6.86799 78.0089 6.80421C78.0726 6.74043 78.1085 6.65393 78.1085 6.56373H78.1017ZM69.9769 6.56373C69.9769 6.47354 69.9411 6.38703 69.8773 6.32325C69.8135 6.25947 69.727 6.22364 69.6368 6.22364H65.5796C65.4894 6.22364 65.4029 6.25947 65.3391 6.32325C65.2753 6.38703 65.2395 6.47354 65.2395 6.56373C65.2395 6.65393 65.2753 6.74043 65.3391 6.80421C65.4029 6.86799 65.4894 6.90382 65.5796 6.90382H69.6436C69.7338 6.90382 69.8203 6.86799 69.8841 6.80421C69.9479 6.74043 69.9837 6.65393 69.9837 6.56373H69.9769ZM61.8522 6.56373C61.8522 6.47354 61.8163 6.38703 61.7526 6.32325C61.6888 6.25947 61.6023 6.22364 61.5121 6.22364H57.4548C57.3646 6.22364 57.2781 6.25947 57.2143 6.32325C57.1506 6.38703 57.1147 6.47354 57.1147 6.56373C57.1147 6.65393 57.1506 6.74043 57.2143 6.80421C57.2781 6.86799 57.3646 6.90382 57.4548 6.90382H61.5189C61.6091 6.90382 61.6956 6.86799 61.7594 6.80421C61.8232 6.74043 61.859 6.65393 61.859 6.56373H61.8522ZM112.573 95.6162V93.5757C112.573 93.4855 112.537 93.399 112.474 93.3352C112.41 93.2714 112.323 93.2356 112.233 93.2356C112.143 93.2356 112.056 93.2714 111.993 93.3352C111.929 93.399 111.893 93.4855 111.893 93.5757V95.6162C111.893 95.7064 111.929 95.7929 111.993 95.8567C112.056 95.9205 112.143 95.9563 112.233 95.9563C112.323 95.9563 112.41 95.9205 112.474 95.8567C112.537 95.7929 112.573 95.7064 112.573 95.6162Z" fill="black"/>
<path opacity="0.1" d="M23.973 43.1233V41.3821H22.8507V43.1233H20.0415V41.3821H18.9192V43.1233H16.1101V41.3821H15.0014V43.1233H13.7737V53.6661H25.1837V43.1233H23.973ZM17.382 51.2719H15.583V49.4728H17.382V51.2719ZM17.382 48.4253H15.583V46.6263H17.382V48.4253ZM20.3782 51.2719H18.5791V49.4728H20.3782V51.2719ZM20.3782 48.4253H18.5791V46.6263H20.3782V48.4253ZM23.3744 51.2719H21.5753V49.4728H23.3744V51.2719ZM23.3744 48.4253H21.5753V46.6263H23.3744V48.4253Z" fill="black"/>
<path opacity="0.1" d="M89.9504 129.166V127.425H88.8281V129.166H86.0189V127.425H84.8966V129.166H82.0875V127.425H80.9788V129.166H79.7681V139.709H91.1781V129.166H89.9504ZM83.3594 137.328H81.5604V135.529H83.3594V137.328ZM83.3594 134.482H81.5604V132.669H83.3594V134.482ZM86.3556 137.328H84.5566V135.529H86.3556V137.328ZM86.3556 134.482H84.5566V132.669H86.3556V134.482ZM89.3518 137.328H87.5527V135.529H89.3518V137.328ZM89.3518 134.482H87.5527V132.669H89.3518V134.482Z" fill="black"/>
<path opacity="0.1" d="M143.069 2.55402V0.816162H141.947V2.55402H139.134V0.816162H138.012V2.55402H135.206V0.816162H134.08V2.55402H132.87V13.0968H144.28V2.55402H143.069ZM136.478 10.7162H134.679V8.9035H136.478V10.7162ZM136.478 7.86962H134.679V6.05695H136.478V7.86962ZM139.474 10.7026H137.675V8.9035H139.474V10.7026ZM139.474 7.85602H137.675V6.05695H139.474V7.85602ZM142.47 10.7026H140.671V8.9035H142.47V10.7026ZM142.47 7.85602H140.671V6.05695H142.47V7.85602Z" fill="black"/>
<path d="M55.7782 16.3583H144.202C144.384 16.3578 144.566 16.3935 144.735 16.4632C144.904 16.5329 145.058 16.6353 145.187 16.7645C145.317 16.8937 145.42 17.0472 145.49 17.2162C145.56 17.3851 145.596 17.5663 145.596 17.7492V105.676H54.3872V17.7492C54.3872 17.5666 54.4232 17.3857 54.4931 17.2169C54.563 17.0482 54.6654 16.8948 54.7946 16.7657C54.9238 16.6365 55.0771 16.5341 55.2459 16.4642C55.4146 16.3943 55.5955 16.3583 55.7782 16.3583Z" fill="#E5E5E5"/>
<path d="M70.0143 46.2113C70.015 46.6791 69.8769 47.1365 69.6174 47.5257C69.3579 47.915 68.9888 48.2184 68.5568 48.3978C68.1248 48.5771 67.6492 48.6242 67.1904 48.5331C66.7316 48.442 66.3101 48.2168 65.9794 47.886C65.6486 47.5553 65.4234 47.1338 65.3323 46.675C65.2412 46.2162 65.2883 45.7406 65.4677 45.3086C65.647 44.8766 65.9505 44.5075 66.3397 44.248C66.7289 43.9885 67.1863 43.8504 67.6541 43.8511C68.2798 43.852 68.8796 44.1009 69.322 44.5434C69.7645 44.9858 70.0134 45.5856 70.0143 46.2113Z" fill="#CCCCCC"/>
<path d="M145.596 26.3297L133.791 37.6649C132.062 37.5187 130.323 37.5414 128.598 37.7329C128.519 37.7373 128.44 37.7253 128.366 37.6978C128.291 37.6703 128.223 37.6279 128.166 37.5731C125.956 35.8386 123.895 23.2043 123 16.3583H122.354C123.065 21.7997 125.143 36.0188 127.768 38.0798C127.893 38.1876 128.037 38.2691 128.194 38.3194C128.351 38.3696 128.516 38.3876 128.68 38.3723C130.172 38.1963 131.677 38.1576 133.176 38.2566L123.623 47.4391L110.182 37.4812C109.512 36.9846 108.684 36.7499 107.852 36.8213C107.021 36.8927 106.245 37.2653 105.669 37.8689C104.224 39.3823 103.129 40.6067 102.408 41.5079C101.456 42.6948 99.9524 44.5687 98.2758 46.6092L93.2799 42.586C96.2455 38.6749 98.8097 35.2945 100.323 33.5532C103.401 30.0129 110.526 21.0821 114.267 16.3719H113.444C109.638 21.1671 102.826 29.6966 99.8402 33.1315C98.3132 34.8863 95.7591 38.2702 92.7799 42.1881L85.9781 36.7092C86.0163 36.6444 86.0299 36.5681 86.0164 36.4941C86.0028 36.4201 85.9631 36.3535 85.9045 36.3064C85.8458 36.2593 85.7722 36.2349 85.697 36.2377C85.6219 36.2405 85.5502 36.2702 85.4952 36.3215L78.8159 30.9447C78.7837 30.9132 78.7453 30.8887 78.7032 30.8728C78.661 30.857 78.616 30.8501 78.5711 30.8527C78.5261 30.8552 78.4822 30.8672 78.4421 30.8877C78.402 30.9083 78.3667 30.937 78.3384 30.972C78.31 31.007 78.2893 31.0475 78.2776 31.091C78.2658 31.1344 78.2633 31.1799 78.2702 31.2244C78.277 31.2689 78.2931 31.3115 78.3174 31.3494C78.3417 31.3873 78.3736 31.4198 78.4111 31.4446L85.0905 36.8215C84.1349 38.0492 81.4515 41.5113 79.5368 44.096L61.6345 30.2951C61.5665 30.2491 61.4835 30.2307 61.4023 30.2437C61.3212 30.2566 61.2481 30.3001 61.1978 30.365C61.1476 30.43 61.124 30.5117 61.1318 30.5935C61.1396 30.6753 61.1783 30.751 61.24 30.8053L79.1559 44.6163C78.7614 45.1537 78.4111 45.6366 78.1357 46.0413C76.0135 49.1021 73.1738 52.0235 68.1914 50.4284C63.0901 48.796 62.4099 45.0448 62.4099 44.8884C62.3971 44.8122 62.3587 44.7426 62.3011 44.6911L57.6487 40.6951C57.9888 38.2124 58.3867 34.7265 58.822 29.8122C59.2845 24.6122 59.6484 19.4191 59.8422 16.3549H59.2131C58.6995 24.1769 57.9003 33.9681 57.0739 40.1986L54.6355 38.124V38.9742L56.9685 40.9808C56.5434 44.0416 56.1115 46.0821 55.7136 46.3644C55.3379 46.5384 54.9773 46.7431 54.6355 46.9765V47.7587C55.0548 47.4471 55.5036 47.1771 55.9754 46.9527C56.2509 46.8303 56.778 46.6126 57.5398 41.4705L61.7774 45.1128C61.9304 45.8304 62.9473 49.432 67.984 51.044C68.9088 51.3524 69.8761 51.5142 70.851 51.5235C74.5613 51.5235 76.9386 48.8912 78.6526 46.4222C78.9247 46.0277 79.2716 45.5516 79.6729 45.0244L86.5631 50.3366C82.8663 55.0979 79.2274 59.5191 76.6835 61.8997C73.6499 64.7224 69.8239 68.0213 66.7087 70.6672C62.3453 67.8036 58.254 64.7088 58.2064 64.668H58.186L58.1656 64.651L54.6559 62.7465V63.4777L57.1419 64.8381C56.5468 64.9877 55.6625 65.2019 54.6559 65.4094V66.0114C56.2169 65.6917 57.5024 65.355 57.9445 65.236C58.6621 65.7767 62.3011 68.494 66.2019 71.0583C63.2601 73.5443 61.0734 75.3332 61.0292 75.3706C60.9659 75.427 60.9259 75.505 60.9171 75.5893C60.9083 75.6736 60.9313 75.7581 60.9815 75.8264C61.0384 75.8891 61.1166 75.9285 61.2009 75.9366C61.2851 75.9448 61.3694 75.9212 61.4373 75.8706C61.4815 75.8332 63.7431 73.9797 66.7631 71.429C67.6609 72.0105 68.5621 72.5785 69.4396 73.1056L71.4801 74.3061C73.235 75.3434 75.3707 76.6086 77.4827 77.9383L71.3203 84.6347C71.28 84.6804 71.2528 84.7361 71.2415 84.7959C71.2301 84.8557 71.235 84.9175 71.2557 84.9748C71.2794 85.0301 71.3174 85.0782 71.3658 85.114C71.4142 85.1499 71.4713 85.1722 71.5311 85.1788C71.5889 85.1788 77.231 85.672 81.8154 92.1302C85.8047 97.7485 89.5899 102.472 96.2727 105.673H97.8371C90.4673 102.534 86.5189 97.6431 82.3392 91.7562C78.4384 86.2569 73.8607 84.934 72.2079 84.6143L78.037 78.2852C82.2508 80.9753 86.2298 83.8933 86.7025 85.7842C87.3827 88.5423 90.736 91.9432 92.3446 93.5756C92.7561 93.9939 93.1098 94.3544 93.188 94.4735C93.637 95.1537 96.5889 96.8235 97.1637 97.1534L97.2351 97.1806C97.8133 97.3438 101.364 98.3097 104.18 98.3097C105.649 98.3097 106.917 98.0478 107.462 97.269C108.332 96.0311 110.863 94.0382 112.903 92.4397C114.345 91.3038 115.593 90.3244 116.049 89.7768C116.175 89.6238 116.753 89.0967 117.678 88.2532L120.079 90.6543L101.748 105.662H102.768L120.538 91.11L123.708 94.2796L110.903 105.662H111.873L124.391 94.5347C124.424 94.5048 124.449 94.4685 124.467 94.4281C124.485 94.3877 124.494 94.3441 124.494 94.3C124.494 94.256 124.485 94.2124 124.467 94.172C124.449 94.1316 124.424 94.0953 124.391 94.0654L121.028 90.7019L136.424 78.0913L141.654 82.3017L122.313 99.4932C121.981 99.7893 121.747 100.179 121.64 100.611C121.534 101.043 121.562 101.497 121.719 101.914C121.876 102.33 122.156 102.689 122.521 102.943C122.887 103.197 123.321 103.334 123.766 103.336C124.272 103.335 124.763 103.16 125.156 102.84L145.344 85.2706L145.63 85.5019V84.1688L145.327 84.4306L142.651 82.2779L145.63 79.6286V78.7681L142.144 81.8663L136.934 77.673L145.596 70.5686V69.7523L136.379 77.2751L133.108 74.6394C137.437 70.861 141.899 66.984 145.589 63.7804V62.9267C142.991 65.1815 137.883 69.6197 132.598 74.2313L126.136 69.0314C131.826 63.4267 139.478 55.8393 140.688 54.3599C142.729 51.8636 143.535 44.5925 141.579 41.1168C140.399 39.0184 137.498 38.0968 134.621 37.7499L145.586 27.2071L145.596 26.3297ZM142.124 82.7234L144.793 84.8727L124.701 102.36C124.385 102.626 123.977 102.755 123.566 102.72C123.155 102.684 122.775 102.487 122.509 102.171C122.243 101.856 122.114 101.447 122.149 101.036C122.185 100.625 122.382 100.245 122.698 99.9795L142.124 82.7234ZM102.904 41.9126C103.585 41.0386 104.717 39.7972 106.128 38.3145C106.597 37.8258 107.227 37.5244 107.901 37.4668C108.575 37.4092 109.247 37.5993 109.791 38.0016L123.15 47.8846L112.536 58.0873L98.7723 47.0003C101.068 44.198 102.857 41.9636 102.904 41.9024V41.9126ZM92.882 43.0893L97.8575 47.0956C95.9734 49.3912 93.9158 51.8568 92.1984 53.8532L87.4371 50.1938C89.3008 47.8132 91.1543 45.3713 92.882 43.0893ZM80.0334 44.4769C81.9379 41.9024 84.6178 38.4471 85.5768 37.2126L92.3786 42.6846C90.6476 44.9734 88.7907 47.4153 86.9372 49.7993L80.0334 44.4769ZM77.1018 62.335C79.6763 59.9544 83.339 55.472 87.0528 50.7005L91.7767 54.3429C90.1851 56.1726 88.9505 57.5023 88.5322 57.7438C87.3997 58.3934 78.486 62.8043 74.3403 64.8551C75.3061 63.9912 76.238 63.1444 77.1052 62.335H77.1018ZM77.8874 77.4622C75.7823 76.1324 73.6227 74.8571 71.7658 73.7586C71.0346 73.3267 70.3544 72.9254 69.7491 72.5615C68.9294 72.0684 68.0894 71.5412 67.2528 71.0005C68.8886 69.6129 70.7115 68.0485 72.5106 66.4705C73.1159 66.1712 87.3521 59.1552 88.8349 58.3083C89.3144 58.0329 90.6442 56.6079 92.3072 54.6966H92.3242C92.3736 54.697 92.4224 54.6858 92.4667 54.6639C92.511 54.6421 92.5495 54.6102 92.5793 54.5707C92.6072 54.5345 92.6269 54.4926 92.6369 54.4479C92.6469 54.4033 92.6469 54.357 92.6371 54.3123C94.4124 52.2717 96.5073 49.7381 98.3438 47.5105L112.063 58.5294L105.006 65.3074H104.989L94.0247 78.8021L84.1723 71.0787C84.1066 71.0319 84.0264 71.01 83.946 71.0168C83.8657 71.0237 83.7904 71.0589 83.7336 71.1161L77.8874 77.4622ZM106.894 96.9153C105.775 98.5137 99.7008 97.2282 97.4052 96.5752C96.0992 95.8372 93.9634 94.5347 93.6846 94.1198C93.3995 93.7689 93.0916 93.4372 92.7629 93.1267C91.1951 91.5351 87.9337 88.2192 87.2875 85.6448C86.7671 83.56 82.7779 80.591 78.4452 77.8227L84.009 71.7827L93.8716 79.5401C93.9393 79.5885 94.0224 79.6103 94.1051 79.6016C94.1879 79.5928 94.2645 79.554 94.3205 79.4925L104.996 66.3515L108.336 95.3713C107.807 95.8374 107.325 96.3546 106.897 96.9153H106.894ZM117.392 87.6105C116.328 88.5695 115.648 89.2021 115.498 89.3789C115.086 89.8721 113.797 90.8821 112.437 91.9466C111.247 92.8853 109.971 93.8919 108.907 94.8238L105.567 65.6713L112.566 58.9477L125.17 69.0722C121.939 72.2554 119.457 74.6802 119.389 74.7449C119.34 74.7952 119.308 74.8593 119.297 74.9285L117.392 87.6105ZM132.611 75.0714L135.866 77.6934L120.524 90.2564L118.103 87.8349C121.048 85.189 126.673 80.2577 132.615 75.0714H132.611ZM132.101 74.6598C126.745 79.3361 121.283 84.1245 118.157 86.9337L119.926 75.1394C120.433 74.6428 122.759 72.3676 125.687 69.4871L132.101 74.6598ZM125.639 68.6233L113.056 58.4852L123.691 48.2825L136.546 57.805C133.485 60.8692 129.173 65.1407 125.633 68.6233H125.639ZM141.028 41.4161C142.841 44.6469 142.083 51.6358 140.199 53.9382C139.791 54.4381 138.604 55.6794 136.988 57.3187L124.146 47.7962L134.033 38.3247C137.019 38.6273 139.947 39.5218 141.022 41.4297L141.028 41.4161Z" fill="white"/>
<path d="M142.453 95.3611H91.2325V104.193H142.453V95.3611Z" fill="white"/>
<path d="M98.0547 99.5782H94.6844V103.431H98.0547V99.5782Z" fill="#407BFF"/>
<path d="M102.711 99.4966H99.3403V103.431H102.711V99.4966Z" fill="#407BFF"/>
<path d="M107.366 98.6158H103.996V103.431H107.366V98.6158Z" fill="#407BFF"/>
<path d="M112.022 100.864H108.652V103.431H112.022V100.864Z" fill="#407BFF"/>
<path d="M116.678 98.2927H113.308V103.431H116.678V98.2927Z" fill="#407BFF"/>
<path d="M121.337 99.8197H117.967V103.431H121.337V99.8197Z" fill="#407BFF"/>
<path d="M125.993 101.503H122.623V103.431H125.993V101.503Z" fill="#407BFF"/>
<path d="M130.652 100.541H127.279V103.431H130.652V100.541Z" fill="#407BFF"/>
<path d="M135.305 101.343H131.934V103.431H135.305V101.343Z" fill="#407BFF"/>
<path d="M139.964 98.2927H136.594V103.431H139.964V98.2927Z" fill="#407BFF"/>
<path d="M54.6355 105.676H77.4215C75.8605 104.928 73.5139 103.751 73.2282 103.326C72.7997 102.683 70.4395 98.6022 69.1471 98.3879C67.8548 98.1736 67.4297 99.6768 67.4297 99.6768L70.2184 104.186L69.1471 103.54C69.1471 103.54 66.5692 100.748 65.9265 100.32C65.2837 99.8911 65.9265 98.1736 66.1407 96.8847C66.355 95.5958 67.8412 94.7387 68.2867 93.6641C68.7322 92.5894 68.2867 89.3687 68.2867 88.2974C68.2867 87.2262 66.355 84.0021 65.066 81.4242C63.7771 78.8463 59.4852 73.9116 57.1215 72.837C56.3235 72.5087 55.4831 72.2946 54.6253 72.201L54.6355 105.676Z" fill="#CCCCCC"/>
<path d="M108.234 41.916L104.799 46.2114L109.094 51.7956L117.039 47.7145L108.234 41.916Z" fill="#CCCCCC"/>
<path d="M112.529 61.2433L107.591 65.9671L109.523 76.4861L114.889 77.9893L116.61 73.4797L121.762 68.5416L112.529 61.2433Z" fill="#CCCCCC"/>
<path d="M55.7782 16.3583H144.202C144.384 16.3578 144.566 16.3935 144.735 16.4632C144.904 16.5329 145.058 16.6353 145.187 16.7645C145.317 16.8937 145.42 17.0472 145.49 17.2162C145.56 17.3851 145.596 17.5663 145.596 17.7492V105.676H54.3872V17.7492C54.3872 17.5666 54.4232 17.3857 54.4931 17.2169C54.563 17.0482 54.6654 16.8948 54.7946 16.7657C54.9238 16.6365 55.0771 16.5341 55.2459 16.4642C55.4146 16.3943 55.5955 16.3583 55.7782 16.3583Z" stroke="#263238" stroke-linecap="round" stroke-linejoin="round"/>
<path d="M55.7782 16.3583H144.202C144.384 16.3578 144.566 16.3935 144.735 16.4632C144.904 16.5329 145.058 16.6353 145.187 16.7645C145.317 16.8937 145.42 17.0472 145.49 17.2162C145.56 17.3851 145.596 17.5663 145.596 17.7492V33.5328H54.3872V17.7492C54.3872 17.5666 54.4232 17.3857 54.4931 17.2169C54.563 17.0482 54.6654 16.8948 54.7946 16.7657C54.9238 16.6365 55.0771 16.5341 55.2459 16.4642C55.4146 16.3943 55.5955 16.3583 55.7782 16.3583Z" fill="#407BFF" stroke="#263238" stroke-linecap="round" stroke-linejoin="round"/>
<path d="M132.281 27.1017H60.3524V30.1081H132.281V27.1017Z" fill="white" stroke="#263238" stroke-linecap="round" stroke-linejoin="round"/>
<path d="M144.27 16.3583H60.2946V24.0919H145.596V17.6744C145.595 17.5009 145.561 17.3291 145.494 17.1689C145.427 17.0088 145.329 16.8634 145.206 16.7412C145.083 16.6189 144.936 16.5222 144.776 16.4565C144.615 16.3908 144.443 16.3574 144.27 16.3583Z" fill="#808080" stroke="#263238" stroke-linecap="round" stroke-linejoin="round"/>
<path d="M55.7782 16.3583H144.202C144.384 16.3578 144.566 16.3935 144.735 16.4632C144.904 16.5329 145.058 16.6353 145.187 16.7645C145.317 16.8937 145.42 17.0472 145.49 17.2162C145.56 17.3851 145.596 17.5663 145.596 17.7492V21.3882H54.3872V17.7492C54.3872 17.5666 54.4232 17.3857 54.4931 17.2169C54.563 17.0482 54.6654 16.8948 54.7946 16.7657C54.9238 16.6365 55.0771 16.5341 55.2459 16.4642C55.4146 16.3943 55.5955 16.3583 55.7782 16.3583Z" fill="#263238" stroke="#263238" stroke-linecap="round" stroke-linejoin="round"/>
<path d="M141.841 19.6469C142.221 19.6469 142.528 19.3393 142.528 18.9599C142.528 18.5805 142.221 18.2729 141.841 18.2729C141.462 18.2729 141.154 18.5805 141.154 18.9599C141.154 19.3393 141.462 19.6469 141.841 19.6469Z" fill="white"/>
<path d="M139.005 19.6469C139.384 19.6469 139.692 19.3393 139.692 18.9599C139.692 18.5805 139.384 18.2729 139.005 18.2729C138.626 18.2729 138.318 18.5805 138.318 18.9599C138.318 19.3393 138.626 19.6469 139.005 19.6469Z" fill="white"/>
<path d="M136.169 19.6469C136.548 19.6469 136.856 19.3393 136.856 18.9599C136.856 18.5805 136.548 18.2729 136.169 18.2729C135.789 18.2729 135.482 18.5805 135.482 18.9599C135.482 19.3393 135.789 19.6469 136.169 19.6469Z" fill="white"/>
<path d="M121.756 46.9664H110.431C110.22 46.966 110.01 47.0072 109.815 47.0876C109.62 47.1681 109.443 47.2863 109.293 47.4354C109.144 47.5845 109.025 47.7616 108.944 47.9566C108.864 48.1516 108.822 48.3606 108.822 48.5717V59.2097C108.822 59.4208 108.864 59.6298 108.944 59.8247C109.025 60.0197 109.144 60.1968 109.293 60.3459C109.443 60.495 109.62 60.6132 109.815 60.6937C110.01 60.7741 110.22 60.8153 110.431 60.8149H113.78L116.243 65.6714L118.504 60.8251H121.756C122.181 60.8251 122.59 60.656 122.891 60.3549C123.192 60.0539 123.361 59.6456 123.361 59.2199V48.5717C123.361 48.1459 123.192 47.7376 122.891 47.4366C122.59 47.1356 122.181 46.9664 121.756 46.9664Z" fill="#263238" stroke="#263238" stroke-linecap="round" stroke-linejoin="round"/>
<path d="M113.968 52.1323L114.359 49.5306H115.161V53.1968H114.617V50.5679L114.219 53.1968H113.675L113.243 50.6053V53.1968H112.743V49.5306H113.542L113.968 52.1323Z" fill="#92E3A9"/>
<path d="M115.518 50.4115C115.518 50.1797 115.61 49.9574 115.774 49.7935C115.938 49.6296 116.161 49.5375 116.392 49.5375C116.624 49.5375 116.846 49.6296 117.01 49.7935C117.174 49.9574 117.266 50.1797 117.266 50.4115V52.316C117.266 52.5478 117.174 52.7701 117.01 52.934C116.846 53.098 116.624 53.19 116.392 53.19C116.161 53.19 115.938 53.098 115.774 52.934C115.61 52.7701 115.518 52.5478 115.518 52.316V50.4115ZM116.093 52.3534C116.093 52.6153 116.209 52.7139 116.392 52.7139C116.576 52.7139 116.688 52.6153 116.688 52.3534V50.3673C116.688 50.1054 116.573 50.0068 116.392 50.0068C116.212 50.0068 116.093 50.1054 116.093 50.3673V52.3534Z" fill="#92E3A9"/>
<path d="M118.151 50.5407V53.1968H117.634V49.5306H118.355L118.946 51.7242V49.5306H119.46V53.1968H118.868L118.151 50.5407Z" fill="#92E3A9"/>
<path d="M115.069 55.0333C114.886 55.0333 114.774 55.132 114.774 55.3938V55.7849H114.226V55.4448C114.226 54.8565 114.522 54.5232 115.086 54.5232C115.651 54.5232 115.943 54.8633 115.943 55.4448C115.943 56.5943 114.797 57.0263 114.797 57.6282C114.794 57.6542 114.794 57.6805 114.797 57.7064H115.886V58.2302H114.219V57.7778C114.219 56.6998 115.362 56.5229 115.362 55.4652C115.369 55.1286 115.253 55.0333 115.069 55.0333Z" fill="#92E3A9"/>
<path d="M117.144 55.0333C116.96 55.0333 116.845 55.132 116.845 55.3938V55.7849H116.301V55.4448C116.301 54.8565 116.596 54.5232 117.161 54.5232C117.726 54.5232 118.018 54.8633 118.018 55.4448C118.018 56.5943 116.872 57.0263 116.872 57.6282C116.869 57.6542 116.869 57.6805 116.872 57.7064H117.96V58.2302H116.294V57.7778C116.294 56.6998 117.436 56.5229 117.436 55.4652C117.443 55.1286 117.328 55.0333 117.144 55.0333Z" fill="#92E3A9"/>
<path d="M116.093 69.256C116.786 69.256 117.348 68.6941 117.348 68.001C117.348 67.3079 116.786 66.7461 116.093 66.7461C115.4 66.7461 114.838 67.3079 114.838 68.001C114.838 68.6941 115.4 69.256 116.093 69.256Z" fill="#92E3A9" stroke="#263238" stroke-linecap="round" stroke-linejoin="round"/>
<path d="M77.3637 37.852C78.0567 37.852 78.6186 37.2902 78.6186 36.5971C78.6186 35.904 78.0567 35.3422 77.3637 35.3422C76.6706 35.3422 76.1087 35.904 76.1087 36.5971C76.1087 37.2902 76.6706 37.852 77.3637 37.852Z" fill="#92E3A9" stroke="#263238" stroke-linecap="round" stroke-linejoin="round"/>
<path d="M95.1572 67.5827C95.1565 67.8307 95.0823 68.073 94.944 68.2789C94.8057 68.4849 94.6095 68.6452 94.3801 68.7396C94.1508 68.8341 93.8985 68.8585 93.6553 68.8097C93.4121 68.7609 93.1888 68.6411 93.0137 68.4654C92.8385 68.2898 92.7193 68.0662 92.6712 67.8229C92.623 67.5795 92.6481 67.3274 92.7432 67.0983C92.8382 66.8691 92.9991 66.6733 93.2054 66.5356C93.4117 66.3979 93.6542 66.3243 93.9022 66.3243C94.0673 66.3243 94.2308 66.3569 94.3833 66.4202C94.5357 66.4835 94.6742 66.5762 94.7908 66.6931C94.9074 66.81 94.9998 66.9487 95.0626 67.1014C95.1255 67.254 95.1576 67.4176 95.1572 67.5827Z" fill="#92E3A9" stroke="#263238" stroke-linecap="round" stroke-linejoin="round"/>
<path d="M67.2426 59.3797C67.9357 59.3797 68.4975 58.8179 68.4975 58.1248C68.4975 57.4317 67.9357 56.8699 67.2426 56.8699C66.5495 56.8699 65.9877 57.4317 65.9877 58.1248C65.9877 58.8179 66.5495 59.3797 67.2426 59.3797Z" fill="#92E3A9" stroke="#263238" stroke-linecap="round" stroke-linejoin="round"/>
<path d="M72.4494 89.7123C72.4494 89.9612 72.3756 90.2045 72.2373 90.4114C72.099 90.6183 71.9025 90.7796 71.6726 90.8749C71.4427 90.9701 71.1896 90.995 70.9456 90.9465C70.7015 90.8979 70.4772 90.7781 70.3013 90.6021C70.1253 90.4261 70.0054 90.2019 69.9569 89.9578C69.9083 89.7137 69.9333 89.4607 70.0285 89.2308C70.1237 89.0008 70.285 88.8043 70.4919 88.666C70.6989 88.5278 70.9422 88.454 71.191 88.454C71.5248 88.454 71.8448 88.5866 72.0808 88.8225C72.3168 89.0585 72.4494 89.3786 72.4494 89.7123Z" fill="#92E3A9" stroke="#263238" stroke-linecap="round" stroke-linejoin="round"/>
<path d="M130.629 88.8893C131.322 88.8893 131.883 88.3275 131.883 87.6344C131.883 86.9413 131.322 86.3795 130.629 86.3795C129.935 86.3795 129.374 86.9413 129.374 87.6344C129.374 88.3275 129.935 88.8893 130.629 88.8893Z" fill="#92E3A9" stroke="#263238" stroke-linecap="round" stroke-linejoin="round"/>
<path d="M137.06 50.2347C137.753 50.2347 138.315 49.6729 138.315 48.9798C138.315 48.2867 137.753 47.7249 137.06 47.7249C136.367 47.7249 135.805 48.2867 135.805 48.9798C135.805 49.6729 136.367 50.2347 137.06 50.2347Z" fill="#92E3A9" stroke="#263238" stroke-linecap="round" stroke-linejoin="round"/>
<path d="M130.329 38.0628C131.022 38.0628 131.584 37.501 131.584 36.8079C131.584 36.1148 131.022 35.553 130.329 35.553C129.636 35.553 129.074 36.1148 129.074 36.8079C129.074 37.501 129.636 38.0628 130.329 38.0628Z" fill="#92E3A9" stroke="#263238" stroke-linecap="round" stroke-linejoin="round"/>
<path d="M133.754 69.3376C133.754 69.5866 133.68 69.83 133.542 70.037C133.403 70.244 133.207 70.4053 132.976 70.5004C132.746 70.5956 132.493 70.6203 132.249 70.5715C132.005 70.5226 131.781 70.4024 131.605 70.2261C131.429 70.0498 131.309 69.8253 131.261 69.581C131.213 69.3366 131.238 69.0835 131.334 68.8537C131.43 68.6238 131.592 68.4275 131.799 68.2896C132.006 68.1518 132.25 68.0786 132.499 68.0792C132.664 68.0792 132.828 68.1118 132.98 68.1751C133.133 68.2384 133.271 68.3311 133.388 68.448C133.504 68.5649 133.597 68.7036 133.659 68.8563C133.722 69.0089 133.754 69.1725 133.754 69.3376Z" fill="#92E3A9" stroke="#263238" stroke-linecap="round" stroke-linejoin="round"/>
<path d="M99.1362 57.5331C99.8293 57.5331 100.391 56.9712 100.391 56.2781C100.391 55.585 99.8293 55.0232 99.1362 55.0232C98.4431 55.0232 97.8813 55.585 97.8813 56.2781C97.8813 56.9712 98.4431 57.5331 99.1362 57.5331Z" fill="#92E3A9" stroke="#263238" stroke-linecap="round" stroke-linejoin="round"/>
<path d="M26.7345 111.243C26.7345 111.243 27.4997 119.746 27.7548 121.531C28.0098 123.317 26.9046 124.422 25.7993 125.612C24.694 126.803 24.2689 129.268 24.2689 131.139C24.2689 133.009 24.0138 142.362 24.0138 142.957C24.0138 143.552 23.8438 144.997 23.8438 144.997C23.8438 144.997 26.5645 144.912 26.9046 144.912C27.2446 144.912 28.52 140.066 28.8601 138.706C29.2002 137.345 31.8359 128.758 32.8561 126.377C33.8764 123.997 33.8764 122.211 34.3015 121.276C34.7266 120.341 35.2368 112.689 35.2368 112.689C35.2368 112.689 39.828 120.766 39.998 121.871C40.1681 122.977 40.2531 123.232 39.828 124.167C39.4029 125.102 38.4676 126.803 38.5526 130.458C38.6377 134.114 40.6442 140.583 40.6442 140.583L40.8992 144.579C40.8992 144.579 42.4297 145.174 43.1949 145.514C43.9601 145.854 45.1504 144.069 45.1504 144.069C45.1504 144.069 45.0994 141.086 45.0143 138.876C44.9293 136.665 45.5245 128.673 45.8646 127.313C46.2047 125.952 46.7148 122.977 46.3747 121.106C46.0346 119.236 44.9293 110.648 44.9293 110.648C44.9293 110.648 32.0059 111.413 30.3905 111.158C28.7751 110.903 26.6495 110.818 26.6495 110.818L26.7345 111.243Z" fill="#263238" stroke="#263238" stroke-linecap="round" stroke-linejoin="round"/>
<path d="M28.435 142.107L28.9451 144.742C28.9451 144.742 31.0707 146.528 31.9209 147.208C32.7711 147.888 33.2813 147.718 33.2813 148.313C33.2813 148.908 32.6861 149.844 31.2407 150.099C29.7953 150.354 27.8398 150.014 26.2244 149.503C25.3055 149.236 24.4857 148.704 23.8676 147.973C23.8676 147.973 22.9765 148.181 22.9765 147.16C22.9765 146.14 23.7111 143.827 23.7111 143.827C23.7111 143.827 23.371 142.562 23.7111 142.392C24.0512 142.222 25.2041 143.467 25.2041 143.467C25.2041 143.467 25.3742 140.491 28.435 142.107Z" fill="white" stroke="#263238" stroke-linecap="round" stroke-linejoin="round"/>
<path d="M33.2371 148.606C33.0624 148.553 32.8748 148.562 32.7065 148.633C31.7758 149.158 30.7295 149.444 29.6611 149.465C28.5928 149.487 27.5358 149.243 26.5849 148.755C24.5818 147.796 23.5581 146.834 23.0786 146.269C23.0171 146.566 22.9818 146.868 22.9731 147.17C22.9731 148.191 23.8642 147.983 23.8642 147.983C24.4846 148.711 25.3055 149.239 26.2244 149.503C27.8398 150.014 29.7953 150.354 31.2407 150.099C32.465 149.881 33.0772 149.177 33.2371 148.606Z" fill="#D2F4DC" stroke="#263238" stroke-linecap="round" stroke-linejoin="round"/>
<path d="M45.8952 142.028C45.6492 141.982 45.3948 142.018 45.1711 142.13C44.9475 142.243 44.767 142.426 44.6573 142.651C44.2764 143.45 43.8955 144.518 43.8955 144.518C43.2532 144.459 42.6172 144.345 41.9944 144.178C41.706 144.016 41.4482 143.806 41.2326 143.555C41.2326 143.555 40.4708 142.045 39.9946 142.579C39.5185 143.113 40.4708 144.888 40.4708 144.888C40.4708 144.888 39.709 146.31 39.709 147.201C39.7305 147.811 39.8595 148.412 40.0899 148.976C40.9957 149.183 41.9193 149.303 42.848 149.333C44.0859 149.333 44.1811 148.976 45.5143 148.976C46.8474 148.976 50.2755 149.776 51.4148 149.51C52.5541 149.245 53.605 148.442 53.5098 147.912C53.4146 147.381 49.5103 146.045 48.2724 145.246C47.0345 144.446 46.8474 144.535 46.657 144.178C46.4665 143.821 45.8952 142.028 45.8952 142.028Z" fill="white" stroke="#263238" stroke-linecap="round" stroke-linejoin="round"/>
<path d="M53.5132 147.973C52.2005 149.299 50.4524 149.095 48.9696 148.796C47.1459 148.381 45.2737 148.218 43.4057 148.313C42.2177 148.381 41.0259 148.342 39.845 148.194C39.9074 148.454 39.9893 148.709 40.0899 148.956C40.9957 149.163 41.9193 149.282 42.848 149.313C44.0859 149.313 44.1811 148.956 45.5143 148.956C46.8474 148.956 50.2756 149.755 51.4149 149.49C52.4997 149.238 53.4962 148.507 53.5132 147.973Z" fill="#407BFF" stroke="#263238" stroke-linecap="round" stroke-linejoin="round"/>
<path d="M24.779 108.183L24.5239 111.978C24.5239 111.978 30.9006 113.423 36.172 113.274C41.4434 113.124 47.0549 110.914 47.0549 110.914L45.9496 106.955C45.9496 106.955 34.3015 106.88 32.0059 106.727C29.7103 106.574 28.2649 104.976 27.4147 105.203C26.5645 105.431 25.5442 108.098 25.5442 108.098L24.779 108.183Z" fill="white" stroke="#263238" stroke-linecap="round" stroke-linejoin="round"/>
<path d="M45.9496 104.187L46.7148 108.098C46.7148 108.098 45.0994 109.033 40.1681 109.458C35.2368 109.883 28.9451 109.288 28.9451 109.288L27.7548 106.737L27.3297 109.713H24.864C24.626 109.719 24.3909 109.66 24.1838 109.543L24.949 106.397C24.949 106.397 25.2891 103.251 26.9046 102.486C28.52 101.721 29.8803 102.571 30.9856 103.591C32.0909 104.612 33.3663 104.442 35.1517 104.442C36.9372 104.442 44.5042 103.676 44.5042 103.676C44.5042 103.676 45.7795 103.251 45.9496 104.187Z" fill="#969696" stroke="#263238" stroke-linecap="round" stroke-linejoin="round"/>
<path d="M43.3989 75.2789C43.3989 75.2789 46.4597 83.101 47.7351 85.9067C49.0104 88.7125 50.2007 91.9433 50.0307 93.7288C49.8606 95.5143 47.7351 100.19 47.7351 100.19C47.7351 100.19 45.6945 86.7569 45.2694 85.3966C44.8443 84.0362 42.8888 76.4692 42.8888 76.4692C42.8888 76.4692 42.0386 74.8538 43.3989 75.2789Z" fill="#407BFF" stroke="#263238" stroke-linecap="round" stroke-linejoin="round"/>
<path d="M26.7039 72.3133C26.7039 72.3133 24.9184 74.1668 24.3675 76.4318C23.8166 78.6968 23.4084 106.975 23.4084 107.455C23.4084 107.934 25.449 106.836 25.8775 106.632C26.306 106.428 28.0065 103.2 28.0065 103.2L28.8295 106.492C28.8295 106.492 32.6045 106.081 35.7639 106.081C38.9233 106.081 47.2249 105.326 47.2249 105.326C47.2249 105.326 47.9799 100.728 47.9051 98.2554C47.8303 95.7829 47.31 91.8753 47.31 91.2563C47.31 90.6374 44.7015 77.5983 43.7424 75.6768C42.7834 73.7553 41.5454 72.0379 41.338 71.9018C41.1305 71.7658 38.6615 70.3204 36.3285 70.2014C33.9954 70.0824 32.4174 69.4464 30.3565 70.4088C28.2955 71.3713 26.7039 72.3133 26.7039 72.3133Z" fill="#407BFF" stroke="#263238" stroke-linecap="round" stroke-linejoin="round"/>
<path d="M40.0864 80.7543C40.0864 80.7543 41.2529 87.4813 41.5964 89.7463C41.9399 92.0113 42.6949 100.864 42.6949 102.17V105.258" stroke="#263238" stroke-linecap="round" stroke-linejoin="round"/>
<path d="M38.0289 83.6383C38.0289 83.6383 39.3314 90.3653 40.0184 94.4124C40.7054 98.4594 40.5082 104.227 40.5082 104.227" stroke="#263238" stroke-linecap="round" stroke-linejoin="round"/>
<path d="M30.615 84.1859L36.5189 83.6383L36.723 84.9409L31.0265 85.4204" stroke="#263238" stroke-linecap="round" stroke-linejoin="round"/>
<path d="M45.3714 82.8119L41.9399 83.0874L42.2154 84.2539L45.2354 83.9818" stroke="#263238" stroke-linecap="round" stroke-linejoin="round"/>
<path d="M35.4884 66.1339C35.4884 66.1339 32.329 65.5183 31.37 65.9298C30.4109 66.3413 29.5165 67.9874 29.241 68.5383C28.9655 69.0892 26.085 70.2387 25.8775 71.0754C25.6701 71.912 25.8095 73.2723 26.153 73.6158C26.4965 73.9593 28.486 73.8233 28.9689 73.9559C29.4519 74.0886 35.9 78.3499 36.9984 79.0369C38.0969 79.7238 40.0184 80.6829 40.2939 80.3972C40.5694 80.1115 42.2834 75.874 42.5487 73.8913C42.814 71.9086 42.4773 71.4189 41.5863 69.7728C40.6952 68.1268 37.1345 66.3515 35.4884 66.1339Z" fill="#263238" stroke="#263238" stroke-linecap="round" stroke-linejoin="round"/>
<path d="M34.526 60.7129C34.526 60.7129 35.0089 63.7328 35.0089 64.5559C35.0089 65.3789 33.7064 69.2933 33.7064 69.2933C33.7064 69.2933 36.3148 74.9218 37.7568 76.4998C39.1988 78.0778 39.8858 78.4213 39.8858 78.4213C39.8858 78.4213 40.0898 75.1939 40.2973 73.6839C40.5048 72.1739 42.6779 67.7595 42.6779 67.7595C42.6779 67.7595 39.4097 68.2628 38.9982 66.1339C38.5866 64.0049 38.7227 62.1548 38.318 61.0563C37.9133 59.9578 35.3524 60.2299 34.526 60.7129Z" fill="white" stroke="#263238" stroke-linecap="round" stroke-linejoin="round"/>
<path d="M39.1648 66.7495L37.597 66.457L37.7262 67.8174C37.7262 67.8174 38.6921 70.3307 40.498 71.6196C40.5922 71.6868 40.6898 71.7493 40.7904 71.8066C41.1645 70.7252 42.6677 67.7664 42.6677 67.7664C42.6677 67.7664 39.828 68.5486 39.1648 66.7495Z" fill="#263238" stroke="#263238" stroke-linecap="round" stroke-linejoin="round"/>
<path d="M44.6879 59.8695L44.579 61.7536C44.579 61.7536 46.2795 62.9847 46.4495 63.5798C46.6196 64.175 45.6265 64.9402 45.6265 64.9402C45.6265 64.9402 45.4735 68.1915 45.1912 68.7016C44.9089 69.2117 43.4907 69.2525 42.7085 69.2593C41.9263 69.2661 38.0459 68.1507 37.3759 67.5589C36.7059 66.9671 35.8965 64.8382 35.8965 64.8382C35.8965 64.8382 35.0395 61.8012 34.9069 61.3386C34.7742 60.8761 35.247 60.2436 37.2875 59.6008C39.328 58.958 44.7967 58.9852 44.6879 59.8695Z" fill="white" stroke="#263238" stroke-linecap="round" stroke-linejoin="round"/>
<path d="M35.5156 62.0834C35.5156 62.0834 35.985 63.1309 36.876 62.4711C37.4355 61.9826 37.8091 61.3158 37.9337 60.5836L32.7371 61.9916C32.7371 61.9916 32.3324 64.107 33.1486 65.1136C33.9648 66.1203 35.1551 65.5489 35.0871 64.6851C35.0191 63.8213 35.5156 62.0834 35.5156 62.0834Z" fill="#263238" stroke="#263238" stroke-linecap="round" stroke-linejoin="round"/>
<path d="M44.2083 66.0114C44.2083 66.0114 43.0758 66.0455 42.4093 65.4469" stroke="#263238" stroke-linecap="round" stroke-linejoin="round"/>
<path d="M42.9772 61.8862C43.0656 62.1956 43.018 62.4813 42.8718 62.5221C42.7255 62.5629 42.5317 62.3453 42.4467 62.0358C42.3617 61.7263 42.4093 61.4406 42.5555 61.3998C42.7017 61.359 42.8888 61.5903 42.9772 61.8862Z" fill="#263238"/>
<path d="M32.6521 62.199C32.6521 62.199 35.7129 61.6889 39.4165 60.6448C43.1201 59.6008 44.7287 59.0022 44.7287 59.0022L43.0758 53.7852C42.8768 53.3285 42.5123 52.964 42.0556 52.765C40.9979 52.2888 38.8009 52.3977 37.2195 52.6425C34.9647 52.9826 33.22 53.6322 32.3188 55.2408C31.623 56.5541 31.4435 58.0802 31.8155 59.5191C32.0637 60.366 32.6521 62.199 32.6521 62.199Z" fill="#263238" stroke="#263238" stroke-linecap="round" stroke-linejoin="round"/>
<path d="M38.1615 60.9985C38.1615 60.9985 43.7832 60.6958 45.9326 60.2333C48.0819 59.7708 49.8538 57.1997 49.8538 57.1997L44.7049 57.8799C42.2516 58.2108 39.9636 59.3013 38.1615 60.9985Z" fill="#263238" stroke="#263238" stroke-linecap="round" stroke-linejoin="round"/>
<path d="M36.0258 62.5289C36.0258 62.5289 35.5496 61.0938 34.3253 61.5801C33.101 62.0664 33.7778 64.447 34.6892 65.3993C35.6007 66.3515 36.7298 65.0388 36.7298 65.0388" fill="white"/>
<path d="M36.0258 62.5289C36.0258 62.5289 35.5496 61.0938 34.3253 61.5801C33.101 62.0664 33.7778 64.447 34.6892 65.3993C35.6007 66.3515 36.7298 65.0388 36.7298 65.0388" stroke="#263238" stroke-linecap="round" stroke-linejoin="round"/>
<path d="M42.008 91.5182L47.9901 87.046C48.0305 87.0169 48.0801 87.0036 48.1296 87.0086L52.3229 87.4099C52.3738 87.4153 52.4216 87.4365 52.4598 87.4705C52.4981 87.5045 52.5246 87.5496 52.5359 87.5995C52.5472 87.6494 52.5425 87.7016 52.5226 87.7487C52.5027 87.7958 52.4685 87.8355 52.4249 87.8622L47.0923 91.0488L42.008 91.5182Z" fill="#263238" stroke="#263238" stroke-linecap="round" stroke-linejoin="round"/>
<path d="M38.301 91.8038C38.8867 91.7498 39.4403 91.5117 39.8824 91.1237C40.4979 90.5047 41.5828 88.6512 42.076 88.5152C43.2079 88.264 44.3538 88.08 45.5075 87.9642C45.9904 87.9642 46.2625 88.3043 45.8475 88.7192C45.4326 89.1341 43.5145 90.0252 43.5145 90.0252L43.3105 90.7054C43.3105 90.7054 48.5241 90.0898 48.939 90.0898C49.1154 90.1017 49.2816 90.1772 49.4066 90.3023C49.5317 90.4274 49.6072 90.5935 49.6191 90.77C49.6191 91.042 48.5207 91.8685 48.1806 92.2086C47.3292 92.9275 46.4342 93.5931 45.5007 94.2015C45.0211 94.4736 40.0796 94.0621 39.8756 94.0621C39.6715 94.0621 38.2261 94.4021 38.2261 94.4021L38.301 91.8038Z" fill="white" stroke="#263238" stroke-linecap="round" stroke-linejoin="round"/>
<path d="M49.0104 91.3923C49.0104 91.3923 46.8134 91.8753 46.3339 92.1473C45.8544 92.4194 44.2049 92.1473 44.2049 92.1473" stroke="#263238" stroke-linecap="round" stroke-linejoin="round"/>
<path d="M47.429 92.7663L45.919 93.2458L44.341 93.3138" stroke="#263238" stroke-linecap="round" stroke-linejoin="round"/>
<path d="M30.4789 78.7648C30.5469 79.9993 29.0369 87.4813 29.0369 87.4813L29.377 88.5798V88.8553L38.9165 91.4603C38.9165 91.4603 38.9165 94.0688 38.505 95.2353C38.1828 96.2934 37.9306 97.3716 37.75 98.4628C37.75 98.4628 33.5635 97.4425 30.132 96.2658C26.7005 95.0891 21.3441 93.3853 20.317 92.2153C19.29 91.0454 19.9055 88.1003 20.0416 87.6173C20.1776 87.1344 24.0206 77.0473 24.7756 75.6768C25.5306 74.3062 26.6291 73.0003 28.0711 73.4118C29.5131 73.8233 30.6115 75.6768 30.7476 76.4998" fill="#407BFF"/>
<path d="M30.4789 78.7648C30.5469 79.9993 29.0369 87.4813 29.0369 87.4813L29.377 88.5798V88.8553L38.9165 91.4603C38.9165 91.4603 38.9165 94.0688 38.505 95.2353C38.1828 96.2934 37.9306 97.3716 37.75 98.4628C37.75 98.4628 33.5635 97.4425 30.132 96.2658C26.7005 95.0891 21.3441 93.3853 20.317 92.2153C19.29 91.0454 19.9055 88.1003 20.0416 87.6173C20.1776 87.1344 24.0206 77.0473 24.7756 75.6768C25.5306 74.3062 26.6291 73.0003 28.0711 73.4118C29.5131 73.8233 30.6115 75.6768 30.7476 76.4998" stroke="#263238" stroke-linecap="round" stroke-linejoin="round"/>
<path d="M24.2417 89.0899C24.7649 88.7801 25.3146 88.5172 25.8843 88.3043C26.5033 88.1683 28.9043 88.7158 28.9043 88.7158" stroke="#263238" stroke-linecap="round" stroke-linejoin="round"/>
<path d="M22.2419 90.2259C22.2419 90.2259 22.8201 89.8858 23.5241 89.4879" stroke="#263238" stroke-linecap="round" stroke-linejoin="round"/>
<path d="M26.5271 86.7943C26.1901 86.6342 25.8333 86.5198 25.466 86.4542C24.9865 86.4542 22.8575 87.4745 22.8575 87.4745" stroke="#263238" stroke-linecap="round" stroke-linejoin="round"/>
<path d="M28.35 87.6173C28.35 87.6173 27.9555 87.4269 27.4521 87.199" stroke="#263238" stroke-linecap="round" stroke-linejoin="round"/>
</svg>
